<?xml version="1.0" encoding="utf-8" standalone="no"?>
<!DOCTYPE svg PUBLIC "-//W3C//DTD SVG 1.1//EN"
  "http://www.w3.org/Graphics/SVG/1.1/DTD/svg11.dtd">
<!-- Created with matplotlib (http://matplotlib.org/) -->
<svg height="432pt" version="1.1" viewBox="0 0 576 432" width="576pt" xmlns="http://www.w3.org/2000/svg" xmlns:xlink="http://www.w3.org/1999/xlink">
 <defs>
  <style type="text/css">
*{stroke-linecap:butt;stroke-linejoin:round;}
  </style>
 </defs>
 <g id="figure_1">
  <g id="patch_1">
   <path d="
M0 432
L576 432
L576 0
L0 0
z
" style="fill:#ffffff;"/>
  </g>
  <g id="axes_1">
   <g id="patch_2">
    <path d="
M72 388.8
L518.4 388.8
L518.4 43.2
L72 43.2
z
" style="fill:#ffffff;"/>
   </g>
   <g id="line2d_1">
    <path clip-path="url(#p7ff5b81e1d)" d="
M72.2232 97.3587
L72.4464 194.312
L72.6696 225.975
L72.8928 84.9838
L73.116 112.212
L73.3392 185.084
L73.5624 214.173
L73.7856 97.1294
L74.0088 123.873
L74.232 177.631
L74.4552 204.326
L74.6784 106.917
L75.348 196.199
L75.5712 114.806
L76.2408 189.537
L76.464 121.174
L77.1336 184.103
L77.3568 126.326
L77.58 150.079
L77.8032 160.406
L78.0264 179.683
L78.2496 130.509
L78.4728 153.49
L78.696 158.184
L78.9192 176.096
L79.1424 133.915
L79.3656 156.159
L79.5888 156.481
L79.812 173.189
L80.0352 136.7
L80.2584 158.248
L80.4816 155.186
L80.7048 170.834
L80.928 138.986
L81.1512 159.882
L81.3744 154.213
L81.5976 168.929
L81.8208 140.87
L82.044 161.16
L82.2672 153.49
L82.4904 167.389
L82.7136 142.431
L82.9368 162.161
L83.16 152.961
L83.3832 166.147
L83.6064 143.728
L83.8296 162.944
L84.0528 152.582
L84.276 165.146
L84.4992 144.813
L84.7224 163.556
L84.9456 152.317
L85.1688 164.342
L85.392 145.724
L85.6152 164.036
L85.8384 152.137
L86.0616 163.699
L86.2848 146.493
L86.508 164.413
L86.7312 152.022
L86.9544 163.187
L87.1776 147.145
L87.4008 164.71
L87.624 151.952
L87.8472 162.783
L88.0704 147.701
L88.2936 164.945
L88.5168 151.916
L88.74 162.468
L88.9632 148.177
L89.1864 165.132
L89.4096 151.902
L89.6328 162.227
L89.856 148.588
L90.0792 165.284
L90.3024 151.902
L90.5256 162.046
L90.7488 148.943
L90.972 165.408
L91.1952 151.91
L91.4184 161.915
L91.6416 149.253
L91.8648 165.512
L92.088 151.921
L92.3112 161.827
L92.5344 149.523
L92.7576 165.602
L92.9808 151.931
L93.204 161.773
L93.4272 149.761
L93.6504 165.681
L93.8736 151.937
L94.0968 161.75
L94.32 149.971
L94.5432 165.752
L94.7664 151.937
L94.9896 161.751
L95.2128 150.157
L95.436 165.82
L95.6592 151.931
L95.8824 161.774
L96.1056 150.323
L96.3288 165.885
L96.552 151.916
L96.7752 161.815
L96.9984 150.471
L97.2216 165.948
L97.4448 151.892
L97.668 161.871
L97.8912 150.604
L98.1144 166.012
L98.3376 151.859
L98.5608 161.941
L98.784 150.724
L99.0072 166.078
L99.2304 151.816
L99.4536 162.023
L99.6768 150.832
L99.9 166.145
L100.123 151.763
L100.346 162.114
L100.57 150.93
L100.793 166.214
L101.016 151.701
L101.239 162.215
L101.462 151.02
L101.686 166.286
L101.909 151.629
L102.132 162.324
L102.355 151.102
L102.578 166.36
L102.802 151.547
L103.025 162.44
L103.248 151.177
L103.471 166.438
L103.694 151.456
L103.918 162.562
L104.141 151.245
L104.364 166.519
L104.587 151.355
L104.81 162.69
L105.034 151.309
L105.257 166.603
L105.48 151.246
L105.703 162.823
L105.926 151.368
L106.15 166.69
L106.373 151.128
L106.596 162.961
L106.819 151.423
L107.042 166.781
L107.266 151.001
L107.489 163.103
L107.712 151.475
L107.935 166.875
L108.158 150.866
L108.382 163.249
L108.605 151.524
L108.828 166.972
L109.051 150.723
L109.274 163.4
L109.498 151.57
L109.721 167.073
L109.944 150.572
L110.167 163.554
L110.39 151.613
L110.614 167.177
L110.837 150.412
L111.06 163.712
L111.283 151.656
L111.506 167.285
L111.73 150.245
L111.953 163.873
L112.176 151.696
L112.399 167.395
L112.622 150.07
L112.846 164.037
L113.069 151.736
L113.292 167.509
L113.515 149.887
L113.738 164.205
L113.962 151.775
L114.185 167.627
L114.408 149.697
L114.631 164.376
L114.854 151.813
L115.078 167.748
L115.301 149.499
L115.524 164.551
L115.747 151.852
L115.97 167.872
L116.194 149.294
L116.417 164.729
L116.64 151.891
L116.863 168
L117.086 149.081
L117.31 164.91
L117.533 151.93
L117.756 168.132
L117.979 148.86
L118.202 165.095
L118.426 151.971
L118.649 168.268
L118.872 148.631
L119.095 165.283
L119.318 152.012
L119.542 168.407
L119.765 148.394
L119.988 165.476
L120.211 152.055
L120.434 168.551
L120.658 148.15
L120.881 165.672
L121.104 152.1
L121.327 168.698
L121.55 147.897
L121.774 165.872
L121.997 152.148
L122.22 168.85
L122.443 147.636
L122.666 166.076
L122.89 152.198
L123.113 169.007
L123.336 147.366
L123.559 166.285
L123.782 152.251
L124.006 169.168
L124.229 147.088
L124.452 166.498
L124.675 152.307
L124.898 169.334
L125.122 146.8
L125.345 166.717
L125.568 152.367
L125.791 169.506
L126.014 146.503
L126.238 166.941
L126.461 152.431
L126.684 169.683
L126.907 146.197
L127.13 167.17
L127.354 152.5
L127.577 169.866
L127.8 145.881
L128.023 167.405
L128.246 152.575
L128.47 170.055
L128.693 145.554
L128.916 167.647
L129.139 152.654
L129.362 170.251
L129.586 145.217
L129.809 167.895
L130.032 152.74
L130.255 170.453
L130.478 144.868
L130.702 168.15
L130.925 152.833
L131.148 170.664
L131.371 144.508
L131.594 168.413
L131.818 152.934
L132.041 170.882
L132.264 144.137
L132.487 168.684
L132.71 153.042
L132.934 171.108
L133.157 143.752
L133.38 168.963
L133.603 153.159
L133.826 171.344
L134.05 143.355
L134.273 169.252
L134.496 153.286
L134.719 171.589
L134.942 142.944
L135.166 169.551
L135.389 153.423
L135.612 171.845
L135.835 142.52
L136.058 169.86
L136.282 153.571
L136.505 172.112
L136.728 142.081
L136.951 170.181
L137.174 153.732
L137.398 172.391
L137.621 141.626
L137.844 170.513
L138.067 153.906
L138.29 172.682
L138.514 141.156
L138.737 170.859
L138.96 154.095
L139.183 172.987
L139.406 140.67
L139.63 171.218
L139.853 154.299
L140.076 173.307
L140.299 140.167
L140.522 171.592
L140.746 154.52
L140.969 173.642
L141.192 139.646
L141.415 171.982
L141.638 154.759
L141.862 173.995
L142.085 139.107
L142.308 172.388
L142.531 155.019
L142.754 174.365
L142.978 138.549
L143.201 172.813
L143.424 155.3
L143.647 174.756
L143.87 137.972
L144.094 173.258
L144.317 155.604
L144.54 175.167
L144.763 137.375
L144.986 173.723
L145.21 155.934
L145.433 175.602
L145.656 136.758
L145.879 174.21
L146.102 156.292
L146.326 176.06
L146.549 136.12
L146.772 174.722
L146.995 156.68
L147.218 176.546
L147.442 135.461
L147.665 175.259
L147.888 157.101
L148.111 177.06
L148.334 134.781
L148.558 175.823
L148.781 157.556
L149.004 177.605
L149.227 134.079
L149.45 176.417
L149.674 158.05
L149.897 178.183
L150.12 133.356
L150.343 177.043
L150.566 158.586
L150.79 178.797
L151.013 132.612
L151.236 177.702
L151.459 159.167
L151.682 179.45
L151.906 131.847
L152.129 178.397
L152.352 159.797
L152.575 180.144
L152.798 131.063
L153.022 179.131
L153.245 160.479
L153.468 180.884
L153.691 130.26
L153.914 179.907
L154.138 161.22
L154.361 181.673
L154.584 129.44
L154.807 180.727
L155.03 162.022
L155.254 182.513
L155.477 128.606
L155.7 181.594
L155.923 162.891
L156.146 183.411
L156.37 127.759
L156.593 182.511
L156.816 163.834
L157.039 184.369
L157.262 126.904
L157.486 183.482
L157.709 164.854
L157.932 185.392
L158.155 126.045
L158.378 184.51
L158.602 165.96
L158.825 186.486
L159.048 125.187
L159.271 185.599
L159.494 167.156
L159.718 187.654
L159.941 124.336
L160.164 186.752
L160.387 168.451
L160.61 188.904
L160.834 123.5
L161.057 187.974
L161.28 169.85
L161.503 190.239
L161.726 122.687
L161.95 189.267
L162.173 171.362
L162.396 191.667
L162.619 121.909
L162.842 190.636
L163.066 172.994
L163.289 193.192
L163.512 121.177
L163.735 192.085
L163.958 174.753
L164.182 194.821
L164.405 120.506
L164.628 193.617
L164.851 176.648
L165.074 196.559
L165.298 119.913
L165.521 195.236
L165.744 178.687
L165.967 198.413
L166.19 119.415
L166.414 196.945
L166.637 180.876
L166.86 200.389
L167.083 119.035
L167.306 198.746
L167.53 183.224
L167.753 202.493
L167.976 118.796
L168.199 200.644
L168.422 185.736
L168.646 204.728
L168.869 118.724
L169.092 202.639
L169.315 188.42
L169.538 207.102
L169.762 118.85
L169.985 204.735
L170.208 191.28
L170.431 209.617
L170.654 119.203
L170.878 206.931
L171.101 194.321
L171.324 212.277
L171.547 119.82
L171.77 209.228
L171.994 197.547
L172.217 215.086
L172.44 120.735
L172.663 211.627
L172.886 200.96
L173.11 218.046
L173.333 121.985
L173.556 214.126
L173.779 204.56
L174.002 221.158
L174.226 123.61
L174.449 216.726
L174.672 208.346
L174.895 224.422
L175.118 125.647
L175.342 219.423
L175.565 212.316
L175.788 227.837
L176.011 128.131
L176.234 222.217
L176.458 216.466
L176.681 231.401
L176.904 131.097
L177.127 225.105
L177.35 220.79
L177.574 235.111
L177.797 134.572
L178.02 228.086
L178.243 225.28
L178.466 238.964
L178.69 138.579
L178.913 231.158
L179.136 229.926
L179.359 242.953
L179.582 143.131
L179.806 234.32
L180.029 234.718
L180.252 247.071
L180.475 148.233
L180.698 237.57
L180.922 239.642
L181.145 251.311
L181.368 153.876
L181.591 240.908
L181.814 244.683
L182.038 255.662
L182.261 160.041
L182.484 244.334
L182.707 249.824
L182.93 260.112
L183.154 166.694
L183.377 247.847
L183.823 264.647
L184.046 173.787
L184.27 251.447
L184.716 269.251
L184.939 181.262
L185.162 255.131
L185.609 273.904
L185.832 189.05
L186.055 258.896
L186.502 278.586
L186.725 197.073
L186.948 262.737
L187.394 283.272
L187.618 205.249
L187.841 266.644
L188.064 281.526
L188.287 287.939
L188.51 213.495
L188.734 270.607
L188.957 286.709
L189.18 292.561
L189.403 221.73
L189.626 274.611
L189.85 291.79
L190.073 297.111
L190.296 229.878
L190.519 278.641
L190.742 296.741
L190.966 301.566
L191.189 237.871
L191.412 282.676
L191.635 301.54
L191.858 305.903
L192.082 245.649
L192.305 286.696
L192.528 306.166
L192.751 310.101
L192.974 253.165
L193.421 310.602
L193.644 314.143
L193.867 260.381
L194.314 314.837
L194.537 318.017
L194.76 267.27
L195.206 318.862
L195.43 321.714
L195.653 273.815
L196.099 322.673
L196.322 325.226
L196.546 280.008
L196.992 326.27
L197.215 328.552
L197.438 285.846
L197.885 329.654
L198.108 331.691
L198.331 291.335
L198.778 332.83
L199.001 334.648
L199.224 296.484
L199.67 335.806
L199.894 337.426
L200.117 301.304
L200.563 338.589
L200.786 340.033
L201.01 305.81
L201.456 341.19
L201.679 342.474
L201.902 310.019
L202.349 343.617
L202.572 344.76
L202.795 313.948
L203.242 345.882
L203.465 346.898
L203.688 317.615
L204.134 347.994
L204.358 348.897
L204.581 321.035
L205.25 350.765
L205.474 324.227
L205.697 334.963
L205.92 351.803
L206.143 352.513
L206.366 327.207
L206.59 337.13
L206.813 353.518
L207.036 354.147
L207.259 329.989
L207.482 339.178
L207.706 355.12
L207.929 355.675
L208.152 332.589
L208.375 341.114
L208.598 356.616
L208.822 357.106
L209.045 335.02
L209.268 342.944
L209.491 358.015
L209.714 358.446
L209.938 337.294
L210.161 344.672
L210.384 359.323
L210.607 359.702
L210.83 339.424
L211.054 346.307
L211.277 360.548
L211.5 360.88
L211.723 341.421
L211.946 347.852
L212.17 361.696
L212.393 361.986
L212.616 343.294
L212.839 349.313
L213.062 362.774
L213.286 363.025
L213.509 345.053
L213.732 350.696
L213.955 363.785
L214.178 364.002
L214.402 346.707
L214.625 352.005
L214.848 364.735
L215.071 364.922
L215.294 348.263
L215.518 353.245
L215.741 365.629
L215.964 365.788
L216.187 349.728
L216.41 354.42
L216.634 366.471
L216.857 366.604
L217.08 351.109
L217.303 355.534
L217.526 367.265
L217.75 367.375
L217.973 352.413
L218.196 356.592
L218.419 368.014
L218.642 368.103
L218.866 353.644
L219.089 357.596
L219.312 368.721
L219.535 368.792
L219.758 354.808
L219.982 358.55
L220.205 369.39
L220.428 369.444
L220.651 355.91
L220.874 359.458
L221.098 370.023
L221.321 370.061
L221.544 356.954
L221.767 360.321
L221.99 370.622
L222.214 370.646
L222.437 357.943
L222.66 361.144
L222.883 371.19
L223.106 371.201
L223.33 358.883
L223.553 361.927
L223.776 371.729
L223.999 371.729
L224.222 359.775
L224.446 362.674
L224.669 372.241
L224.892 372.23
L225.115 360.623
L225.338 363.387
L225.562 372.728
L225.785 372.708
L226.008 361.43
L226.231 364.068
L226.454 373.191
L226.678 373.162
L226.901 362.199
L227.124 364.718
L227.347 373.632
L227.57 373.595
L227.794 362.931
L228.017 365.34
L228.24 374.052
L228.463 374.008
L228.686 363.63
L228.91 365.936
L229.133 374.453
L229.356 374.402
L229.579 364.297
L229.802 366.505
L230.026 374.836
L230.249 374.778
L230.472 364.935
L230.695 367.051
L230.918 375.201
L231.142 375.138
L231.365 365.544
L231.588 367.575
L231.811 375.55
L232.034 375.482
L232.258 366.127
L232.481 368.077
L232.704 375.885
L232.927 375.812
L233.15 366.685
L233.374 368.559
L233.597 376.205
L233.82 376.128
L234.043 367.22
L234.266 369.021
L234.49 376.511
L234.713 376.43
L234.936 367.733
L235.159 369.466
L235.382 376.805
L235.606 376.721
L235.829 368.225
L236.052 369.894
L236.275 377.087
L236.498 376.999
L236.722 368.697
L236.945 370.305
L237.168 377.357
L237.391 377.267
L237.614 369.15
L237.838 370.701
L238.061 377.617
L238.284 377.524
L238.507 369.586
L238.73 371.082
L238.954 377.867
L239.177 377.771
L239.4 370.006
L239.623 371.45
L239.846 378.107
L240.07 378.009
L240.293 370.409
L240.516 371.804
L240.739 378.338
L240.962 378.238
L241.186 370.798
L241.409 372.146
L241.632 378.56
L241.855 378.459
L242.078 371.172
L242.302 372.476
L242.525 378.775
L242.748 378.671
L242.971 371.533
L243.194 372.794
L243.418 378.981
L243.641 378.876
L243.864 371.881
L244.087 373.102
L244.31 379.18
L244.534 379.074
L244.757 372.216
L244.98 373.399
L245.203 379.372
L245.426 379.265
L245.65 372.54
L245.873 373.687
L246.096 379.558
L246.319 379.449
L246.542 372.853
L246.766 373.965
L246.989 379.737
L247.212 379.627
L247.435 373.156
L247.658 374.234
L247.882 379.91
L248.105 379.799
L248.328 373.448
L248.551 374.494
L248.774 380.077
L248.998 379.966
L249.221 373.731
L249.444 374.747
L249.667 380.239
L249.89 380.127
L250.114 374.005
L250.337 374.991
L250.56 380.395
L250.783 380.283
L251.006 374.27
L251.23 375.228
L251.453 380.547
L251.676 380.433
L251.899 374.526
L252.122 375.458
L252.346 380.693
L252.569 380.58
L252.792 374.775
L253.015 375.681
L253.238 380.836
L253.462 380.721
L253.685 375.016
L253.908 375.897
L254.131 380.973
L254.354 380.859
L254.578 375.25
L254.801 376.107
L255.024 381.107
L255.247 380.992
L255.47 375.476
L255.694 376.311
L255.917 381.236
L256.14 381.121
L256.363 375.696
L256.586 376.509
L256.81 381.362
L257.033 381.247
L257.256 375.91
L257.479 376.701
L257.702 381.484
L257.926 381.368
L258.149 376.117
L258.372 376.889
L258.595 381.602
L258.818 381.487
L259.042 376.318
L259.265 377.071
L259.488 381.717
L259.711 381.602
L259.934 376.514
L260.158 377.248
L260.381 381.829
L260.604 381.713
L260.827 376.704
L261.05 377.42
L261.274 381.938
L261.497 381.822
L261.72 376.889
L261.943 377.587
L262.166 382.043
L262.39 381.928
L262.613 377.069
L262.836 377.751
L263.059 382.146
L263.282 382.03
L263.506 377.244
L263.729 377.91
L263.952 382.246
L264.175 382.13
L264.398 377.414
L264.622 378.064
L264.845 382.343
L265.068 382.228
L265.291 377.58
L265.514 378.215
L265.738 382.438
L265.961 382.323
L266.184 377.742
L266.407 378.362
L266.63 382.53
L266.854 382.415
L267.077 377.899
L267.3 378.506
L267.523 382.62
L267.746 382.505
L267.97 378.053
L268.193 378.646
L268.416 382.707
L268.639 382.593
L268.862 378.202
L269.086 378.782
L269.309 382.793
L269.532 382.678
L269.755 378.348
L269.978 378.915
L270.202 382.876
L270.425 382.762
L270.648 378.49
L270.871 379.045
L271.094 382.957
L271.318 382.843
L271.541 378.629
L271.764 379.172
L271.987 383.036
L272.21 382.922
L272.434 378.764
L272.657 379.296
L272.88 383.113
L273.103 383
L273.326 378.896
L273.55 379.417
L273.773 383.189
L273.996 383.075
L274.219 379.025
L274.442 379.535
L274.666 383.262
L274.889 383.149
L275.112 379.151
L275.335 379.651
L275.558 383.334
L275.782 383.221
L276.005 379.274
L276.228 379.764
L276.451 383.404
L276.674 383.292
L276.898 379.394
L277.121 379.874
L277.344 383.473
L277.567 383.361
L277.79 379.512
L278.014 379.982
L278.237 383.539
L278.46 383.428
L278.683 379.627
L278.906 380.088
L279.13 383.605
L279.353 383.494
L279.576 379.739
L279.799 380.191
L280.022 383.669
L280.246 383.558
L280.469 379.849
L280.692 380.292
L280.915 383.731
L281.138 383.621
L281.362 379.956
L281.585 380.391
L281.808 383.793
L282.031 383.682
L282.254 380.061
L282.478 380.488
L282.701 383.852
L282.924 383.742
L283.147 380.164
L283.37 380.582
L283.594 383.911
L283.817 383.801
L284.04 380.264
L284.263 380.675
L284.486 383.968
L284.71 383.859
L284.933 380.363
L285.156 380.766
L285.379 384.024
L285.602 383.915
L285.826 380.459
L286.049 380.855
L286.272 384.079
L286.495 383.971
L286.718 380.553
L286.942 380.942
L287.165 384.133
L287.388 384.025
L287.611 380.646
L287.834 381.028
L288.058 384.185
L288.281 384.078
L288.504 380.736
L288.727 381.112
L288.95 384.237
L289.174 384.13
L289.397 380.825
L289.62 381.194
L289.843 384.287
L290.066 384.18
L290.29 380.912
L290.513 381.274
L290.736 384.337
L290.959 384.23
L291.182 380.997
L291.406 381.353
L291.629 384.385
L291.852 384.279
L292.075 381.08
L292.298 381.431
L292.522 384.433
L292.745 384.327
L292.968 381.162
L293.191 381.507
L293.414 384.48
L293.638 384.374
L293.861 381.243
L294.084 381.581
L294.307 384.525
L294.53 384.42
L294.754 381.321
L294.977 381.655
L295.2 384.57
L295.423 384.465
L295.646 381.399
L295.87 381.726
L296.093 384.614
L296.316 384.51
L296.539 381.474
L296.762 381.797
L296.986 384.657
L297.209 384.553
L297.432 381.549
L297.655 381.866
L297.878 384.699
L298.102 384.596
L298.325 381.622
L298.548 381.934
L298.771 384.741
L298.994 384.638
L299.218 381.693
L299.441 382.001
L299.664 384.782
L299.887 384.679
L300.11 381.764
L300.334 382.066
L300.557 384.822
L300.78 384.719
L301.003 381.833
L301.226 382.131
L301.45 384.861
L301.673 384.759
L301.896 381.901
L302.119 382.194
L302.342 384.9
L302.566 384.798
L302.789 381.967
L303.012 382.256
L303.235 384.937
L303.458 384.836
L303.682 382.033
L303.905 382.317
L304.128 384.975
L304.351 384.874
L304.574 382.097
L304.798 382.377
L305.021 385.011
L305.244 384.911
L305.467 382.16
L305.69 382.436
L305.914 385.047
L306.137 384.947
L306.36 382.222
L306.583 382.494
L306.806 385.082
L307.03 384.983
L307.253 382.283
L307.476 382.551
L307.699 385.117
L307.922 385.018
L308.146 382.343
L308.369 382.607
L308.592 385.151
L308.815 385.052
L309.038 382.402
L309.262 382.662
L309.485 385.185
L309.708 385.086
L309.931 382.46
L310.154 382.716
L310.378 385.218
L310.601 385.119
L310.824 382.517
L311.047 382.77
L311.27 385.25
L311.494 385.152
L311.717 382.573
L311.94 382.822
L312.163 385.282
L312.386 385.184
L312.61 382.628
L312.833 382.874
L313.056 385.313
L313.279 385.216
L313.502 382.683
L313.726 382.925
L313.949 385.344
L314.172 385.247
L314.395 382.736
L314.618 382.975
L314.842 385.374
L315.065 385.278
L315.288 382.788
L315.511 383.024
L315.734 385.404
L315.958 385.308
L316.181 382.84
L316.404 383.072
L316.627 385.433
L316.85 385.338
L317.074 382.891
L317.297 383.12
L317.52 385.462
L317.743 385.367
L317.966 382.941
L318.19 383.167
L318.413 385.491
L318.636 385.396
L318.859 382.99
L319.082 383.213
L319.306 385.519
L319.529 385.424
L319.752 383.039
L319.975 383.259
L320.198 385.546
L320.422 385.452
L320.645 383.087
L320.868 383.304
L321.091 385.573
L321.314 385.48
L321.538 383.134
L321.761 383.348
L321.984 385.6
L322.207 385.507
L322.43 383.18
L322.654 383.391
L322.877 385.626
L323.1 385.533
L323.323 383.226
L323.546 383.434
L323.77 385.652
L323.993 385.559
L324.216 383.27
L324.439 383.477
L324.662 385.678
L324.886 385.585
L325.109 383.315
L325.332 383.518
L325.555 385.703
L325.778 385.611
L326.002 383.358
L326.225 383.559
L326.448 385.728
L326.671 385.636
L326.894 383.401
L327.118 383.6
L327.341 385.752
L327.564 385.661
L327.787 383.444
L328.01 383.64
L328.234 385.776
L328.457 385.685
L328.68 383.485
L328.903 383.679
L329.126 385.8
L329.35 385.709
L329.573 383.526
L329.796 383.718
L330.019 385.823
L330.242 385.733
L330.466 383.567
L330.689 383.756
L330.912 385.846
L331.135 385.756
L331.358 383.607
L331.582 383.794
L331.805 385.869
L332.028 385.779
L332.251 383.646
L332.474 383.831
L332.698 385.891
L332.921 385.802
L333.144 383.685
L333.367 383.867
L333.59 385.913
L333.814 385.824
L334.037 383.723
L334.26 383.903
L334.483 385.935
L334.706 385.846
L334.93 383.761
L335.153 383.939
L335.376 385.956
L335.599 385.868
L335.822 383.798
L336.046 383.974
L336.269 385.977
L336.492 385.889
L336.715 383.835
L336.938 384.009
L337.162 385.998
L337.385 385.91
L337.608 383.871
L337.831 384.043
L338.054 386.019
L338.278 385.931
L338.501 383.907
L338.724 384.077
L338.947 386.039
L339.17 385.952
L339.394 383.942
L339.617 384.11
L339.84 386.059
L340.063 385.972
L340.286 383.977
L340.51 384.143
L340.733 386.079
L340.956 385.992
L341.179 384.011
L341.402 384.176
L341.626 386.098
L341.849 386.012
L342.072 384.045
L342.295 384.208
L342.518 386.117
L342.742 386.031
L342.965 384.079
L343.188 384.239
L343.411 386.136
L343.634 386.051
L343.858 384.112
L344.081 384.27
L344.304 386.155
L344.527 386.07
L344.75 384.144
L344.974 384.301
L345.197 386.174
L345.42 386.088
L345.643 384.176
L345.866 384.332
L346.09 386.192
L346.313 386.107
L346.536 384.208
L346.759 384.362
L346.982 386.21
L347.206 386.125
L347.429 384.24
L347.652 384.391
L347.875 386.228
L348.098 386.143
L348.322 384.27
L348.545 384.421
L348.768 386.245
L348.991 386.161
L349.214 384.301
L349.438 384.45
L349.661 386.262
L349.884 386.179
L350.107 384.331
L350.33 384.478
L350.554 386.279
L350.777 386.196
L351 384.361
L351.223 384.506
L351.446 386.296
L351.67 386.213
L351.893 384.39
L352.116 384.534
L352.339 386.313
L352.562 386.23
L352.786 384.419
L353.009 384.562
L353.232 386.329
L353.455 386.247
L353.678 384.448
L353.902 384.589
L354.125 386.346
L354.348 386.263
L354.571 384.476
L354.794 384.616
L355.018 386.362
L355.241 386.28
L355.464 384.504
L355.687 384.642
L355.91 386.378
L356.134 386.296
L356.357 384.532
L356.58 384.669
L356.803 386.393
L357.026 386.312
L357.25 384.559
L357.473 384.695
L357.696 386.409
L357.919 386.328
L358.142 384.586
L358.366 384.72
L358.589 386.424
L358.812 386.343
L359.035 384.613
L359.258 384.746
L359.482 386.439
L359.705 386.359
L359.928 384.639
L360.151 384.771
L360.374 386.454
L360.598 386.374
L360.821 384.665
L361.044 384.795
L361.267 386.469
L361.49 386.389
L361.714 384.691
L361.937 384.82
L362.16 386.483
L362.383 386.404
L362.606 384.717
L362.83 384.844
L363.053 386.498
L363.276 386.418
L363.499 384.742
L363.722 384.868
L363.946 386.512
L364.169 386.433
L364.392 384.767
L364.615 384.892
L364.838 386.526
L365.062 386.447
L365.285 384.791
L365.508 384.915
L365.731 386.54
L365.954 386.461
L366.178 384.816
L366.401 384.938
L366.624 386.554
L366.847 386.475
L367.07 384.84
L367.294 384.961
L367.517 386.568
L367.74 386.489
L367.963 384.863
L368.186 384.983
L368.41 386.581
L368.633 386.503
L368.856 384.887
L369.079 385.006
L369.302 386.594
L369.526 386.516
L369.749 384.91
L369.972 385.028
L370.195 386.607
L370.418 386.53
L370.642 384.933
L370.865 385.05
L371.088 386.62
L371.311 386.543
L371.534 384.956
L371.758 385.071
L371.981 386.633
L372.204 386.556
L372.427 384.978
L372.65 385.093
L372.874 386.646
L373.097 386.569
L373.32 385
L373.543 385.114
L373.766 386.659
L373.99 386.582
L374.213 385.022
L374.436 385.135
L374.659 386.671
L374.882 386.595
L375.106 385.044
L375.329 385.156
L375.552 386.683
L375.775 386.607
L375.998 385.066
L376.222 385.176
L376.445 386.695
L376.668 386.62
L376.891 385.087
L377.114 385.196
L377.338 386.708
L377.561 386.632
L377.784 385.108
L378.007 385.217
L378.23 386.719
L378.454 386.644
L378.677 385.129
L378.9 385.236
L379.123 386.731
L379.346 386.656
L379.57 385.149
L379.793 385.256
L380.016 386.743
L380.239 386.668
L380.462 385.17
L380.686 385.275
L380.909 386.754
L381.132 386.68
L381.355 385.19
L381.578 385.295
L381.802 386.766
L382.025 386.691
L382.248 385.21
L382.471 385.314
L382.694 386.777
L382.918 386.703
L383.141 385.23
L383.364 385.333
L383.587 386.788
L383.81 386.714
L384.034 385.249
L384.257 385.351
L384.48 386.799
L384.703 386.726
L384.926 385.269
L385.15 385.37
L385.373 386.81
L385.596 386.737
L385.819 385.288
L386.042 385.388
L386.266 386.821
L386.489 386.748
L386.712 385.307
L386.935 385.406
L387.158 386.832
L387.382 386.759
L387.605 385.326
L387.828 385.424
L388.051 386.843
L388.274 386.77
L388.498 385.344
L388.721 385.442
L388.944 386.853
L389.167 386.78
L389.39 385.363
L389.614 385.459
L389.837 386.863
L390.06 386.791
L390.283 385.381
L390.506 385.477
L390.73 386.874
L390.953 386.801
L391.176 385.399
L391.399 385.494
L391.622 386.884
L391.846 386.812
L392.069 385.417
L392.292 385.511
L392.515 386.894
L392.738 386.822
L392.962 385.434
L393.185 385.528
L393.408 386.904
L393.631 386.832
L393.854 385.452
L394.078 385.545
L394.301 386.914
L394.524 386.843
L394.747 385.469
L394.97 385.561
L395.194 386.924
L395.417 386.853
L395.64 385.486
L395.863 385.578
L396.086 386.933
L396.31 386.862
L396.533 385.503
L396.756 385.594
L396.979 386.943
L397.202 386.872
L397.426 385.52
L397.649 385.61
L397.872 386.953
L398.095 386.882
L398.318 385.537
L398.542 385.626
L398.765 386.962
L398.988 386.892
L399.211 385.553
L399.434 385.642
L399.658 386.971
L399.881 386.901
L400.104 385.57
L400.327 385.657
L400.55 386.981
L400.774 386.911
L400.997 385.586
L401.22 385.673
L401.443 386.99
L401.666 386.92
L401.89 385.602
L402.113 385.688
L402.336 386.999
L402.559 386.929
L402.782 385.618
L403.006 385.704
L403.229 387.008
L403.452 386.938
L403.675 385.634
L403.898 385.719
L404.122 387.017
L404.345 386.948
L404.568 385.649
L404.791 385.734
L405.014 387.026
L405.238 386.957
L405.461 385.665
L405.684 385.748
L405.907 387.034
L406.13 386.965
L406.354 385.68
L406.577 385.763
L406.8 387.043
L407.023 386.974
L407.246 385.695
L407.47 385.778
L407.693 387.052
L407.916 386.983
L408.139 385.71
L408.362 385.792
L408.586 387.06
L408.809 386.992
L409.032 385.725
L409.255 385.806
L409.478 387.068
L409.702 387
L409.925 385.74
L410.148 385.82
L410.371 387.077
L410.594 387.009
L410.818 385.755
L411.041 385.834
L411.264 387.085
L411.487 387.017
L411.71 385.769
L411.934 385.848
L412.157 387.093
L412.38 387.026
L412.603 385.783
L412.826 385.862
L413.05 387.101
L413.273 387.034
L413.496 385.798
L413.719 385.876
L413.942 387.109
L414.166 387.042
L414.389 385.812
L414.612 385.889
L414.835 387.117
L415.058 387.05
L415.282 385.826
L415.505 385.903
L415.728 387.125
L415.951 387.059
L416.174 385.84
L416.398 385.916
L416.621 387.133
L416.844 387.067
L417.067 385.853
L417.29 385.929
L417.514 387.141
L417.737 387.075
L417.96 385.867
L418.183 385.942
L418.406 387.149
L418.63 387.082
L418.853 385.881
L419.076 385.955
L419.299 387.156
L419.522 387.09
L419.746 385.894
L419.969 385.968
L420.192 387.164
L420.415 387.098
L420.638 385.907
L420.862 385.981
L421.085 387.171
L421.308 387.106
L421.531 385.92
L421.754 385.994
L421.978 387.179
L422.201 387.113
L422.424 385.933
L422.647 386.006
L422.87 387.186
L423.094 387.121
L423.317 385.946
L423.54 386.018
L423.763 387.193
L423.986 387.128
L424.21 385.959
L424.433 386.031
L424.656 387.201
L424.879 387.136
L425.102 385.972
L425.326 386.043
L425.549 387.208
L425.772 387.143
L425.995 385.985
L426.218 386.055
L426.442 387.215
L426.665 387.15
L426.888 385.997
L427.111 386.067
L427.334 387.222
L427.558 387.158
L427.781 386.009
L428.004 386.079
L428.227 387.229
L428.45 387.165
L428.674 386.022
L428.897 386.091
L429.12 387.236
L429.343 387.172
L429.566 386.034
L429.79 386.103
L430.013 387.243
L430.236 387.179
L430.459 386.046
L430.682 386.114
L430.906 387.25
L431.129 387.186
L431.352 386.058
L431.575 386.126
L431.798 387.257
L432.022 387.193
L432.245 386.07
L432.468 386.137
L432.691 387.263
L432.914 387.2
L433.138 386.082
L433.361 386.149
L433.584 387.27
L433.807 387.207
L434.03 386.093
L434.254 386.16
L434.477 387.277
L434.7 387.213
L434.923 386.105
L435.146 386.171
L435.37 387.283
L435.593 387.22
L435.816 386.117
L436.039 386.182
L436.262 387.29
L436.486 387.227
L436.709 386.128
L436.932 386.193
L437.155 387.296
L437.378 387.233
L437.602 386.139
L437.825 386.204
L438.048 387.302
L438.271 387.24
L438.494 386.151
L438.718 386.215
L438.941 387.309
L439.164 387.246
L439.387 386.162
L439.61 386.225
L439.834 387.315
L440.057 387.253
L440.28 386.173
L440.503 386.236
L440.726 387.321
L440.95 387.259
L441.173 386.184
L441.396 386.247
L441.619 387.328
L441.842 387.266
L442.066 386.195
L442.289 386.257
L442.512 387.334
L442.735 387.272
L442.958 386.205
L443.182 386.267
L443.405 387.34
L443.628 387.278
L443.851 386.216
L444.074 386.278
L444.298 387.346
L444.521 387.284
L444.744 386.227
L444.967 386.288
L445.19 387.352
L445.414 387.29
L445.637 386.237
L445.86 386.298
L446.083 387.358
L446.306 387.297
L446.53 386.248
L446.753 386.308
L446.976 387.364
L447.199 387.303
L447.422 386.258
L447.646 386.318
L447.869 387.37
L448.092 387.309
L448.315 386.268
L448.538 386.328
L448.762 387.375
L448.985 387.315
L449.208 386.279
L449.431 386.338
L449.654 387.381
L449.878 387.321
L450.101 386.289
L450.324 386.348
L450.547 387.387
L450.77 387.326
L450.994 386.299
L451.217 386.358
L451.44 387.393
L451.663 387.332
L451.886 386.309
L452.11 386.367
L452.333 387.398
L452.556 387.338
L452.779 386.319
L453.002 386.377
L453.226 387.404
L453.449 387.344
L453.672 386.329
L453.895 386.386
L454.118 387.409
L454.342 387.349
L454.565 386.338
L454.788 386.396
L455.011 387.415
L455.234 387.355
L455.458 386.348
L455.681 386.405
L455.904 387.42
L456.127 387.361
L456.35 386.358
L456.574 386.414
L456.797 387.426
L457.02 387.366
L457.243 386.367
L457.466 386.423
L457.69 387.431
L457.913 387.372
L458.136 386.377
L458.359 386.433
L458.582 387.437
L458.806 387.377
L459.029 386.386
L459.252 386.442
L459.475 387.442
L459.698 387.383
L459.922 386.396
L460.145 386.451
L460.368 387.447
L460.591 387.388
L460.814 386.405
L461.038 386.46
L461.261 387.452
L461.484 387.394
L461.707 386.414
L461.93 386.468
L462.154 387.458
L462.377 387.399
L462.6 386.423
L462.823 386.477
L463.046 387.463
L463.27 387.404
L463.493 386.432
L463.716 386.486
L463.939 387.468
L464.162 387.409
L464.386 386.441
L464.609 386.495
L464.832 387.473
L465.055 387.415
L465.278 386.45
L465.502 386.503
L465.725 387.478
L465.948 387.42
L466.171 386.459
L466.394 386.512
L466.618 387.483
L466.841 387.425
L467.064 386.468
L467.287 386.52
L467.51 387.488
L467.734 387.43
L467.957 386.477
L468.18 386.529
L468.403 387.493
L468.626 387.435
L468.85 386.485
L469.073 386.537
L469.296 387.498
L469.519 387.44
L469.742 386.494
L469.966 386.546
L470.189 387.503
L470.412 387.445
L470.635 386.503
L470.858 386.554
L471.082 387.508
L471.305 387.45
L471.528 386.511
L471.751 386.562
L471.974 387.512
L472.198 387.455
L472.421 386.52
L472.644 386.57
L472.867 387.517
L473.09 387.46
L473.314 386.528
L473.537 386.578
L473.76 387.522
L473.983 387.465
L474.206 386.536
L474.43 386.586
L474.653 387.527
L474.876 387.47
L475.099 386.545
L475.322 386.594
L475.546 387.531
L475.769 387.475
L475.992 386.553
L476.215 386.602
L476.438 387.536
L476.662 387.479
L476.885 386.561
L477.108 386.61
L477.331 387.54
L477.554 387.484
L477.778 386.569
L478.001 386.618
L478.224 387.545
L478.447 387.489
L478.67 386.577
L478.894 386.626
L479.117 387.55
L479.34 387.493
L479.563 386.585
L479.786 386.634
L480.01 387.554
L480.233 387.498
L480.456 386.593
L480.679 386.641
L480.902 387.559
L481.126 387.503
L481.349 386.601
L481.572 386.649
L481.795 387.563
L482.018 387.507
L482.242 386.609
L482.465 386.656
L482.688 387.567
L482.911 387.512
L483.134 386.617
L483.358 386.664
L483.581 387.572
L483.804 387.516
L484.027 386.624
L484.25 386.671
L484.474 387.576
L484.697 387.521
L484.92 386.632
L485.143 386.679
L485.366 387.58
L485.59 387.525
L485.813 386.64
L486.036 386.686
L486.259 387.585
L486.482 387.53
L486.706 386.647
L486.929 386.694
L487.152 387.589
L487.375 387.534
L487.598 386.655
L487.822 386.701
L488.045 387.593
L488.268 387.538
L488.491 386.662
L488.714 386.708
L488.938 387.598
L489.161 387.543
L489.384 386.67
L489.607 386.715
L489.83 387.602
L490.054 387.547
L490.277 386.677
L490.5 386.722
L490.723 387.606
L490.946 387.551
L491.17 386.684
L491.393 386.729
L491.616 387.61
L491.839 387.556
L492.062 386.692
L492.286 386.736
L492.509 387.614
L492.732 387.56
L492.955 386.699
L493.178 386.743
L493.402 387.618
L493.625 387.564
L493.848 386.706
L494.071 386.75
L494.294 387.622
L494.518 387.568
L494.741 386.713
L494.964 386.757
L495.187 387.626
L495.41 387.572
L495.634 386.72
L495.857 386.764
L496.08 387.63
L496.303 387.576
L496.526 386.727
L496.75 386.771
L496.973 387.634
L497.196 387.58
L497.419 386.734
L497.642 386.778
L497.866 387.638
L498.089 387.584
L498.312 386.741
L498.535 386.784
L498.758 387.642
L498.982 387.589
L499.205 386.748
L499.428 386.791
L499.651 387.646
L499.874 387.593
L500.098 386.755
L500.321 386.798
L500.544 387.65
L500.767 387.597
L500.99 386.762
L501.214 386.804
L501.437 387.654
L501.66 387.6
L501.883 386.769
L502.106 386.811
L502.33 387.658
L502.553 387.604
L502.776 386.775
L502.999 386.817
L503.222 387.661
L503.446 387.608
L503.669 386.782
L503.892 386.824
L504.115 387.665
L504.338 387.612
L504.562 386.789
L504.785 386.83
L505.008 387.669
L505.231 387.616
L505.454 386.795
L505.678 386.837
L505.901 387.673
L506.124 387.62
L506.347 386.802
L506.57 386.843
L506.794 387.676
L507.017 387.624
L507.24 386.809
L507.463 386.849
L507.686 387.68
L507.91 387.627
L508.133 386.815
L508.356 386.856
L508.579 387.684
L508.802 387.631
L509.026 386.822
L509.249 386.862
L509.472 387.687
L509.695 387.635
L509.918 386.828
L510.142 386.868
L510.365 387.691
L510.588 387.639
L510.811 386.834
L511.034 386.874
L511.258 387.694
L511.481 387.642
L511.704 386.841
L511.927 386.881
L512.15 387.698
L512.374 387.646
L512.597 386.847
L512.82 386.887
L513.043 387.702
L513.266 387.65
L513.49 386.853
L513.713 386.893
L513.936 387.705
L514.159 387.653
L514.382 386.859
L514.606 386.899
L514.829 387.709
L515.052 387.657
L515.275 386.866
L515.498 386.905
L515.722 387.712
L515.945 387.661
L516.168 386.872
L516.391 386.911
L516.614 387.716
L516.838 387.664
L517.061 386.878
L517.284 386.917
L517.507 387.719
L517.73 387.668
L517.954 386.884
L518.177 386.922
L518.4 387.722
L518.4 387.722" style="fill:none;stroke:#0000ff;stroke-linecap:square;"/>
   </g>
   <g id="matplotlib.axis_1">
    <g id="xtick_1">
     <g id="line2d_2">
      <defs>
       <path d="
M0 0
L0 -4" id="mc7db9fdffb" style="stroke:#000000;stroke-width:0.5;"/>
      </defs>
      <g>
       <use style="stroke:#000000;stroke-width:0.5;" x="72.0" xlink:href="#mc7db9fdffb" y="388.8"/>
      </g>
     </g>
     <g id="line2d_3">
      <defs>
       <path d="
M0 0
L0 4" id="m5a7d422ac3" style="stroke:#000000;stroke-width:0.5;"/>
      </defs>
      <g>
       <use style="stroke:#000000;stroke-width:0.5;" x="72.0" xlink:href="#m5a7d422ac3" y="43.2"/>
      </g>
     </g>
     <g id="text_1">
      <!-- 0 -->
      <defs>
       <path d="
M31.7812 66.4062
Q24.1719 66.4062 20.3281 58.9062
Q16.5 51.4219 16.5 36.375
Q16.5 21.3906 20.3281 13.8906
Q24.1719 6.39062 31.7812 6.39062
Q39.4531 6.39062 43.2812 13.8906
Q47.125 21.3906 47.125 36.375
Q47.125 51.4219 43.2812 58.9062
Q39.4531 66.4062 31.7812 66.4062
M31.7812 74.2188
Q44.0469 74.2188 50.5156 64.5156
Q56.9844 54.8281 56.9844 36.375
Q56.9844 17.9688 50.5156 8.26562
Q44.0469 -1.42188 31.7812 -1.42188
Q19.5312 -1.42188 13.0625 8.26562
Q6.59375 17.9688 6.59375 36.375
Q6.59375 54.8281 13.0625 64.5156
Q19.5312 74.2188 31.7812 74.2188" id="DejaVuSans-30"/>
      </defs>
      <g transform="translate(68.9765625 401.918125)scale(0.12 -0.12)">
       <use xlink:href="#DejaVuSans-30"/>
      </g>
     </g>
    </g>
    <g id="xtick_2">
     <g id="line2d_4">
      <g>
       <use style="stroke:#000000;stroke-width:0.5;" x="183.6" xlink:href="#mc7db9fdffb" y="388.8"/>
      </g>
     </g>
     <g id="line2d_5">
      <g>
       <use style="stroke:#000000;stroke-width:0.5;" x="183.6" xlink:href="#m5a7d422ac3" y="43.2"/>
      </g>
     </g>
     <g id="text_2">
      <!-- 500 -->
      <defs>
       <path d="
M10.7969 72.9062
L49.5156 72.9062
L49.5156 64.5938
L19.8281 64.5938
L19.8281 46.7344
Q21.9688 47.4688 24.1094 47.8281
Q26.2656 48.1875 28.4219 48.1875
Q40.625 48.1875 47.75 41.5
Q54.8906 34.8125 54.8906 23.3906
Q54.8906 11.625 47.5625 5.09375
Q40.2344 -1.42188 26.9062 -1.42188
Q22.3125 -1.42188 17.5469 -0.640625
Q12.7969 0.140625 7.71875 1.70312
L7.71875 11.625
Q12.1094 9.23438 16.7969 8.0625
Q21.4844 6.89062 26.7031 6.89062
Q35.1562 6.89062 40.0781 11.3281
Q45.0156 15.7656 45.0156 23.3906
Q45.0156 31 40.0781 35.4375
Q35.1562 39.8906 26.7031 39.8906
Q22.75 39.8906 18.8125 39.0156
Q14.8906 38.1406 10.7969 36.2812
z
" id="DejaVuSans-35"/>
      </defs>
      <g transform="translate(173.0090625 401.918125)scale(0.12 -0.12)">
       <use xlink:href="#DejaVuSans-35"/>
       <use x="63.623046875" xlink:href="#DejaVuSans-30"/>
       <use x="127.24609375" xlink:href="#DejaVuSans-30"/>
      </g>
     </g>
    </g>
    <g id="xtick_3">
     <g id="line2d_6">
      <g>
       <use style="stroke:#000000;stroke-width:0.5;" x="295.2" xlink:href="#mc7db9fdffb" y="388.8"/>
      </g>
     </g>
     <g id="line2d_7">
      <g>
       <use style="stroke:#000000;stroke-width:0.5;" x="295.2" xlink:href="#m5a7d422ac3" y="43.2"/>
      </g>
     </g>
     <g id="text_3">
      <!-- 1000 -->
      <defs>
       <path d="
M12.4062 8.29688
L28.5156 8.29688
L28.5156 63.9219
L10.9844 60.4062
L10.9844 69.3906
L28.4219 72.9062
L38.2812 72.9062
L38.2812 8.29688
L54.3906 8.29688
L54.3906 0
L12.4062 0
z
" id="DejaVuSans-31"/>
      </defs>
      <g transform="translate(280.9875 401.918125)scale(0.12 -0.12)">
       <use xlink:href="#DejaVuSans-31"/>
       <use x="63.623046875" xlink:href="#DejaVuSans-30"/>
       <use x="127.24609375" xlink:href="#DejaVuSans-30"/>
       <use x="190.869140625" xlink:href="#DejaVuSans-30"/>
      </g>
     </g>
    </g>
    <g id="xtick_4">
     <g id="line2d_8">
      <g>
       <use style="stroke:#000000;stroke-width:0.5;" x="406.8" xlink:href="#mc7db9fdffb" y="388.8"/>
      </g>
     </g>
     <g id="line2d_9">
      <g>
       <use style="stroke:#000000;stroke-width:0.5;" x="406.8" xlink:href="#m5a7d422ac3" y="43.2"/>
      </g>
     </g>
     <g id="text_4">
      <!-- 1500 -->
      <g transform="translate(392.5875 401.918125)scale(0.12 -0.12)">
       <use xlink:href="#DejaVuSans-31"/>
       <use x="63.623046875" xlink:href="#DejaVuSans-35"/>
       <use x="127.24609375" xlink:href="#DejaVuSans-30"/>
       <use x="190.869140625" xlink:href="#DejaVuSans-30"/>
      </g>
     </g>
    </g>
    <g id="xtick_5">
     <g id="line2d_10">
      <g>
       <use style="stroke:#000000;stroke-width:0.5;" x="518.4" xlink:href="#mc7db9fdffb" y="388.8"/>
      </g>
     </g>
     <g id="line2d_11">
      <g>
       <use style="stroke:#000000;stroke-width:0.5;" x="518.4" xlink:href="#m5a7d422ac3" y="43.2"/>
      </g>
     </g>
     <g id="text_5">
      <!-- 2000 -->
      <defs>
       <path d="
M19.1875 8.29688
L53.6094 8.29688
L53.6094 0
L7.32812 0
L7.32812 8.29688
Q12.9375 14.1094 22.625 23.8906
Q32.3281 33.6875 34.8125 36.5312
Q39.5469 41.8438 41.4219 45.5312
Q43.3125 49.2188 43.3125 52.7812
Q43.3125 58.5938 39.2344 62.25
Q35.1562 65.9219 28.6094 65.9219
Q23.9688 65.9219 18.8125 64.3125
Q13.6719 62.7031 7.8125 59.4219
L7.8125 69.3906
Q13.7656 71.7812 18.9375 73
Q24.125 74.2188 28.4219 74.2188
Q39.75 74.2188 46.4844 68.5469
Q53.2188 62.8906 53.2188 53.4219
Q53.2188 48.9219 51.5312 44.8906
Q49.8594 40.875 45.4062 35.4062
Q44.1875 33.9844 37.6406 27.2188
Q31.1094 20.4531 19.1875 8.29688" id="DejaVuSans-32"/>
      </defs>
      <g transform="translate(503.968125 401.918125)scale(0.12 -0.12)">
       <use xlink:href="#DejaVuSans-32"/>
       <use x="63.623046875" xlink:href="#DejaVuSans-30"/>
       <use x="127.24609375" xlink:href="#DejaVuSans-30"/>
       <use x="190.869140625" xlink:href="#DejaVuSans-30"/>
      </g>
     </g>
    </g>
    <g id="text_6">
     <!-- Runs -->
     <defs>
      <path d="
M8.5 21.5781
L8.5 54.6875
L17.4844 54.6875
L17.4844 21.9219
Q17.4844 14.1562 20.5 10.2656
Q23.5312 6.39062 29.5938 6.39062
Q36.8594 6.39062 41.0781 11.0312
Q45.3125 15.6719 45.3125 23.6875
L45.3125 54.6875
L54.2969 54.6875
L54.2969 0
L45.3125 0
L45.3125 8.40625
Q42.0469 3.42188 37.7188 1
Q33.4062 -1.42188 27.6875 -1.42188
Q18.2656 -1.42188 13.375 4.4375
Q8.5 10.2969 8.5 21.5781
M31.1094 56
z
" id="DejaVuSans-75"/>
      <path d="
M44.2812 53.0781
L44.2812 44.5781
Q40.4844 46.5312 36.375 47.5
Q32.2812 48.4844 27.875 48.4844
Q21.1875 48.4844 17.8438 46.4375
Q14.5 44.3906 14.5 40.2812
Q14.5 37.1562 16.8906 35.375
Q19.2812 33.5938 26.5156 31.9844
L29.5938 31.2969
Q39.1562 29.25 43.1875 25.5156
Q47.2188 21.7812 47.2188 15.0938
Q47.2188 7.46875 41.1875 3.01562
Q35.1562 -1.42188 24.6094 -1.42188
Q20.2188 -1.42188 15.4531 -0.5625
Q10.6875 0.296875 5.42188 2
L5.42188 11.2812
Q10.4062 8.6875 15.2344 7.39062
Q20.0625 6.10938 24.8125 6.10938
Q31.1562 6.10938 34.5625 8.28125
Q37.9844 10.4531 37.9844 14.4062
Q37.9844 18.0625 35.5156 20.0156
Q33.0625 21.9688 24.7031 23.7812
L21.5781 24.5156
Q13.2344 26.2656 9.51562 29.9062
Q5.8125 33.5469 5.8125 39.8906
Q5.8125 47.6094 11.2812 51.7969
Q16.75 56 26.8125 56
Q31.7812 56 36.1719 55.2656
Q40.5781 54.5469 44.2812 53.0781" id="DejaVuSans-73"/>
      <path d="
M54.8906 33.0156
L54.8906 0
L45.9062 0
L45.9062 32.7188
Q45.9062 40.4844 42.875 44.3281
Q39.8438 48.1875 33.7969 48.1875
Q26.5156 48.1875 22.3125 43.5469
Q18.1094 38.9219 18.1094 30.9062
L18.1094 0
L9.07812 0
L9.07812 54.6875
L18.1094 54.6875
L18.1094 46.1875
Q21.3438 51.125 25.7031 53.5625
Q30.0781 56 35.7969 56
Q45.2188 56 50.0469 50.1719
Q54.8906 44.3438 54.8906 33.0156" id="DejaVuSans-6e"/>
      <path d="
M44.3906 34.1875
Q47.5625 33.1094 50.5625 29.5938
Q53.5625 26.0781 56.5938 19.9219
L66.6094 0
L56 0
L46.6875 18.7031
Q43.0625 26.0312 39.6719 28.4219
Q36.2812 30.8125 30.4219 30.8125
L19.6719 30.8125
L19.6719 0
L9.8125 0
L9.8125 72.9062
L32.0781 72.9062
Q44.5781 72.9062 50.7344 67.6719
Q56.8906 62.4531 56.8906 51.9062
Q56.8906 45.0156 53.6875 40.4688
Q50.4844 35.9375 44.3906 34.1875
M19.6719 64.7969
L19.6719 38.9219
L32.0781 38.9219
Q39.2031 38.9219 42.8438 42.2188
Q46.4844 45.5156 46.4844 51.9062
Q46.4844 58.2969 42.8438 61.5469
Q39.2031 64.7969 32.0781 64.7969
z
" id="DejaVuSans-52"/>
     </defs>
     <g transform="translate(281.4515625 418.531875)scale(0.12 -0.12)">
      <use xlink:href="#DejaVuSans-52"/>
      <use x="64.982421875" xlink:href="#DejaVuSans-75"/>
      <use x="128.361328125" xlink:href="#DejaVuSans-6e"/>
      <use x="191.740234375" xlink:href="#DejaVuSans-73"/>
     </g>
    </g>
   </g>
   <g id="matplotlib.axis_2">
    <g id="ytick_1">
     <g id="line2d_12">
      <defs>
       <path d="
M0 0
L4 0" id="md7965d1ba0" style="stroke:#000000;stroke-width:0.5;"/>
      </defs>
      <g>
       <use style="stroke:#000000;stroke-width:0.5;" x="72.0" xlink:href="#md7965d1ba0" y="388.8"/>
      </g>
     </g>
     <g id="line2d_13">
      <defs>
       <path d="
M0 0
L-4 0" id="md9a1c1a7cd" style="stroke:#000000;stroke-width:0.5;"/>
      </defs>
      <g>
       <use style="stroke:#000000;stroke-width:0.5;" x="518.4" xlink:href="#md9a1c1a7cd" y="388.8"/>
      </g>
     </g>
     <g id="text_7">
      <!-- 0.0 -->
      <defs>
       <path d="
M10.6875 12.4062
L21 12.4062
L21 0
L10.6875 0
z
" id="DejaVuSans-2e"/>
      </defs>
      <g transform="translate(50.504375 392.11125)scale(0.12 -0.12)">
       <use xlink:href="#DejaVuSans-30"/>
       <use x="63.623046875" xlink:href="#DejaVuSans-2e"/>
       <use x="95.41015625" xlink:href="#DejaVuSans-30"/>
      </g>
     </g>
    </g>
    <g id="ytick_2">
     <g id="line2d_14">
      <g>
       <use style="stroke:#000000;stroke-width:0.5;" x="72.0" xlink:href="#md7965d1ba0" y="345.6"/>
      </g>
     </g>
     <g id="line2d_15">
      <g>
       <use style="stroke:#000000;stroke-width:0.5;" x="518.4" xlink:href="#md9a1c1a7cd" y="345.6"/>
      </g>
     </g>
     <g id="text_8">
      <!-- 0.2 -->
      <g transform="translate(50.909375 348.91125)scale(0.12 -0.12)">
       <use xlink:href="#DejaVuSans-30"/>
       <use x="63.623046875" xlink:href="#DejaVuSans-2e"/>
       <use x="95.41015625" xlink:href="#DejaVuSans-32"/>
      </g>
     </g>
    </g>
    <g id="ytick_3">
     <g id="line2d_16">
      <g>
       <use style="stroke:#000000;stroke-width:0.5;" x="72.0" xlink:href="#md7965d1ba0" y="302.4"/>
      </g>
     </g>
     <g id="line2d_17">
      <g>
       <use style="stroke:#000000;stroke-width:0.5;" x="518.4" xlink:href="#md9a1c1a7cd" y="302.4"/>
      </g>
     </g>
     <g id="text_9">
      <!-- 0.4 -->
      <defs>
       <path d="
M37.7969 64.3125
L12.8906 25.3906
L37.7969 25.3906
z

M35.2031 72.9062
L47.6094 72.9062
L47.6094 25.3906
L58.0156 25.3906
L58.0156 17.1875
L47.6094 17.1875
L47.6094 0
L37.7969 0
L37.7969 17.1875
L4.89062 17.1875
L4.89062 26.7031
z
" id="DejaVuSans-34"/>
      </defs>
      <g transform="translate(50.380625 305.71125)scale(0.12 -0.12)">
       <use xlink:href="#DejaVuSans-30"/>
       <use x="63.623046875" xlink:href="#DejaVuSans-2e"/>
       <use x="95.41015625" xlink:href="#DejaVuSans-34"/>
      </g>
     </g>
    </g>
    <g id="ytick_4">
     <g id="line2d_18">
      <g>
       <use style="stroke:#000000;stroke-width:0.5;" x="72.0" xlink:href="#md7965d1ba0" y="259.2"/>
      </g>
     </g>
     <g id="line2d_19">
      <g>
       <use style="stroke:#000000;stroke-width:0.5;" x="518.4" xlink:href="#md9a1c1a7cd" y="259.2"/>
      </g>
     </g>
     <g id="text_10">
      <!-- 0.6 -->
      <defs>
       <path d="
M33.0156 40.375
Q26.375 40.375 22.4844 35.8281
Q18.6094 31.2969 18.6094 23.3906
Q18.6094 15.5312 22.4844 10.9531
Q26.375 6.39062 33.0156 6.39062
Q39.6562 6.39062 43.5312 10.9531
Q47.4062 15.5312 47.4062 23.3906
Q47.4062 31.2969 43.5312 35.8281
Q39.6562 40.375 33.0156 40.375
M52.5938 71.2969
L52.5938 62.3125
Q48.875 64.0625 45.0938 64.9844
Q41.3125 65.9219 37.5938 65.9219
Q27.8281 65.9219 22.6719 59.3281
Q17.5312 52.7344 16.7969 39.4062
Q19.6719 43.6562 24.0156 45.9219
Q28.375 48.1875 33.5938 48.1875
Q44.5781 48.1875 50.9531 41.5156
Q57.3281 34.8594 57.3281 23.3906
Q57.3281 12.1562 50.6875 5.35938
Q44.0469 -1.42188 33.0156 -1.42188
Q20.3594 -1.42188 13.6719 8.26562
Q6.98438 17.9688 6.98438 36.375
Q6.98438 53.6562 15.1875 63.9375
Q23.3906 74.2188 37.2031 74.2188
Q40.9219 74.2188 44.7031 73.4844
Q48.4844 72.75 52.5938 71.2969" id="DejaVuSans-36"/>
      </defs>
      <g transform="translate(50.463125 262.51125)scale(0.12 -0.12)">
       <use xlink:href="#DejaVuSans-30"/>
       <use x="63.623046875" xlink:href="#DejaVuSans-2e"/>
       <use x="95.41015625" xlink:href="#DejaVuSans-36"/>
      </g>
     </g>
    </g>
    <g id="ytick_5">
     <g id="line2d_20">
      <g>
       <use style="stroke:#000000;stroke-width:0.5;" x="72.0" xlink:href="#md7965d1ba0" y="216.0"/>
      </g>
     </g>
     <g id="line2d_21">
      <g>
       <use style="stroke:#000000;stroke-width:0.5;" x="518.4" xlink:href="#md9a1c1a7cd" y="216.0"/>
      </g>
     </g>
     <g id="text_11">
      <!-- 0.8 -->
      <defs>
       <path d="
M31.7812 34.625
Q24.75 34.625 20.7188 30.8594
Q16.7031 27.0938 16.7031 20.5156
Q16.7031 13.9219 20.7188 10.1562
Q24.75 6.39062 31.7812 6.39062
Q38.8125 6.39062 42.8594 10.1719
Q46.9219 13.9688 46.9219 20.5156
Q46.9219 27.0938 42.8906 30.8594
Q38.875 34.625 31.7812 34.625
M21.9219 38.8125
Q15.5781 40.375 12.0312 44.7188
Q8.5 49.0781 8.5 55.3281
Q8.5 64.0625 14.7188 69.1406
Q20.9531 74.2188 31.7812 74.2188
Q42.6719 74.2188 48.875 69.1406
Q55.0781 64.0625 55.0781 55.3281
Q55.0781 49.0781 51.5312 44.7188
Q48 40.375 41.7031 38.8125
Q48.8281 37.1562 52.7969 32.3125
Q56.7812 27.4844 56.7812 20.5156
Q56.7812 9.90625 50.3125 4.23438
Q43.8438 -1.42188 31.7812 -1.42188
Q19.7344 -1.42188 13.25 4.23438
Q6.78125 9.90625 6.78125 20.5156
Q6.78125 27.4844 10.7812 32.3125
Q14.7969 37.1562 21.9219 38.8125
M18.3125 54.3906
Q18.3125 48.7344 21.8438 45.5625
Q25.3906 42.3906 31.7812 42.3906
Q38.1406 42.3906 41.7188 45.5625
Q45.3125 48.7344 45.3125 54.3906
Q45.3125 60.0625 41.7188 63.2344
Q38.1406 66.4062 31.7812 66.4062
Q25.3906 66.4062 21.8438 63.2344
Q18.3125 60.0625 18.3125 54.3906" id="DejaVuSans-38"/>
      </defs>
      <g transform="translate(50.52875 219.31125)scale(0.12 -0.12)">
       <use xlink:href="#DejaVuSans-30"/>
       <use x="63.623046875" xlink:href="#DejaVuSans-2e"/>
       <use x="95.41015625" xlink:href="#DejaVuSans-38"/>
      </g>
     </g>
    </g>
    <g id="ytick_6">
     <g id="line2d_22">
      <g>
       <use style="stroke:#000000;stroke-width:0.5;" x="72.0" xlink:href="#md7965d1ba0" y="172.8"/>
      </g>
     </g>
     <g id="line2d_23">
      <g>
       <use style="stroke:#000000;stroke-width:0.5;" x="518.4" xlink:href="#md9a1c1a7cd" y="172.8"/>
      </g>
     </g>
     <g id="text_12">
      <!-- 1.0 -->
      <g transform="translate(51.03125 176.11125)scale(0.12 -0.12)">
       <use xlink:href="#DejaVuSans-31"/>
       <use x="63.623046875" xlink:href="#DejaVuSans-2e"/>
       <use x="95.41015625" xlink:href="#DejaVuSans-30"/>
      </g>
     </g>
    </g>
    <g id="ytick_7">
     <g id="line2d_24">
      <g>
       <use style="stroke:#000000;stroke-width:0.5;" x="72.0" xlink:href="#md7965d1ba0" y="129.6"/>
      </g>
     </g>
     <g id="line2d_25">
      <g>
       <use style="stroke:#000000;stroke-width:0.5;" x="518.4" xlink:href="#md9a1c1a7cd" y="129.6"/>
      </g>
     </g>
     <g id="text_13">
      <!-- 1.2 -->
      <g transform="translate(51.43625 132.91125)scale(0.12 -0.12)">
       <use xlink:href="#DejaVuSans-31"/>
       <use x="63.623046875" xlink:href="#DejaVuSans-2e"/>
       <use x="95.41015625" xlink:href="#DejaVuSans-32"/>
      </g>
     </g>
    </g>
    <g id="ytick_8">
     <g id="line2d_26">
      <g>
       <use style="stroke:#000000;stroke-width:0.5;" x="72.0" xlink:href="#md7965d1ba0" y="86.4"/>
      </g>
     </g>
     <g id="line2d_27">
      <g>
       <use style="stroke:#000000;stroke-width:0.5;" x="518.4" xlink:href="#md9a1c1a7cd" y="86.4"/>
      </g>
     </g>
     <g id="text_14">
      <!-- 1.4 -->
      <g transform="translate(50.9075 89.71125)scale(0.12 -0.12)">
       <use xlink:href="#DejaVuSans-31"/>
       <use x="63.623046875" xlink:href="#DejaVuSans-2e"/>
       <use x="95.41015625" xlink:href="#DejaVuSans-34"/>
      </g>
     </g>
    </g>
    <g id="ytick_9">
     <g id="line2d_28">
      <g>
       <use style="stroke:#000000;stroke-width:0.5;" x="72.0" xlink:href="#md7965d1ba0" y="43.2"/>
      </g>
     </g>
     <g id="line2d_29">
      <g>
       <use style="stroke:#000000;stroke-width:0.5;" x="518.4" xlink:href="#md9a1c1a7cd" y="43.2"/>
      </g>
     </g>
     <g id="text_15">
      <!-- 1.6 -->
      <g transform="translate(50.99 46.51125)scale(0.12 -0.12)">
       <use xlink:href="#DejaVuSans-31"/>
       <use x="63.623046875" xlink:href="#DejaVuSans-2e"/>
       <use x="95.41015625" xlink:href="#DejaVuSans-36"/>
      </g>
     </g>
    </g>
    <g id="text_16">
     <!-- Cost -->
     <defs>
      <path d="
M30.6094 48.3906
Q23.3906 48.3906 19.1875 42.75
Q14.9844 37.1094 14.9844 27.2969
Q14.9844 17.4844 19.1562 11.8438
Q23.3438 6.20312 30.6094 6.20312
Q37.7969 6.20312 41.9844 11.8594
Q46.1875 17.5312 46.1875 27.2969
Q46.1875 37.0156 41.9844 42.7031
Q37.7969 48.3906 30.6094 48.3906
M30.6094 56
Q42.3281 56 49.0156 48.375
Q55.7188 40.7656 55.7188 27.2969
Q55.7188 13.875 49.0156 6.21875
Q42.3281 -1.42188 30.6094 -1.42188
Q18.8438 -1.42188 12.1719 6.21875
Q5.51562 13.875 5.51562 27.2969
Q5.51562 40.7656 12.1719 48.375
Q18.8438 56 30.6094 56" id="DejaVuSans-6f"/>
      <path d="
M18.3125 70.2188
L18.3125 54.6875
L36.8125 54.6875
L36.8125 47.7031
L18.3125 47.7031
L18.3125 18.0156
Q18.3125 11.3281 20.1406 9.42188
Q21.9688 7.51562 27.5938 7.51562
L36.8125 7.51562
L36.8125 0
L27.5938 0
Q17.1875 0 13.2344 3.875
Q9.28125 7.76562 9.28125 18.0156
L9.28125 47.7031
L2.6875 47.7031
L2.6875 54.6875
L9.28125 54.6875
L9.28125 70.2188
z
" id="DejaVuSans-74"/>
      <path d="
M64.4062 67.2812
L64.4062 56.8906
Q59.4219 61.5312 53.7812 63.8125
Q48.1406 66.1094 41.7969 66.1094
Q29.2969 66.1094 22.6562 58.4688
Q16.0156 50.8281 16.0156 36.375
Q16.0156 21.9688 22.6562 14.3281
Q29.2969 6.6875 41.7969 6.6875
Q48.1406 6.6875 53.7812 8.98438
Q59.4219 11.2812 64.4062 15.9219
L64.4062 5.60938
Q59.2344 2.09375 53.4375 0.328125
Q47.6562 -1.42188 41.2188 -1.42188
Q24.6562 -1.42188 15.125 8.70312
Q5.60938 18.8438 5.60938 36.375
Q5.60938 53.9531 15.125 64.0781
Q24.6562 74.2188 41.2188 74.2188
Q47.75 74.2188 53.5312 72.4844
Q59.3281 70.75 64.4062 67.2812" id="DejaVuSans-43"/>
     </defs>
     <g transform="translate(42.885 228.85875)rotate(-90.0)scale(0.12 -0.12)">
      <use xlink:href="#DejaVuSans-43"/>
      <use x="69.82421875" xlink:href="#DejaVuSans-6f"/>
      <use x="131.005859375" xlink:href="#DejaVuSans-73"/>
      <use x="183.10546875" xlink:href="#DejaVuSans-74"/>
     </g>
    </g>
   </g>
   <g id="patch_3">
    <path d="
M72 388.8
L72 43.2" style="fill:none;stroke:#000000;"/>
   </g>
   <g id="patch_4">
    <path d="
M72 388.8
L518.4 388.8" style="fill:none;stroke:#000000;"/>
   </g>
   <g id="patch_5">
    <path d="
M72 43.2
L518.4 43.2" style="fill:none;stroke:#000000;"/>
   </g>
   <g id="patch_6">
    <path d="
M518.4 388.8
L518.4 43.2" style="fill:none;stroke:#000000;"/>
   </g>
   <g id="text_17">
    <!-- XOR Bipolar -->
    <defs>
     <path d="
M19.6719 34.8125
L19.6719 8.10938
L35.5 8.10938
Q43.4531 8.10938 47.2812 11.4062
Q51.125 14.7031 51.125 21.4844
Q51.125 28.3281 47.2812 31.5625
Q43.4531 34.8125 35.5 34.8125
z

M19.6719 64.7969
L19.6719 42.8281
L34.2812 42.8281
Q41.5 42.8281 45.0312 45.5312
Q48.5781 48.25 48.5781 53.8125
Q48.5781 59.3281 45.0312 62.0625
Q41.5 64.7969 34.2812 64.7969
z

M9.8125 72.9062
L35.0156 72.9062
Q46.2969 72.9062 52.3906 68.2188
Q58.5 63.5312 58.5 54.8906
Q58.5 48.1875 55.375 44.2344
Q52.25 40.2812 46.1875 39.3125
Q53.4688 37.75 57.5 32.7812
Q61.5312 27.8281 61.5312 20.4062
Q61.5312 10.6406 54.8906 5.3125
Q48.25 0 35.9844 0
L9.8125 0
z
" id="DejaVuSans-42"/>
     <path d="
M6.29688 72.9062
L16.8906 72.9062
L35.0156 45.7969
L53.2188 72.9062
L63.8125 72.9062
L40.375 37.8906
L65.375 0
L54.7812 0
L34.2812 31
L13.625 0
L2.98438 0
L29 38.9219
z
" id="DejaVuSans-58"/>
     <path d="
M34.2812 27.4844
Q23.3906 27.4844 19.1875 25
Q14.9844 22.5156 14.9844 16.5
Q14.9844 11.7188 18.1406 8.90625
Q21.2969 6.10938 26.7031 6.10938
Q34.1875 6.10938 38.7031 11.4062
Q43.2188 16.7031 43.2188 25.4844
L43.2188 27.4844
z

M52.2031 31.2031
L52.2031 0
L43.2188 0
L43.2188 8.29688
Q40.1406 3.32812 35.5469 0.953125
Q30.9531 -1.42188 24.3125 -1.42188
Q15.9219 -1.42188 10.9531 3.29688
Q6 8.01562 6 15.9219
Q6 25.1406 12.1719 29.8281
Q18.3594 34.5156 30.6094 34.5156
L43.2188 34.5156
L43.2188 35.4062
Q43.2188 41.6094 39.1406 45
Q35.0625 48.3906 27.6875 48.3906
Q23 48.3906 18.5469 47.2656
Q14.1094 46.1406 10.0156 43.8906
L10.0156 52.2031
Q14.9375 54.1094 19.5781 55.0469
Q24.2188 56 28.6094 56
Q40.4844 56 46.3438 49.8438
Q52.2031 43.7031 52.2031 31.2031" id="DejaVuSans-61"/>
     <path d="
M39.4062 66.2188
Q28.6562 66.2188 22.3281 58.2031
Q16.0156 50.2031 16.0156 36.375
Q16.0156 22.6094 22.3281 14.5938
Q28.6562 6.59375 39.4062 6.59375
Q50.1406 6.59375 56.4219 14.5938
Q62.7031 22.6094 62.7031 36.375
Q62.7031 50.2031 56.4219 58.2031
Q50.1406 66.2188 39.4062 66.2188
M39.4062 74.2188
Q54.7344 74.2188 63.9062 63.9375
Q73.0938 53.6562 73.0938 36.375
Q73.0938 19.1406 63.9062 8.85938
Q54.7344 -1.42188 39.4062 -1.42188
Q24.0312 -1.42188 14.8125 8.82812
Q5.60938 19.0938 5.60938 36.375
Q5.60938 53.6562 14.8125 63.9375
Q24.0312 74.2188 39.4062 74.2188" id="DejaVuSans-4f"/>
     <path id="DejaVuSans-20"/>
     <path d="
M41.1094 46.2969
Q39.5938 47.1719 37.8125 47.5781
Q36.0312 48 33.8906 48
Q26.2656 48 22.1875 43.0469
Q18.1094 38.0938 18.1094 28.8125
L18.1094 0
L9.07812 0
L9.07812 54.6875
L18.1094 54.6875
L18.1094 46.1875
Q20.9531 51.1719 25.4844 53.5781
Q30.0312 56 36.5312 56
Q37.4531 56 38.5781 55.875
Q39.7031 55.7656 41.0625 55.5156
z
" id="DejaVuSans-72"/>
     <path d="
M9.42188 75.9844
L18.4062 75.9844
L18.4062 0
L9.42188 0
z
" id="DejaVuSans-6c"/>
     <path d="
M18.1094 8.20312
L18.1094 -20.7969
L9.07812 -20.7969
L9.07812 54.6875
L18.1094 54.6875
L18.1094 46.3906
Q20.9531 51.2656 25.2656 53.625
Q29.5938 56 35.5938 56
Q45.5625 56 51.7812 48.0938
Q58.0156 40.1875 58.0156 27.2969
Q58.0156 14.4062 51.7812 6.48438
Q45.5625 -1.42188 35.5938 -1.42188
Q29.5938 -1.42188 25.2656 0.953125
Q20.9531 3.32812 18.1094 8.20312
M48.6875 27.2969
Q48.6875 37.2031 44.6094 42.8438
Q40.5312 48.4844 33.4062 48.4844
Q26.2656 48.4844 22.1875 42.8438
Q18.1094 37.2031 18.1094 27.2969
Q18.1094 17.3906 22.1875 11.75
Q26.2656 6.10938 33.4062 6.10938
Q40.5312 6.10938 44.6094 11.75
Q48.6875 17.3906 48.6875 27.2969" id="DejaVuSans-70"/>
     <path d="
M9.42188 54.6875
L18.4062 54.6875
L18.4062 0
L9.42188 0
z

M9.42188 75.9844
L18.4062 75.9844
L18.4062 64.5938
L9.42188 64.5938
z
" id="DejaVuSans-69"/>
    </defs>
    <g transform="translate(252.47925 38.2)scale(0.144 -0.144)">
     <use xlink:href="#DejaVuSans-58"/>
     <use x="62.130859375" xlink:href="#DejaVuSans-4f"/>
     <use x="140.841796875" xlink:href="#DejaVuSans-52"/>
     <use x="210.32421875" xlink:href="#DejaVuSans-20"/>
     <use x="242.111328125" xlink:href="#DejaVuSans-42"/>
     <use x="310.71484375" xlink:href="#DejaVuSans-69"/>
     <use x="338.498046875" xlink:href="#DejaVuSans-70"/>
     <use x="401.974609375" xlink:href="#DejaVuSans-6f"/>
     <use x="463.15625" xlink:href="#DejaVuSans-6c"/>
     <use x="490.939453125" xlink:href="#DejaVuSans-61"/>
     <use x="552.21875" xlink:href="#DejaVuSans-72"/>
    </g>
   </g>
  </g>
 </g>
 <defs>
  <clipPath id="p7ff5b81e1d">
   <rect height="345.6" width="446.4" x="72.0" y="43.2"/>
  </clipPath>
 </defs>
</svg>
