<?xml version="1.0" encoding="utf-8" standalone="no"?>
<!DOCTYPE svg PUBLIC "-//W3C//DTD SVG 1.1//EN"
  "http://www.w3.org/Graphics/SVG/1.1/DTD/svg11.dtd">
<!-- Created with matplotlib (http://matplotlib.org/) -->
<svg height="432pt" version="1.1" viewBox="0 0 576 432" width="576pt" xmlns="http://www.w3.org/2000/svg" xmlns:xlink="http://www.w3.org/1999/xlink">
 <defs>
  <style type="text/css">
*{stroke-linecap:butt;stroke-linejoin:round;}
  </style>
 </defs>
 <g id="figure_1">
  <g id="patch_1">
   <path d="
M0 432
L576 432
L576 0
L0 0
z
" style="fill:#ffffff;"/>
  </g>
  <g id="axes_1">
   <g id="patch_2">
    <path d="
M72 388.8
L518.4 388.8
L518.4 43.2
L72 43.2
z
" style="fill:#ffffff;"/>
   </g>
   <g id="line2d_1">
    <path clip-path="url(#p7ff5b81e1d)" d="
M72.2232 108.317
L72.4464 302.624
L72.6696 365.571
L72.8928 83.1352
L73.116 136.215
L73.3392 286.039
L73.5624 343.032
L73.7856 103.991
L74.0088 158.575
L74.232 272.406
L74.4552 324.167
L74.6784 121.082
L74.9016 176.391
L75.348 308.541
L75.5712 135.089
L76.2408 295.686
L76.464 146.588
L77.1336 285.156
L77.3568 156.055
L77.8032 239.563
L78.0264 276.553
L78.2496 163.88
L78.4728 217.655
L78.696 235.074
L78.9192 269.534
L79.1424 170.375
L79.3656 223.21
L79.5888 231.549
L79.812 263.812
L80.0352 175.794
L80.2584 227.601
L80.4816 228.8
L80.7048 259.148
L80.928 180.341
L81.1512 231.068
L81.3744 226.673
L81.5976 255.346
L81.8208 184.178
L82.044 233.803
L82.2672 225.042
L82.4904 252.247
L82.7136 187.437
L82.9368 235.957
L83.16 223.804
L83.3832 249.72
L83.6064 190.224
L83.8296 237.65
L84.0528 222.879
L84.276 247.66
L84.4992 192.624
L84.7224 238.977
L84.9456 222.201
L85.1688 245.98
L85.392 194.704
L85.6152 240.015
L85.8384 221.715
L86.0616 244.613
L86.2848 196.522
L86.508 240.824
L86.7312 221.379
L86.9544 243.5
L87.1776 198.122
L87.4008 241.45
L87.624 221.161
L87.8472 242.597
L88.0704 199.54
L88.2936 241.934
L88.5168 221.031
L88.74 241.867
L88.9632 200.805
L89.1864 242.305
L89.4096 220.97
L89.6328 241.279
L89.856 201.942
L90.0792 242.588
L90.3024 220.959
L90.5256 240.808
L90.7488 202.971
L90.972 242.802
L91.1952 220.985
L91.4184 240.435
L91.6416 203.907
L91.8648 242.962
L92.088 221.038
L92.3112 240.144
L92.5344 204.764
L92.7576 243.081
L92.9808 221.109
L93.204 239.92
L93.4272 205.553
L93.6504 243.168
L93.8736 221.191
L94.0968 239.754
L94.32 206.282
L94.5432 243.232
L94.7664 221.28
L94.9896 239.635
L95.2128 206.959
L95.436 243.278
L95.6592 221.371
L95.8824 239.557
L96.1056 207.59
L96.3288 243.312
L96.552 221.462
L96.7752 239.512
L96.9984 208.18
L97.2216 243.336
L97.4448 221.55
L97.668 239.497
L97.8912 208.734
L98.1144 243.356
L98.3376 221.634
L98.5608 239.507
L98.784 209.254
L99.0072 243.372
L99.2304 221.713
L99.4536 239.538
L99.6768 209.745
L99.9 243.386
L100.123 221.785
L100.346 239.587
L100.57 210.209
L100.793 243.401
L101.016 221.851
L101.239 239.652
L101.462 210.647
L101.686 243.416
L101.909 221.909
L102.132 239.731
L102.355 211.063
L102.578 243.434
L102.802 221.961
L103.025 239.821
L103.248 211.457
L103.471 243.454
L103.694 222.005
L103.918 239.921
L104.141 211.831
L104.364 243.477
L104.587 222.042
L104.81 240.031
L105.034 212.187
L105.257 243.503
L105.48 222.072
L105.703 240.147
L105.926 212.525
L106.15 243.533
L106.373 222.096
L106.596 240.271
L106.819 212.847
L107.042 243.567
L107.266 222.113
L107.489 240.4
L107.712 213.153
L107.935 243.604
L108.158 222.124
L108.382 240.535
L108.605 213.444
L108.828 243.645
L109.051 222.13
L109.274 240.673
L109.498 213.722
L109.721 243.69
L109.944 222.13
L110.167 240.816
L110.39 213.986
L110.614 243.738
L110.837 222.124
L111.06 240.961
L111.283 214.238
L111.506 243.79
L111.73 222.114
L111.953 241.11
L112.176 214.478
L112.399 243.845
L112.622 222.1
L112.846 241.261
L113.069 214.706
L113.292 243.903
L113.515 222.081
L113.738 241.414
L113.962 214.923
L114.185 243.965
L114.408 222.059
L114.631 241.568
L114.854 215.13
L115.078 244.029
L115.301 222.033
L115.524 241.724
L115.747 215.327
L115.97 244.097
L116.194 222.003
L116.417 241.881
L116.64 215.514
L116.863 244.167
L117.086 221.971
L117.31 242.039
L117.533 215.691
L117.756 244.24
L117.979 221.935
L118.202 242.198
L118.426 215.86
L118.649 244.315
L118.872 221.897
L119.095 242.357
L119.318 216.021
L119.542 244.393
L119.765 221.857
L119.988 242.516
L120.211 216.173
L120.434 244.473
L120.658 221.815
L120.881 242.676
L121.104 216.318
L121.327 244.555
L121.55 221.771
L121.774 242.835
L121.997 216.455
L122.22 244.64
L122.443 221.725
L122.666 242.994
L122.89 216.584
L123.113 244.726
L123.336 221.677
L123.559 243.153
L123.782 216.707
L124.006 244.814
L124.229 221.628
L124.452 243.311
L124.675 216.823
L124.898 244.903
L125.122 221.578
L125.345 243.469
L125.568 216.933
L125.791 244.994
L126.014 221.526
L126.238 243.627
L126.461 217.037
L126.684 245.087
L126.907 221.474
L127.13 243.783
L127.354 217.134
L127.577 245.181
L127.8 221.421
L128.023 243.939
L128.246 217.226
L128.47 245.276
L128.693 221.367
L128.916 244.094
L129.139 217.313
L129.362 245.372
L129.586 221.312
L129.809 244.248
L130.032 217.394
L130.255 245.47
L130.478 221.257
L130.702 244.401
L130.925 217.47
L131.148 245.568
L131.371 221.202
L131.594 244.553
L131.818 217.541
L132.041 245.667
L132.264 221.146
L132.487 244.703
L132.71 217.608
L132.934 245.768
L133.157 221.09
L133.38 244.853
L133.603 217.67
L133.826 245.869
L134.05 221.034
L134.273 245.001
L134.496 217.728
L134.719 245.97
L134.942 220.978
L135.166 245.149
L135.389 217.782
L135.612 246.073
L135.835 220.921
L136.058 245.295
L136.282 217.832
L136.505 246.175
L136.728 220.865
L136.951 245.44
L137.174 217.878
L137.398 246.279
L137.621 220.809
L137.844 245.583
L138.067 217.92
L138.29 246.383
L138.514 220.753
L138.737 245.725
L138.96 217.959
L139.183 246.487
L139.406 220.697
L139.63 245.866
L139.853 217.994
L140.076 246.591
L140.299 220.641
L140.522 246.005
L140.746 218.026
L140.969 246.696
L141.192 220.586
L141.415 246.144
L141.638 218.056
L141.862 246.801
L142.085 220.531
L142.308 246.28
L142.531 218.082
L142.754 246.906
L142.978 220.476
L143.201 246.416
L143.424 218.105
L143.647 247.012
L143.87 220.422
L144.094 246.55
L144.317 218.126
L144.54 247.117
L144.763 220.368
L144.986 246.682
L145.21 218.144
L145.433 247.223
L145.656 220.315
L145.879 246.813
L146.102 218.159
L146.326 247.328
L146.549 220.262
L146.772 246.943
L146.995 218.172
L147.218 247.434
L147.442 220.209
L147.665 247.071
L147.888 218.183
L148.111 247.539
L148.334 220.157
L148.558 247.198
L148.781 218.192
L149.004 247.644
L149.227 220.106
L149.45 247.324
L149.674 218.198
L149.897 247.749
L150.12 220.055
L150.343 247.448
L150.566 218.203
L150.79 247.854
L151.013 220.004
L151.236 247.571
L151.459 218.205
L151.682 247.959
L151.906 219.954
L152.129 247.692
L152.352 218.206
L152.575 248.063
L152.798 219.905
L153.022 247.812
L153.245 218.205
L153.468 248.167
L153.691 219.856
L153.914 247.931
L154.138 218.203
L154.361 248.271
L154.584 219.808
L154.807 248.048
L155.03 218.198
L155.254 248.375
L155.477 219.76
L155.7 248.164
L155.923 218.193
L156.146 248.478
L156.37 219.713
L156.593 248.278
L156.816 218.186
L157.039 248.581
L157.262 219.666
L157.486 248.391
L157.709 218.177
L157.932 248.683
L158.155 219.62
L158.378 248.503
L158.602 218.167
L158.825 248.785
L159.048 219.575
L159.271 248.614
L159.494 218.156
L159.718 248.886
L159.941 219.53
L160.164 248.723
L160.387 218.144
L160.61 248.987
L160.834 219.486
L161.057 248.831
L161.28 218.131
L161.503 249.088
L161.726 219.442
L161.95 248.937
L162.173 218.117
L162.396 249.188
L162.619 219.399
L162.842 249.043
L163.066 218.101
L163.289 249.288
L163.512 219.357
L163.735 249.147
L163.958 218.085
L164.182 249.386
L164.405 219.315
L164.628 249.25
L164.851 218.068
L165.074 249.485
L165.298 219.273
L165.521 249.351
L165.744 218.05
L165.967 249.583
L166.19 219.233
L166.414 249.452
L166.637 218.031
L166.86 249.68
L167.083 219.192
L167.306 249.551
L167.53 218.012
L167.753 249.777
L167.976 219.153
L168.199 249.649
L168.422 217.991
L168.646 249.873
L168.869 219.114
L169.092 249.746
L169.315 217.971
L169.538 249.968
L169.762 219.075
L169.985 249.841
L170.208 217.949
L170.431 250.063
L170.654 219.037
L170.878 249.936
L171.101 217.927
L171.324 250.157
L171.547 218.999
L171.77 250.029
L171.994 217.905
L172.217 250.251
L172.44 218.962
L172.663 250.122
L172.886 217.882
L173.11 250.344
L173.333 218.926
L173.556 250.213
L173.779 217.858
L174.002 250.436
L174.226 218.89
L174.449 250.303
L174.672 217.834
L174.895 250.527
L175.118 218.854
L175.342 250.392
L175.565 217.81
L175.788 250.618
L176.011 218.819
L176.234 250.48
L176.458 217.785
L176.681 250.708
L176.904 218.784
L177.127 250.566
L177.35 217.76
L177.574 250.798
L177.797 218.75
L178.02 250.652
L178.243 217.735
L178.466 250.886
L178.69 218.717
L178.913 250.737
L179.136 217.709
L179.359 250.974
L179.582 218.683
L179.806 250.821
L180.029 217.684
L180.252 251.062
L180.475 218.651
L180.698 250.904
L180.922 217.658
L181.145 251.148
L181.368 218.618
L181.591 250.985
L181.814 217.632
L182.038 251.234
L182.261 218.586
L182.484 251.066
L182.707 217.605
L182.93 251.319
L183.154 218.555
L183.377 251.146
L183.6 217.579
L183.823 251.404
L184.046 218.524
L184.27 251.225
L184.493 217.552
L184.716 251.487
L184.939 218.493
L185.162 251.303
L185.386 217.526
L185.609 251.57
L185.832 218.463
L186.055 251.38
L186.278 217.499
L186.502 251.653
L186.725 218.433
L186.948 251.457
L187.171 217.472
L187.394 251.734
L187.618 218.403
L187.841 251.532
L188.064 217.445
L188.287 251.815
L188.51 218.374
L188.734 251.606
L188.957 217.418
L189.18 251.895
L189.403 218.345
L189.626 251.68
L189.85 217.391
L190.073 251.974
L190.296 218.317
L190.519 251.753
L190.742 217.365
L190.966 252.052
L191.189 218.289
L191.412 251.825
L191.635 217.338
L191.858 252.13
L192.082 218.261
L192.305 251.896
L192.528 217.311
L192.751 252.207
L192.974 218.234
L193.198 251.966
L193.421 217.284
L193.644 252.283
L193.867 218.206
L194.09 252.036
L194.314 217.258
L194.537 252.359
L194.76 218.18
L194.983 252.104
L195.206 217.231
L195.43 252.434
L195.653 218.153
L195.876 252.172
L196.099 217.205
L196.322 252.508
L196.546 218.127
L196.769 252.239
L196.992 217.178
L197.215 252.581
L197.438 218.101
L197.662 252.306
L197.885 217.152
L198.108 252.654
L198.331 218.075
L198.554 252.372
L198.778 217.126
L199.001 252.725
L199.224 218.05
L199.447 252.437
L199.67 217.1
L199.894 252.797
L200.117 218.025
L200.34 252.501
L200.563 217.074
L200.786 252.867
L201.01 218
L201.233 252.564
L201.456 217.049
L201.679 252.937
L201.902 217.975
L202.126 252.627
L202.349 217.023
L202.572 253.005
L202.795 217.951
L203.018 252.69
L203.242 216.998
L203.465 253.074
L203.688 217.926
L203.911 252.751
L204.134 216.973
L204.358 253.141
L204.581 217.903
L204.804 252.812
L205.027 216.948
L205.25 253.208
L205.474 217.879
L205.697 252.872
L205.92 216.923
L206.143 253.274
L206.366 217.855
L206.59 252.932
L206.813 216.899
L207.036 253.339
L207.259 217.832
L207.482 252.991
L207.706 216.875
L207.929 253.404
L208.152 217.809
L208.375 253.049
L208.598 216.851
L208.822 253.468
L209.045 217.786
L209.268 253.107
L209.491 216.827
L209.714 253.531
L209.938 217.764
L210.161 253.164
L210.384 216.803
L210.607 253.594
L210.83 217.741
L211.054 253.221
L211.277 216.78
L211.5 253.655
L211.723 217.719
L211.946 253.277
L212.17 216.757
L212.393 253.716
L212.616 217.697
L212.839 253.332
L213.062 216.734
L213.286 253.777
L213.509 217.675
L213.732 253.387
L213.955 216.711
L214.178 253.837
L214.402 217.653
L214.625 253.441
L214.848 216.689
L215.071 253.896
L215.294 217.631
L215.518 253.495
L215.741 216.667
L215.964 253.954
L216.187 217.61
L216.41 253.548
L216.634 216.645
L216.857 254.012
L217.08 217.588
L217.303 253.601
L217.526 216.623
L217.75 254.069
L217.973 217.567
L218.196 253.653
L218.419 216.602
L218.642 254.126
L218.866 217.546
L219.089 253.705
L219.312 216.581
L219.535 254.181
L219.758 217.525
L219.982 253.756
L220.205 216.56
L220.428 254.236
L220.651 217.505
L220.874 253.807
L221.098 216.539
L221.321 254.291
L221.544 217.484
L221.767 253.857
L221.99 216.519
L222.214 254.345
L222.437 217.463
L222.66 253.907
L222.883 216.499
L223.106 254.398
L223.33 217.443
L223.553 253.956
L223.776 216.479
L223.999 254.451
L224.222 217.423
L224.446 254.005
L224.669 216.459
L224.892 254.503
L225.115 217.403
L225.338 254.054
L225.562 216.44
L225.785 254.554
L226.008 217.383
L226.231 254.101
L226.454 216.421
L226.678 254.605
L226.901 217.363
L227.124 254.149
L227.347 216.402
L227.57 254.655
L227.794 217.343
L228.017 254.196
L228.24 216.384
L228.463 254.705
L228.686 217.323
L228.91 254.243
L229.133 216.366
L229.356 254.754
L229.579 217.304
L229.802 254.289
L230.026 216.348
L230.249 254.802
L230.472 217.284
L230.695 254.335
L230.918 216.33
L231.142 254.85
L231.365 217.265
L231.588 254.38
L231.811 216.313
L232.034 254.897
L232.258 217.245
L232.481 254.425
L232.704 216.296
L232.927 254.944
L233.15 217.226
L233.374 254.469
L233.597 216.279
L233.82 254.99
L234.043 217.207
L234.266 254.514
L234.49 216.262
L234.713 255.035
L234.936 217.188
L235.159 254.557
L235.382 216.246
L235.606 255.08
L235.829 217.169
L236.052 254.601
L236.275 216.23
L236.498 255.125
L236.722 217.15
L236.945 254.644
L237.168 216.214
L237.391 255.169
L237.614 217.131
L237.838 254.687
L238.061 216.198
L238.284 255.212
L238.507 217.112
L238.73 254.729
L238.954 216.183
L239.177 255.255
L239.4 217.093
L239.623 254.771
L239.846 216.168
L240.07 255.297
L240.293 217.075
L240.516 254.813
L240.739 216.153
L240.962 255.339
L241.186 217.056
L241.409 254.854
L241.632 216.138
L241.855 255.38
L242.078 217.038
L242.302 254.895
L242.525 216.124
L242.748 255.421
L242.971 217.019
L243.194 254.935
L243.418 216.11
L243.641 255.461
L243.864 217.001
L244.087 254.976
L244.31 216.096
L244.534 255.501
L244.757 216.982
L244.98 255.015
L245.203 216.082
L245.426 255.54
L245.65 216.964
L245.873 255.055
L246.096 216.069
L246.319 255.579
L246.542 216.946
L246.766 255.094
L246.989 216.056
L247.212 255.617
L247.435 216.928
L247.658 255.133
L247.882 216.043
L248.105 255.655
L248.328 216.91
L248.551 255.172
L248.774 216.03
L248.998 255.692
L249.221 216.892
L249.444 255.21
L249.667 216.018
L249.89 255.729
L250.114 216.874
L250.337 255.248
L250.56 216.005
L250.783 255.765
L251.006 216.856
L251.23 255.286
L251.453 215.993
L251.676 255.801
L251.899 216.838
L252.122 255.324
L252.346 215.981
L252.569 255.837
L252.792 216.82
L253.015 255.361
L253.238 215.97
L253.462 255.872
L253.685 216.802
L253.908 255.398
L254.131 215.959
L254.354 255.906
L254.578 216.785
L254.801 255.434
L255.024 215.947
L255.247 255.94
L255.47 216.767
L255.694 255.47
L255.917 215.936
L256.14 255.974
L256.363 216.749
L256.586 255.506
L256.81 215.926
L257.033 256.007
L257.256 216.732
L257.479 255.542
L257.702 215.915
L257.926 256.04
L258.149 216.714
L258.372 255.578
L258.595 215.905
L258.818 256.073
L259.042 216.697
L259.265 255.613
L259.488 215.895
L259.711 256.105
L259.934 216.679
L260.158 255.648
L260.381 215.885
L260.604 256.137
L260.827 216.662
L261.05 255.683
L261.274 215.875
L261.497 256.168
L261.72 216.645
L261.943 255.717
L262.166 215.865
L262.39 256.199
L262.613 216.627
L262.836 255.751
L263.059 215.856
L263.282 256.229
L263.506 216.61
L263.729 255.785
L263.952 215.847
L264.175 256.259
L264.398 216.593
L264.622 255.819
L264.845 215.838
L265.068 256.289
L265.291 216.576
L265.514 255.852
L265.738 215.829
L265.961 256.319
L266.184 216.558
L266.407 255.885
L266.63 215.82
L266.854 256.348
L267.077 216.541
L267.3 255.918
L267.523 215.812
L267.746 256.376
L267.97 216.524
L268.193 255.951
L268.416 215.803
L268.639 256.404
L268.862 216.507
L269.086 255.983
L269.309 215.795
L269.532 256.432
L269.755 216.49
L269.978 256.016
L270.202 215.787
L270.425 256.46
L270.648 216.474
L270.871 256.048
L271.094 215.779
L271.318 256.487
L271.541 216.457
L271.764 256.079
L271.987 215.772
L272.21 256.514
L272.434 216.44
L272.657 256.111
L272.88 215.764
L273.103 256.541
L273.326 216.423
L273.55 256.142
L273.773 215.757
L273.996 256.567
L274.219 216.406
L274.442 256.173
L274.666 215.749
L274.889 256.593
L275.112 216.39
L275.335 256.204
L275.558 215.742
L275.782 256.619
L276.005 216.373
L276.228 256.235
L276.451 215.735
L276.674 256.644
L276.898 216.357
L277.121 256.265
L277.344 215.729
L277.567 256.669
L277.79 216.34
L278.014 256.296
L278.237 215.722
L278.46 256.694
L278.683 216.324
L278.906 256.326
L279.13 215.715
L279.353 256.718
L279.576 216.307
L279.799 256.355
L280.022 215.709
L280.246 256.742
L280.469 216.291
L280.692 256.385
L280.915 215.703
L281.138 256.766
L281.362 216.274
L281.585 256.414
L281.808 215.696
L282.031 256.789
L282.254 216.258
L282.478 256.443
L282.701 215.69
L282.924 256.813
L283.147 216.242
L283.37 256.472
L283.594 215.684
L283.817 256.836
L284.04 216.226
L284.263 256.501
L284.486 215.679
L284.71 256.858
L284.933 216.21
L285.156 256.53
L285.379 215.673
L285.602 256.881
L285.826 216.194
L286.049 256.558
L286.272 215.667
L286.495 256.903
L286.718 216.178
L286.942 256.586
L287.165 215.662
L287.388 256.925
L287.611 216.162
L287.834 256.614
L288.058 215.656
L288.281 256.946
L288.504 216.146
L288.727 256.642
L288.95 215.651
L289.174 256.968
L289.397 216.13
L289.62 256.67
L289.843 215.646
L290.066 256.989
L290.29 216.114
L290.513 256.697
L290.736 215.641
L290.959 257.01
L291.182 216.098
L291.406 256.724
L291.629 215.636
L291.852 257.03
L292.075 216.083
L292.298 256.751
L292.522 215.631
L292.745 257.051
L292.968 216.067
L293.191 256.778
L293.414 215.626
L293.638 257.071
L293.861 216.051
L294.084 256.805
L294.307 215.621
L294.53 257.091
L294.754 216.036
L294.977 256.831
L295.2 215.617
L295.423 257.111
L295.646 216.02
L295.87 256.858
L296.093 215.612
L296.316 257.13
L296.539 216.005
L296.762 256.884
L296.986 215.608
L297.209 257.149
L297.432 215.99
L297.655 256.91
L297.878 215.603
L298.102 257.168
L298.325 215.974
L298.548 256.935
L298.771 215.599
L298.994 257.187
L299.218 215.959
L299.441 256.961
L299.664 215.595
L299.887 257.206
L300.11 215.944
L300.334 256.986
L300.557 215.59
L300.78 257.224
L301.003 215.929
L301.226 257.011
L301.45 215.586
L301.673 257.243
L301.896 215.914
L302.119 257.036
L302.342 215.582
L302.566 257.261
L302.789 215.899
L303.012 257.061
L303.235 215.578
L303.458 257.278
L303.682 215.884
L303.905 257.086
L304.128 215.574
L304.351 257.296
L304.574 215.869
L304.798 257.11
L305.021 215.57
L305.244 257.313
L305.467 215.854
L305.69 257.135
L305.914 215.566
L306.137 257.331
L306.36 215.839
L306.583 257.159
L306.806 215.563
L307.03 257.348
L307.253 215.825
L307.476 257.183
L307.699 215.559
L307.922 257.365
L308.146 215.81
L308.369 257.207
L308.592 215.555
L308.815 257.381
L309.038 215.795
L309.262 257.23
L309.485 215.552
L309.708 257.398
L309.931 215.781
L310.154 257.254
L310.378 215.548
L310.601 257.414
L310.824 215.767
L311.047 257.277
L311.27 215.544
L311.494 257.431
L311.717 215.752
L311.94 257.301
L312.163 215.541
L312.386 257.447
L312.61 215.738
L312.833 257.324
L313.056 215.537
L313.279 257.463
L313.502 215.724
L313.726 257.346
L313.949 215.534
L314.172 257.478
L314.395 215.71
L314.618 257.369
L314.842 215.531
L315.065 257.494
L315.288 215.695
L315.511 257.392
L315.734 215.527
L315.958 257.509
L316.181 215.681
L316.404 257.414
L316.627 215.524
L316.85 257.525
L317.074 215.667
L317.297 257.436
L317.52 215.521
L317.743 257.54
L317.966 215.654
L318.19 257.458
L318.413 215.517
L318.636 257.555
L318.859 215.64
L319.082 257.48
L319.306 215.514
L319.529 257.57
L319.752 215.626
L319.975 257.502
L320.198 215.511
L320.422 257.584
L320.645 215.612
L320.868 257.523
L321.091 215.508
L321.314 257.599
L321.538 215.599
L321.761 257.545
L321.984 215.505
L322.207 257.613
L322.43 215.585
L322.654 257.566
L322.877 215.501
L323.1 257.628
L323.323 215.572
L323.546 257.587
L323.77 215.498
L323.993 257.642
L324.216 215.559
L324.439 257.608
L324.662 215.495
L324.886 257.656
L325.109 215.545
L325.332 257.629
L325.555 215.492
L325.778 257.67
L326.002 215.532
L326.225 257.65
L326.448 215.489
L326.671 257.684
L326.894 215.519
L327.118 257.67
L327.341 215.486
L327.564 257.697
L327.787 215.506
L328.01 257.691
L328.234 215.483
L328.457 257.711
L328.68 215.493
L328.903 257.711
L329.126 215.48
L329.35 257.724
L329.573 215.48
L329.796 257.731
L330.019 215.477
L330.242 257.738
L330.466 215.467
L330.689 257.751
L330.912 215.474
L331.135 257.751
L331.358 215.454
L331.582 257.771
L331.805 215.471
L332.028 257.764
L332.251 215.442
L332.474 257.79
L332.698 215.468
L332.921 257.777
L333.144 215.429
L333.367 257.81
L333.59 215.465
L333.814 257.79
L334.037 215.416
L334.26 257.829
L334.483 215.462
L334.706 257.803
L334.93 215.404
L335.153 257.849
L335.376 215.459
L335.599 257.815
L335.822 215.392
L336.046 257.868
L336.269 215.456
L336.492 257.828
L336.715 215.379
L336.938 257.887
L337.162 215.453
L337.385 257.841
L337.608 215.367
L337.831 257.905
L338.054 215.45
L338.278 257.853
L338.501 215.355
L338.724 257.924
L338.947 215.447
L339.17 257.865
L339.394 215.343
L339.617 257.943
L339.84 215.444
L340.063 257.878
L340.286 215.331
L340.51 257.961
L340.733 215.441
L340.956 257.89
L341.179 215.319
L341.402 257.979
L341.626 215.438
L341.849 257.902
L342.072 215.307
L342.295 257.997
L342.518 215.435
L342.742 257.914
L342.965 215.295
L343.188 258.015
L343.411 215.432
L343.634 257.925
L343.858 215.284
L344.081 258.033
L344.304 215.429
L344.527 257.937
L344.75 215.272
L344.974 258.051
L345.197 215.426
L345.42 257.949
L345.643 215.261
L345.866 258.068
L346.09 215.423
L346.313 257.961
L346.536 215.249
L346.759 258.086
L346.982 215.419
L347.206 257.972
L347.429 215.238
L347.652 258.103
L347.875 215.416
L348.098 257.984
L348.322 215.226
L348.545 258.12
L348.768 215.413
L348.991 257.995
L349.214 215.215
L349.438 258.137
L349.661 215.41
L349.884 258.006
L350.107 215.204
L350.33 258.154
L350.554 215.407
L350.777 258.017
L351 215.193
L351.223 258.171
L351.446 215.404
L351.67 258.029
L351.893 215.182
L352.116 258.188
L352.339 215.401
L352.562 258.04
L352.786 215.171
L353.009 258.204
L353.232 215.398
L353.455 258.051
L353.678 215.16
L353.902 258.221
L354.125 215.395
L354.348 258.062
L354.571 215.15
L354.794 258.237
L355.018 215.391
L355.241 258.073
L355.464 215.139
L355.687 258.253
L355.91 215.388
L356.134 258.083
L356.357 215.128
L356.58 258.269
L356.803 215.385
L357.026 258.094
L357.25 215.118
L357.473 258.285
L357.696 215.382
L357.919 258.105
L358.142 215.108
L358.366 258.301
L358.589 215.379
L358.812 258.115
L359.035 215.097
L359.258 258.317
L359.482 215.375
L359.705 258.126
L359.928 215.087
L360.151 258.332
L360.374 215.372
L360.598 258.137
L360.821 215.077
L361.044 258.348
L361.267 215.369
L361.49 258.147
L361.714 215.067
L361.937 258.363
L362.16 215.366
L362.383 258.157
L362.606 215.057
L362.83 258.378
L363.053 215.362
L363.276 258.168
L363.499 215.047
L363.722 258.393
L363.946 215.359
L364.169 258.178
L364.392 215.037
L364.615 258.408
L364.838 215.356
L365.062 258.188
L365.285 215.027
L365.508 258.423
L365.731 215.352
L365.954 258.198
L366.178 215.017
L366.401 258.438
L366.624 215.349
L366.847 258.208
L367.07 215.008
L367.294 258.452
L367.517 215.345
L367.74 258.219
L367.963 214.998
L368.186 258.467
L368.41 215.342
L368.633 258.229
L368.856 214.989
L369.079 258.481
L369.302 215.338
L369.526 258.238
L369.749 214.979
L369.972 258.495
L370.195 215.335
L370.418 258.248
L370.642 214.97
L370.865 258.509
L371.088 215.331
L371.311 258.258
L371.534 214.961
L371.758 258.523
L371.981 215.328
L372.204 258.268
L372.427 214.951
L372.65 258.537
L372.874 215.324
L373.097 258.278
L373.32 214.942
L373.543 258.551
L373.766 215.321
L373.99 258.288
L374.213 214.933
L374.436 258.565
L374.659 215.317
L374.882 258.297
L375.106 214.924
L375.329 258.578
L375.552 215.314
L375.775 258.307
L375.998 214.915
L376.222 258.592
L376.445 215.31
L376.668 258.316
L376.891 214.907
L377.114 258.605
L377.338 215.306
L377.561 258.326
L377.784 214.898
L378.007 258.619
L378.23 215.303
L378.454 258.335
L378.677 214.889
L378.9 258.632
L379.123 215.299
L379.346 258.345
L379.57 214.881
L379.793 258.645
L380.016 215.295
L380.239 258.354
L380.462 214.872
L380.686 258.658
L380.909 215.291
L381.132 258.364
L381.355 214.864
L381.578 258.67
L381.802 215.288
L382.025 258.373
L382.248 214.855
L382.471 258.683
L382.694 215.284
L382.918 258.382
L383.141 214.847
L383.364 258.696
L383.587 215.28
L383.81 258.392
L384.034 214.839
L384.257 258.708
L384.48 215.276
L384.703 258.401
L384.926 214.831
L385.15 258.721
L385.373 215.272
L385.596 258.41
L385.819 214.823
L386.042 258.733
L386.266 215.268
L386.489 258.419
L386.712 214.815
L386.935 258.745
L387.158 215.264
L387.382 258.428
L387.605 214.807
L387.828 258.757
L388.051 215.261
L388.274 258.437
L388.498 214.799
L388.721 258.769
L388.944 215.257
L389.167 258.446
L389.39 214.791
L389.614 258.781
L389.837 215.253
L390.06 258.455
L390.283 214.783
L390.506 258.793
L390.73 215.249
L390.953 258.464
L391.176 214.776
L391.399 258.805
L391.622 215.245
L391.846 258.473
L392.069 214.768
L392.292 258.817
L392.515 215.241
L392.738 258.482
L392.962 214.761
L393.185 258.828
L393.408 215.237
L393.631 258.491
L393.854 214.753
L394.078 258.839
L394.301 215.232
L394.524 258.5
L394.747 214.746
L394.97 258.851
L395.194 215.228
L395.417 258.508
L395.64 214.738
L395.863 258.862
L396.086 215.224
L396.31 258.517
L396.533 214.731
L396.756 258.873
L396.979 215.22
L397.202 258.526
L397.426 214.724
L397.649 258.884
L397.872 215.216
L398.095 258.535
L398.318 214.717
L398.542 258.895
L398.765 215.212
L398.988 258.543
L399.211 214.71
L399.434 258.906
L399.658 215.208
L399.881 258.552
L400.104 214.703
L400.327 258.917
L400.55 215.203
L400.774 258.56
L400.997 214.696
L401.22 258.928
L401.443 215.199
L401.666 258.569
L401.89 214.689
L402.113 258.938
L402.336 215.195
L402.559 258.578
L402.782 214.682
L403.006 258.949
L403.229 215.191
L403.452 258.586
L403.675 214.675
L403.898 258.959
L404.122 215.186
L404.345 258.595
L404.568 214.669
L404.791 258.969
L405.014 215.182
L405.238 258.603
L405.461 214.662
L405.684 258.98
L405.907 215.178
L406.13 258.611
L406.354 214.656
L406.577 258.99
L406.8 215.173
L407.023 258.62
L407.246 214.649
L407.47 259
L407.693 215.169
L407.916 258.628
L408.139 214.643
L408.362 259.01
L408.586 215.164
L408.809 258.636
L409.032 214.636
L409.255 259.02
L409.478 215.16
L409.702 258.645
L409.925 214.63
L410.148 259.03
L410.371 215.156
L410.594 258.653
L410.818 214.624
L411.041 259.039
L411.264 215.151
L411.487 258.661
L411.71 214.618
L411.934 259.049
L412.157 215.147
L412.38 258.67
L412.603 214.612
L412.826 259.059
L413.05 215.142
L413.273 258.678
L413.496 214.605
L413.719 259.068
L413.942 215.138
L414.166 258.686
L414.389 214.599
L414.612 259.078
L414.835 215.133
L415.058 258.694
L415.282 214.594
L415.505 259.087
L415.728 215.129
L415.951 258.702
L416.174 214.588
L416.398 259.096
L416.621 215.124
L416.844 258.71
L417.067 214.582
L417.29 259.105
L417.514 215.12
L417.737 258.718
L417.96 214.576
L418.183 259.115
L418.406 215.115
L418.63 258.726
L418.853 214.57
L419.076 259.124
L419.299 215.11
L419.522 258.734
L419.746 214.565
L419.969 259.133
L420.192 215.106
L420.415 258.742
L420.638 214.559
L420.862 259.141
L421.085 215.101
L421.308 258.75
L421.531 214.553
L421.754 259.15
L421.978 215.097
L422.201 258.758
L422.424 214.548
L422.647 259.159
L422.87 215.092
L423.094 258.766
L423.317 214.543
L423.54 259.168
L423.763 215.087
L423.986 258.774
L424.21 214.537
L424.433 259.176
L424.656 215.083
L424.879 258.782
L425.102 214.532
L425.326 259.185
L425.549 215.078
L425.772 258.79
L425.995 214.526
L426.218 259.193
L426.442 215.073
L426.665 258.797
L426.888 214.521
L427.111 259.202
L427.334 215.069
L427.558 258.805
L427.781 214.516
L428.004 259.21
L428.227 215.064
L428.45 258.813
L428.674 214.511
L428.897 259.218
L429.12 215.059
L429.343 258.821
L429.566 214.506
L429.79 259.226
L430.013 215.054
L430.236 258.828
L430.459 214.501
L430.682 259.234
L430.906 215.05
L431.129 258.836
L431.352 214.496
L431.575 259.242
L431.798 215.045
L432.022 258.844
L432.245 214.491
L432.468 259.25
L432.691 215.04
L432.914 258.851
L433.138 214.486
L433.361 259.258
L433.584 215.035
L433.807 258.859
L434.03 214.481
L434.254 259.266
L434.477 215.031
L434.7 258.866
L434.923 214.476
L435.146 259.274
L435.37 215.026
L435.593 258.874
L435.816 214.472
L436.039 259.281
L436.262 215.021
L436.486 258.882
L436.709 214.467
L436.932 259.289
L437.155 215.016
L437.378 258.889
L437.602 214.462
L437.825 259.297
L438.048 215.011
L438.271 258.896
L438.494 214.458
L438.718 259.304
L438.941 215.007
L439.164 258.904
L439.387 214.453
L439.61 259.312
L439.834 215.002
L440.057 258.911
L440.28 214.449
L440.503 259.319
L440.726 214.997
L440.95 258.919
L441.173 214.444
L441.396 259.326
L441.619 214.992
L441.842 258.926
L442.066 214.44
L442.289 259.333
L442.512 214.987
L442.735 258.933
L442.958 214.435
L443.182 259.341
L443.405 214.982
L443.628 258.941
L443.851 214.431
L444.074 259.348
L444.298 214.978
L444.521 258.948
L444.744 214.427
L444.967 259.355
L445.19 214.973
L445.414 258.955
L445.637 214.422
L445.86 259.362
L446.083 214.968
L446.306 258.963
L446.53 214.418
L446.753 259.369
L446.976 214.963
L447.199 258.97
L447.422 214.414
L447.646 259.376
L447.869 214.958
L448.092 258.977
L448.315 214.41
L448.538 259.382
L448.762 214.953
L448.985 258.984
L449.208 214.406
L449.431 259.389
L449.654 214.948
L449.878 258.991
L450.101 214.402
L450.324 259.396
L450.547 214.944
L450.77 258.999
L450.994 214.398
L451.217 259.403
L451.44 214.939
L451.663 259.006
L451.886 214.394
L452.11 259.409
L452.333 214.934
L452.556 259.013
L452.779 214.39
L453.002 259.416
L453.226 214.929
L453.449 259.02
L453.672 214.386
L453.895 259.422
L454.118 214.924
L454.342 259.027
L454.565 214.382
L454.788 259.429
L455.011 214.919
L455.234 259.034
L455.458 214.378
L455.681 259.435
L455.904 214.914
L456.127 259.041
L456.35 214.374
L456.574 259.441
L456.797 214.909
L457.02 259.048
L457.243 214.371
L457.466 259.448
L457.69 214.904
L457.913 259.055
L458.136 214.367
L458.359 259.454
L458.582 214.9
L458.806 259.062
L459.029 214.363
L459.252 259.46
L459.475 214.895
L459.698 259.069
L459.922 214.36
L460.145 259.466
L460.368 214.89
L460.591 259.075
L460.814 214.356
L461.038 259.472
L461.261 214.885
L461.484 259.082
L461.707 214.352
L461.93 259.478
L462.154 214.88
L462.377 259.089
L462.6 214.349
L462.823 259.484
L463.046 214.875
L463.27 259.096
L463.493 214.345
L463.716 259.49
L463.939 214.87
L464.162 259.103
L464.386 214.342
L464.609 259.496
L464.832 214.865
L465.055 259.109
L465.278 214.338
L465.502 259.502
L465.725 214.86
L465.948 259.116
L466.171 214.335
L466.394 259.508
L466.618 214.856
L466.841 259.123
L467.064 214.332
L467.287 259.513
L467.51 214.851
L467.734 259.129
L467.957 214.328
L468.18 259.519
L468.403 214.846
L468.626 259.136
L468.85 214.325
L469.073 259.525
L469.296 214.841
L469.519 259.143
L469.742 214.322
L469.966 259.53
L470.189 214.836
L470.412 259.149
L470.635 214.319
L470.858 259.536
L471.082 214.831
L471.305 259.156
L471.528 214.315
L471.751 259.541
L471.974 214.826
L472.198 259.162
L472.421 214.312
L472.644 259.547
L472.867 214.822
L473.09 259.169
L473.314 214.309
L473.537 259.552
L473.76 214.817
L473.983 259.175
L474.206 214.306
L474.43 259.557
L474.653 214.812
L474.876 259.182
L475.099 214.303
L475.322 259.563
L475.546 214.807
L475.769 259.188
L475.992 214.3
L476.215 259.568
L476.438 214.802
L476.662 259.195
L476.885 214.297
L477.108 259.573
L477.331 214.797
L477.554 259.201
L477.778 214.294
L478.001 259.578
L478.224 214.793
L478.447 259.208
L478.67 214.291
L478.894 259.583
L479.117 214.788
L479.34 259.214
L479.563 214.288
L479.786 259.588
L480.01 214.783
L480.233 259.22
L480.456 214.285
L480.679 259.594
L480.902 214.778
L481.126 259.226
L481.349 214.282
L481.572 259.599
L481.795 214.773
L482.018 259.233
L482.242 214.279
L482.465 259.603
L482.688 214.769
L482.911 259.239
L483.134 214.276
L483.358 259.608
L483.581 214.764
L483.804 259.245
L484.027 214.274
L484.25 259.613
L484.474 214.759
L484.697 259.251
L484.92 214.271
L485.143 259.618
L485.366 214.754
L485.59 259.258
L485.813 214.268
L486.036 259.623
L486.259 214.75
L486.482 259.264
L486.706 214.265
L486.929 259.628
L487.152 214.745
L487.375 259.27
L487.598 214.263
L487.822 259.632
L488.045 214.74
L488.268 259.276
L488.491 214.26
L488.714 259.637
L488.938 214.735
L489.161 259.282
L489.384 214.257
L489.607 259.642
L489.83 214.731
L490.054 259.288
L490.277 214.255
L490.5 259.646
L490.723 214.726
L490.946 259.294
L491.17 214.252
L491.393 259.651
L491.616 214.721
L491.839 259.3
L492.062 214.249
L492.286 259.655
L492.509 214.717
L492.732 259.306
L492.955 214.247
L493.178 259.66
L493.402 214.712
L493.625 259.312
L493.848 214.244
L494.071 259.664
L494.294 214.707
L494.518 259.318
L494.741 214.242
L494.964 259.669
L495.187 214.703
L495.41 259.324
L495.634 214.239
L495.857 259.673
L496.08 214.698
L496.303 259.33
L496.526 214.237
L496.75 259.678
L496.973 214.693
L497.196 259.336
L497.419 214.234
L497.642 259.682
L497.866 214.689
L498.089 259.341
L498.312 214.232
L498.535 259.686
L498.758 214.684
L498.982 259.347
L499.205 214.23
L499.428 259.69
L499.651 214.68
L499.874 259.353
L500.098 214.227
L500.321 259.695
L500.544 214.675
L500.767 259.359
L500.99 214.225
L501.214 259.699
L501.437 214.67
L501.66 259.364
L501.883 214.223
L502.106 259.703
L502.33 214.666
L502.553 259.37
L502.776 214.22
L502.999 259.707
L503.222 214.661
L503.446 259.376
L503.669 214.218
L503.892 259.711
L504.115 214.657
L504.338 259.382
L504.562 214.216
L504.785 259.715
L505.008 214.652
L505.231 259.387
L505.454 214.214
L505.678 259.719
L505.901 214.648
L506.124 259.393
L506.347 214.211
L506.57 259.723
L506.794 214.643
L507.017 259.398
L507.24 214.209
L507.463 259.727
L507.686 214.639
L507.91 259.404
L508.133 214.207
L508.356 259.731
L508.579 214.634
L508.802 259.409
L509.026 214.205
L509.249 259.735
L509.472 214.63
L509.695 259.415
L509.918 214.203
L510.142 259.739
L510.365 214.625
L510.588 259.42
L510.811 214.2
L511.034 259.743
L511.258 214.621
L511.481 259.426
L511.704 214.198
L511.927 259.747
L512.15 214.617
L512.374 259.431
L512.597 214.196
L512.82 259.75
L513.043 214.612
L513.266 259.437
L513.49 214.194
L513.713 259.754
L513.936 214.608
L514.159 259.442
L514.382 214.192
L514.606 259.758
L514.829 214.603
L515.052 259.447
L515.275 214.19
L515.498 259.761
L515.722 214.599
L515.945 259.453
L516.168 214.188
L516.391 259.765
L516.614 214.595
L516.838 259.458
L517.061 214.186
L517.284 259.769
L517.507 214.59
L517.73 259.463
L517.954 214.184
L518.177 259.772
L518.4 214.586
L518.4 214.586" style="fill:none;stroke:#0000ff;stroke-linecap:square;"/>
   </g>
   <g id="matplotlib.axis_1">
    <g id="xtick_1">
     <g id="line2d_2">
      <defs>
       <path d="
M0 0
L0 -4" id="mc7db9fdffb" style="stroke:#000000;stroke-width:0.5;"/>
      </defs>
      <g>
       <use style="stroke:#000000;stroke-width:0.5;" x="72.0" xlink:href="#mc7db9fdffb" y="388.8"/>
      </g>
     </g>
     <g id="line2d_3">
      <defs>
       <path d="
M0 0
L0 4" id="m5a7d422ac3" style="stroke:#000000;stroke-width:0.5;"/>
      </defs>
      <g>
       <use style="stroke:#000000;stroke-width:0.5;" x="72.0" xlink:href="#m5a7d422ac3" y="43.2"/>
      </g>
     </g>
     <g id="text_1">
      <!-- 0 -->
      <defs>
       <path d="
M31.7812 66.4062
Q24.1719 66.4062 20.3281 58.9062
Q16.5 51.4219 16.5 36.375
Q16.5 21.3906 20.3281 13.8906
Q24.1719 6.39062 31.7812 6.39062
Q39.4531 6.39062 43.2812 13.8906
Q47.125 21.3906 47.125 36.375
Q47.125 51.4219 43.2812 58.9062
Q39.4531 66.4062 31.7812 66.4062
M31.7812 74.2188
Q44.0469 74.2188 50.5156 64.5156
Q56.9844 54.8281 56.9844 36.375
Q56.9844 17.9688 50.5156 8.26562
Q44.0469 -1.42188 31.7812 -1.42188
Q19.5312 -1.42188 13.0625 8.26562
Q6.59375 17.9688 6.59375 36.375
Q6.59375 54.8281 13.0625 64.5156
Q19.5312 74.2188 31.7812 74.2188" id="DejaVuSans-30"/>
      </defs>
      <g transform="translate(68.9765625 401.918125)scale(0.12 -0.12)">
       <use xlink:href="#DejaVuSans-30"/>
      </g>
     </g>
    </g>
    <g id="xtick_2">
     <g id="line2d_4">
      <g>
       <use style="stroke:#000000;stroke-width:0.5;" x="183.6" xlink:href="#mc7db9fdffb" y="388.8"/>
      </g>
     </g>
     <g id="line2d_5">
      <g>
       <use style="stroke:#000000;stroke-width:0.5;" x="183.6" xlink:href="#m5a7d422ac3" y="43.2"/>
      </g>
     </g>
     <g id="text_2">
      <!-- 500 -->
      <defs>
       <path d="
M10.7969 72.9062
L49.5156 72.9062
L49.5156 64.5938
L19.8281 64.5938
L19.8281 46.7344
Q21.9688 47.4688 24.1094 47.8281
Q26.2656 48.1875 28.4219 48.1875
Q40.625 48.1875 47.75 41.5
Q54.8906 34.8125 54.8906 23.3906
Q54.8906 11.625 47.5625 5.09375
Q40.2344 -1.42188 26.9062 -1.42188
Q22.3125 -1.42188 17.5469 -0.640625
Q12.7969 0.140625 7.71875 1.70312
L7.71875 11.625
Q12.1094 9.23438 16.7969 8.0625
Q21.4844 6.89062 26.7031 6.89062
Q35.1562 6.89062 40.0781 11.3281
Q45.0156 15.7656 45.0156 23.3906
Q45.0156 31 40.0781 35.4375
Q35.1562 39.8906 26.7031 39.8906
Q22.75 39.8906 18.8125 39.0156
Q14.8906 38.1406 10.7969 36.2812
z
" id="DejaVuSans-35"/>
      </defs>
      <g transform="translate(173.0090625 401.918125)scale(0.12 -0.12)">
       <use xlink:href="#DejaVuSans-35"/>
       <use x="63.623046875" xlink:href="#DejaVuSans-30"/>
       <use x="127.24609375" xlink:href="#DejaVuSans-30"/>
      </g>
     </g>
    </g>
    <g id="xtick_3">
     <g id="line2d_6">
      <g>
       <use style="stroke:#000000;stroke-width:0.5;" x="295.2" xlink:href="#mc7db9fdffb" y="388.8"/>
      </g>
     </g>
     <g id="line2d_7">
      <g>
       <use style="stroke:#000000;stroke-width:0.5;" x="295.2" xlink:href="#m5a7d422ac3" y="43.2"/>
      </g>
     </g>
     <g id="text_3">
      <!-- 1000 -->
      <defs>
       <path d="
M12.4062 8.29688
L28.5156 8.29688
L28.5156 63.9219
L10.9844 60.4062
L10.9844 69.3906
L28.4219 72.9062
L38.2812 72.9062
L38.2812 8.29688
L54.3906 8.29688
L54.3906 0
L12.4062 0
z
" id="DejaVuSans-31"/>
      </defs>
      <g transform="translate(280.9875 401.918125)scale(0.12 -0.12)">
       <use xlink:href="#DejaVuSans-31"/>
       <use x="63.623046875" xlink:href="#DejaVuSans-30"/>
       <use x="127.24609375" xlink:href="#DejaVuSans-30"/>
       <use x="190.869140625" xlink:href="#DejaVuSans-30"/>
      </g>
     </g>
    </g>
    <g id="xtick_4">
     <g id="line2d_8">
      <g>
       <use style="stroke:#000000;stroke-width:0.5;" x="406.8" xlink:href="#mc7db9fdffb" y="388.8"/>
      </g>
     </g>
     <g id="line2d_9">
      <g>
       <use style="stroke:#000000;stroke-width:0.5;" x="406.8" xlink:href="#m5a7d422ac3" y="43.2"/>
      </g>
     </g>
     <g id="text_4">
      <!-- 1500 -->
      <g transform="translate(392.5875 401.918125)scale(0.12 -0.12)">
       <use xlink:href="#DejaVuSans-31"/>
       <use x="63.623046875" xlink:href="#DejaVuSans-35"/>
       <use x="127.24609375" xlink:href="#DejaVuSans-30"/>
       <use x="190.869140625" xlink:href="#DejaVuSans-30"/>
      </g>
     </g>
    </g>
    <g id="xtick_5">
     <g id="line2d_10">
      <g>
       <use style="stroke:#000000;stroke-width:0.5;" x="518.4" xlink:href="#mc7db9fdffb" y="388.8"/>
      </g>
     </g>
     <g id="line2d_11">
      <g>
       <use style="stroke:#000000;stroke-width:0.5;" x="518.4" xlink:href="#m5a7d422ac3" y="43.2"/>
      </g>
     </g>
     <g id="text_5">
      <!-- 2000 -->
      <defs>
       <path d="
M19.1875 8.29688
L53.6094 8.29688
L53.6094 0
L7.32812 0
L7.32812 8.29688
Q12.9375 14.1094 22.625 23.8906
Q32.3281 33.6875 34.8125 36.5312
Q39.5469 41.8438 41.4219 45.5312
Q43.3125 49.2188 43.3125 52.7812
Q43.3125 58.5938 39.2344 62.25
Q35.1562 65.9219 28.6094 65.9219
Q23.9688 65.9219 18.8125 64.3125
Q13.6719 62.7031 7.8125 59.4219
L7.8125 69.3906
Q13.7656 71.7812 18.9375 73
Q24.125 74.2188 28.4219 74.2188
Q39.75 74.2188 46.4844 68.5469
Q53.2188 62.8906 53.2188 53.4219
Q53.2188 48.9219 51.5312 44.8906
Q49.8594 40.875 45.4062 35.4062
Q44.1875 33.9844 37.6406 27.2188
Q31.1094 20.4531 19.1875 8.29688" id="DejaVuSans-32"/>
      </defs>
      <g transform="translate(503.968125 401.918125)scale(0.12 -0.12)">
       <use xlink:href="#DejaVuSans-32"/>
       <use x="63.623046875" xlink:href="#DejaVuSans-30"/>
       <use x="127.24609375" xlink:href="#DejaVuSans-30"/>
       <use x="190.869140625" xlink:href="#DejaVuSans-30"/>
      </g>
     </g>
    </g>
    <g id="text_6">
     <!-- Runs -->
     <defs>
      <path d="
M8.5 21.5781
L8.5 54.6875
L17.4844 54.6875
L17.4844 21.9219
Q17.4844 14.1562 20.5 10.2656
Q23.5312 6.39062 29.5938 6.39062
Q36.8594 6.39062 41.0781 11.0312
Q45.3125 15.6719 45.3125 23.6875
L45.3125 54.6875
L54.2969 54.6875
L54.2969 0
L45.3125 0
L45.3125 8.40625
Q42.0469 3.42188 37.7188 1
Q33.4062 -1.42188 27.6875 -1.42188
Q18.2656 -1.42188 13.375 4.4375
Q8.5 10.2969 8.5 21.5781
M31.1094 56
z
" id="DejaVuSans-75"/>
      <path d="
M44.2812 53.0781
L44.2812 44.5781
Q40.4844 46.5312 36.375 47.5
Q32.2812 48.4844 27.875 48.4844
Q21.1875 48.4844 17.8438 46.4375
Q14.5 44.3906 14.5 40.2812
Q14.5 37.1562 16.8906 35.375
Q19.2812 33.5938 26.5156 31.9844
L29.5938 31.2969
Q39.1562 29.25 43.1875 25.5156
Q47.2188 21.7812 47.2188 15.0938
Q47.2188 7.46875 41.1875 3.01562
Q35.1562 -1.42188 24.6094 -1.42188
Q20.2188 -1.42188 15.4531 -0.5625
Q10.6875 0.296875 5.42188 2
L5.42188 11.2812
Q10.4062 8.6875 15.2344 7.39062
Q20.0625 6.10938 24.8125 6.10938
Q31.1562 6.10938 34.5625 8.28125
Q37.9844 10.4531 37.9844 14.4062
Q37.9844 18.0625 35.5156 20.0156
Q33.0625 21.9688 24.7031 23.7812
L21.5781 24.5156
Q13.2344 26.2656 9.51562 29.9062
Q5.8125 33.5469 5.8125 39.8906
Q5.8125 47.6094 11.2812 51.7969
Q16.75 56 26.8125 56
Q31.7812 56 36.1719 55.2656
Q40.5781 54.5469 44.2812 53.0781" id="DejaVuSans-73"/>
      <path d="
M44.3906 34.1875
Q47.5625 33.1094 50.5625 29.5938
Q53.5625 26.0781 56.5938 19.9219
L66.6094 0
L56 0
L46.6875 18.7031
Q43.0625 26.0312 39.6719 28.4219
Q36.2812 30.8125 30.4219 30.8125
L19.6719 30.8125
L19.6719 0
L9.8125 0
L9.8125 72.9062
L32.0781 72.9062
Q44.5781 72.9062 50.7344 67.6719
Q56.8906 62.4531 56.8906 51.9062
Q56.8906 45.0156 53.6875 40.4688
Q50.4844 35.9375 44.3906 34.1875
M19.6719 64.7969
L19.6719 38.9219
L32.0781 38.9219
Q39.2031 38.9219 42.8438 42.2188
Q46.4844 45.5156 46.4844 51.9062
Q46.4844 58.2969 42.8438 61.5469
Q39.2031 64.7969 32.0781 64.7969
z
" id="DejaVuSans-52"/>
      <path d="
M54.8906 33.0156
L54.8906 0
L45.9062 0
L45.9062 32.7188
Q45.9062 40.4844 42.875 44.3281
Q39.8438 48.1875 33.7969 48.1875
Q26.5156 48.1875 22.3125 43.5469
Q18.1094 38.9219 18.1094 30.9062
L18.1094 0
L9.07812 0
L9.07812 54.6875
L18.1094 54.6875
L18.1094 46.1875
Q21.3438 51.125 25.7031 53.5625
Q30.0781 56 35.7969 56
Q45.2188 56 50.0469 50.1719
Q54.8906 44.3438 54.8906 33.0156" id="DejaVuSans-6e"/>
     </defs>
     <g transform="translate(281.4515625 418.531875)scale(0.12 -0.12)">
      <use xlink:href="#DejaVuSans-52"/>
      <use x="64.982421875" xlink:href="#DejaVuSans-75"/>
      <use x="128.361328125" xlink:href="#DejaVuSans-6e"/>
      <use x="191.740234375" xlink:href="#DejaVuSans-73"/>
     </g>
    </g>
   </g>
   <g id="matplotlib.axis_2">
    <g id="ytick_1">
     <g id="line2d_12">
      <defs>
       <path d="
M0 0
L4 0" id="md7965d1ba0" style="stroke:#000000;stroke-width:0.5;"/>
      </defs>
      <g>
       <use style="stroke:#000000;stroke-width:0.5;" x="72.0" xlink:href="#md7965d1ba0" y="388.8"/>
      </g>
     </g>
     <g id="line2d_13">
      <defs>
       <path d="
M0 0
L-4 0" id="md9a1c1a7cd" style="stroke:#000000;stroke-width:0.5;"/>
      </defs>
      <g>
       <use style="stroke:#000000;stroke-width:0.5;" x="518.4" xlink:href="#md9a1c1a7cd" y="388.8"/>
      </g>
     </g>
     <g id="text_7">
      <!-- 0.7 -->
      <defs>
       <path d="
M8.20312 72.9062
L55.0781 72.9062
L55.0781 68.7031
L28.6094 0
L18.3125 0
L43.2188 64.5938
L8.20312 64.5938
z
" id="DejaVuSans-37"/>
       <path d="
M10.6875 12.4062
L21 12.4062
L21 0
L10.6875 0
z
" id="DejaVuSans-2e"/>
      </defs>
      <g transform="translate(50.733125 392.11125)scale(0.12 -0.12)">
       <use xlink:href="#DejaVuSans-30"/>
       <use x="63.623046875" xlink:href="#DejaVuSans-2e"/>
       <use x="95.41015625" xlink:href="#DejaVuSans-37"/>
      </g>
     </g>
    </g>
    <g id="ytick_2">
     <g id="line2d_14">
      <g>
       <use style="stroke:#000000;stroke-width:0.5;" x="72.0" xlink:href="#md7965d1ba0" y="345.6"/>
      </g>
     </g>
     <g id="line2d_15">
      <g>
       <use style="stroke:#000000;stroke-width:0.5;" x="518.4" xlink:href="#md9a1c1a7cd" y="345.6"/>
      </g>
     </g>
     <g id="text_8">
      <!-- 0.8 -->
      <defs>
       <path d="
M31.7812 34.625
Q24.75 34.625 20.7188 30.8594
Q16.7031 27.0938 16.7031 20.5156
Q16.7031 13.9219 20.7188 10.1562
Q24.75 6.39062 31.7812 6.39062
Q38.8125 6.39062 42.8594 10.1719
Q46.9219 13.9688 46.9219 20.5156
Q46.9219 27.0938 42.8906 30.8594
Q38.875 34.625 31.7812 34.625
M21.9219 38.8125
Q15.5781 40.375 12.0312 44.7188
Q8.5 49.0781 8.5 55.3281
Q8.5 64.0625 14.7188 69.1406
Q20.9531 74.2188 31.7812 74.2188
Q42.6719 74.2188 48.875 69.1406
Q55.0781 64.0625 55.0781 55.3281
Q55.0781 49.0781 51.5312 44.7188
Q48 40.375 41.7031 38.8125
Q48.8281 37.1562 52.7969 32.3125
Q56.7812 27.4844 56.7812 20.5156
Q56.7812 9.90625 50.3125 4.23438
Q43.8438 -1.42188 31.7812 -1.42188
Q19.7344 -1.42188 13.25 4.23438
Q6.78125 9.90625 6.78125 20.5156
Q6.78125 27.4844 10.7812 32.3125
Q14.7969 37.1562 21.9219 38.8125
M18.3125 54.3906
Q18.3125 48.7344 21.8438 45.5625
Q25.3906 42.3906 31.7812 42.3906
Q38.1406 42.3906 41.7188 45.5625
Q45.3125 48.7344 45.3125 54.3906
Q45.3125 60.0625 41.7188 63.2344
Q38.1406 66.4062 31.7812 66.4062
Q25.3906 66.4062 21.8438 63.2344
Q18.3125 60.0625 18.3125 54.3906" id="DejaVuSans-38"/>
      </defs>
      <g transform="translate(50.52875 348.91125)scale(0.12 -0.12)">
       <use xlink:href="#DejaVuSans-30"/>
       <use x="63.623046875" xlink:href="#DejaVuSans-2e"/>
       <use x="95.41015625" xlink:href="#DejaVuSans-38"/>
      </g>
     </g>
    </g>
    <g id="ytick_3">
     <g id="line2d_16">
      <g>
       <use style="stroke:#000000;stroke-width:0.5;" x="72.0" xlink:href="#md7965d1ba0" y="302.4"/>
      </g>
     </g>
     <g id="line2d_17">
      <g>
       <use style="stroke:#000000;stroke-width:0.5;" x="518.4" xlink:href="#md9a1c1a7cd" y="302.4"/>
      </g>
     </g>
     <g id="text_9">
      <!-- 0.9 -->
      <defs>
       <path d="
M10.9844 1.51562
L10.9844 10.5
Q14.7031 8.73438 18.5 7.8125
Q22.3125 6.89062 25.9844 6.89062
Q35.75 6.89062 40.8906 13.4531
Q46.0469 20.0156 46.7812 33.4062
Q43.9531 29.2031 39.5938 26.9531
Q35.25 24.7031 29.9844 24.7031
Q19.0469 24.7031 12.6719 31.3125
Q6.29688 37.9375 6.29688 49.4219
Q6.29688 60.6406 12.9375 67.4219
Q19.5781 74.2188 30.6094 74.2188
Q43.2656 74.2188 49.9219 64.5156
Q56.5938 54.8281 56.5938 36.375
Q56.5938 19.1406 48.4062 8.85938
Q40.2344 -1.42188 26.4219 -1.42188
Q22.7031 -1.42188 18.8906 -0.6875
Q15.0938 0.046875 10.9844 1.51562
M30.6094 32.4219
Q37.25 32.4219 41.125 36.9531
Q45.0156 41.5 45.0156 49.4219
Q45.0156 57.2812 41.125 61.8438
Q37.25 66.4062 30.6094 66.4062
Q23.9688 66.4062 20.0938 61.8438
Q16.2188 57.2812 16.2188 49.4219
Q16.2188 41.5 20.0938 36.9531
Q23.9688 32.4219 30.6094 32.4219" id="DejaVuSans-39"/>
      </defs>
      <g transform="translate(50.55125 305.71125)scale(0.12 -0.12)">
       <use xlink:href="#DejaVuSans-30"/>
       <use x="63.623046875" xlink:href="#DejaVuSans-2e"/>
       <use x="95.41015625" xlink:href="#DejaVuSans-39"/>
      </g>
     </g>
    </g>
    <g id="ytick_4">
     <g id="line2d_18">
      <g>
       <use style="stroke:#000000;stroke-width:0.5;" x="72.0" xlink:href="#md7965d1ba0" y="259.2"/>
      </g>
     </g>
     <g id="line2d_19">
      <g>
       <use style="stroke:#000000;stroke-width:0.5;" x="518.4" xlink:href="#md9a1c1a7cd" y="259.2"/>
      </g>
     </g>
     <g id="text_10">
      <!-- 1.0 -->
      <g transform="translate(51.03125 262.51125)scale(0.12 -0.12)">
       <use xlink:href="#DejaVuSans-31"/>
       <use x="63.623046875" xlink:href="#DejaVuSans-2e"/>
       <use x="95.41015625" xlink:href="#DejaVuSans-30"/>
      </g>
     </g>
    </g>
    <g id="ytick_5">
     <g id="line2d_20">
      <g>
       <use style="stroke:#000000;stroke-width:0.5;" x="72.0" xlink:href="#md7965d1ba0" y="216.0"/>
      </g>
     </g>
     <g id="line2d_21">
      <g>
       <use style="stroke:#000000;stroke-width:0.5;" x="518.4" xlink:href="#md9a1c1a7cd" y="216.0"/>
      </g>
     </g>
     <g id="text_11">
      <!-- 1.1 -->
      <g transform="translate(51.3425 219.31125)scale(0.12 -0.12)">
       <use xlink:href="#DejaVuSans-31"/>
       <use x="63.623046875" xlink:href="#DejaVuSans-2e"/>
       <use x="95.41015625" xlink:href="#DejaVuSans-31"/>
      </g>
     </g>
    </g>
    <g id="ytick_6">
     <g id="line2d_22">
      <g>
       <use style="stroke:#000000;stroke-width:0.5;" x="72.0" xlink:href="#md7965d1ba0" y="172.8"/>
      </g>
     </g>
     <g id="line2d_23">
      <g>
       <use style="stroke:#000000;stroke-width:0.5;" x="518.4" xlink:href="#md9a1c1a7cd" y="172.8"/>
      </g>
     </g>
     <g id="text_12">
      <!-- 1.2 -->
      <g transform="translate(51.43625 176.11125)scale(0.12 -0.12)">
       <use xlink:href="#DejaVuSans-31"/>
       <use x="63.623046875" xlink:href="#DejaVuSans-2e"/>
       <use x="95.41015625" xlink:href="#DejaVuSans-32"/>
      </g>
     </g>
    </g>
    <g id="ytick_7">
     <g id="line2d_24">
      <g>
       <use style="stroke:#000000;stroke-width:0.5;" x="72.0" xlink:href="#md7965d1ba0" y="129.6"/>
      </g>
     </g>
     <g id="line2d_25">
      <g>
       <use style="stroke:#000000;stroke-width:0.5;" x="518.4" xlink:href="#md9a1c1a7cd" y="129.6"/>
      </g>
     </g>
     <g id="text_13">
      <!-- 1.3 -->
      <defs>
       <path d="
M40.5781 39.3125
Q47.6562 37.7969 51.625 33
Q55.6094 28.2188 55.6094 21.1875
Q55.6094 10.4062 48.1875 4.48438
Q40.7656 -1.42188 27.0938 -1.42188
Q22.5156 -1.42188 17.6562 -0.515625
Q12.7969 0.390625 7.625 2.20312
L7.625 11.7188
Q11.7188 9.32812 16.5938 8.10938
Q21.4844 6.89062 26.8125 6.89062
Q36.0781 6.89062 40.9375 10.5469
Q45.7969 14.2031 45.7969 21.1875
Q45.7969 27.6406 41.2812 31.2656
Q36.7656 34.9062 28.7188 34.9062
L20.2188 34.9062
L20.2188 43.0156
L29.1094 43.0156
Q36.375 43.0156 40.2344 45.9219
Q44.0938 48.8281 44.0938 54.2969
Q44.0938 59.9062 40.1094 62.9062
Q36.1406 65.9219 28.7188 65.9219
Q24.6562 65.9219 20.0156 65.0312
Q15.375 64.1562 9.8125 62.3125
L9.8125 71.0938
Q15.4375 72.6562 20.3438 73.4375
Q25.25 74.2188 29.5938 74.2188
Q40.8281 74.2188 47.3594 69.1094
Q53.9062 64.0156 53.9062 55.3281
Q53.9062 49.2656 50.4375 45.0938
Q46.9688 40.9219 40.5781 39.3125" id="DejaVuSans-33"/>
      </defs>
      <g transform="translate(51.19625 132.91125)scale(0.12 -0.12)">
       <use xlink:href="#DejaVuSans-31"/>
       <use x="63.623046875" xlink:href="#DejaVuSans-2e"/>
       <use x="95.41015625" xlink:href="#DejaVuSans-33"/>
      </g>
     </g>
    </g>
    <g id="ytick_8">
     <g id="line2d_26">
      <g>
       <use style="stroke:#000000;stroke-width:0.5;" x="72.0" xlink:href="#md7965d1ba0" y="86.4"/>
      </g>
     </g>
     <g id="line2d_27">
      <g>
       <use style="stroke:#000000;stroke-width:0.5;" x="518.4" xlink:href="#md9a1c1a7cd" y="86.4"/>
      </g>
     </g>
     <g id="text_14">
      <!-- 1.4 -->
      <defs>
       <path d="
M37.7969 64.3125
L12.8906 25.3906
L37.7969 25.3906
z

M35.2031 72.9062
L47.6094 72.9062
L47.6094 25.3906
L58.0156 25.3906
L58.0156 17.1875
L47.6094 17.1875
L47.6094 0
L37.7969 0
L37.7969 17.1875
L4.89062 17.1875
L4.89062 26.7031
z
" id="DejaVuSans-34"/>
      </defs>
      <g transform="translate(50.9075 89.71125)scale(0.12 -0.12)">
       <use xlink:href="#DejaVuSans-31"/>
       <use x="63.623046875" xlink:href="#DejaVuSans-2e"/>
       <use x="95.41015625" xlink:href="#DejaVuSans-34"/>
      </g>
     </g>
    </g>
    <g id="ytick_9">
     <g id="line2d_28">
      <g>
       <use style="stroke:#000000;stroke-width:0.5;" x="72.0" xlink:href="#md7965d1ba0" y="43.2"/>
      </g>
     </g>
     <g id="line2d_29">
      <g>
       <use style="stroke:#000000;stroke-width:0.5;" x="518.4" xlink:href="#md9a1c1a7cd" y="43.2"/>
      </g>
     </g>
     <g id="text_15">
      <!-- 1.5 -->
      <g transform="translate(51.2825 46.51125)scale(0.12 -0.12)">
       <use xlink:href="#DejaVuSans-31"/>
       <use x="63.623046875" xlink:href="#DejaVuSans-2e"/>
       <use x="95.41015625" xlink:href="#DejaVuSans-35"/>
      </g>
     </g>
    </g>
    <g id="text_16">
     <!-- Cost -->
     <defs>
      <path d="
M64.4062 67.2812
L64.4062 56.8906
Q59.4219 61.5312 53.7812 63.8125
Q48.1406 66.1094 41.7969 66.1094
Q29.2969 66.1094 22.6562 58.4688
Q16.0156 50.8281 16.0156 36.375
Q16.0156 21.9688 22.6562 14.3281
Q29.2969 6.6875 41.7969 6.6875
Q48.1406 6.6875 53.7812 8.98438
Q59.4219 11.2812 64.4062 15.9219
L64.4062 5.60938
Q59.2344 2.09375 53.4375 0.328125
Q47.6562 -1.42188 41.2188 -1.42188
Q24.6562 -1.42188 15.125 8.70312
Q5.60938 18.8438 5.60938 36.375
Q5.60938 53.9531 15.125 64.0781
Q24.6562 74.2188 41.2188 74.2188
Q47.75 74.2188 53.5312 72.4844
Q59.3281 70.75 64.4062 67.2812" id="DejaVuSans-43"/>
      <path d="
M30.6094 48.3906
Q23.3906 48.3906 19.1875 42.75
Q14.9844 37.1094 14.9844 27.2969
Q14.9844 17.4844 19.1562 11.8438
Q23.3438 6.20312 30.6094 6.20312
Q37.7969 6.20312 41.9844 11.8594
Q46.1875 17.5312 46.1875 27.2969
Q46.1875 37.0156 41.9844 42.7031
Q37.7969 48.3906 30.6094 48.3906
M30.6094 56
Q42.3281 56 49.0156 48.375
Q55.7188 40.7656 55.7188 27.2969
Q55.7188 13.875 49.0156 6.21875
Q42.3281 -1.42188 30.6094 -1.42188
Q18.8438 -1.42188 12.1719 6.21875
Q5.51562 13.875 5.51562 27.2969
Q5.51562 40.7656 12.1719 48.375
Q18.8438 56 30.6094 56" id="DejaVuSans-6f"/>
      <path d="
M18.3125 70.2188
L18.3125 54.6875
L36.8125 54.6875
L36.8125 47.7031
L18.3125 47.7031
L18.3125 18.0156
Q18.3125 11.3281 20.1406 9.42188
Q21.9688 7.51562 27.5938 7.51562
L36.8125 7.51562
L36.8125 0
L27.5938 0
Q17.1875 0 13.2344 3.875
Q9.28125 7.76562 9.28125 18.0156
L9.28125 47.7031
L2.6875 47.7031
L2.6875 54.6875
L9.28125 54.6875
L9.28125 70.2188
z
" id="DejaVuSans-74"/>
     </defs>
     <g transform="translate(43.033125 228.85875)rotate(-90.0)scale(0.12 -0.12)">
      <use xlink:href="#DejaVuSans-43"/>
      <use x="69.82421875" xlink:href="#DejaVuSans-6f"/>
      <use x="131.005859375" xlink:href="#DejaVuSans-73"/>
      <use x="183.10546875" xlink:href="#DejaVuSans-74"/>
     </g>
    </g>
   </g>
   <g id="patch_3">
    <path d="
M72 43.2
L518.4 43.2" style="fill:none;stroke:#000000;"/>
   </g>
   <g id="patch_4">
    <path d="
M518.4 388.8
L518.4 43.2" style="fill:none;stroke:#000000;"/>
   </g>
   <g id="patch_5">
    <path d="
M72 388.8
L518.4 388.8" style="fill:none;stroke:#000000;"/>
   </g>
   <g id="patch_6">
    <path d="
M72 388.8
L72 43.2" style="fill:none;stroke:#000000;"/>
   </g>
   <g id="text_17">
    <!-- XOR Bipolar -->
    <defs>
     <path d="
M9.42188 75.9844
L18.4062 75.9844
L18.4062 0
L9.42188 0
z
" id="DejaVuSans-6c"/>
     <path d="
M39.4062 66.2188
Q28.6562 66.2188 22.3281 58.2031
Q16.0156 50.2031 16.0156 36.375
Q16.0156 22.6094 22.3281 14.5938
Q28.6562 6.59375 39.4062 6.59375
Q50.1406 6.59375 56.4219 14.5938
Q62.7031 22.6094 62.7031 36.375
Q62.7031 50.2031 56.4219 58.2031
Q50.1406 66.2188 39.4062 66.2188
M39.4062 74.2188
Q54.7344 74.2188 63.9062 63.9375
Q73.0938 53.6562 73.0938 36.375
Q73.0938 19.1406 63.9062 8.85938
Q54.7344 -1.42188 39.4062 -1.42188
Q24.0312 -1.42188 14.8125 8.82812
Q5.60938 19.0938 5.60938 36.375
Q5.60938 53.6562 14.8125 63.9375
Q24.0312 74.2188 39.4062 74.2188" id="DejaVuSans-4f"/>
     <path d="
M34.2812 27.4844
Q23.3906 27.4844 19.1875 25
Q14.9844 22.5156 14.9844 16.5
Q14.9844 11.7188 18.1406 8.90625
Q21.2969 6.10938 26.7031 6.10938
Q34.1875 6.10938 38.7031 11.4062
Q43.2188 16.7031 43.2188 25.4844
L43.2188 27.4844
z

M52.2031 31.2031
L52.2031 0
L43.2188 0
L43.2188 8.29688
Q40.1406 3.32812 35.5469 0.953125
Q30.9531 -1.42188 24.3125 -1.42188
Q15.9219 -1.42188 10.9531 3.29688
Q6 8.01562 6 15.9219
Q6 25.1406 12.1719 29.8281
Q18.3594 34.5156 30.6094 34.5156
L43.2188 34.5156
L43.2188 35.4062
Q43.2188 41.6094 39.1406 45
Q35.0625 48.3906 27.6875 48.3906
Q23 48.3906 18.5469 47.2656
Q14.1094 46.1406 10.0156 43.8906
L10.0156 52.2031
Q14.9375 54.1094 19.5781 55.0469
Q24.2188 56 28.6094 56
Q40.4844 56 46.3438 49.8438
Q52.2031 43.7031 52.2031 31.2031" id="DejaVuSans-61"/>
     <path d="
M19.6719 34.8125
L19.6719 8.10938
L35.5 8.10938
Q43.4531 8.10938 47.2812 11.4062
Q51.125 14.7031 51.125 21.4844
Q51.125 28.3281 47.2812 31.5625
Q43.4531 34.8125 35.5 34.8125
z

M19.6719 64.7969
L19.6719 42.8281
L34.2812 42.8281
Q41.5 42.8281 45.0312 45.5312
Q48.5781 48.25 48.5781 53.8125
Q48.5781 59.3281 45.0312 62.0625
Q41.5 64.7969 34.2812 64.7969
z

M9.8125 72.9062
L35.0156 72.9062
Q46.2969 72.9062 52.3906 68.2188
Q58.5 63.5312 58.5 54.8906
Q58.5 48.1875 55.375 44.2344
Q52.25 40.2812 46.1875 39.3125
Q53.4688 37.75 57.5 32.7812
Q61.5312 27.8281 61.5312 20.4062
Q61.5312 10.6406 54.8906 5.3125
Q48.25 0 35.9844 0
L9.8125 0
z
" id="DejaVuSans-42"/>
     <path d="
M9.42188 54.6875
L18.4062 54.6875
L18.4062 0
L9.42188 0
z

M9.42188 75.9844
L18.4062 75.9844
L18.4062 64.5938
L9.42188 64.5938
z
" id="DejaVuSans-69"/>
     <path d="
M6.29688 72.9062
L16.8906 72.9062
L35.0156 45.7969
L53.2188 72.9062
L63.8125 72.9062
L40.375 37.8906
L65.375 0
L54.7812 0
L34.2812 31
L13.625 0
L2.98438 0
L29 38.9219
z
" id="DejaVuSans-58"/>
     <path d="
M41.1094 46.2969
Q39.5938 47.1719 37.8125 47.5781
Q36.0312 48 33.8906 48
Q26.2656 48 22.1875 43.0469
Q18.1094 38.0938 18.1094 28.8125
L18.1094 0
L9.07812 0
L9.07812 54.6875
L18.1094 54.6875
L18.1094 46.1875
Q20.9531 51.1719 25.4844 53.5781
Q30.0312 56 36.5312 56
Q37.4531 56 38.5781 55.875
Q39.7031 55.7656 41.0625 55.5156
z
" id="DejaVuSans-72"/>
     <path id="DejaVuSans-20"/>
     <path d="
M18.1094 8.20312
L18.1094 -20.7969
L9.07812 -20.7969
L9.07812 54.6875
L18.1094 54.6875
L18.1094 46.3906
Q20.9531 51.2656 25.2656 53.625
Q29.5938 56 35.5938 56
Q45.5625 56 51.7812 48.0938
Q58.0156 40.1875 58.0156 27.2969
Q58.0156 14.4062 51.7812 6.48438
Q45.5625 -1.42188 35.5938 -1.42188
Q29.5938 -1.42188 25.2656 0.953125
Q20.9531 3.32812 18.1094 8.20312
M48.6875 27.2969
Q48.6875 37.2031 44.6094 42.8438
Q40.5312 48.4844 33.4062 48.4844
Q26.2656 48.4844 22.1875 42.8438
Q18.1094 37.2031 18.1094 27.2969
Q18.1094 17.3906 22.1875 11.75
Q26.2656 6.10938 33.4062 6.10938
Q40.5312 6.10938 44.6094 11.75
Q48.6875 17.3906 48.6875 27.2969" id="DejaVuSans-70"/>
    </defs>
    <g transform="translate(252.47925 38.2)scale(0.144 -0.144)">
     <use xlink:href="#DejaVuSans-58"/>
     <use x="62.130859375" xlink:href="#DejaVuSans-4f"/>
     <use x="140.841796875" xlink:href="#DejaVuSans-52"/>
     <use x="210.32421875" xlink:href="#DejaVuSans-20"/>
     <use x="242.111328125" xlink:href="#DejaVuSans-42"/>
     <use x="310.71484375" xlink:href="#DejaVuSans-69"/>
     <use x="338.498046875" xlink:href="#DejaVuSans-70"/>
     <use x="401.974609375" xlink:href="#DejaVuSans-6f"/>
     <use x="463.15625" xlink:href="#DejaVuSans-6c"/>
     <use x="490.939453125" xlink:href="#DejaVuSans-61"/>
     <use x="552.21875" xlink:href="#DejaVuSans-72"/>
    </g>
   </g>
  </g>
 </g>
 <defs>
  <clipPath id="p7ff5b81e1d">
   <rect height="345.6" width="446.4" x="72.0" y="43.2"/>
  </clipPath>
 </defs>
</svg>
