<?xml version="1.0" encoding="utf-8" standalone="no"?>
<!DOCTYPE svg PUBLIC "-//W3C//DTD SVG 1.1//EN"
  "http://www.w3.org/Graphics/SVG/1.1/DTD/svg11.dtd">
<!-- Created with matplotlib (http://matplotlib.org/) -->
<svg height="432pt" version="1.1" viewBox="0 0 576 432" width="576pt" xmlns="http://www.w3.org/2000/svg" xmlns:xlink="http://www.w3.org/1999/xlink">
 <defs>
  <style type="text/css">
*{stroke-linecap:butt;stroke-linejoin:round;}
  </style>
 </defs>
 <g id="figure_1">
  <g id="patch_1">
   <path d="
M0 432
L576 432
L576 0
L0 0
z
" style="fill:#ffffff;"/>
  </g>
  <g id="axes_1">
   <g id="patch_2">
    <path d="
M72 388.8
L518.4 388.8
L518.4 43.2
L72 43.2
z
" style="fill:#ffffff;"/>
   </g>
   <g id="line2d_1">
    <path clip-path="url(#p7ff5b81e1d)" d="
M72.1488 377.437
L72.2976 72.7289
L72.4464 79.6257
L72.5952 379.271
L72.744 376.257
L72.8928 74.1068
L73.0416 80.9843
L73.1904 378.11
L73.3392 375.085
L73.488 75.4725
L73.6368 82.331
L73.7856 376.958
L73.9344 373.922
L74.0832 76.8263
L74.232 83.6659
L74.3808 375.815
L74.5296 372.768
L74.6784 78.1682
L74.8272 84.9891
L74.976 374.68
L75.1248 371.623
L75.2736 79.4983
L75.4224 86.3006
L75.5712 373.554
L75.72 370.486
L75.8688 80.8167
L76.0176 87.6006
L76.1664 372.436
L76.3152 369.357
L76.464 82.1236
L76.6128 88.8892
L76.7616 371.326
L76.9104 368.238
L77.0592 83.4189
L77.208 90.1664
L77.3568 370.225
L77.5056 367.126
L77.6544 84.703
L77.8032 91.4324
L77.952 369.133
L78.1008 366.023
L78.2496 85.9757
L78.3984 92.6873
L78.5472 368.048
L78.696 364.929
L78.8448 87.2372
L78.9936 93.9312
L79.1424 366.972
L79.2912 363.842
L79.44 88.4877
L79.5888 95.1641
L79.7376 365.904
L79.8864 362.764
L80.0352 89.7272
L80.184 96.3862
L80.3328 364.844
L80.4816 361.694
L80.6304 90.9558
L80.7792 97.5976
L80.928 363.792
L81.0768 360.633
L81.2256 92.1737
L81.3744 98.7983
L81.5232 362.749
L81.672 359.579
L81.8208 93.3808
L81.9696 99.9884
L82.1184 361.713
L82.2672 358.533
L82.416 94.5773
L82.5648 101.168
L82.7136 360.685
L82.8624 357.496
L83.0112 95.7634
L83.16 102.337
L83.3088 359.665
L83.4576 356.466
L83.6064 96.939
L83.7552 103.496
L83.904 358.653
L84.0528 355.444
L84.2016 98.1043
L84.3504 104.645
L84.4992 357.648
L84.648 354.43
L84.7968 99.2593
L84.9456 105.784
L85.0944 356.651
L85.2432 353.424
L85.392 100.404
L85.5408 106.913
L85.6896 355.662
L85.8384 352.425
L85.9872 101.539
L86.136 108.032
L86.2848 354.681
L86.4336 351.435
L86.5824 102.664
L86.7312 109.141
L86.88 353.707
L87.0288 350.451
L87.1776 103.779
L87.3264 110.24
L87.4752 352.74
L87.624 349.476
L87.7728 104.884
L87.9216 111.329
L88.0704 351.781
L88.2192 348.508
L88.368 105.98
L88.5168 112.409
L88.6656 350.83
L88.8144 347.547
L88.9632 107.066
L89.112 113.48
L89.2608 349.885
L89.4096 346.594
L89.5584 108.142
L89.7072 114.541
L89.856 348.949
L90.0048 345.648
L90.1536 109.209
L90.3024 115.593
L90.4512 348.019
L90.6 344.71
L90.7488 110.267
L90.8976 116.635
L91.0464 347.097
L91.1952 343.779
L91.344 111.315
L91.4928 117.669
L91.6416 346.181
L91.7904 342.855
L91.9392 112.354
L92.088 118.693
L92.2368 345.273
L92.3856 341.938
L92.5344 113.384
L92.6832 119.708
L92.832 344.372
L92.9808 341.028
L93.1296 114.405
L93.2784 120.715
L93.4272 343.478
L93.576 340.126
L93.7248 115.417
L93.8736 121.712
L94.0224 342.591
L94.1712 339.23
L94.32 116.42
L94.4688 122.701
L94.6176 341.711
L94.7664 338.342
L94.9152 117.414
L95.064 123.681
L95.2128 340.838
L95.3616 337.46
L95.5104 118.4
L95.6592 124.653
L95.808 339.971
L95.9568 336.586
L96.1056 119.377
L96.2544 125.616
L96.4032 339.112
L96.552 335.718
L96.7008 120.345
L96.8496 126.57
L96.9984 338.259
L97.1472 334.857
L97.296 121.305
L97.4448 127.516
L97.5936 337.413
L97.7424 334.003
L97.8912 122.256
L98.04 128.454
L98.1888 336.573
L98.3376 333.155
L98.4864 123.199
L98.6352 129.384
L98.784 335.74
L98.9328 332.314
L99.0816 124.134
L99.2304 130.305
L99.3792 334.914
L99.528 331.48
L99.6768 125.061
L99.8256 131.218
L99.9744 334.094
L100.123 330.652
L100.272 125.979
L100.421 132.124
L100.57 333.28
L100.718 329.831
L100.867 126.89
L101.016 133.021
L101.165 332.473
L101.314 329.017
L101.462 127.792
L101.611 133.91
L101.76 331.673
L101.909 328.208
L102.058 128.687
L102.206 134.792
L102.355 330.878
L102.504 327.406
L102.653 129.574
L102.802 135.666
L102.95 330.09
L103.099 326.611
L103.248 130.453
L103.397 136.532
L103.546 329.309
L103.694 325.822
L103.843 131.324
L103.992 137.391
L104.141 328.533
L104.29 325.039
L104.438 132.188
L104.587 138.242
L104.736 327.763
L104.885 324.262
L105.034 133.044
L105.182 139.086
L105.331 327
L105.48 323.491
L105.629 133.892
L105.778 139.922
L105.926 326.243
L106.075 322.727
L106.224 134.733
L106.373 140.751
L106.522 325.492
L106.67 321.968
L106.819 135.567
L106.968 141.573
L107.117 324.746
L107.266 321.216
L107.414 136.393
L107.563 142.387
L107.712 324.007
L107.861 320.469
L108.01 137.213
L108.158 143.195
L108.307 323.273
L108.456 319.729
L108.605 138.025
L108.754 143.995
L108.902 322.546
L109.051 318.994
L109.2 138.83
L109.349 144.788
L109.498 321.824
L109.646 318.266
L109.795 139.628
L109.944 145.575
L110.093 321.108
L110.242 317.543
L110.39 140.418
L110.539 146.354
L110.688 320.397
L110.837 316.825
L110.986 141.202
L111.134 147.127
L111.283 319.693
L111.432 316.114
L111.581 141.98
L111.73 147.892
L111.878 318.994
L112.027 315.408
L112.176 142.75
L112.325 148.651
L112.474 318.3
L112.622 314.708
L112.771 143.514
L112.92 149.404
L113.069 317.612
L113.218 314.014
L113.366 144.27
L113.515 150.15
L113.664 316.93
L113.813 313.325
L113.962 145.021
L114.11 150.889
L114.259 316.253
L114.408 312.641
L114.557 145.764
L114.706 151.622
L114.854 315.581
L115.003 311.964
L115.152 146.502
L115.301 152.348
L115.45 314.915
L115.598 311.291
L115.747 147.232
L115.896 153.069
L116.045 314.255
L116.194 310.624
L116.342 147.957
L116.491 153.782
L116.64 313.599
L116.789 309.962
L116.938 148.675
L117.086 154.49
L117.235 312.949
L117.384 309.306
L117.533 149.387
L117.682 155.191
L117.83 312.304
L117.979 308.655
L118.128 150.092
L118.277 155.886
L118.426 311.664
L118.574 308.009
L118.723 150.792
L118.872 156.576
L119.021 311.03
L119.17 307.368
L119.318 151.485
L119.467 157.259
L119.616 310.4
L119.765 306.733
L119.914 152.172
L120.062 157.936
L120.211 309.776
L120.36 306.102
L120.509 152.854
L120.658 158.607
L120.806 309.156
L120.955 305.477
L121.104 153.529
L121.253 159.272
L121.402 308.542
L121.55 304.857
L121.699 154.198
L121.848 159.932
L121.997 307.933
L122.146 304.242
L122.294 154.862
L122.443 160.586
L122.592 307.328
L122.741 303.631
L122.89 155.519
L123.038 161.234
L123.187 306.729
L123.336 303.026
L123.485 156.172
L123.634 161.876
L123.782 306.134
L123.931 302.426
L124.08 156.818
L124.229 162.513
L124.378 305.544
L124.526 301.83
L124.675 157.459
L124.824 163.144
L124.973 304.959
L125.122 301.239
L125.27 158.094
L125.419 163.77
L125.568 304.378
L125.717 300.653
L125.866 158.723
L126.014 164.39
L126.163 303.803
L126.312 300.072
L126.461 159.347
L126.61 165.005
L126.758 303.232
L126.907 299.496
L127.056 159.966
L127.205 165.614
L127.354 302.665
L127.502 298.924
L127.651 160.579
L127.8 166.218
L127.949 302.104
L128.098 298.357
L128.246 161.187
L128.395 166.817
L128.544 301.546
L128.693 297.794
L128.842 161.79
L128.99 167.411
L129.139 300.994
L129.288 297.236
L129.437 162.387
L129.586 167.999
L129.734 300.446
L129.883 296.683
L130.032 162.979
L130.181 168.582
L130.33 299.902
L130.478 296.134
L130.627 163.566
L130.776 169.161
L130.925 299.363
L131.074 295.589
L131.222 164.148
L131.371 169.734
L131.52 298.828
L131.669 295.049
L131.818 164.725
L131.966 170.302
L132.115 298.297
L132.264 294.513
L132.413 165.296
L132.562 170.865
L132.71 297.771
L132.859 293.982
L133.008 165.863
L133.157 171.423
L133.306 297.249
L133.454 293.455
L133.603 166.425
L133.752 171.977
L133.901 296.731
L134.05 292.933
L134.198 166.982
L134.347 172.525
L134.496 296.218
L134.645 292.414
L134.794 167.534
L134.942 173.069
L135.091 295.709
L135.24 291.9
L135.389 168.081
L135.538 173.608
L135.686 295.203
L135.835 291.39
L135.984 168.624
L136.133 174.143
L136.282 294.703
L136.43 290.884
L136.579 169.162
L136.728 174.672
L136.877 294.206
L137.026 290.383
L137.174 169.695
L137.323 175.198
L137.472 293.713
L137.621 289.885
L137.77 170.223
L137.918 175.718
L138.067 293.224
L138.216 289.392
L138.365 170.747
L138.514 176.234
L138.662 292.739
L138.811 288.902
L138.96 171.267
L139.109 176.746
L139.258 292.259
L139.406 288.417
L139.555 171.781
L139.704 177.253
L139.853 291.782
L140.002 287.935
L140.15 172.292
L140.299 177.755
L140.448 291.309
L140.597 287.458
L140.746 172.798
L140.894 178.253
L141.043 290.84
L141.192 286.984
L141.341 173.299
L141.49 178.747
L141.638 290.374
L141.787 286.515
L141.936 173.796
L142.085 179.237
L142.234 289.913
L142.382 286.049
L142.531 174.289
L142.68 179.722
L142.829 289.455
L142.978 285.587
L143.126 174.778
L143.275 180.203
L143.424 289.002
L143.573 285.129
L143.722 175.262
L143.87 180.68
L144.019 288.551
L144.168 284.674
L144.317 175.742
L144.466 181.153
L144.614 288.105
L144.763 284.223
L144.912 176.218
L145.061 181.622
L145.21 287.662
L145.358 283.776
L145.507 176.69
L145.656 182.086
L145.805 287.223
L145.954 283.333
L146.102 177.158
L146.251 182.547
L146.4 286.788
L146.549 282.893
L146.698 177.621
L146.846 183.003
L146.995 286.356
L147.144 282.457
L147.293 178.081
L147.442 183.456
L147.59 285.927
L147.739 282.025
L147.888 178.537
L148.037 183.905
L148.186 285.503
L148.334 281.596
L148.483 178.988
L148.632 184.349
L148.781 285.081
L148.93 281.17
L149.078 179.436
L149.227 184.79
L149.376 284.663
L149.525 280.748
L149.674 179.88
L149.822 185.227
L149.971 284.249
L150.12 280.33
L150.269 180.32
L150.418 185.661
L150.566 283.838
L150.715 279.915
L150.864 180.756
L151.013 186.09
L151.162 283.43
L151.31 279.504
L151.459 181.188
L151.608 186.516
L151.757 283.026
L151.906 279.095
L152.054 181.617
L152.203 186.938
L152.352 282.625
L152.501 278.691
L152.65 182.042
L152.798 187.356
L152.947 282.228
L153.096 278.289
L153.245 182.463
L153.394 187.771
L153.542 281.833
L153.691 277.891
L153.84 182.881
L153.989 188.182
L154.138 281.442
L154.286 277.496
L154.435 183.295
L154.584 188.59
L154.733 281.054
L154.882 277.105
L155.03 183.705
L155.179 188.994
L155.328 280.67
L155.477 276.716
L155.626 184.112
L155.774 189.394
L155.923 280.288
L156.072 276.331
L156.221 184.515
L156.37 189.791
L156.518 279.91
L156.667 275.949
L156.816 184.915
L156.965 190.185
L157.114 279.535
L157.262 275.571
L157.411 185.312
L157.56 190.575
L157.709 279.163
L157.858 275.195
L158.006 185.705
L158.155 190.962
L158.304 278.794
L158.453 274.822
L158.602 186.094
L158.75 191.345
L158.899 278.428
L159.048 274.453
L159.197 186.48
L159.346 191.725
L159.494 278.065
L159.643 274.087
L159.792 186.863
L159.941 192.102
L160.09 277.705
L160.238 273.723
L160.387 187.243
L160.536 192.476
L160.685 277.348
L160.834 273.363
L160.982 187.619
L161.131 192.846
L161.28 276.994
L161.429 273.006
L161.578 187.992
L161.726 193.213
L161.875 276.643
L162.024 272.651
L162.173 188.361
L162.322 193.577
L162.47 276.295
L162.619 272.3
L162.768 188.728
L162.917 193.938
L163.066 275.95
L163.214 271.951
L163.363 189.091
L163.512 194.295
L163.661 275.608
L163.81 271.606
L163.958 189.452
L164.107 194.65
L164.256 275.268
L164.405 271.263
L164.554 189.809
L164.702 195.001
L164.851 274.932
L165 270.923
L165.149 190.163
L165.298 195.35
L165.446 274.598
L165.595 270.586
L165.744 190.514
L165.893 195.695
L166.042 274.267
L166.19 270.251
L166.339 190.862
L166.488 196.037
L166.637 273.938
L166.786 269.92
L166.934 191.206
L167.083 196.377
L167.232 273.613
L167.381 269.591
L167.53 191.548
L167.678 196.713
L167.827 273.29
L167.976 269.265
L168.125 191.887
L168.274 197.047
L168.422 272.97
L168.571 268.942
L168.72 192.223
L168.869 197.378
L169.018 272.652
L169.166 268.621
L169.315 192.557
L169.464 197.705
L169.613 272.337
L169.762 268.303
L169.91 192.887
L170.059 198.03
L170.208 272.025
L170.357 267.988
L170.506 193.214
L170.654 198.352
L170.803 271.715
L170.952 267.675
L171.101 193.539
L171.25 198.672
L171.398 271.408
L171.547 267.365
L171.696 193.861
L171.845 198.988
L171.994 271.103
L172.142 267.058
L172.291 194.18
L172.44 199.302
L172.589 270.801
L172.738 266.753
L172.886 194.496
L173.035 199.613
L173.184 270.502
L173.333 266.45
L173.482 194.809
L173.63 199.922
L173.779 270.205
L173.928 266.15
L174.077 195.12
L174.226 200.228
L174.374 269.91
L174.523 265.853
L174.672 195.428
L174.821 200.531
L174.97 269.618
L175.118 265.558
L175.267 195.734
L175.416 200.831
L175.565 269.329
L175.714 265.266
L175.862 196.036
L176.011 201.129
L176.16 269.041
L176.309 264.976
L176.458 196.337
L176.606 201.425
L176.755 268.757
L176.904 264.688
L177.053 196.634
L177.202 201.717
L177.35 268.474
L177.499 264.403
L177.648 196.929
L177.797 202.008
L177.946 268.194
L178.094 264.12
L178.243 197.222
L178.392 202.295
L178.541 267.916
L178.69 263.84
L178.838 197.512
L178.987 202.58
L179.136 267.641
L179.285 263.561
L179.434 197.799
L179.582 202.863
L179.731 267.368
L179.88 263.286
L180.029 198.084
L180.178 203.144
L180.326 267.097
L180.475 263.012
L180.624 198.367
L180.773 203.422
L180.922 266.828
L181.07 262.741
L181.219 198.647
L181.368 203.697
L181.517 266.562
L181.666 262.472
L181.814 198.925
L181.963 203.97
L182.112 266.298
L182.261 262.205
L182.41 199.2
L182.558 204.241
L182.707 266.036
L182.856 261.941
L183.005 199.473
L183.154 204.509
L183.302 265.776
L183.451 261.679
L183.6 199.743
L183.749 204.775
L183.898 265.518
L184.046 261.418
L184.195 200.012
L184.344 205.039
L184.493 265.263
L184.642 261.161
L184.79 200.278
L184.939 205.301
L185.088 265.01
L185.237 260.905
L185.386 200.541
L185.534 205.56
L185.683 264.759
L185.832 260.651
L185.981 200.803
L186.13 205.817
L186.278 264.51
L186.427 260.4
L186.576 201.062
L186.725 206.072
L186.874 264.263
L187.022 260.15
L187.171 201.319
L187.32 206.324
L187.469 264.018
L187.618 259.903
L187.766 201.573
L187.915 206.575
L188.064 263.775
L188.213 259.658
L188.362 201.826
L188.51 206.823
L188.659 263.534
L188.808 259.415
L188.957 202.076
L189.106 207.069
L189.254 263.295
L189.403 259.174
L189.552 202.324
L189.701 207.313
L189.85 263.058
L189.998 258.935
L190.147 202.57
L190.296 207.555
L190.445 262.824
L190.594 258.697
L190.742 202.814
L190.891 207.795
L191.04 262.591
L191.189 258.462
L191.338 203.056
L191.486 208.033
L191.635 262.36
L191.784 258.229
L191.933 203.296
L192.082 208.268
L192.23 262.131
L192.379 257.998
L192.528 203.533
L192.677 208.502
L192.826 261.904
L192.974 257.769
L193.123 203.769
L193.272 208.733
L193.421 261.679
L193.57 257.541
L193.718 204.002
L193.867 208.963
L194.016 261.455
L194.165 257.316
L194.314 204.234
L194.462 209.191
L194.611 261.234
L194.76 257.092
L194.909 204.464
L195.058 209.416
L195.206 261.014
L195.355 256.871
L195.504 204.691
L195.653 209.64
L195.802 260.797
L195.95 256.651
L196.099 204.917
L196.248 209.862
L196.397 260.581
L196.546 256.433
L196.694 205.141
L196.843 210.082
L196.992 260.367
L197.141 256.217
L197.29 205.362
L197.438 210.3
L197.587 260.155
L197.736 256.003
L197.885 205.582
L198.034 210.516
L198.182 259.944
L198.331 255.79
L198.48 205.8
L198.629 210.73
L198.778 259.735
L198.926 255.579
L199.075 206.016
L199.224 210.942
L199.373 259.528
L199.522 255.37
L199.67 206.231
L199.819 211.153
L199.968 259.323
L200.117 255.163
L200.266 206.443
L200.414 211.362
L200.563 259.12
L200.712 254.958
L200.861 206.654
L201.01 211.569
L201.158 258.918
L201.307 254.754
L201.456 206.862
L201.605 211.774
L201.754 258.718
L201.902 254.552
L202.051 207.069
L202.2 211.977
L202.349 258.52
L202.498 254.352
L202.646 207.275
L202.795 212.179
L202.944 258.323
L203.093 254.153
L203.242 207.478
L203.39 212.379
L203.539 258.128
L203.688 253.956
L203.837 207.68
L203.986 212.577
L204.134 257.934
L204.283 253.761
L204.432 207.88
L204.581 212.773
L204.73 257.742
L204.878 253.567
L205.027 208.078
L205.176 212.968
L205.325 257.552
L205.474 253.375
L205.622 208.275
L205.771 213.161
L205.92 257.364
L206.069 253.184
L206.218 208.469
L206.366 213.353
L206.515 257.177
L206.664 252.995
L206.813 208.663
L206.962 213.542
L207.11 256.991
L207.259 252.808
L207.408 208.854
L207.557 213.73
L207.706 256.807
L207.854 252.623
L208.003 209.044
L208.152 213.917
L208.301 256.625
L208.45 252.438
L208.598 209.232
L208.747 214.102
L208.896 256.444
L209.045 252.256
L209.194 209.419
L209.342 214.285
L209.491 256.265
L209.64 252.075
L209.789 209.604
L209.938 214.467
L210.086 256.087
L210.235 251.895
L210.384 209.787
L210.533 214.647
L210.682 255.911
L210.83 251.717
L210.979 209.969
L211.128 214.826
L211.277 255.736
L211.426 251.541
L211.574 210.15
L211.723 215.003
L211.872 255.563
L212.021 251.366
L212.17 210.328
L212.318 215.178
L212.467 255.391
L212.616 251.192
L212.765 210.506
L212.914 215.352
L213.062 255.22
L213.211 251.02
L213.36 210.681
L213.509 215.525
L213.658 255.051
L213.806 250.849
L213.955 210.856
L214.104 215.696
L214.253 254.884
L214.402 250.68
L214.55 211.028
L214.699 215.866
L214.848 254.718
L214.997 250.512
L215.146 211.199
L215.294 216.034
L215.443 254.553
L215.592 250.346
L215.741 211.369
L215.89 216.2
L216.038 254.389
L216.187 250.181
L216.336 211.538
L216.485 216.366
L216.634 254.227
L216.782 250.018
L216.931 211.704
L217.08 216.529
L217.229 254.067
L217.378 249.855
L217.526 211.87
L217.675 216.692
L217.824 253.908
L217.973 249.695
L218.122 212.034
L218.27 216.853
L218.419 253.75
L218.568 249.535
L218.717 212.196
L218.866 217.012
L219.014 253.593
L219.163 249.377
L219.312 212.358
L219.461 217.171
L219.61 253.438
L219.758 249.22
L219.907 212.518
L220.056 217.328
L220.205 253.284
L220.354 249.065
L220.502 212.676
L220.651 217.483
L220.8 253.131
L220.949 248.91
L221.098 212.833
L221.246 217.637
L221.395 252.98
L221.544 248.758
L221.693 212.989
L221.842 217.79
L221.99 252.83
L222.139 248.606
L222.288 213.143
L222.437 217.942
L222.586 252.681
L222.734 248.456
L222.883 213.296
L223.032 218.092
L223.181 252.533
L223.33 248.307
L223.478 213.448
L223.627 218.241
L223.776 252.387
L223.925 248.159
L224.074 213.599
L224.222 218.388
L224.371 252.242
L224.52 248.012
L224.669 213.748
L224.818 218.535
L224.966 252.098
L225.115 247.867
L225.264 213.896
L225.413 218.68
L225.562 251.955
L225.71 247.723
L225.859 214.043
L226.008 218.824
L226.157 251.814
L226.306 247.58
L226.454 214.188
L226.603 218.967
L226.752 251.673
L226.901 247.439
L227.05 214.332
L227.198 219.108
L227.347 251.534
L227.496 247.298
L227.645 214.475
L227.794 219.248
L227.942 251.396
L228.091 247.159
L228.24 214.617
L228.389 219.387
L228.538 251.26
L228.686 247.021
L228.835 214.757
L228.984 219.525
L229.133 251.124
L229.282 246.884
L229.43 214.897
L229.579 219.662
L229.728 250.99
L229.877 246.748
L230.026 215.035
L230.174 219.797
L230.323 250.856
L230.472 246.613
L230.621 215.172
L230.77 219.931
L230.918 250.724
L231.067 246.48
L231.216 215.307
L231.365 220.064
L231.514 250.593
L231.662 246.348
L231.811 215.442
L231.96 220.196
L232.109 250.463
L232.258 246.216
L232.406 215.575
L232.555 220.327
L232.704 250.334
L232.853 246.086
L233.002 215.708
L233.15 220.457
L233.299 250.206
L233.448 245.957
L233.597 215.839
L233.746 220.586
L233.894 250.08
L234.043 245.829
L234.192 215.969
L234.341 220.713
L234.49 249.954
L234.638 245.702
L234.787 216.098
L234.936 220.839
L235.085 249.829
L235.234 245.577
L235.382 216.226
L235.531 220.965
L235.68 249.706
L235.829 245.452
L235.978 216.352
L236.126 221.089
L236.275 249.583
L236.424 245.328
L236.573 216.478
L236.722 221.212
L236.87 249.462
L237.019 245.205
L237.168 216.603
L237.317 221.334
L237.466 249.342
L237.614 245.084
L237.763 216.726
L237.912 221.455
L238.061 249.222
L238.21 244.963
L238.358 216.849
L238.507 221.575
L238.656 249.104
L238.805 244.844
L238.954 216.97
L239.102 221.694
L239.251 248.986
L239.4 244.725
L239.549 217.09
L239.698 221.812
L239.846 248.87
L239.995 244.608
L240.144 217.21
L240.293 221.929
L240.442 248.755
L240.59 244.491
L240.739 217.328
L240.888 222.045
L241.037 248.64
L241.186 244.376
L241.334 217.445
L241.483 222.16
L241.632 248.527
L241.781 244.261
L241.93 217.562
L242.078 222.274
L242.227 248.414
L242.376 244.147
L242.525 217.677
L242.674 222.387
L242.822 248.303
L242.971 244.035
L243.12 217.791
L243.269 222.499
L243.418 248.192
L243.566 243.923
L243.715 217.905
L243.864 222.61
L244.013 248.082
L244.162 243.812
L244.31 218.017
L244.459 222.72
L244.608 247.974
L244.757 243.702
L244.906 218.128
L245.054 222.829
L245.203 247.866
L245.352 243.594
L245.501 218.239
L245.65 222.937
L245.798 247.759
L245.947 243.486
L246.096 218.348
L246.245 223.045
L246.394 247.653
L246.542 243.378
L246.691 218.457
L246.84 223.151
L246.989 247.548
L247.138 243.272
L247.286 218.565
L247.435 223.256
L247.584 247.444
L247.733 243.167
L247.882 218.672
L248.03 223.361
L248.179 247.34
L248.328 243.063
L248.477 218.777
L248.626 223.465
L248.774 247.238
L248.923 242.959
L249.072 218.882
L249.221 223.567
L249.37 247.136
L249.518 242.857
L249.667 218.986
L249.816 223.669
L249.965 247.035
L250.114 242.755
L250.262 219.089
L250.411 223.77
L250.56 246.935
L250.709 242.654
L250.858 219.192
L251.006 223.87
L251.155 246.836
L251.304 242.554
L251.453 219.293
L251.602 223.969
L251.75 246.738
L251.899 242.455
L252.048 219.394
L252.197 224.068
L252.346 246.641
L252.494 242.356
L252.643 219.493
L252.792 224.165
L252.941 246.544
L253.09 242.259
L253.238 219.592
L253.387 224.262
L253.536 246.449
L253.685 242.162
L253.834 219.69
L253.982 224.358
L254.131 246.354
L254.28 242.066
L254.429 219.787
L254.578 224.453
L254.726 246.26
L254.875 241.971
L255.024 219.884
L255.173 224.547
L255.322 246.166
L255.47 241.877
L255.619 219.979
L255.768 224.641
L255.917 246.074
L256.066 241.784
L256.214 220.074
L256.363 224.733
L256.512 245.982
L256.661 241.691
L256.81 220.168
L256.958 224.825
L257.107 245.891
L257.256 241.599
L257.405 220.261
L257.554 224.916
L257.702 245.801
L257.851 241.508
L258 220.353
L258.149 225.006
L258.298 245.711
L258.446 241.418
L258.595 220.445
L258.744 225.096
L258.893 245.623
L259.042 241.328
L259.19 220.535
L259.339 225.185
L259.488 245.535
L259.637 241.239
L259.786 220.625
L259.934 225.273
L260.083 245.447
L260.232 241.151
L260.381 220.714
L260.53 225.36
L260.678 245.361
L260.827 241.064
L260.976 220.803
L261.125 225.446
L261.274 245.275
L261.422 240.977
L261.571 220.891
L261.72 225.532
L261.869 245.19
L262.018 240.892
L262.166 220.978
L262.315 225.617
L262.464 245.106
L262.613 240.806
L262.762 221.064
L262.91 225.701
L263.059 245.023
L263.208 240.722
L263.357 221.149
L263.506 225.785
L263.654 244.94
L263.803 240.638
L263.952 221.234
L264.101 225.867
L264.25 244.858
L264.398 240.555
L264.547 221.318
L264.696 225.949
L264.845 244.776
L264.994 240.473
L265.142 221.401
L265.291 226.031
L265.44 244.695
L265.589 240.392
L265.738 221.484
L265.886 226.111
L266.035 244.615
L266.184 240.311
L266.333 221.566
L266.482 226.191
L266.63 244.536
L266.779 240.231
L266.928 221.647
L267.077 226.271
L267.226 244.457
L267.374 240.151
L267.523 221.727
L267.672 226.349
L267.821 244.379
L267.97 240.072
L268.118 221.807
L268.267 226.427
L268.416 244.302
L268.565 239.994
L268.714 221.886
L268.862 226.505
L269.011 244.225
L269.16 239.917
L269.309 221.965
L269.458 226.581
L269.606 244.149
L269.755 239.84
L269.904 222.042
L270.053 226.657
L270.202 244.073
L270.35 239.764
L270.499 222.12
L270.648 226.732
L270.797 243.999
L270.946 239.688
L271.094 222.196
L271.243 226.807
L271.392 243.924
L271.541 239.613
L271.69 222.272
L271.838 226.881
L271.987 243.851
L272.136 239.539
L272.285 222.347
L272.434 226.954
L272.582 243.778
L272.731 239.465
L272.88 222.421
L273.029 227.027
L273.178 243.706
L273.326 239.392
L273.475 222.495
L273.624 227.099
L273.773 243.634
L273.922 239.32
L274.07 222.569
L274.219 227.171
L274.368 243.563
L274.517 239.248
L274.666 222.641
L274.814 227.242
L274.963 243.492
L275.112 239.177
L275.261 222.713
L275.41 227.312
L275.558 243.423
L275.707 239.106
L275.856 222.785
L276.005 227.382
L276.154 243.353
L276.302 239.036
L276.451 222.856
L276.6 227.451
L276.749 243.285
L276.898 238.967
L277.046 222.926
L277.195 227.519
L277.344 243.217
L277.493 238.898
L277.642 222.995
L277.79 227.587
L277.939 243.149
L278.088 238.83
L278.237 223.064
L278.386 227.654
L278.534 243.082
L278.683 238.762
L278.832 223.133
L278.981 227.721
L279.13 243.016
L279.278 238.695
L279.427 223.201
L279.576 227.787
L279.725 242.95
L279.874 238.629
L280.022 223.268
L280.171 227.853
L280.32 242.885
L280.469 238.563
L280.618 223.335
L280.766 227.918
L280.915 242.82
L281.064 238.497
L281.213 223.401
L281.362 227.982
L281.51 242.756
L281.659 238.433
L281.808 223.466
L281.957 228.046
L282.106 242.692
L282.254 238.368
L282.403 223.531
L282.552 228.109
L282.701 242.629
L282.85 238.305
L282.998 223.596
L283.147 228.172
L283.296 242.566
L283.445 238.241
L283.594 223.66
L283.742 228.234
L283.891 242.504
L284.04 238.179
L284.189 223.723
L284.338 228.296
L284.486 242.443
L284.635 238.117
L284.784 223.786
L284.933 228.357
L285.082 242.382
L285.23 238.055
L285.379 223.848
L285.528 228.418
L285.677 242.321
L285.826 237.994
L285.974 223.91
L286.123 228.478
L286.272 242.261
L286.421 237.933
L286.57 223.971
L286.718 228.538
L286.867 242.202
L287.016 237.873
L287.165 224.032
L287.314 228.597
L287.462 242.143
L287.611 237.814
L287.76 224.092
L287.909 228.656
L288.058 242.085
L288.206 237.755
L288.355 224.152
L288.504 228.714
L288.653 242.027
L288.802 237.696
L288.95 224.211
L289.099 228.771
L289.248 241.969
L289.397 237.638
L289.546 224.27
L289.694 228.828
L289.843 241.912
L289.992 237.581
L290.141 224.328
L290.29 228.885
L290.438 241.856
L290.587 237.524
L290.736 224.386
L290.885 228.941
L291.034 241.8
L291.182 237.467
L291.331 224.443
L291.48 228.997
L291.629 241.744
L291.778 237.411
L291.926 224.499
L292.075 229.052
L292.224 241.689
L292.373 237.356
L292.522 224.556
L292.67 229.107
L292.819 241.635
L292.968 237.3
L293.117 224.611
L293.266 229.161
L293.414 241.581
L293.563 237.246
L293.712 224.667
L293.861 229.215
L294.01 241.527
L294.158 237.192
L294.307 224.722
L294.456 229.268
L294.605 241.474
L294.754 237.138
L294.902 224.776
L295.051 229.321
L295.2 241.421
L295.349 237.085
L295.498 224.83
L295.646 229.373
L295.795 241.369
L295.944 237.032
L296.093 224.883
L296.242 229.425
L296.39 241.317
L296.539 236.979
L296.688 224.936
L296.837 229.477
L296.986 241.266
L297.134 236.927
L297.283 224.989
L297.432 229.528
L297.581 241.215
L297.73 236.876
L297.878 225.041
L298.027 229.578
L298.176 241.164
L298.325 236.825
L298.474 225.093
L298.622 229.628
L298.771 241.114
L298.92 236.774
L299.069 225.144
L299.218 229.678
L299.366 241.064
L299.515 236.724
L299.664 225.195
L299.813 229.728
L299.962 241.015
L300.11 236.674
L300.259 225.245
L300.408 229.776
L300.557 240.966
L300.706 236.625
L300.854 225.295
L301.003 229.825
L301.152 240.918
L301.301 236.576
L301.45 225.344
L301.598 229.873
L301.747 240.87
L301.896 236.527
L302.045 225.393
L302.194 229.921
L302.342 240.822
L302.491 236.479
L302.64 225.442
L302.789 229.968
L302.938 240.775
L303.086 236.432
L303.235 225.49
L303.384 230.015
L303.533 240.728
L303.682 236.384
L303.83 225.538
L303.979 230.061
L304.128 240.682
L304.277 236.338
L304.426 225.586
L304.574 230.107
L304.723 240.636
L304.872 236.291
L305.021 225.633
L305.17 230.153
L305.318 240.59
L305.467 236.245
L305.616 225.679
L305.765 230.198
L305.914 240.545
L306.062 236.199
L306.211 225.725
L306.36 230.243
L306.509 240.5
L306.658 236.154
L306.806 225.771
L306.955 230.287
L307.104 240.455
L307.253 236.109
L307.402 225.817
L307.55 230.331
L307.699 240.411
L307.848 236.064
L307.997 225.862
L308.146 230.375
L308.294 240.368
L308.443 236.02
L308.592 225.907
L308.741 230.418
L308.89 240.324
L309.038 235.976
L309.187 225.951
L309.336 230.461
L309.485 240.281
L309.634 235.933
L309.782 225.995
L309.931 230.504
L310.08 240.239
L310.229 235.89
L310.378 226.038
L310.526 230.546
L310.675 240.196
L310.824 235.847
L310.973 226.082
L311.122 230.588
L311.27 240.154
L311.419 235.805
L311.568 226.124
L311.717 230.629
L311.866 240.113
L312.014 235.763
L312.163 226.167
L312.312 230.67
L312.461 240.072
L312.61 235.721
L312.758 226.209
L312.907 230.711
L313.056 240.031
L313.205 235.68
L313.354 226.251
L313.502 230.752
L313.651 239.99
L313.8 235.639
L313.949 226.292
L314.098 230.792
L314.246 239.95
L314.395 235.599
L314.544 226.333
L314.693 230.831
L314.842 239.91
L314.99 235.558
L315.139 226.374
L315.288 230.871
L315.437 239.871
L315.586 235.519
L315.734 226.414
L315.883 230.91
L316.032 239.832
L316.181 235.479
L316.33 226.454
L316.478 230.949
L316.627 239.793
L316.776 235.44
L316.925 226.494
L317.074 230.987
L317.222 239.755
L317.371 235.401
L317.52 226.533
L317.669 231.025
L317.818 239.716
L317.966 235.362
L318.115 226.572
L318.264 231.063
L318.413 239.679
L318.562 235.324
L318.71 226.611
L318.859 231.1
L319.008 239.641
L319.157 235.286
L319.306 226.65
L319.454 231.137
L319.603 239.604
L319.752 235.249
L319.901 226.688
L320.05 231.174
L320.198 239.567
L320.347 235.212
L320.496 226.725
L320.645 231.21
L320.794 239.531
L320.942 235.175
L321.091 226.763
L321.24 231.246
L321.389 239.494
L321.538 235.138
L321.686 226.8
L321.835 231.282
L321.984 239.458
L322.133 235.102
L322.282 226.837
L322.43 231.318
L322.579 239.423
L322.728 235.066
L322.877 226.873
L323.026 231.353
L323.174 239.387
L323.323 235.03
L323.472 226.909
L323.621 231.388
L323.77 239.352
L323.918 234.995
L324.067 226.945
L324.216 231.422
L324.365 239.318
L324.514 234.96
L324.662 226.981
L324.811 231.457
L324.96 239.283
L325.109 234.925
L325.258 227.016
L325.555 239.249
L325.704 234.89
L325.853 227.051
L326.15 239.215
L326.299 234.856
L326.448 227.085
L326.746 239.182
L326.894 234.822
L327.043 227.12
L327.341 239.149
L327.49 234.789
L327.638 227.154
L327.936 239.116
L328.234 227.188
L328.531 239.083
L328.829 227.221
L329.126 239.05
L329.424 227.254
L329.722 239.018
L330.019 227.287
L330.317 238.986
L330.614 227.32
L330.912 238.955
L331.21 227.352
L331.507 238.923
L331.805 227.384
L332.102 238.892
L332.4 227.416
L332.698 238.862
L332.995 227.448
L333.293 238.831
L333.59 227.479
L333.888 238.801
L334.186 227.51
L334.483 238.771
L334.781 227.541
L335.078 238.741
L335.376 227.572
L335.674 238.711
L335.971 227.602
L336.269 238.682
L336.566 227.632
L336.864 238.653
L337.162 227.662
L337.459 238.624
L337.757 227.691
L338.054 238.596
L338.352 227.72
L338.65 238.567
L338.947 227.749
L339.245 238.539
L339.542 227.778
L339.84 238.512
L340.138 227.807
L340.435 238.484
L340.733 227.835
L341.03 238.457
L341.328 227.863
L341.626 238.43
L341.923 227.891
L342.221 238.403
L342.518 227.918
L342.816 238.376
L343.114 227.946
L343.411 238.35
L343.709 227.973
L344.006 238.323
L344.304 228
L344.602 238.297
L344.899 228.027
L345.197 238.272
L345.494 228.053
L345.792 238.246
L346.09 228.079
L346.387 238.221
L346.685 228.105
L346.982 238.196
L347.28 228.131
L347.578 238.171
L347.875 228.157
L348.173 238.146
L348.47 228.182
L348.768 238.122
L349.066 228.207
L349.363 238.098
L349.661 228.232
L349.958 238.073
L350.256 228.257
L350.554 238.05
L350.851 228.281
L351.149 238.026
L351.446 228.306
L351.744 238.003
L352.042 228.33
L352.339 237.979
L352.637 228.354
L352.934 237.956
L353.232 228.377
L353.53 237.933
L353.827 228.401
L354.125 237.911
L354.422 228.424
L354.72 237.888
L355.018 228.447
L355.315 237.866
L355.613 228.47
L355.91 237.844
L356.208 228.493
L356.506 237.822
L356.803 228.515
L357.101 237.8
L357.398 228.538
L357.696 237.779
L357.994 228.56
L358.291 237.757
L358.589 228.582
L358.886 237.736
L359.184 228.604
L359.482 237.715
L359.779 228.625
L360.077 237.695
L360.374 228.647
L360.672 237.674
L360.97 228.668
L361.267 237.653
L361.565 228.689
L361.862 237.633
L362.16 228.71
L362.458 237.613
L362.755 228.731
L363.053 237.593
L363.35 228.751
L363.648 237.573
L363.946 228.772
L364.243 237.554
L364.541 228.792
L364.838 237.534
L365.136 228.812
L365.434 237.515
L365.731 228.832
L366.029 237.496
L366.326 228.851
L366.624 237.477
L366.922 228.871
L367.219 237.458
L367.517 228.89
L367.814 237.44
L368.112 228.91
L368.41 237.421
L368.707 228.929
L369.005 237.403
L369.302 228.947
L369.6 237.385
L369.898 228.966
L370.195 237.367
L370.493 228.985
L370.79 237.349
L371.088 229.003
L371.386 237.331
L371.683 229.022
L371.981 237.314
L372.278 229.04
L372.576 237.296
L372.874 229.058
L373.171 237.279
L373.469 229.075
L373.766 237.262
L374.064 229.093
L374.362 237.245
L374.659 229.111
L374.957 237.228
L375.254 229.128
L375.552 237.212
L375.85 229.145
L376.147 237.195
L376.445 229.162
L376.742 237.179
L377.04 229.179
L377.338 237.163
L377.635 229.196
L377.933 237.146
L378.23 229.213
L378.528 237.131
L378.826 229.229
L379.123 237.115
L379.421 229.246
L379.718 237.099
L380.016 229.262
L380.314 237.083
L380.611 229.278
L380.909 237.068
L381.206 229.294
L381.504 237.053
L381.802 229.31
L382.099 237.038
L382.397 229.326
L382.694 237.023
L382.992 229.341
L383.29 237.008
L383.587 229.357
L383.885 236.993
L384.182 229.372
L384.48 236.978
L384.778 229.387
L385.075 236.964
L385.373 229.402
L385.67 236.949
L385.968 229.417
L386.266 236.935
L386.563 229.432
L386.861 236.921
L387.158 229.447
L387.456 236.907
L387.754 229.462
L388.051 236.893
L388.349 229.476
L388.646 236.879
L388.944 229.49
L389.242 236.865
L389.539 229.505
L389.837 236.852
L390.134 229.519
L390.432 236.838
L390.73 229.533
L391.027 236.825
L391.325 229.547
L391.622 236.812
L391.92 229.56
L392.218 236.799
L392.515 229.574
L392.813 236.786
L393.11 229.588
L393.408 236.773
L393.706 229.601
L394.003 236.76
L394.301 229.614
L394.598 236.747
L394.896 229.628
L395.194 236.735
L395.491 229.641
L395.789 236.722
L396.086 229.654
L396.384 236.71
L396.682 229.667
L396.979 236.698
L397.277 229.679
L397.574 236.686
L397.872 229.692
L398.17 236.674
L398.467 229.705
L398.765 236.662
L399.062 229.717
L399.36 236.65
L399.658 229.729
L399.955 236.638
L400.253 229.742
L400.55 236.626
L400.848 229.754
L401.146 236.615
L401.443 229.766
L401.741 236.604
L402.038 229.778
L402.336 236.592
L402.634 229.79
L402.931 236.581
L403.229 229.801
L403.526 236.57
L403.824 229.813
L404.122 236.559
L404.419 229.825
L404.717 236.548
L405.014 229.836
L405.312 236.537
L405.61 229.848
L405.907 236.526
L406.205 229.859
L406.502 236.515
L406.8 229.87
L407.098 236.505
L407.395 229.881
L407.693 236.494
L407.99 229.892
L408.288 236.484
L408.586 229.903
L408.883 236.474
L409.181 229.914
L409.478 236.463
L409.776 229.925
L410.074 236.453
L410.371 229.935
L410.669 236.443
L410.966 229.946
L411.264 236.433
L411.562 229.956
L411.859 236.423
L412.157 229.967
L412.454 236.414
L412.752 229.977
L413.05 236.404
L413.347 229.987
L413.645 236.394
L413.942 229.998
L414.24 236.385
L414.538 230.008
L414.835 236.375
L415.133 230.018
L415.43 236.366
L415.728 230.028
L416.026 236.356
L416.323 230.037
L416.621 236.347
L416.918 230.047
L417.216 236.338
L417.514 230.057
L417.811 236.329
L418.109 230.066
L418.406 236.32
L418.704 230.076
L419.002 236.311
L419.299 230.085
L419.597 236.302
L419.894 230.095
L420.192 236.293
L420.49 230.104
L420.787 236.285
L421.085 230.113
L421.382 236.276
L421.68 230.122
L421.978 236.268
L422.275 230.131
L422.573 236.259
L422.87 230.14
L423.168 236.251
L423.466 230.149
L423.763 236.242
L424.061 230.158
L424.358 236.234
L424.656 230.167
L424.954 236.226
L425.251 230.175
L425.549 236.218
L425.846 230.184
L426.144 236.21
L426.442 230.193
L426.739 236.202
L427.037 230.201
L427.334 236.194
L427.632 230.21
L427.93 236.186
L428.227 230.218
L428.525 236.178
L428.822 230.226
L429.12 236.171
L429.418 230.234
L429.715 236.163
L430.013 230.243
L430.31 236.155
L430.608 230.251
L430.906 236.148
L431.203 230.259
L431.501 236.14
L431.798 230.267
L432.096 236.133
L432.394 230.274
L432.691 236.126
L432.989 230.282
L433.286 236.118
L433.584 230.29
L433.882 236.111
L434.179 230.298
L434.477 236.104
L434.774 230.305
L435.072 236.097
L435.37 230.313
L435.667 236.09
L435.965 230.32
L436.262 236.083
L436.56 230.328
L436.858 236.076
L437.155 230.335
L437.453 236.069
L437.75 230.343
L438.048 236.062
L438.346 230.35
L438.643 236.056
L438.941 230.357
L439.238 236.049
L439.536 230.364
L439.834 236.042
L440.131 230.371
L440.429 236.036
L440.726 230.378
L441.024 236.029
L441.322 230.385
L441.619 236.023
L441.917 230.392
L442.214 236.016
L442.512 230.399
L442.81 236.01
L443.107 230.406
L443.405 236.004
L443.702 230.413
L444 235.998
L444.298 230.42
L444.595 235.991
L444.893 230.426
L445.19 235.985
L445.488 230.433
L445.786 235.979
L446.083 230.439
L446.381 235.973
L446.678 230.446
L446.976 235.967
L447.274 230.452
L447.571 235.961
L447.72 231.564
L447.869 230.459
L448.166 235.955
L448.315 231.558
L448.464 230.465
L448.762 235.95
L448.91 231.552
L449.059 230.471
L449.357 235.944
L449.506 231.547
L449.654 230.478
L449.952 235.938
L450.101 231.541
L450.25 230.484
L450.547 235.932
L450.696 231.535
L450.845 230.49
L451.142 235.927
L451.291 231.529
L451.44 230.496
L451.738 235.921
L451.886 231.524
L452.035 230.502
L452.333 235.916
L452.482 231.518
L452.63 230.508
L452.928 235.91
L453.077 231.512
L453.226 230.514
L453.523 235.905
L453.672 231.507
L453.821 230.52
L454.118 235.899
L454.267 231.501
L454.416 230.526
L454.714 235.894
L454.862 231.496
L455.011 230.532
L455.309 235.889
L455.458 231.491
L455.606 230.537
L455.904 235.884
L456.053 231.485
L456.202 230.543
L456.499 235.878
L456.648 231.48
L456.797 230.549
L456.946 234.804
L457.094 235.873
L457.243 231.475
L457.392 230.555
L457.541 234.809
L457.69 235.868
L457.838 231.469
L457.987 230.56
L458.136 234.814
L458.285 235.863
L458.434 231.464
L458.582 230.566
L458.731 234.818
L458.88 235.858
L459.029 231.459
L459.178 230.571
L459.326 234.823
L459.475 235.853
L459.624 231.454
L459.773 230.577
L459.922 234.828
L460.07 235.848
L460.219 231.449
L460.368 230.582
L460.517 234.832
L460.666 235.843
L460.814 231.444
L460.963 230.587
L461.112 234.837
L461.261 235.838
L461.41 231.439
L461.558 230.593
L461.707 234.841
L461.856 235.833
L462.005 231.434
L462.154 230.598
L462.302 234.846
L462.451 235.829
L462.6 231.429
L462.749 230.603
L462.898 234.85
L463.046 235.824
L463.195 231.425
L463.344 230.609
L463.493 234.854
L463.642 235.819
L463.79 231.42
L463.939 230.614
L464.088 234.859
L464.237 235.815
L464.386 231.415
L464.534 230.619
L464.683 234.863
L464.832 235.81
L464.981 231.41
L465.13 230.624
L465.278 234.867
L465.427 235.805
L465.576 231.406
L465.725 230.629
L465.874 234.871
L466.022 235.801
L466.171 231.401
L466.32 230.634
L466.469 234.875
L466.618 235.796
L466.766 231.397
L466.915 230.639
L467.064 234.88
L467.213 235.792
L467.362 231.392
L467.51 230.644
L467.659 234.884
L467.808 235.787
L467.957 231.387
L468.106 230.649
L468.254 234.888
L468.403 235.783
L468.552 231.383
L468.701 230.654
L468.85 234.892
L468.998 235.779
L469.147 231.379
L469.296 230.659
L469.445 234.896
L469.594 235.774
L469.742 231.374
L469.891 230.663
L470.04 234.9
L470.189 235.77
L470.338 231.37
L470.486 230.668
L470.635 234.904
L470.784 235.766
L470.933 231.366
L471.082 230.673
L471.23 234.907
L471.379 235.762
L471.528 231.361
L471.677 230.677
L471.826 234.911
L471.974 235.757
L472.123 231.357
L472.272 230.682
L472.421 234.915
L472.57 235.753
L472.718 231.353
L472.867 230.687
L473.016 234.919
L473.165 235.749
L473.314 231.349
L473.462 230.691
L473.611 234.923
L473.76 235.745
L473.909 231.344
L474.058 230.696
L474.206 234.926
L474.355 235.741
L474.504 231.34
L474.653 230.7
L474.802 234.93
L474.95 235.737
L475.099 231.336
L475.248 230.705
L475.397 234.933
L475.546 235.733
L475.694 231.332
L475.843 230.709
L475.992 234.937
L476.141 235.729
L476.29 231.328
L476.438 230.714
L476.587 234.941
L476.736 235.725
L476.885 231.324
L477.034 230.718
L477.182 234.944
L477.331 235.722
L477.48 231.32
L477.629 230.722
L477.778 234.948
L477.926 235.718
L478.075 231.316
L478.224 230.727
L478.373 234.951
L478.522 235.714
L478.67 231.313
L478.819 230.731
L478.968 234.954
L479.117 235.71
L479.266 231.309
L479.414 230.735
L479.563 234.958
L479.712 235.706
L479.861 231.305
L480.01 230.739
L480.158 234.961
L480.307 235.703
L480.456 231.301
L480.605 230.743
L480.754 234.965
L480.902 235.699
L481.051 231.297
L481.2 230.748
L481.349 234.968
L481.498 235.695
L481.646 231.294
L481.795 230.752
L481.944 234.971
L482.093 235.692
L482.242 231.29
L482.39 230.756
L482.539 234.974
L482.688 235.688
L482.837 231.286
L482.986 230.76
L483.134 234.978
L483.283 235.685
L483.432 231.283
L483.581 230.764
L483.73 234.981
L483.878 235.681
L484.027 231.279
L484.176 230.768
L484.325 234.984
L484.474 235.678
L484.622 231.276
L484.771 230.772
L484.92 234.987
L485.069 235.674
L485.218 231.272
L485.366 230.776
L485.515 234.99
L485.664 235.671
L485.813 231.269
L485.962 230.779
L486.11 234.993
L486.259 235.667
L486.408 231.265
L486.557 230.783
L486.706 234.996
L486.854 235.664
L487.003 231.262
L487.152 230.787
L487.301 234.999
L487.45 235.661
L487.598 231.258
L487.747 230.791
L487.896 235.002
L488.045 235.657
L488.194 231.255
L488.342 230.795
L488.491 235.005
L488.64 235.654
L488.789 231.252
L488.938 230.798
L489.086 235.008
L489.235 235.651
L489.384 231.248
L489.533 230.802
L489.682 235.011
L489.83 235.648
L489.979 231.245
L490.128 230.806
L490.277 235.014
L490.426 235.644
L490.574 231.242
L490.723 230.81
L490.872 235.016
L491.021 235.641
L491.17 231.239
L491.318 230.813
L491.467 235.019
L491.616 235.638
L491.765 231.235
L491.914 230.817
L492.062 235.022
L492.211 235.635
L492.36 231.232
L492.509 230.82
L492.658 235.025
L492.806 235.632
L492.955 231.229
L493.104 230.824
L493.253 235.027
L493.402 235.629
L493.55 231.226
L493.699 230.827
L493.848 235.03
L493.997 235.626
L494.146 231.223
L494.294 230.831
L494.443 235.033
L494.592 235.623
L494.741 231.22
L494.89 230.834
L495.038 235.035
L495.187 235.62
L495.336 231.217
L495.485 230.838
L495.634 235.038
L495.782 235.617
L495.931 231.214
L496.08 230.841
L496.229 235.041
L496.378 235.614
L496.526 231.211
L496.675 230.845
L496.824 235.043
L496.973 235.611
L497.122 231.208
L497.27 230.848
L497.419 235.046
L497.568 235.608
L497.717 231.205
L497.866 230.851
L498.014 235.048
L498.163 235.605
L498.312 231.202
L498.461 230.855
L498.61 235.051
L498.758 235.602
L498.907 231.199
L499.056 230.858
L499.205 235.053
L499.354 235.6
L499.502 231.196
L499.651 230.861
L499.8 235.056
L499.949 235.597
L500.098 231.193
L500.246 230.865
L500.395 235.058
L500.544 235.594
L500.693 231.19
L500.842 230.868
L500.99 235.06
L501.139 235.591
L501.288 231.187
L501.437 230.871
L501.586 235.063
L501.734 235.589
L501.883 231.185
L502.032 230.874
L502.181 235.065
L502.33 235.586
L502.478 231.182
L502.627 230.877
L502.776 235.068
L502.925 235.583
L503.074 231.179
L503.222 230.88
L503.371 235.07
L503.52 235.581
L503.669 231.176
L503.818 230.884
L503.966 235.072
L504.115 235.578
L504.264 231.174
L504.413 230.887
L504.562 235.074
L504.71 235.575
L504.859 231.171
L505.008 230.89
L505.157 235.077
L505.306 235.573
L505.454 231.168
L505.603 230.893
L505.752 235.079
L505.901 235.57
L506.05 231.166
L506.198 230.896
L506.347 235.081
L506.496 235.568
L506.645 231.163
L506.794 230.899
L506.942 235.083
L507.091 235.565
L507.24 231.161
L507.389 230.902
L507.538 235.085
L507.686 235.563
L507.835 231.158
L507.984 230.905
L508.133 235.087
L508.282 235.56
L508.43 231.156
L508.579 230.908
L508.728 235.09
L508.877 235.558
L509.026 231.153
L509.174 230.911
L509.323 235.092
L509.472 235.555
L509.621 231.151
L509.77 230.913
L509.918 235.094
L510.067 235.553
L510.216 231.148
L510.365 230.916
L510.514 235.096
L510.662 235.551
L510.811 231.146
L510.96 230.919
L511.109 235.098
L511.258 235.548
L511.406 231.143
L511.555 230.922
L511.704 235.1
L511.853 235.546
L512.002 231.141
L512.15 230.925
L512.299 235.102
L512.448 235.544
L512.597 231.138
L512.746 230.928
L512.894 235.104
L513.043 235.541
L513.192 231.136
L513.341 230.93
L513.49 235.106
L513.638 235.539
L513.787 231.134
L513.936 230.933
L514.085 235.108
L514.234 235.537
L514.382 231.131
L514.531 230.936
L514.68 235.109
L514.829 235.534
L514.978 231.129
L515.126 230.939
L515.275 235.111
L515.424 235.532
L515.573 231.127
L515.722 230.941
L515.87 235.113
L516.019 235.53
L516.168 231.124
L516.317 230.944
L516.466 235.115
L516.614 235.528
L516.763 231.122
L516.912 230.947
L517.061 235.117
L517.21 235.526
L517.358 231.12
L517.507 230.949
L517.656 235.119
L517.805 235.523
L517.954 231.118
L518.102 230.952
L518.251 235.12
L518.4 235.521
L518.4 235.521" style="fill:none;stroke:#0000ff;stroke-linecap:square;"/>
   </g>
   <g id="matplotlib.axis_1">
    <g id="xtick_1">
     <g id="line2d_2">
      <defs>
       <path d="
M0 0
L0 -4" id="mc7db9fdffb" style="stroke:#000000;stroke-width:0.5;"/>
      </defs>
      <g>
       <use style="stroke:#000000;stroke-width:0.5;" x="72.0" xlink:href="#mc7db9fdffb" y="388.8"/>
      </g>
     </g>
     <g id="line2d_3">
      <defs>
       <path d="
M0 0
L0 4" id="m5a7d422ac3" style="stroke:#000000;stroke-width:0.5;"/>
      </defs>
      <g>
       <use style="stroke:#000000;stroke-width:0.5;" x="72.0" xlink:href="#m5a7d422ac3" y="43.2"/>
      </g>
     </g>
     <g id="text_1">
      <!-- 0 -->
      <defs>
       <path d="
M31.7812 66.4062
Q24.1719 66.4062 20.3281 58.9062
Q16.5 51.4219 16.5 36.375
Q16.5 21.3906 20.3281 13.8906
Q24.1719 6.39062 31.7812 6.39062
Q39.4531 6.39062 43.2812 13.8906
Q47.125 21.3906 47.125 36.375
Q47.125 51.4219 43.2812 58.9062
Q39.4531 66.4062 31.7812 66.4062
M31.7812 74.2188
Q44.0469 74.2188 50.5156 64.5156
Q56.9844 54.8281 56.9844 36.375
Q56.9844 17.9688 50.5156 8.26562
Q44.0469 -1.42188 31.7812 -1.42188
Q19.5312 -1.42188 13.0625 8.26562
Q6.59375 17.9688 6.59375 36.375
Q6.59375 54.8281 13.0625 64.5156
Q19.5312 74.2188 31.7812 74.2188" id="DejaVuSans-30"/>
      </defs>
      <g transform="translate(68.9765625 401.918125)scale(0.12 -0.12)">
       <use xlink:href="#DejaVuSans-30"/>
      </g>
     </g>
    </g>
    <g id="xtick_2">
     <g id="line2d_4">
      <g>
       <use style="stroke:#000000;stroke-width:0.5;" x="146.4" xlink:href="#mc7db9fdffb" y="388.8"/>
      </g>
     </g>
     <g id="line2d_5">
      <g>
       <use style="stroke:#000000;stroke-width:0.5;" x="146.4" xlink:href="#m5a7d422ac3" y="43.2"/>
      </g>
     </g>
     <g id="text_2">
      <!-- 500 -->
      <defs>
       <path d="
M10.7969 72.9062
L49.5156 72.9062
L49.5156 64.5938
L19.8281 64.5938
L19.8281 46.7344
Q21.9688 47.4688 24.1094 47.8281
Q26.2656 48.1875 28.4219 48.1875
Q40.625 48.1875 47.75 41.5
Q54.8906 34.8125 54.8906 23.3906
Q54.8906 11.625 47.5625 5.09375
Q40.2344 -1.42188 26.9062 -1.42188
Q22.3125 -1.42188 17.5469 -0.640625
Q12.7969 0.140625 7.71875 1.70312
L7.71875 11.625
Q12.1094 9.23438 16.7969 8.0625
Q21.4844 6.89062 26.7031 6.89062
Q35.1562 6.89062 40.0781 11.3281
Q45.0156 15.7656 45.0156 23.3906
Q45.0156 31 40.0781 35.4375
Q35.1562 39.8906 26.7031 39.8906
Q22.75 39.8906 18.8125 39.0156
Q14.8906 38.1406 10.7969 36.2812
z
" id="DejaVuSans-35"/>
      </defs>
      <g transform="translate(135.8090625 401.918125)scale(0.12 -0.12)">
       <use xlink:href="#DejaVuSans-35"/>
       <use x="63.623046875" xlink:href="#DejaVuSans-30"/>
       <use x="127.24609375" xlink:href="#DejaVuSans-30"/>
      </g>
     </g>
    </g>
    <g id="xtick_3">
     <g id="line2d_6">
      <g>
       <use style="stroke:#000000;stroke-width:0.5;" x="220.8" xlink:href="#mc7db9fdffb" y="388.8"/>
      </g>
     </g>
     <g id="line2d_7">
      <g>
       <use style="stroke:#000000;stroke-width:0.5;" x="220.8" xlink:href="#m5a7d422ac3" y="43.2"/>
      </g>
     </g>
     <g id="text_3">
      <!-- 1000 -->
      <defs>
       <path d="
M12.4062 8.29688
L28.5156 8.29688
L28.5156 63.9219
L10.9844 60.4062
L10.9844 69.3906
L28.4219 72.9062
L38.2812 72.9062
L38.2812 8.29688
L54.3906 8.29688
L54.3906 0
L12.4062 0
z
" id="DejaVuSans-31"/>
      </defs>
      <g transform="translate(206.5875 401.918125)scale(0.12 -0.12)">
       <use xlink:href="#DejaVuSans-31"/>
       <use x="63.623046875" xlink:href="#DejaVuSans-30"/>
       <use x="127.24609375" xlink:href="#DejaVuSans-30"/>
       <use x="190.869140625" xlink:href="#DejaVuSans-30"/>
      </g>
     </g>
    </g>
    <g id="xtick_4">
     <g id="line2d_8">
      <g>
       <use style="stroke:#000000;stroke-width:0.5;" x="295.2" xlink:href="#mc7db9fdffb" y="388.8"/>
      </g>
     </g>
     <g id="line2d_9">
      <g>
       <use style="stroke:#000000;stroke-width:0.5;" x="295.2" xlink:href="#m5a7d422ac3" y="43.2"/>
      </g>
     </g>
     <g id="text_4">
      <!-- 1500 -->
      <g transform="translate(280.9875 401.918125)scale(0.12 -0.12)">
       <use xlink:href="#DejaVuSans-31"/>
       <use x="63.623046875" xlink:href="#DejaVuSans-35"/>
       <use x="127.24609375" xlink:href="#DejaVuSans-30"/>
       <use x="190.869140625" xlink:href="#DejaVuSans-30"/>
      </g>
     </g>
    </g>
    <g id="xtick_5">
     <g id="line2d_10">
      <g>
       <use style="stroke:#000000;stroke-width:0.5;" x="369.6" xlink:href="#mc7db9fdffb" y="388.8"/>
      </g>
     </g>
     <g id="line2d_11">
      <g>
       <use style="stroke:#000000;stroke-width:0.5;" x="369.6" xlink:href="#m5a7d422ac3" y="43.2"/>
      </g>
     </g>
     <g id="text_5">
      <!-- 2000 -->
      <defs>
       <path d="
M19.1875 8.29688
L53.6094 8.29688
L53.6094 0
L7.32812 0
L7.32812 8.29688
Q12.9375 14.1094 22.625 23.8906
Q32.3281 33.6875 34.8125 36.5312
Q39.5469 41.8438 41.4219 45.5312
Q43.3125 49.2188 43.3125 52.7812
Q43.3125 58.5938 39.2344 62.25
Q35.1562 65.9219 28.6094 65.9219
Q23.9688 65.9219 18.8125 64.3125
Q13.6719 62.7031 7.8125 59.4219
L7.8125 69.3906
Q13.7656 71.7812 18.9375 73
Q24.125 74.2188 28.4219 74.2188
Q39.75 74.2188 46.4844 68.5469
Q53.2188 62.8906 53.2188 53.4219
Q53.2188 48.9219 51.5312 44.8906
Q49.8594 40.875 45.4062 35.4062
Q44.1875 33.9844 37.6406 27.2188
Q31.1094 20.4531 19.1875 8.29688" id="DejaVuSans-32"/>
      </defs>
      <g transform="translate(355.168125 401.918125)scale(0.12 -0.12)">
       <use xlink:href="#DejaVuSans-32"/>
       <use x="63.623046875" xlink:href="#DejaVuSans-30"/>
       <use x="127.24609375" xlink:href="#DejaVuSans-30"/>
       <use x="190.869140625" xlink:href="#DejaVuSans-30"/>
      </g>
     </g>
    </g>
    <g id="xtick_6">
     <g id="line2d_12">
      <g>
       <use style="stroke:#000000;stroke-width:0.5;" x="444.0" xlink:href="#mc7db9fdffb" y="388.8"/>
      </g>
     </g>
     <g id="line2d_13">
      <g>
       <use style="stroke:#000000;stroke-width:0.5;" x="444.0" xlink:href="#m5a7d422ac3" y="43.2"/>
      </g>
     </g>
     <g id="text_6">
      <!-- 2500 -->
      <g transform="translate(429.568125 401.918125)scale(0.12 -0.12)">
       <use xlink:href="#DejaVuSans-32"/>
       <use x="63.623046875" xlink:href="#DejaVuSans-35"/>
       <use x="127.24609375" xlink:href="#DejaVuSans-30"/>
       <use x="190.869140625" xlink:href="#DejaVuSans-30"/>
      </g>
     </g>
    </g>
    <g id="xtick_7">
     <g id="line2d_14">
      <g>
       <use style="stroke:#000000;stroke-width:0.5;" x="518.4" xlink:href="#mc7db9fdffb" y="388.8"/>
      </g>
     </g>
     <g id="line2d_15">
      <g>
       <use style="stroke:#000000;stroke-width:0.5;" x="518.4" xlink:href="#m5a7d422ac3" y="43.2"/>
      </g>
     </g>
     <g id="text_7">
      <!-- 3000 -->
      <defs>
       <path d="
M40.5781 39.3125
Q47.6562 37.7969 51.625 33
Q55.6094 28.2188 55.6094 21.1875
Q55.6094 10.4062 48.1875 4.48438
Q40.7656 -1.42188 27.0938 -1.42188
Q22.5156 -1.42188 17.6562 -0.515625
Q12.7969 0.390625 7.625 2.20312
L7.625 11.7188
Q11.7188 9.32812 16.5938 8.10938
Q21.4844 6.89062 26.8125 6.89062
Q36.0781 6.89062 40.9375 10.5469
Q45.7969 14.2031 45.7969 21.1875
Q45.7969 27.6406 41.2812 31.2656
Q36.7656 34.9062 28.7188 34.9062
L20.2188 34.9062
L20.2188 43.0156
L29.1094 43.0156
Q36.375 43.0156 40.2344 45.9219
Q44.0938 48.8281 44.0938 54.2969
Q44.0938 59.9062 40.1094 62.9062
Q36.1406 65.9219 28.7188 65.9219
Q24.6562 65.9219 20.0156 65.0312
Q15.375 64.1562 9.8125 62.3125
L9.8125 71.0938
Q15.4375 72.6562 20.3438 73.4375
Q25.25 74.2188 29.5938 74.2188
Q40.8281 74.2188 47.3594 69.1094
Q53.9062 64.0156 53.9062 55.3281
Q53.9062 49.2656 50.4375 45.0938
Q46.9688 40.9219 40.5781 39.3125" id="DejaVuSans-33"/>
      </defs>
      <g transform="translate(503.9859375 401.918125)scale(0.12 -0.12)">
       <use xlink:href="#DejaVuSans-33"/>
       <use x="63.623046875" xlink:href="#DejaVuSans-30"/>
       <use x="127.24609375" xlink:href="#DejaVuSans-30"/>
       <use x="190.869140625" xlink:href="#DejaVuSans-30"/>
      </g>
     </g>
    </g>
    <g id="text_8">
     <!-- Runs -->
     <defs>
      <path d="
M44.3906 34.1875
Q47.5625 33.1094 50.5625 29.5938
Q53.5625 26.0781 56.5938 19.9219
L66.6094 0
L56 0
L46.6875 18.7031
Q43.0625 26.0312 39.6719 28.4219
Q36.2812 30.8125 30.4219 30.8125
L19.6719 30.8125
L19.6719 0
L9.8125 0
L9.8125 72.9062
L32.0781 72.9062
Q44.5781 72.9062 50.7344 67.6719
Q56.8906 62.4531 56.8906 51.9062
Q56.8906 45.0156 53.6875 40.4688
Q50.4844 35.9375 44.3906 34.1875
M19.6719 64.7969
L19.6719 38.9219
L32.0781 38.9219
Q39.2031 38.9219 42.8438 42.2188
Q46.4844 45.5156 46.4844 51.9062
Q46.4844 58.2969 42.8438 61.5469
Q39.2031 64.7969 32.0781 64.7969
z
" id="DejaVuSans-52"/>
      <path d="
M8.5 21.5781
L8.5 54.6875
L17.4844 54.6875
L17.4844 21.9219
Q17.4844 14.1562 20.5 10.2656
Q23.5312 6.39062 29.5938 6.39062
Q36.8594 6.39062 41.0781 11.0312
Q45.3125 15.6719 45.3125 23.6875
L45.3125 54.6875
L54.2969 54.6875
L54.2969 0
L45.3125 0
L45.3125 8.40625
Q42.0469 3.42188 37.7188 1
Q33.4062 -1.42188 27.6875 -1.42188
Q18.2656 -1.42188 13.375 4.4375
Q8.5 10.2969 8.5 21.5781
M31.1094 56
z
" id="DejaVuSans-75"/>
      <path d="
M44.2812 53.0781
L44.2812 44.5781
Q40.4844 46.5312 36.375 47.5
Q32.2812 48.4844 27.875 48.4844
Q21.1875 48.4844 17.8438 46.4375
Q14.5 44.3906 14.5 40.2812
Q14.5 37.1562 16.8906 35.375
Q19.2812 33.5938 26.5156 31.9844
L29.5938 31.2969
Q39.1562 29.25 43.1875 25.5156
Q47.2188 21.7812 47.2188 15.0938
Q47.2188 7.46875 41.1875 3.01562
Q35.1562 -1.42188 24.6094 -1.42188
Q20.2188 -1.42188 15.4531 -0.5625
Q10.6875 0.296875 5.42188 2
L5.42188 11.2812
Q10.4062 8.6875 15.2344 7.39062
Q20.0625 6.10938 24.8125 6.10938
Q31.1562 6.10938 34.5625 8.28125
Q37.9844 10.4531 37.9844 14.4062
Q37.9844 18.0625 35.5156 20.0156
Q33.0625 21.9688 24.7031 23.7812
L21.5781 24.5156
Q13.2344 26.2656 9.51562 29.9062
Q5.8125 33.5469 5.8125 39.8906
Q5.8125 47.6094 11.2812 51.7969
Q16.75 56 26.8125 56
Q31.7812 56 36.1719 55.2656
Q40.5781 54.5469 44.2812 53.0781" id="DejaVuSans-73"/>
      <path d="
M54.8906 33.0156
L54.8906 0
L45.9062 0
L45.9062 32.7188
Q45.9062 40.4844 42.875 44.3281
Q39.8438 48.1875 33.7969 48.1875
Q26.5156 48.1875 22.3125 43.5469
Q18.1094 38.9219 18.1094 30.9062
L18.1094 0
L9.07812 0
L9.07812 54.6875
L18.1094 54.6875
L18.1094 46.1875
Q21.3438 51.125 25.7031 53.5625
Q30.0781 56 35.7969 56
Q45.2188 56 50.0469 50.1719
Q54.8906 44.3438 54.8906 33.0156" id="DejaVuSans-6e"/>
     </defs>
     <g transform="translate(281.4515625 418.531875)scale(0.12 -0.12)">
      <use xlink:href="#DejaVuSans-52"/>
      <use x="64.982421875" xlink:href="#DejaVuSans-75"/>
      <use x="128.361328125" xlink:href="#DejaVuSans-6e"/>
      <use x="191.740234375" xlink:href="#DejaVuSans-73"/>
     </g>
    </g>
   </g>
   <g id="matplotlib.axis_2">
    <g id="ytick_1">
     <g id="line2d_16">
      <defs>
       <path d="
M0 0
L4 0" id="md7965d1ba0" style="stroke:#000000;stroke-width:0.5;"/>
      </defs>
      <g>
       <use style="stroke:#000000;stroke-width:0.5;" x="72.0" xlink:href="#md7965d1ba0" y="388.8"/>
      </g>
     </g>
     <g id="line2d_17">
      <defs>
       <path d="
M0 0
L-4 0" id="md9a1c1a7cd" style="stroke:#000000;stroke-width:0.5;"/>
      </defs>
      <g>
       <use style="stroke:#000000;stroke-width:0.5;" x="518.4" xlink:href="#md9a1c1a7cd" y="388.8"/>
      </g>
     </g>
     <g id="text_9">
      <!-- 0.21 -->
      <defs>
       <path d="
M10.6875 12.4062
L21 12.4062
L21 0
L10.6875 0
z
" id="DejaVuSans-2e"/>
      </defs>
      <g transform="translate(43.180625 392.11125)scale(0.12 -0.12)">
       <use xlink:href="#DejaVuSans-30"/>
       <use x="63.623046875" xlink:href="#DejaVuSans-2e"/>
       <use x="95.41015625" xlink:href="#DejaVuSans-32"/>
       <use x="159.033203125" xlink:href="#DejaVuSans-31"/>
      </g>
     </g>
    </g>
    <g id="ytick_2">
     <g id="line2d_18">
      <g>
       <use style="stroke:#000000;stroke-width:0.5;" x="72.0" xlink:href="#md7965d1ba0" y="350.4"/>
      </g>
     </g>
     <g id="line2d_19">
      <g>
       <use style="stroke:#000000;stroke-width:0.5;" x="518.4" xlink:href="#md9a1c1a7cd" y="350.4"/>
      </g>
     </g>
     <g id="text_10">
      <!-- 0.22 -->
      <g transform="translate(43.274375 353.71125)scale(0.12 -0.12)">
       <use xlink:href="#DejaVuSans-30"/>
       <use x="63.623046875" xlink:href="#DejaVuSans-2e"/>
       <use x="95.41015625" xlink:href="#DejaVuSans-32"/>
       <use x="159.033203125" xlink:href="#DejaVuSans-32"/>
      </g>
     </g>
    </g>
    <g id="ytick_3">
     <g id="line2d_20">
      <g>
       <use style="stroke:#000000;stroke-width:0.5;" x="72.0" xlink:href="#md7965d1ba0" y="312.0"/>
      </g>
     </g>
     <g id="line2d_21">
      <g>
       <use style="stroke:#000000;stroke-width:0.5;" x="518.4" xlink:href="#md9a1c1a7cd" y="312.0"/>
      </g>
     </g>
     <g id="text_11">
      <!-- 0.23 -->
      <g transform="translate(43.034375 315.31125)scale(0.12 -0.12)">
       <use xlink:href="#DejaVuSans-30"/>
       <use x="63.623046875" xlink:href="#DejaVuSans-2e"/>
       <use x="95.41015625" xlink:href="#DejaVuSans-32"/>
       <use x="159.033203125" xlink:href="#DejaVuSans-33"/>
      </g>
     </g>
    </g>
    <g id="ytick_4">
     <g id="line2d_22">
      <g>
       <use style="stroke:#000000;stroke-width:0.5;" x="72.0" xlink:href="#md7965d1ba0" y="273.6"/>
      </g>
     </g>
     <g id="line2d_23">
      <g>
       <use style="stroke:#000000;stroke-width:0.5;" x="518.4" xlink:href="#md9a1c1a7cd" y="273.6"/>
      </g>
     </g>
     <g id="text_12">
      <!-- 0.24 -->
      <defs>
       <path d="
M37.7969 64.3125
L12.8906 25.3906
L37.7969 25.3906
z

M35.2031 72.9062
L47.6094 72.9062
L47.6094 25.3906
L58.0156 25.3906
L58.0156 17.1875
L47.6094 17.1875
L47.6094 0
L37.7969 0
L37.7969 17.1875
L4.89062 17.1875
L4.89062 26.7031
z
" id="DejaVuSans-34"/>
      </defs>
      <g transform="translate(42.745625 276.91125)scale(0.12 -0.12)">
       <use xlink:href="#DejaVuSans-30"/>
       <use x="63.623046875" xlink:href="#DejaVuSans-2e"/>
       <use x="95.41015625" xlink:href="#DejaVuSans-32"/>
       <use x="159.033203125" xlink:href="#DejaVuSans-34"/>
      </g>
     </g>
    </g>
    <g id="ytick_5">
     <g id="line2d_24">
      <g>
       <use style="stroke:#000000;stroke-width:0.5;" x="72.0" xlink:href="#md7965d1ba0" y="235.2"/>
      </g>
     </g>
     <g id="line2d_25">
      <g>
       <use style="stroke:#000000;stroke-width:0.5;" x="518.4" xlink:href="#md9a1c1a7cd" y="235.2"/>
      </g>
     </g>
     <g id="text_13">
      <!-- 0.25 -->
      <g transform="translate(43.120625 238.51125)scale(0.12 -0.12)">
       <use xlink:href="#DejaVuSans-30"/>
       <use x="63.623046875" xlink:href="#DejaVuSans-2e"/>
       <use x="95.41015625" xlink:href="#DejaVuSans-32"/>
       <use x="159.033203125" xlink:href="#DejaVuSans-35"/>
      </g>
     </g>
    </g>
    <g id="ytick_6">
     <g id="line2d_26">
      <g>
       <use style="stroke:#000000;stroke-width:0.5;" x="72.0" xlink:href="#md7965d1ba0" y="196.8"/>
      </g>
     </g>
     <g id="line2d_27">
      <g>
       <use style="stroke:#000000;stroke-width:0.5;" x="518.4" xlink:href="#md9a1c1a7cd" y="196.8"/>
      </g>
     </g>
     <g id="text_14">
      <!-- 0.26 -->
      <defs>
       <path d="
M33.0156 40.375
Q26.375 40.375 22.4844 35.8281
Q18.6094 31.2969 18.6094 23.3906
Q18.6094 15.5312 22.4844 10.9531
Q26.375 6.39062 33.0156 6.39062
Q39.6562 6.39062 43.5312 10.9531
Q47.4062 15.5312 47.4062 23.3906
Q47.4062 31.2969 43.5312 35.8281
Q39.6562 40.375 33.0156 40.375
M52.5938 71.2969
L52.5938 62.3125
Q48.875 64.0625 45.0938 64.9844
Q41.3125 65.9219 37.5938 65.9219
Q27.8281 65.9219 22.6719 59.3281
Q17.5312 52.7344 16.7969 39.4062
Q19.6719 43.6562 24.0156 45.9219
Q28.375 48.1875 33.5938 48.1875
Q44.5781 48.1875 50.9531 41.5156
Q57.3281 34.8594 57.3281 23.3906
Q57.3281 12.1562 50.6875 5.35938
Q44.0469 -1.42188 33.0156 -1.42188
Q20.3594 -1.42188 13.6719 8.26562
Q6.98438 17.9688 6.98438 36.375
Q6.98438 53.6562 15.1875 63.9375
Q23.3906 74.2188 37.2031 74.2188
Q40.9219 74.2188 44.7031 73.4844
Q48.4844 72.75 52.5938 71.2969" id="DejaVuSans-36"/>
      </defs>
      <g transform="translate(42.828125 200.11125)scale(0.12 -0.12)">
       <use xlink:href="#DejaVuSans-30"/>
       <use x="63.623046875" xlink:href="#DejaVuSans-2e"/>
       <use x="95.41015625" xlink:href="#DejaVuSans-32"/>
       <use x="159.033203125" xlink:href="#DejaVuSans-36"/>
      </g>
     </g>
    </g>
    <g id="ytick_7">
     <g id="line2d_28">
      <g>
       <use style="stroke:#000000;stroke-width:0.5;" x="72.0" xlink:href="#md7965d1ba0" y="158.4"/>
      </g>
     </g>
     <g id="line2d_29">
      <g>
       <use style="stroke:#000000;stroke-width:0.5;" x="518.4" xlink:href="#md9a1c1a7cd" y="158.4"/>
      </g>
     </g>
     <g id="text_15">
      <!-- 0.27 -->
      <defs>
       <path d="
M8.20312 72.9062
L55.0781 72.9062
L55.0781 68.7031
L28.6094 0
L18.3125 0
L43.2188 64.5938
L8.20312 64.5938
z
" id="DejaVuSans-37"/>
      </defs>
      <g transform="translate(43.098125 161.71125)scale(0.12 -0.12)">
       <use xlink:href="#DejaVuSans-30"/>
       <use x="63.623046875" xlink:href="#DejaVuSans-2e"/>
       <use x="95.41015625" xlink:href="#DejaVuSans-32"/>
       <use x="159.033203125" xlink:href="#DejaVuSans-37"/>
      </g>
     </g>
    </g>
    <g id="ytick_8">
     <g id="line2d_30">
      <g>
       <use style="stroke:#000000;stroke-width:0.5;" x="72.0" xlink:href="#md7965d1ba0" y="120.0"/>
      </g>
     </g>
     <g id="line2d_31">
      <g>
       <use style="stroke:#000000;stroke-width:0.5;" x="518.4" xlink:href="#md9a1c1a7cd" y="120.0"/>
      </g>
     </g>
     <g id="text_16">
      <!-- 0.28 -->
      <defs>
       <path d="
M31.7812 34.625
Q24.75 34.625 20.7188 30.8594
Q16.7031 27.0938 16.7031 20.5156
Q16.7031 13.9219 20.7188 10.1562
Q24.75 6.39062 31.7812 6.39062
Q38.8125 6.39062 42.8594 10.1719
Q46.9219 13.9688 46.9219 20.5156
Q46.9219 27.0938 42.8906 30.8594
Q38.875 34.625 31.7812 34.625
M21.9219 38.8125
Q15.5781 40.375 12.0312 44.7188
Q8.5 49.0781 8.5 55.3281
Q8.5 64.0625 14.7188 69.1406
Q20.9531 74.2188 31.7812 74.2188
Q42.6719 74.2188 48.875 69.1406
Q55.0781 64.0625 55.0781 55.3281
Q55.0781 49.0781 51.5312 44.7188
Q48 40.375 41.7031 38.8125
Q48.8281 37.1562 52.7969 32.3125
Q56.7812 27.4844 56.7812 20.5156
Q56.7812 9.90625 50.3125 4.23438
Q43.8438 -1.42188 31.7812 -1.42188
Q19.7344 -1.42188 13.25 4.23438
Q6.78125 9.90625 6.78125 20.5156
Q6.78125 27.4844 10.7812 32.3125
Q14.7969 37.1562 21.9219 38.8125
M18.3125 54.3906
Q18.3125 48.7344 21.8438 45.5625
Q25.3906 42.3906 31.7812 42.3906
Q38.1406 42.3906 41.7188 45.5625
Q45.3125 48.7344 45.3125 54.3906
Q45.3125 60.0625 41.7188 63.2344
Q38.1406 66.4062 31.7812 66.4062
Q25.3906 66.4062 21.8438 63.2344
Q18.3125 60.0625 18.3125 54.3906" id="DejaVuSans-38"/>
      </defs>
      <g transform="translate(42.89375 123.31125)scale(0.12 -0.12)">
       <use xlink:href="#DejaVuSans-30"/>
       <use x="63.623046875" xlink:href="#DejaVuSans-2e"/>
       <use x="95.41015625" xlink:href="#DejaVuSans-32"/>
       <use x="159.033203125" xlink:href="#DejaVuSans-38"/>
      </g>
     </g>
    </g>
    <g id="ytick_9">
     <g id="line2d_32">
      <g>
       <use style="stroke:#000000;stroke-width:0.5;" x="72.0" xlink:href="#md7965d1ba0" y="81.6"/>
      </g>
     </g>
     <g id="line2d_33">
      <g>
       <use style="stroke:#000000;stroke-width:0.5;" x="518.4" xlink:href="#md9a1c1a7cd" y="81.6"/>
      </g>
     </g>
     <g id="text_17">
      <!-- 0.29 -->
      <defs>
       <path d="
M10.9844 1.51562
L10.9844 10.5
Q14.7031 8.73438 18.5 7.8125
Q22.3125 6.89062 25.9844 6.89062
Q35.75 6.89062 40.8906 13.4531
Q46.0469 20.0156 46.7812 33.4062
Q43.9531 29.2031 39.5938 26.9531
Q35.25 24.7031 29.9844 24.7031
Q19.0469 24.7031 12.6719 31.3125
Q6.29688 37.9375 6.29688 49.4219
Q6.29688 60.6406 12.9375 67.4219
Q19.5781 74.2188 30.6094 74.2188
Q43.2656 74.2188 49.9219 64.5156
Q56.5938 54.8281 56.5938 36.375
Q56.5938 19.1406 48.4062 8.85938
Q40.2344 -1.42188 26.4219 -1.42188
Q22.7031 -1.42188 18.8906 -0.6875
Q15.0938 0.046875 10.9844 1.51562
M30.6094 32.4219
Q37.25 32.4219 41.125 36.9531
Q45.0156 41.5 45.0156 49.4219
Q45.0156 57.2812 41.125 61.8438
Q37.25 66.4062 30.6094 66.4062
Q23.9688 66.4062 20.0938 61.8438
Q16.2188 57.2812 16.2188 49.4219
Q16.2188 41.5 20.0938 36.9531
Q23.9688 32.4219 30.6094 32.4219" id="DejaVuSans-39"/>
      </defs>
      <g transform="translate(42.91625 84.91125)scale(0.12 -0.12)">
       <use xlink:href="#DejaVuSans-30"/>
       <use x="63.623046875" xlink:href="#DejaVuSans-2e"/>
       <use x="95.41015625" xlink:href="#DejaVuSans-32"/>
       <use x="159.033203125" xlink:href="#DejaVuSans-39"/>
      </g>
     </g>
    </g>
    <g id="ytick_10">
     <g id="line2d_34">
      <g>
       <use style="stroke:#000000;stroke-width:0.5;" x="72.0" xlink:href="#md7965d1ba0" y="43.2"/>
      </g>
     </g>
     <g id="line2d_35">
      <g>
       <use style="stroke:#000000;stroke-width:0.5;" x="518.4" xlink:href="#md9a1c1a7cd" y="43.2"/>
      </g>
     </g>
     <g id="text_18">
      <!-- 0.30 -->
      <g transform="translate(42.869375 46.51125)scale(0.12 -0.12)">
       <use xlink:href="#DejaVuSans-30"/>
       <use x="63.623046875" xlink:href="#DejaVuSans-2e"/>
       <use x="95.41015625" xlink:href="#DejaVuSans-33"/>
       <use x="159.033203125" xlink:href="#DejaVuSans-30"/>
      </g>
     </g>
    </g>
    <g id="text_19">
     <!-- Cost -->
     <defs>
      <path d="
M30.6094 48.3906
Q23.3906 48.3906 19.1875 42.75
Q14.9844 37.1094 14.9844 27.2969
Q14.9844 17.4844 19.1562 11.8438
Q23.3438 6.20312 30.6094 6.20312
Q37.7969 6.20312 41.9844 11.8594
Q46.1875 17.5312 46.1875 27.2969
Q46.1875 37.0156 41.9844 42.7031
Q37.7969 48.3906 30.6094 48.3906
M30.6094 56
Q42.3281 56 49.0156 48.375
Q55.7188 40.7656 55.7188 27.2969
Q55.7188 13.875 49.0156 6.21875
Q42.3281 -1.42188 30.6094 -1.42188
Q18.8438 -1.42188 12.1719 6.21875
Q5.51562 13.875 5.51562 27.2969
Q5.51562 40.7656 12.1719 48.375
Q18.8438 56 30.6094 56" id="DejaVuSans-6f"/>
      <path d="
M64.4062 67.2812
L64.4062 56.8906
Q59.4219 61.5312 53.7812 63.8125
Q48.1406 66.1094 41.7969 66.1094
Q29.2969 66.1094 22.6562 58.4688
Q16.0156 50.8281 16.0156 36.375
Q16.0156 21.9688 22.6562 14.3281
Q29.2969 6.6875 41.7969 6.6875
Q48.1406 6.6875 53.7812 8.98438
Q59.4219 11.2812 64.4062 15.9219
L64.4062 5.60938
Q59.2344 2.09375 53.4375 0.328125
Q47.6562 -1.42188 41.2188 -1.42188
Q24.6562 -1.42188 15.125 8.70312
Q5.60938 18.8438 5.60938 36.375
Q5.60938 53.9531 15.125 64.0781
Q24.6562 74.2188 41.2188 74.2188
Q47.75 74.2188 53.5312 72.4844
Q59.3281 70.75 64.4062 67.2812" id="DejaVuSans-43"/>
      <path d="
M18.3125 70.2188
L18.3125 54.6875
L36.8125 54.6875
L36.8125 47.7031
L18.3125 47.7031
L18.3125 18.0156
Q18.3125 11.3281 20.1406 9.42188
Q21.9688 7.51562 27.5938 7.51562
L36.8125 7.51562
L36.8125 0
L27.5938 0
Q17.1875 0 13.2344 3.875
Q9.28125 7.76562 9.28125 18.0156
L9.28125 47.7031
L2.6875 47.7031
L2.6875 54.6875
L9.28125 54.6875
L9.28125 70.2188
z
" id="DejaVuSans-74"/>
     </defs>
     <g transform="translate(35.25 228.85875)rotate(-90.0)scale(0.12 -0.12)">
      <use xlink:href="#DejaVuSans-43"/>
      <use x="69.82421875" xlink:href="#DejaVuSans-6f"/>
      <use x="131.005859375" xlink:href="#DejaVuSans-73"/>
      <use x="183.10546875" xlink:href="#DejaVuSans-74"/>
     </g>
    </g>
   </g>
   <g id="patch_3">
    <path d="
M72 43.2
L518.4 43.2" style="fill:none;stroke:#000000;"/>
   </g>
   <g id="patch_4">
    <path d="
M518.4 388.8
L518.4 43.2" style="fill:none;stroke:#000000;"/>
   </g>
   <g id="patch_5">
    <path d="
M72 388.8
L518.4 388.8" style="fill:none;stroke:#000000;"/>
   </g>
   <g id="patch_6">
    <path d="
M72 388.8
L72 43.2" style="fill:none;stroke:#000000;"/>
   </g>
   <g id="text_20">
    <!-- XOR Sigmoid Two Hidden Layers -->
    <defs>
     <path d="
M39.4062 66.2188
Q28.6562 66.2188 22.3281 58.2031
Q16.0156 50.2031 16.0156 36.375
Q16.0156 22.6094 22.3281 14.5938
Q28.6562 6.59375 39.4062 6.59375
Q50.1406 6.59375 56.4219 14.5938
Q62.7031 22.6094 62.7031 36.375
Q62.7031 50.2031 56.4219 58.2031
Q50.1406 66.2188 39.4062 66.2188
M39.4062 74.2188
Q54.7344 74.2188 63.9062 63.9375
Q73.0938 53.6562 73.0938 36.375
Q73.0938 19.1406 63.9062 8.85938
Q54.7344 -1.42188 39.4062 -1.42188
Q24.0312 -1.42188 14.8125 8.82812
Q5.60938 19.0938 5.60938 36.375
Q5.60938 53.6562 14.8125 63.9375
Q24.0312 74.2188 39.4062 74.2188" id="DejaVuSans-4f"/>
     <path d="
M52 44.1875
Q55.375 50.25 60.0625 53.125
Q64.75 56 71.0938 56
Q79.6406 56 84.2812 50.0156
Q88.9219 44.0469 88.9219 33.0156
L88.9219 0
L79.8906 0
L79.8906 32.7188
Q79.8906 40.5781 77.0938 44.375
Q74.3125 48.1875 68.6094 48.1875
Q61.625 48.1875 57.5625 43.5469
Q53.5156 38.9219 53.5156 30.9062
L53.5156 0
L44.4844 0
L44.4844 32.7188
Q44.4844 40.625 41.7031 44.4062
Q38.9219 48.1875 33.1094 48.1875
Q26.2188 48.1875 22.1562 43.5312
Q18.1094 38.875 18.1094 30.9062
L18.1094 0
L9.07812 0
L9.07812 54.6875
L18.1094 54.6875
L18.1094 46.1875
Q21.1875 51.2188 25.4844 53.6094
Q29.7812 56 35.6875 56
Q41.6562 56 45.8281 52.9688
Q50 49.9531 52 44.1875" id="DejaVuSans-6d"/>
     <path id="DejaVuSans-20"/>
     <path d="
M9.8125 72.9062
L19.6719 72.9062
L19.6719 43.0156
L55.5156 43.0156
L55.5156 72.9062
L65.375 72.9062
L65.375 0
L55.5156 0
L55.5156 34.7188
L19.6719 34.7188
L19.6719 0
L9.8125 0
z
" id="DejaVuSans-48"/>
     <path d="
M4.20312 54.6875
L13.1875 54.6875
L24.4219 12.0156
L35.5938 54.6875
L46.1875 54.6875
L57.4219 12.0156
L68.6094 54.6875
L77.5938 54.6875
L63.2812 0
L52.6875 0
L40.9219 44.8281
L29.1094 0
L18.5 0
z
" id="DejaVuSans-77"/>
     <path d="
M41.1094 46.2969
Q39.5938 47.1719 37.8125 47.5781
Q36.0312 48 33.8906 48
Q26.2656 48 22.1875 43.0469
Q18.1094 38.0938 18.1094 28.8125
L18.1094 0
L9.07812 0
L9.07812 54.6875
L18.1094 54.6875
L18.1094 46.1875
Q20.9531 51.1719 25.4844 53.5781
Q30.0312 56 36.5312 56
Q37.4531 56 38.5781 55.875
Q39.7031 55.7656 41.0625 55.5156
z
" id="DejaVuSans-72"/>
     <path d="
M9.8125 72.9062
L19.6719 72.9062
L19.6719 8.29688
L55.1719 8.29688
L55.1719 0
L9.8125 0
z
" id="DejaVuSans-4c"/>
     <path d="
M45.4062 46.3906
L45.4062 75.9844
L54.3906 75.9844
L54.3906 0
L45.4062 0
L45.4062 8.20312
Q42.5781 3.32812 38.25 0.953125
Q33.9375 -1.42188 27.875 -1.42188
Q17.9688 -1.42188 11.7344 6.48438
Q5.51562 14.4062 5.51562 27.2969
Q5.51562 40.1875 11.7344 48.0938
Q17.9688 56 27.875 56
Q33.9375 56 38.25 53.625
Q42.5781 51.2656 45.4062 46.3906
M14.7969 27.2969
Q14.7969 17.3906 18.875 11.75
Q22.9531 6.10938 30.0781 6.10938
Q37.2031 6.10938 41.2969 11.75
Q45.4062 17.3906 45.4062 27.2969
Q45.4062 37.2031 41.2969 42.8438
Q37.2031 48.4844 30.0781 48.4844
Q22.9531 48.4844 18.875 42.8438
Q14.7969 37.2031 14.7969 27.2969" id="DejaVuSans-64"/>
     <path d="
M56.2031 29.5938
L56.2031 25.2031
L14.8906 25.2031
Q15.4844 15.9219 20.4844 11.0625
Q25.4844 6.20312 34.4219 6.20312
Q39.5938 6.20312 44.4531 7.46875
Q49.3125 8.73438 54.1094 11.2812
L54.1094 2.78125
Q49.2656 0.734375 44.1875 -0.34375
Q39.1094 -1.42188 33.8906 -1.42188
Q20.7969 -1.42188 13.1562 6.1875
Q5.51562 13.8125 5.51562 26.8125
Q5.51562 40.2344 12.7656 48.1094
Q20.0156 56 32.3281 56
Q43.3594 56 49.7812 48.8906
Q56.2031 41.7969 56.2031 29.5938
M47.2188 32.2344
Q47.125 39.5938 43.0938 43.9844
Q39.0625 48.3906 32.4219 48.3906
Q24.9062 48.3906 20.3906 44.1406
Q15.875 39.8906 15.1875 32.1719
z
" id="DejaVuSans-65"/>
     <path d="
M6.29688 72.9062
L16.8906 72.9062
L35.0156 45.7969
L53.2188 72.9062
L63.8125 72.9062
L40.375 37.8906
L65.375 0
L54.7812 0
L34.2812 31
L13.625 0
L2.98438 0
L29 38.9219
z
" id="DejaVuSans-58"/>
     <path d="
M32.1719 -5.07812
Q28.375 -14.8438 24.75 -17.8125
Q21.1406 -20.7969 15.0938 -20.7969
L7.90625 -20.7969
L7.90625 -13.2812
L13.1875 -13.2812
Q16.8906 -13.2812 18.9375 -11.5156
Q21 -9.76562 23.4844 -3.21875
L25.0938 0.875
L2.98438 54.6875
L12.5 54.6875
L29.5938 11.9219
L46.6875 54.6875
L56.2031 54.6875
z
" id="DejaVuSans-79"/>
     <path d="
M45.4062 27.9844
Q45.4062 37.75 41.375 43.1094
Q37.3594 48.4844 30.0781 48.4844
Q22.8594 48.4844 18.8281 43.1094
Q14.7969 37.75 14.7969 27.9844
Q14.7969 18.2656 18.8281 12.8906
Q22.8594 7.51562 30.0781 7.51562
Q37.3594 7.51562 41.375 12.8906
Q45.4062 18.2656 45.4062 27.9844
M54.3906 6.78125
Q54.3906 -7.17188 48.1875 -13.9844
Q42 -20.7969 29.2031 -20.7969
Q24.4688 -20.7969 20.2656 -20.0938
Q16.0625 -19.3906 12.1094 -17.9219
L12.1094 -9.1875
Q16.0625 -11.3281 19.9219 -12.3438
Q23.7812 -13.375 27.7812 -13.375
Q36.625 -13.375 41.0156 -8.76562
Q45.4062 -4.15625 45.4062 5.17188
L45.4062 9.625
Q42.625 4.78125 38.2812 2.39062
Q33.9375 0 27.875 0
Q17.8281 0 11.6719 7.65625
Q5.51562 15.3281 5.51562 27.9844
Q5.51562 40.6719 11.6719 48.3281
Q17.8281 56 27.875 56
Q33.9375 56 38.2812 53.6094
Q42.625 51.2188 45.4062 46.3906
L45.4062 54.6875
L54.3906 54.6875
z
" id="DejaVuSans-67"/>
     <path d="
M34.2812 27.4844
Q23.3906 27.4844 19.1875 25
Q14.9844 22.5156 14.9844 16.5
Q14.9844 11.7188 18.1406 8.90625
Q21.2969 6.10938 26.7031 6.10938
Q34.1875 6.10938 38.7031 11.4062
Q43.2188 16.7031 43.2188 25.4844
L43.2188 27.4844
z

M52.2031 31.2031
L52.2031 0
L43.2188 0
L43.2188 8.29688
Q40.1406 3.32812 35.5469 0.953125
Q30.9531 -1.42188 24.3125 -1.42188
Q15.9219 -1.42188 10.9531 3.29688
Q6 8.01562 6 15.9219
Q6 25.1406 12.1719 29.8281
Q18.3594 34.5156 30.6094 34.5156
L43.2188 34.5156
L43.2188 35.4062
Q43.2188 41.6094 39.1406 45
Q35.0625 48.3906 27.6875 48.3906
Q23 48.3906 18.5469 47.2656
Q14.1094 46.1406 10.0156 43.8906
L10.0156 52.2031
Q14.9375 54.1094 19.5781 55.0469
Q24.2188 56 28.6094 56
Q40.4844 56 46.3438 49.8438
Q52.2031 43.7031 52.2031 31.2031" id="DejaVuSans-61"/>
     <path d="
M53.5156 70.5156
L53.5156 60.8906
Q47.9062 63.5781 42.9219 64.8906
Q37.9375 66.2188 33.2969 66.2188
Q25.25 66.2188 20.875 63.0938
Q16.5 59.9688 16.5 54.2031
Q16.5 49.3594 19.4062 46.8906
Q22.3125 44.4375 30.4219 42.9219
L36.375 41.7031
Q47.4062 39.5938 52.6562 34.2969
Q57.9062 29 57.9062 20.125
Q57.9062 9.51562 50.7969 4.04688
Q43.7031 -1.42188 29.9844 -1.42188
Q24.8125 -1.42188 18.9688 -0.25
Q13.1406 0.921875 6.89062 3.21875
L6.89062 13.375
Q12.8906 10.0156 18.6562 8.29688
Q24.4219 6.59375 29.9844 6.59375
Q38.4219 6.59375 43.0156 9.90625
Q47.6094 13.2344 47.6094 19.3906
Q47.6094 24.75 44.3125 27.7812
Q41.0156 30.8125 33.5 32.3281
L27.4844 33.5
Q16.4531 35.6875 11.5156 40.375
Q6.59375 45.0625 6.59375 53.4219
Q6.59375 63.0938 13.4062 68.6562
Q20.2188 74.2188 32.1719 74.2188
Q37.3125 74.2188 42.625 73.2812
Q47.9531 72.3594 53.5156 70.5156" id="DejaVuSans-53"/>
     <path d="
M9.42188 54.6875
L18.4062 54.6875
L18.4062 0
L9.42188 0
z

M9.42188 75.9844
L18.4062 75.9844
L18.4062 64.5938
L9.42188 64.5938
z
" id="DejaVuSans-69"/>
     <path d="
M-0.296875 72.9062
L61.375 72.9062
L61.375 64.5938
L35.5 64.5938
L35.5 0
L25.5938 0
L25.5938 64.5938
L-0.296875 64.5938
z
" id="DejaVuSans-54"/>
    </defs>
    <g transform="translate(179.242875 38.2)scale(0.144 -0.144)">
     <use xlink:href="#DejaVuSans-58"/>
     <use x="62.130859375" xlink:href="#DejaVuSans-4f"/>
     <use x="140.841796875" xlink:href="#DejaVuSans-52"/>
     <use x="210.32421875" xlink:href="#DejaVuSans-20"/>
     <use x="242.111328125" xlink:href="#DejaVuSans-53"/>
     <use x="305.587890625" xlink:href="#DejaVuSans-69"/>
     <use x="333.37109375" xlink:href="#DejaVuSans-67"/>
     <use x="396.84765625" xlink:href="#DejaVuSans-6d"/>
     <use x="494.259765625" xlink:href="#DejaVuSans-6f"/>
     <use x="555.44140625" xlink:href="#DejaVuSans-69"/>
     <use x="583.224609375" xlink:href="#DejaVuSans-64"/>
     <use x="646.701171875" xlink:href="#DejaVuSans-20"/>
     <use x="678.48828125" xlink:href="#DejaVuSans-54"/>
     <use x="723.072265625" xlink:href="#DejaVuSans-77"/>
     <use x="804.859375" xlink:href="#DejaVuSans-6f"/>
     <use x="866.041015625" xlink:href="#DejaVuSans-20"/>
     <use x="897.828125" xlink:href="#DejaVuSans-48"/>
     <use x="973.0234375" xlink:href="#DejaVuSans-69"/>
     <use x="1000.806640625" xlink:href="#DejaVuSans-64"/>
     <use x="1064.283203125" xlink:href="#DejaVuSans-64"/>
     <use x="1127.759765625" xlink:href="#DejaVuSans-65"/>
     <use x="1189.283203125" xlink:href="#DejaVuSans-6e"/>
     <use x="1252.662109375" xlink:href="#DejaVuSans-20"/>
     <use x="1284.44921875" xlink:href="#DejaVuSans-4c"/>
     <use x="1340.162109375" xlink:href="#DejaVuSans-61"/>
     <use x="1401.44140625" xlink:href="#DejaVuSans-79"/>
     <use x="1460.62109375" xlink:href="#DejaVuSans-65"/>
     <use x="1522.14453125" xlink:href="#DejaVuSans-72"/>
     <use x="1563.2578125" xlink:href="#DejaVuSans-73"/>
    </g>
   </g>
  </g>
 </g>
 <defs>
  <clipPath id="p7ff5b81e1d">
   <rect height="345.6" width="446.4" x="72.0" y="43.2"/>
  </clipPath>
 </defs>
</svg>
