<?xml version="1.0" encoding="utf-8" standalone="no"?>
<!DOCTYPE svg PUBLIC "-//W3C//DTD SVG 1.1//EN"
  "http://www.w3.org/Graphics/SVG/1.1/DTD/svg11.dtd">
<!-- Created with matplotlib (http://matplotlib.org/) -->
<svg height="432pt" version="1.1" viewBox="0 0 576 432" width="576pt" xmlns="http://www.w3.org/2000/svg" xmlns:xlink="http://www.w3.org/1999/xlink">
 <defs>
  <style type="text/css">
*{stroke-linecap:butt;stroke-linejoin:round;}
  </style>
 </defs>
 <g id="figure_1">
  <g id="patch_1">
   <path d="
M0 432
L576 432
L576 0
L0 0
z
" style="fill:#ffffff;"/>
  </g>
  <g id="axes_1">
   <g id="patch_2">
    <path d="
M72 388.8
L518.4 388.8
L518.4 43.2
L72 43.2
z
" style="fill:#ffffff;"/>
   </g>
   <g id="line2d_1">
    <path clip-path="url(#p7ff5b81e1d)" d="
M72.1116 47.3506
L72.2232 374.024
L72.3348 379.72
L72.558 49.0121
L72.7812 378.871
L73.0044 50.6639
L73.2276 378.021
L73.4508 52.3057
L73.674 377.172
L73.8972 53.9375
L74.1204 376.323
L74.3436 55.5593
L74.5668 375.475
L74.79 57.171
L75.0132 374.627
L75.2364 58.7724
L75.4596 373.779
L75.6828 60.3637
L75.906 372.932
L76.1292 61.9446
L76.3524 372.086
L76.5756 63.5152
L76.7988 371.241
L77.022 65.0754
L77.2452 370.396
L77.4684 66.6251
L77.6916 369.553
L77.9148 68.1643
L78.138 368.711
L78.3612 69.693
L78.5844 367.87
L78.8076 71.2112
L79.0308 367.03
L79.254 72.7187
L79.4772 366.192
L79.7004 74.2157
L79.9236 365.355
L80.1468 75.7019
L80.37 364.52
L80.5932 77.1775
L80.8164 363.686
L81.0396 78.6424
L81.2628 362.854
L81.486 80.0966
L81.7092 362.024
L81.9324 81.5401
L82.1556 361.196
L82.3788 82.9728
L82.602 360.37
L82.8252 84.3948
L83.0484 359.546
L83.2716 85.8061
L83.4948 358.724
L83.718 87.2066
L83.9412 357.905
L84.1644 88.5963
L84.3876 357.087
L84.6108 89.9753
L84.834 356.272
L85.0572 91.3436
L85.2804 355.46
L85.5036 92.7011
L85.7268 354.649
L85.95 94.048
L86.1732 353.842
L86.3964 95.3841
L86.6196 353.037
L86.8428 96.7096
L87.066 352.235
L87.2892 98.0243
L87.5124 351.435
L87.7356 99.3284
L87.9588 350.638
L88.182 100.622
L88.4052 349.845
L88.6284 101.905
L88.8516 349.054
L89.0748 103.177
L89.298 348.266
L89.5212 104.439
L89.7444 347.481
L89.9676 105.69
L90.1908 346.699
L90.414 106.931
L90.6372 345.92
L90.8604 108.161
L91.0836 345.145
L91.3068 109.381
L91.53 344.373
L91.7532 110.591
L91.9764 343.604
L92.1996 111.79
L92.4228 342.838
L92.646 112.979
L92.8692 342.076
L93.0924 114.157
L93.3156 341.317
L93.5388 115.326
L93.762 340.562
L93.9852 116.484
L94.2084 339.81
L94.4316 117.632
L94.6548 339.062
L94.878 118.77
L95.1012 338.317
L95.3244 119.898
L95.5476 337.576
L95.7708 121.016
L95.994 336.838
L96.2172 122.124
L96.4404 336.105
L96.6636 123.222
L96.8868 335.374
L97.11 124.31
L97.3332 334.648
L97.5564 125.389
L97.7796 333.925
L98.0028 126.458
L98.226 333.207
L98.4492 127.517
L98.6724 332.492
L98.8956 128.566
L99.1188 331.78
L99.342 129.606
L99.5652 331.073
L99.7884 130.637
L100.012 330.37
L100.235 131.658
L100.458 329.67
L100.681 132.669
L100.904 328.975
L101.128 133.672
L101.351 328.283
L101.574 134.665
L101.797 327.595
L102.02 135.649
L102.244 326.912
L102.467 136.623
L102.69 326.232
L102.913 137.589
L103.136 325.556
L103.36 138.546
L103.583 324.884
L103.806 139.493
L104.029 324.217
L104.252 140.432
L104.476 323.553
L104.699 141.362
L104.922 322.894
L105.145 142.283
L105.368 322.238
L105.592 143.196
L105.815 321.587
L106.038 144.099
L106.261 320.939
L106.484 144.995
L106.708 320.296
L106.931 145.881
L107.154 319.657
L107.377 146.76
L107.6 319.022
L107.824 147.629
L108.047 318.391
L108.27 148.491
L108.493 317.764
L108.716 149.344
L108.94 317.141
L109.163 150.189
L109.386 316.523
L109.609 151.026
L109.832 315.908
L110.056 151.855
L110.279 315.298
L110.502 152.676
L110.725 314.692
L110.948 153.489
L111.172 314.089
L111.395 154.294
L111.618 313.491
L111.841 155.092
L112.064 312.897
L112.288 155.881
L112.511 312.307
L112.734 156.663
L112.957 311.722
L113.18 157.437
L113.404 311.14
L113.627 158.204
L113.85 310.562
L114.073 158.963
L114.296 309.988
L114.52 159.715
L114.743 309.419
L114.966 160.46
L115.189 308.853
L115.412 161.197
L115.636 308.292
L115.859 161.927
L116.082 307.735
L116.305 162.65
L116.528 307.181
L116.752 163.365
L116.975 306.632
L117.198 164.074
L117.421 306.087
L117.644 164.776
L117.868 305.545
L118.091 165.47
L118.314 305.008
L118.537 166.158
L118.76 304.475
L118.984 166.839
L119.207 303.945
L119.43 167.514
L119.653 303.42
L119.876 168.182
L120.1 302.898
L120.323 168.843
L120.546 302.381
L120.769 169.497
L120.992 301.867
L121.216 170.145
L121.439 301.357
L121.662 170.787
L121.885 300.851
L122.108 171.422
L122.332 300.349
L122.555 172.051
L122.778 299.851
L123.001 172.674
L123.224 299.357
L123.448 173.29
L123.671 298.866
L123.894 173.901
L124.117 298.379
L124.34 174.505
L124.564 297.896
L124.787 175.103
L125.01 297.417
L125.233 175.696
L125.456 296.942
L125.68 176.282
L125.903 296.47
L126.126 176.863
L126.349 296.002
L126.572 177.437
L126.796 295.538
L127.019 178.006
L127.242 295.077
L127.465 178.57
L127.688 294.62
L127.912 179.128
L128.135 294.167
L128.358 179.68
L128.581 293.718
L128.804 180.226
L129.028 293.272
L129.251 180.767
L129.474 292.829
L129.697 181.303
L129.92 292.39
L130.144 181.834
L130.367 291.955
L130.59 182.359
L130.813 291.523
L131.036 182.878
L131.26 291.095
L131.483 183.393
L131.706 290.67
L131.929 183.902
L132.152 290.249
L132.376 184.407
L132.599 289.831
L132.822 184.906
L133.045 289.417
L133.268 185.4
L133.492 289.006
L133.715 185.89
L133.938 288.598
L134.161 186.374
L134.384 288.194
L134.608 186.854
L134.831 287.793
L135.054 187.328
L135.277 287.396
L135.5 187.798
L135.724 287.001
L135.947 188.264
L136.17 286.61
L136.393 188.724
L136.616 286.223
L136.84 189.18
L137.063 285.838
L137.286 189.631
L137.509 285.457
L137.732 190.078
L137.956 285.079
L138.179 190.521
L138.402 284.705
L138.625 190.959
L138.848 284.333
L139.072 191.392
L139.295 283.965
L139.518 191.821
L139.741 283.599
L139.964 192.246
L140.188 283.237
L140.411 192.667
L140.634 282.878
L140.857 193.083
L141.08 282.522
L141.304 193.495
L141.527 282.169
L141.75 193.903
L141.973 281.819
L142.196 194.307
L142.42 281.472
L142.643 194.707
L142.866 281.128
L143.089 195.103
L143.312 280.787
L143.536 195.495
L143.759 280.449
L143.982 195.883
L144.205 280.114
L144.428 196.267
L144.652 279.781
L144.875 196.647
L145.098 279.452
L145.321 197.024
L145.544 279.125
L145.768 197.396
L145.991 278.802
L146.214 197.765
L146.437 278.481
L146.66 198.13
L146.884 278.163
L147.107 198.492
L147.33 277.847
L147.553 198.85
L147.776 277.535
L148 199.204
L148.223 277.225
L148.446 199.555
L148.669 276.918
L148.892 199.902
L149.116 276.613
L149.339 200.246
L149.562 276.312
L149.785 200.586
L150.008 276.013
L150.232 200.923
L150.455 275.716
L150.678 201.257
L150.901 275.422
L151.124 201.587
L151.348 275.131
L151.571 201.914
L151.794 274.842
L152.017 202.238
L152.24 274.556
L152.464 202.558
L152.687 274.273
L152.91 202.875
L153.133 273.992
L153.356 203.189
L153.58 273.713
L153.803 203.5
L154.026 273.437
L154.249 203.808
L154.472 273.163
L154.696 204.112
L154.919 272.892
L155.142 204.414
L155.365 272.623
L155.588 204.713
L155.812 272.357
L156.035 205.008
L156.258 272.093
L156.481 205.301
L156.704 271.831
L156.928 205.591
L157.151 271.572
L157.374 205.877
L157.597 271.315
L157.82 206.161
L158.044 271.06
L158.267 206.443
L158.49 270.808
L158.713 206.721
L158.936 270.558
L159.16 206.996
L159.383 270.31
L159.606 207.269
L159.829 270.064
L160.052 207.539
L160.276 269.821
L160.499 207.807
L160.722 269.58
L160.945 208.071
L161.168 269.341
L161.392 208.333
L161.615 269.104
L161.838 208.593
L162.061 268.869
L162.284 208.85
L162.508 268.636
L162.731 209.104
L162.954 268.406
L163.177 209.356
L163.4 268.178
L163.624 209.605
L163.847 267.951
L164.07 209.852
L164.293 267.727
L164.516 210.096
L164.74 267.505
L164.963 210.338
L165.186 267.284
L165.409 210.578
L165.632 267.066
L165.856 210.815
L166.079 266.85
L166.302 211.05
L166.525 266.636
L166.748 211.282
L166.972 266.423
L167.195 211.512
L167.418 266.213
L167.641 211.74
L167.864 266.005
L168.088 211.966
L168.311 265.798
L168.534 212.189
L168.757 265.593
L168.98 212.41
L169.204 265.391
L169.427 212.629
L169.65 265.19
L169.873 212.846
L170.096 264.991
L170.32 213.06
L170.543 264.793
L170.766 213.273
L170.989 264.598
L171.212 213.483
L171.436 264.404
L171.659 213.692
L171.882 264.212
L172.105 213.898
L172.328 264.022
L172.552 214.102
L172.775 263.834
L172.998 214.304
L173.221 263.647
L173.444 214.504
L173.668 263.463
L173.891 214.703
L174.114 263.279
L174.337 214.899
L174.56 263.098
L174.784 215.093
L175.007 262.918
L175.23 215.285
L175.453 262.74
L175.676 215.476
L175.9 262.563
L176.123 215.664
L176.346 262.388
L176.569 215.851
L176.792 262.215
L177.016 216.036
L177.239 262.043
L177.462 216.219
L177.685 261.873
L177.908 216.4
L178.132 261.705
L178.355 216.58
L178.578 261.538
L178.801 216.757
L179.024 261.373
L179.248 216.933
L179.471 261.209
L179.694 217.107
L179.917 261.046
L180.14 217.28
L180.364 260.885
L180.587 217.451
L180.81 260.726
L181.033 217.62
L181.256 260.568
L181.48 217.787
L181.703 260.412
L181.926 217.953
L182.149 260.257
L182.372 218.117
L182.596 260.103
L182.819 218.28
L183.042 259.951
L183.265 218.441
L183.488 259.801
L183.712 218.6
L183.935 259.651
L184.158 218.758
L184.381 259.504
L184.604 218.914
L184.828 259.357
L185.051 219.069
L185.274 259.212
L185.497 219.222
L185.72 259.068
L185.944 219.373
L186.167 258.926
L186.39 219.524
L186.613 258.785
L186.836 219.672
L187.06 258.645
L187.283 219.82
L187.506 258.507
L187.729 219.965
L187.952 258.369
L188.176 220.11
L188.399 258.233
L188.622 220.253
L188.845 258.099
L189.068 220.394
L189.292 257.966
L189.515 220.534
L189.738 257.833
L189.961 220.673
L190.184 257.703
L190.408 220.811
L190.631 257.573
L190.854 220.947
L191.077 257.444
L191.3 221.082
L191.524 257.317
L191.747 221.215
L191.97 257.191
L192.193 221.347
L192.416 257.066
L192.64 221.478
L192.863 256.943
L193.086 221.608
L193.309 256.82
L193.532 221.736
L193.756 256.699
L193.979 221.863
L194.202 256.579
L194.425 221.989
L194.648 256.46
L194.872 222.113
L195.095 256.342
L195.318 222.237
L195.541 256.225
L195.764 222.359
L195.988 256.109
L196.211 222.48
L196.434 255.994
L196.657 222.599
L196.88 255.881
L197.104 222.718
L197.327 255.768
L197.55 222.836
L197.773 255.657
L197.996 222.952
L198.22 255.546
L198.443 223.067
L198.666 255.437
L198.889 223.181
L199.112 255.329
L199.336 223.294
L199.559 255.221
L199.782 223.406
L200.005 255.115
L200.228 223.517
L200.452 255.01
L200.675 223.626
L200.898 254.905
L201.121 223.735
L201.344 254.802
L201.568 223.842
L201.791 254.7
L202.014 223.949
L202.237 254.598
L202.46 224.054
L202.684 254.498
L202.907 224.159
L203.13 254.398
L203.353 224.262
L203.576 254.3
L203.8 224.365
L204.023 254.202
L204.246 224.466
L204.469 254.106
L204.692 224.567
L204.916 254.01
L205.139 224.666
L205.362 253.915
L205.585 224.765
L205.808 253.821
L206.032 224.862
L206.255 253.728
L206.478 224.959
L206.701 253.636
L206.924 225.054
L207.148 253.544
L207.371 225.149
L207.594 253.454
L207.817 225.243
L208.04 253.364
L208.264 225.336
L208.487 253.276
L208.71 225.428
L208.933 253.188
L209.156 225.519
L209.38 253.101
L209.603 225.609
L209.826 253.014
L210.049 225.699
L210.272 252.929
L210.496 225.787
L210.719 252.844
L210.942 225.875
L211.165 252.761
L211.388 225.962
L211.612 252.678
L211.835 226.048
L212.058 252.595
L212.281 226.133
L212.504 252.514
L212.728 226.217
L212.951 252.433
L213.174 226.301
L213.397 252.353
L213.62 226.383
L213.844 252.274
L214.067 226.465
L214.29 252.196
L214.513 226.546
L214.736 252.118
L214.96 226.627
L215.183 252.041
L215.406 226.706
L215.629 251.965
L215.852 226.785
L216.076 251.89
L216.299 226.863
L216.522 251.815
L216.745 226.94
L216.968 251.741
L217.192 227.017
L217.415 251.668
L217.638 227.092
L217.861 251.595
L218.084 227.167
L218.308 251.523
L218.531 227.242
L218.754 251.452
L218.977 227.315
L219.2 251.381
L219.424 227.388
L219.647 251.311
L219.87 227.461
L220.093 251.242
L220.316 227.532
L220.54 251.174
L220.763 227.603
L220.986 251.106
L221.209 227.673
L221.432 251.038
L221.656 227.742
L221.879 250.972
L222.102 227.811
L222.325 250.906
L222.548 227.879
L222.772 250.84
L222.995 227.947
L223.218 250.776
L223.441 228.014
L223.664 250.712
L223.888 228.08
L224.111 250.648
L224.334 228.146
L224.557 250.585
L224.78 228.21
L225.004 250.523
L225.227 228.275
L225.45 250.461
L225.673 228.338
L225.896 250.4
L226.12 228.402
L226.343 250.34
L226.566 228.464
L226.789 250.28
L227.012 228.526
L227.236 250.22
L227.459 228.587
L227.682 250.161
L227.905 228.648
L228.128 250.103
L228.352 228.708
L228.575 250.045
L228.798 228.768
L229.021 249.988
L229.244 228.827
L229.468 249.932
L229.691 228.885
L229.914 249.876
L230.137 228.943
L230.36 249.82
L230.584 229
L230.807 249.765
L231.03 229.057
L231.253 249.711
L231.476 229.113
L231.7 249.657
L231.923 229.169
L232.146 249.603
L232.369 229.224
L232.592 249.55
L232.816 229.279
L233.039 249.498
L233.262 229.333
L233.485 249.446
L233.708 229.386
L233.932 249.395
L234.155 229.439
L234.378 249.344
L234.601 229.492
L234.824 249.293
L235.048 229.544
L235.271 249.244
L235.494 229.596
L235.717 249.194
L235.94 229.647
L236.164 249.145
L236.387 229.697
L236.61 249.097
L236.833 229.747
L237.056 249.049
L237.28 229.797
L237.503 249.001
L237.726 229.846
L237.949 248.954
L238.172 229.895
L238.396 248.907
L238.619 229.943
L238.842 248.861
L239.065 229.991
L239.288 248.815
L239.512 230.038
L239.735 248.77
L239.958 230.085
L240.181 248.725
L240.404 230.131
L240.628 248.68
L240.851 230.177
L241.074 248.636
L241.297 230.223
L241.52 248.593
L241.744 230.268
L241.967 248.55
L242.19 230.313
L242.413 248.507
L242.636 230.357
L242.86 248.464
L243.083 230.401
L243.306 248.422
L243.529 230.444
L243.752 248.381
L243.976 230.487
L244.199 248.34
L244.422 230.53
L244.645 248.299
L244.868 230.572
L245.092 248.259
L245.315 230.614
L245.538 248.219
L245.761 230.655
L245.984 248.179
L246.208 230.696
L246.431 248.14
L246.654 230.737
L246.877 248.101
L247.1 230.777
L247.324 248.062
L247.547 230.817
L247.77 248.024
L247.993 230.857
L248.216 247.987
L248.44 230.896
L248.663 247.949
L248.886 230.935
L249.109 247.912
L249.332 230.973
L249.556 247.876
L249.779 231.011
L250.002 247.839
L250.225 231.049
L250.448 247.803
L250.672 231.086
L250.895 247.768
L251.118 231.123
L251.341 247.732
L251.564 231.16
L251.788 247.698
L252.011 231.196
L252.234 247.663
L252.457 231.232
L252.68 247.629
L252.904 231.267
L253.127 247.595
L253.35 231.303
L253.573 247.561
L253.796 231.337
L254.02 247.528
L254.243 231.372
L254.466 247.495
L254.689 231.406
L254.912 247.462
L255.136 231.44
L255.359 247.43
L255.582 231.474
L255.805 247.398
L256.028 231.507
L256.252 247.366
L256.475 231.54
L256.698 247.335
L256.921 231.573
L257.144 247.304
L257.368 231.605
L257.591 247.273
L257.814 231.637
L258.037 247.243
L258.26 231.669
L258.484 247.213
L258.707 231.701
L258.93 247.183
L259.153 231.732
L259.376 247.153
L259.6 231.763
L259.823 247.124
L259.934 242.008
L260.046 231.793
L260.269 247.095
L260.381 242.038
L260.492 231.824
L260.716 247.066
L260.827 242.066
L260.939 231.854
L261.162 247.037
L261.274 242.095
L261.385 231.883
L261.608 247.009
L261.72 242.123
L261.832 231.913
L262.055 246.981
L262.166 242.151
L262.278 231.942
L262.501 246.954
L262.613 242.179
L262.724 231.971
L262.948 246.926
L263.059 242.207
L263.171 232
L263.394 246.899
L263.506 242.234
L263.617 232.028
L263.84 246.872
L263.952 242.261
L264.064 232.056
L264.287 246.846
L264.398 242.288
L264.51 232.084
L264.733 246.819
L264.845 242.314
L264.956 232.112
L265.18 246.793
L265.291 242.34
L265.403 232.139
L265.626 246.767
L265.738 242.366
L265.849 232.166
L266.072 246.742
L266.184 242.392
L266.296 232.193
L266.519 246.717
L266.63 242.417
L266.742 232.22
L266.965 246.691
L267.077 242.442
L267.188 232.246
L267.412 246.667
L267.523 242.467
L267.635 232.272
L267.858 246.642
L267.97 242.492
L268.081 232.298
L268.304 246.618
L268.416 242.516
L268.528 232.324
L268.751 246.594
L268.862 242.54
L268.974 232.349
L269.197 246.57
L269.309 242.564
L269.42 232.374
L269.644 246.546
L269.755 242.588
L269.867 232.399
L270.09 246.523
L270.202 242.611
L270.313 232.424
L270.536 246.499
L270.648 242.634
L270.76 232.448
L270.983 246.476
L271.094 242.657
L271.206 232.472
L271.429 246.454
L271.541 242.68
L271.652 232.496
L271.876 246.431
L271.987 242.702
L272.099 232.52
L272.322 246.409
L272.434 242.725
L272.545 232.544
L272.768 246.387
L272.88 242.747
L272.992 232.567
L273.215 246.365
L273.326 242.769
L273.438 232.59
L273.661 246.343
L273.773 242.79
L273.884 232.613
L274.108 246.322
L274.219 242.812
L274.331 232.636
L274.554 246.3
L274.666 242.833
L274.777 232.658
L275 246.279
L275.112 242.854
L275.224 232.681
L275.447 246.259
L275.558 242.874
L275.67 232.703
L275.893 246.238
L276.005 242.895
L276.116 232.724
L276.34 246.218
L276.451 242.915
L276.563 232.746
L276.786 246.197
L276.898 242.935
L277.009 232.768
L277.232 246.177
L277.344 242.955
L277.456 232.789
L277.679 246.157
L277.79 242.975
L277.902 232.81
L278.125 246.138
L278.237 242.995
L278.348 232.831
L278.572 246.118
L278.683 243.014
L278.795 232.852
L279.018 246.099
L279.13 243.033
L279.241 232.872
L279.464 246.08
L279.576 243.052
L279.688 232.892
L279.911 246.061
L280.022 243.071
L280.134 232.913
L280.357 246.042
L280.469 243.089
L280.58 232.932
L280.804 246.024
L280.915 243.108
L281.027 232.952
L281.25 246.006
L281.362 243.126
L281.473 232.972
L281.696 245.987
L281.808 243.144
L281.92 232.991
L282.143 245.969
L282.254 243.162
L282.366 233.01
L282.589 245.952
L282.701 243.179
L282.812 233.03
L283.036 245.934
L283.147 243.197
L283.259 233.048
L283.482 245.917
L283.594 243.214
L283.705 233.067
L283.928 245.899
L284.04 243.231
L284.152 233.086
L284.375 245.882
L284.486 243.248
L284.598 233.104
L284.821 245.865
L284.933 243.265
L285.044 233.122
L285.268 245.848
L285.379 243.282
L285.491 233.14
L285.714 245.832
L285.826 243.298
L285.937 233.158
L286.16 245.815
L286.272 243.314
L286.384 233.176
L286.607 245.799
L286.718 243.33
L286.83 233.193
L287.053 245.783
L287.165 243.346
L287.276 233.211
L287.5 245.767
L287.611 243.362
L287.723 233.228
L287.946 245.751
L288.058 243.378
L288.169 233.245
L288.392 245.735
L288.504 243.393
L288.616 233.262
L288.839 245.72
L288.95 243.408
L289.062 233.279
L289.285 245.705
L289.397 243.424
L289.508 233.295
L289.732 245.689
L289.843 243.438
L289.955 233.312
L290.178 245.674
L290.29 243.453
L290.401 233.328
L290.624 245.659
L290.736 243.468
L290.848 233.344
L291.071 245.645
L291.182 243.483
L291.294 233.36
L291.517 245.63
L291.629 243.497
L291.74 233.376
L291.964 245.615
L292.075 243.511
L292.187 233.392
L292.41 245.601
L292.522 243.525
L292.633 233.407
L292.856 245.587
L292.968 243.539
L293.08 233.423
L293.303 245.573
L293.414 243.553
L293.526 233.438
L293.749 245.559
L293.861 243.567
L293.972 233.453
L294.196 245.545
L294.307 243.58
L294.419 233.468
L294.642 245.532
L294.754 243.594
L294.865 233.483
L295.088 245.518
L295.2 243.607
L295.312 233.498
L295.535 245.505
L295.646 243.62
L295.758 233.513
L295.981 245.491
L296.093 243.633
L296.204 233.527
L296.428 245.478
L296.539 243.646
L296.651 233.541
L296.874 245.465
L296.986 243.658
L297.097 233.556
L297.32 245.453
L297.432 243.671
L297.544 233.57
L297.767 245.44
L297.878 243.683
L297.99 233.584
L298.102 237.526
L298.213 245.427
L298.325 243.696
L298.436 233.598
L298.548 237.512
L298.66 245.415
L298.771 243.708
L298.883 233.611
L298.994 237.499
L299.106 245.402
L299.218 243.72
L299.329 233.625
L299.441 237.486
L299.552 245.39
L299.664 243.732
L299.776 233.639
L299.887 237.473
L299.999 245.378
L300.11 243.744
L300.222 233.652
L300.334 237.46
L300.445 245.366
L300.557 243.756
L300.668 233.665
L300.78 237.447
L300.892 245.354
L301.003 243.767
L301.115 233.678
L301.226 237.434
L301.338 245.342
L301.45 243.779
L301.561 233.691
L301.673 237.422
L301.784 245.331
L301.896 243.79
L302.008 233.704
L302.119 237.409
L302.231 245.319
L302.342 243.801
L302.454 233.717
L302.566 237.397
L302.677 245.308
L302.789 243.812
L302.9 233.73
L303.012 237.384
L303.124 245.297
L303.235 243.823
L303.347 233.742
L303.458 237.372
L303.57 245.285
L303.682 243.834
L303.793 233.755
L303.905 237.36
L304.016 245.274
L304.128 243.845
L304.24 233.767
L304.351 237.348
L304.463 245.263
L304.574 243.856
L304.686 233.779
L304.798 237.337
L304.909 245.253
L305.021 243.866
L305.132 233.791
L305.244 237.325
L305.356 245.242
L305.467 243.877
L305.579 233.803
L305.69 237.313
L305.802 245.231
L305.914 243.887
L306.025 233.815
L306.137 237.302
L306.248 245.221
L306.36 243.897
L306.472 233.827
L306.583 237.29
L306.695 245.21
L306.806 243.907
L306.918 233.839
L307.03 237.279
L307.141 245.2
L307.253 243.917
L307.364 233.85
L307.476 237.268
L307.588 245.19
L307.699 243.927
L307.811 233.862
L307.922 237.257
L308.034 245.18
L308.146 243.937
L308.257 233.873
L308.369 237.246
L308.48 245.169
L308.592 243.947
L308.704 233.885
L308.815 237.235
L308.927 245.16
L309.038 243.956
L309.15 233.896
L309.262 237.224
L309.373 245.15
L309.485 243.966
L309.596 233.907
L309.708 237.214
L309.82 245.14
L309.931 243.975
L310.043 233.918
L310.154 237.203
L310.266 245.13
L310.378 243.984
L310.489 233.929
L310.601 237.193
L310.712 245.121
L310.824 243.994
L310.936 233.939
L311.047 237.182
L311.159 245.111
L311.27 244.003
L311.382 233.95
L311.494 237.172
L311.605 245.102
L311.717 244.012
L311.828 233.961
L311.94 237.162
L312.052 245.093
L312.163 244.021
L312.275 233.971
L312.386 237.152
L312.498 245.084
L312.61 244.029
L312.721 233.982
L312.833 237.142
L312.944 245.075
L313.056 244.038
L313.168 233.992
L313.279 237.132
L313.391 245.066
L313.502 244.047
L313.614 234.002
L313.726 237.122
L313.837 245.057
L313.949 244.055
L314.06 234.013
L314.172 237.112
L314.284 245.048
L314.395 244.064
L314.507 234.023
L314.618 237.102
L314.73 245.039
L314.842 244.072
L314.953 234.033
L315.065 237.093
L315.176 245.031
L315.288 244.08
L315.4 234.042
L315.511 237.083
L315.623 245.022
L315.734 244.089
L315.846 234.052
L315.958 237.074
L316.069 245.014
L316.181 244.097
L316.292 234.062
L316.404 237.065
L316.516 245.005
L316.627 244.105
L316.739 234.072
L316.85 237.055
L316.962 244.997
L317.074 244.113
L317.185 234.081
L317.297 237.046
L317.408 244.989
L317.52 244.12
L317.632 234.091
L317.743 237.037
L317.855 244.981
L317.966 244.128
L318.078 234.1
L318.19 237.028
L318.301 244.973
L318.413 244.136
L318.524 234.109
L318.636 237.019
L318.748 244.965
L318.859 244.143
L318.971 234.119
L319.082 237.011
L319.194 244.957
L319.306 244.151
L319.417 234.128
L319.529 237.002
L319.64 244.949
L319.752 244.158
L319.864 234.137
L319.975 236.993
L320.087 244.941
L320.198 244.166
L320.31 234.146
L320.422 236.985
L320.533 244.934
L320.645 244.173
L320.756 234.155
L320.868 236.976
L320.98 244.926
L321.091 244.18
L321.203 234.164
L321.314 236.968
L321.426 244.919
L321.538 244.187
L321.649 234.172
L321.761 236.959
L321.872 244.911
L321.984 244.194
L322.096 234.181
L322.207 236.951
L322.319 244.904
L322.43 244.201
L322.542 234.19
L322.654 236.943
L322.765 244.897
L322.877 244.208
L322.988 234.198
L323.1 236.935
L323.212 244.89
L323.323 244.215
L323.435 234.207
L323.546 236.927
L323.658 244.883
L323.77 244.222
L323.881 234.215
L323.993 236.919
L324.104 244.875
L324.216 244.229
L324.328 234.223
L324.439 236.911
L324.551 244.869
L324.662 244.235
L324.774 234.232
L324.886 236.903
L324.997 244.862
L325.109 244.242
L325.22 234.24
L325.332 236.895
L325.444 244.855
L325.555 244.248
L325.667 234.248
L325.778 236.887
L325.89 244.848
L326.002 244.255
L326.113 234.256
L326.225 236.88
L326.336 244.841
L326.448 244.261
L326.56 234.264
L326.671 236.872
L326.783 244.835
L326.894 244.267
L327.006 234.272
L327.118 236.865
L327.229 244.828
L327.341 244.273
L327.452 234.28
L327.564 236.857
L327.676 244.822
L327.787 244.279
L327.899 234.288
L328.01 236.85
L328.122 244.815
L328.234 244.285
L328.345 234.295
L328.457 236.843
L328.568 244.809
L328.68 244.291
L328.792 234.303
L328.903 236.835
L329.015 244.803
L329.126 244.297
L329.238 234.31
L329.35 236.828
L329.461 244.796
L329.573 244.303
L329.684 234.318
L329.796 236.821
L329.908 244.79
L330.019 244.309
L330.131 234.325
L330.242 236.814
L330.354 244.784
L330.466 244.315
L330.577 234.333
L330.689 236.807
L330.8 244.778
L330.912 244.32
L331.024 234.34
L331.135 236.8
L331.247 244.772
L331.358 244.326
L331.47 234.347
L331.582 236.793
L331.693 244.766
L331.805 244.331
L331.916 234.355
L332.028 236.786
L332.14 244.76
L332.251 244.337
L332.363 234.362
L332.474 236.78
L332.586 244.755
L332.698 244.342
L332.809 234.369
L332.921 236.773
L333.032 244.749
L333.144 244.348
L333.256 234.376
L333.367 236.766
L333.479 244.743
L333.59 244.353
L333.702 234.383
L333.814 236.76
L333.925 244.738
L334.037 244.358
L334.148 234.39
L334.26 236.753
L334.372 244.732
L334.483 244.363
L334.595 234.397
L334.706 236.747
L334.818 244.727
L334.93 244.369
L335.041 234.404
L335.153 236.74
L335.264 244.721
L335.376 244.374
L335.488 234.41
L335.599 236.734
L335.711 244.716
L335.822 244.379
L335.934 234.417
L336.046 236.728
L336.157 244.71
L336.269 244.384
L336.38 234.424
L336.492 236.722
L336.604 244.705
L336.715 244.388
L336.827 234.43
L336.938 236.715
L337.05 244.7
L337.162 244.393
L337.273 234.437
L337.385 236.709
L337.496 244.695
L337.608 244.398
L337.72 234.443
L337.831 236.703
L337.943 244.69
L338.054 244.403
L338.166 234.45
L338.278 236.697
L338.389 244.685
L338.501 244.407
L338.612 234.456
L338.724 236.691
L338.836 244.68
L338.947 244.412
L339.059 234.462
L339.17 236.685
L339.282 244.675
L339.394 244.417
L339.505 234.469
L339.617 236.68
L339.728 244.67
L339.84 244.421
L339.952 234.475
L340.063 236.674
L340.175 244.665
L340.286 244.426
L340.398 234.481
L340.51 236.668
L340.621 244.66
L340.733 244.43
L340.844 234.487
L340.956 236.662
L341.068 244.655
L341.179 244.434
L341.291 234.493
L341.402 236.657
L341.514 244.651
L341.626 244.439
L341.737 234.499
L341.849 236.651
L341.96 244.646
L342.072 244.443
L342.184 234.505
L342.295 236.645
L342.407 244.641
L342.518 244.447
L342.63 234.511
L342.742 236.64
L342.853 244.637
L342.965 244.451
L343.076 234.517
L343.188 236.635
L343.3 244.632
L343.411 244.456
L343.523 234.523
L343.634 236.629
L343.746 244.628
L343.858 244.46
L343.969 234.529
L344.081 236.624
L344.192 244.623
L344.304 244.464
L344.416 234.534
L344.527 236.618
L344.639 244.619
L344.75 244.468
L344.862 234.54
L344.974 236.613
L345.085 244.615
L345.197 244.472
L345.308 234.546
L345.42 236.608
L345.532 244.61
L345.643 244.475
L345.755 234.551
L345.866 236.603
L345.978 244.606
L346.09 244.479
L346.201 234.557
L346.313 236.598
L346.424 244.602
L346.536 244.483
L346.648 234.562
L346.759 236.592
L346.871 244.598
L346.982 244.487
L347.094 234.568
L347.206 236.587
L347.317 244.594
L347.429 244.491
L347.54 234.573
L347.652 236.582
L347.764 244.59
L347.875 244.494
L347.987 234.578
L348.098 236.577
L348.21 244.586
L348.322 244.498
L348.433 234.584
L348.545 236.573
L348.656 244.582
L348.768 244.501
L348.88 234.589
L348.991 236.568
L349.103 244.578
L349.214 244.505
L349.326 234.594
L349.438 236.563
L349.549 244.574
L349.661 244.508
L349.772 234.6
L349.884 236.558
L349.996 244.57
L350.107 244.512
L350.219 234.605
L350.33 236.553
L350.442 244.566
L350.554 244.515
L350.665 234.61
L350.777 236.549
L350.888 244.562
L351 244.519
L351.112 234.615
L351.223 236.544
L351.335 244.559
L351.446 244.522
L351.558 234.62
L351.67 236.539
L351.781 244.555
L351.893 244.525
L352.004 234.625
L352.116 236.535
L352.228 244.551
L352.339 244.529
L352.451 234.63
L352.562 236.53
L352.674 244.548
L352.786 244.532
L352.897 234.635
L353.009 236.526
L353.12 244.544
L353.232 244.535
L353.344 234.64
L353.455 236.521
L353.567 244.541
L353.678 244.538
L353.79 234.645
L353.902 236.517
L354.013 244.537
L354.125 244.541
L354.236 234.649
L354.348 236.512
L354.46 244.534
L354.571 244.544
L354.683 234.654
L354.794 236.508
L354.906 244.53
L355.018 244.547
L355.129 234.659
L355.241 236.503
L355.352 244.527
L355.464 244.55
L355.576 234.664
L355.687 236.499
L355.799 244.524
L355.91 244.553
L356.022 234.668
L356.134 236.495
L356.357 244.556
L356.468 234.673
L356.58 236.491
L356.803 244.559
L356.915 234.678
L357.026 236.486
L357.25 244.562
L357.361 234.682
L357.473 236.482
L357.696 244.565
L357.808 234.687
L357.919 236.478
L358.142 244.567
L358.254 234.691
L358.366 236.474
L358.589 244.57
L358.7 234.696
L358.812 236.47
L359.035 244.573
L359.147 234.7
L359.258 236.466
L359.482 244.576
L359.593 234.704
L359.705 236.462
L359.928 244.578
L360.04 234.709
L360.151 236.458
L360.374 244.581
L360.486 234.713
L360.598 236.454
L360.821 244.583
L360.932 234.717
L361.044 236.45
L361.267 244.586
L361.379 234.722
L361.49 236.446
L361.714 244.588
L361.825 234.726
L361.937 236.443
L362.16 244.591
L362.272 234.73
L362.383 236.439
L362.606 244.593
L362.718 234.734
L362.83 236.435
L363.053 244.596
L363.164 234.738
L363.276 236.431
L363.499 244.598
L363.611 234.743
L363.722 236.428
L363.946 244.6
L364.057 234.747
L364.169 236.424
L364.392 244.603
L364.504 234.751
L364.615 236.42
L364.838 244.605
L364.95 234.755
L365.062 236.417
L365.285 244.607
L365.396 234.759
L365.508 236.413
L365.731 244.61
L365.843 234.763
L365.954 236.41
L366.178 244.612
L366.289 234.767
L366.401 236.406
L366.624 244.614
L366.736 234.771
L366.847 236.403
L367.07 244.616
L367.182 234.774
L367.294 236.399
L367.517 244.618
L367.628 234.778
L367.74 236.396
L367.963 244.62
L368.075 234.782
L368.186 236.392
L368.41 244.622
L368.521 234.786
L368.633 236.389
L368.856 244.624
L368.968 234.79
L369.079 236.385
L369.302 244.626
L369.414 234.793
L369.526 236.382
L369.749 244.628
L369.86 234.797
L369.972 236.379
L370.195 244.63
L370.307 234.801
L370.418 236.376
L370.642 244.632
L370.753 234.804
L370.865 236.372
L371.088 244.634
L371.2 234.808
L371.311 236.369
L371.534 244.636
L371.646 234.812
L371.758 236.366
L371.981 244.638
L372.092 234.815
L372.204 236.363
L372.427 244.64
L372.539 234.819
L372.65 236.36
L372.874 244.641
L372.985 234.822
L373.097 236.356
L373.32 244.643
L373.432 234.826
L373.543 236.353
L373.766 244.645
L373.878 234.829
L373.99 236.35
L374.213 244.647
L374.324 234.833
L374.436 236.347
L374.659 244.648
L374.771 234.836
L374.882 236.344
L375.106 244.65
L375.217 234.84
L375.329 236.341
L375.552 244.652
L375.664 234.843
L375.775 236.338
L375.998 244.653
L376.11 234.846
L376.222 236.335
L376.445 244.655
L376.556 234.85
L376.668 236.332
L376.891 244.657
L377.003 234.853
L377.114 236.329
L377.338 244.658
L377.449 234.856
L377.561 236.326
L377.784 244.66
L377.896 234.859
L378.007 236.324
L378.23 244.661
L378.342 234.863
L378.454 236.321
L378.677 244.663
L378.788 234.866
L378.9 236.318
L379.123 244.664
L379.235 234.869
L379.346 236.315
L379.57 244.666
L379.681 234.872
L379.793 236.312
L380.016 244.667
L380.128 234.875
L380.239 236.31
L380.462 244.668
L380.574 234.879
L380.686 236.307
L380.909 244.67
L381.02 234.882
L381.132 236.304
L381.355 244.671
L381.467 234.885
L381.578 236.301
L381.802 244.672
L381.913 234.888
L382.025 236.299
L382.248 244.674
L382.36 234.891
L382.471 236.296
L382.694 244.675
L382.806 234.894
L382.918 236.294
L383.141 244.676
L383.252 234.897
L383.364 236.291
L383.587 244.678
L383.699 234.9
L383.81 236.288
L384.034 244.679
L384.145 234.903
L384.257 236.286
L384.48 244.68
L384.592 234.906
L384.703 236.283
L384.926 244.681
L385.038 234.909
L385.15 236.281
L385.373 244.682
L385.484 234.912
L385.596 236.278
L385.819 244.684
L385.931 234.915
L386.042 236.276
L386.266 244.685
L386.377 234.918
L386.489 236.273
L386.712 244.686
L386.824 234.92
L386.935 236.271
L387.158 244.687
L387.27 234.923
L387.382 236.268
L387.605 244.688
L387.716 234.926
L387.828 236.266
L388.051 244.689
L388.163 234.929
L388.274 236.263
L388.498 244.69
L388.609 234.932
L388.721 236.261
L388.944 244.691
L389.056 234.934
L389.167 236.259
L389.39 244.692
L389.502 234.937
L389.614 236.256
L389.837 244.693
L389.948 234.94
L390.06 236.254
L390.283 244.694
L390.395 234.943
L390.506 236.252
L390.73 244.695
L390.841 234.945
L390.953 236.249
L391.176 244.696
L391.288 234.948
L391.399 236.247
L391.622 244.697
L391.734 234.951
L391.846 236.245
L392.069 244.698
L392.18 234.953
L392.292 236.243
L392.515 244.699
L392.627 234.956
L392.738 236.24
L392.962 244.7
L393.073 234.959
L393.185 236.238
L393.408 244.701
L393.52 234.961
L393.631 236.236
L393.854 244.701
L393.966 234.964
L394.078 236.234
L394.301 244.702
L394.412 234.966
L394.524 236.232
L394.747 244.703
L394.859 234.969
L394.97 236.229
L395.194 244.704
L395.305 234.971
L395.417 236.227
L395.64 244.705
L395.752 234.974
L395.863 236.225
L396.086 244.705
L396.198 234.976
L396.31 236.223
L396.533 244.706
L396.644 234.979
L396.756 236.221
L396.979 244.707
L397.091 234.981
L397.202 236.219
L397.426 244.708
L397.537 234.984
L397.649 236.217
L397.872 244.708
L397.984 234.986
L398.095 236.215
L398.318 244.709
L398.43 234.989
L398.542 236.213
L398.765 244.71
L398.876 234.991
L398.988 236.211
L399.211 244.71
L399.323 234.994
L399.434 236.209
L399.658 244.711
L399.769 234.996
L399.881 236.207
L400.104 244.712
L400.216 234.998
L400.327 236.205
L400.55 244.712
L400.662 235.001
L400.774 236.203
L400.997 244.713
L401.108 235.003
L401.22 236.201
L401.443 244.713
L401.555 235.005
L401.666 236.199
L401.89 244.714
L402.001 235.008
L402.113 236.197
L402.336 244.715
L402.448 235.01
L402.559 236.195
L402.782 244.715
L402.894 235.012
L403.006 236.193
L403.229 244.716
L403.34 235.014
L403.452 236.191
L403.675 244.716
L403.787 235.017
L403.898 236.189
L404.122 244.717
L404.233 235.019
L404.345 236.187
L404.568 244.717
L404.68 235.021
L404.791 236.186
L405.014 244.718
L405.126 235.023
L405.238 236.184
L405.461 244.718
L405.572 235.026
L405.684 236.182
L405.907 244.719
L406.019 235.028
L406.13 236.18
L406.354 244.719
L406.465 235.03
L406.577 236.178
L406.8 244.72
L406.912 235.032
L407.023 236.176
L407.246 244.72
L407.358 235.034
L407.47 236.175
L407.693 244.721
L407.804 235.037
L407.916 236.173
L408.139 244.721
L408.251 235.039
L408.362 236.171
L408.586 244.721
L408.697 235.041
L408.809 236.169
L409.032 244.722
L409.144 235.043
L409.255 236.168
L409.478 244.722
L409.59 235.045
L409.702 236.166
L409.925 244.722
L410.036 235.047
L410.148 236.164
L410.371 244.723
L410.483 235.049
L410.594 236.163
L410.818 244.723
L410.929 235.051
L411.041 236.161
L411.264 244.723
L411.376 235.053
L411.487 236.159
L411.71 244.724
L411.822 235.055
L411.934 236.158
L412.157 244.724
L412.268 235.058
L412.38 236.156
L412.603 244.724
L412.715 235.06
L412.826 236.154
L413.05 244.725
L413.161 235.062
L413.273 236.153
L413.496 244.725
L413.608 235.064
L413.719 236.151
L413.942 244.725
L414.054 235.066
L414.166 236.149
L414.389 244.726
L414.5 235.068
L414.612 236.148
L414.835 244.726
L414.947 235.07
L415.058 236.146
L415.282 244.726
L415.393 235.071
L415.505 236.145
L415.728 244.726
L415.84 235.073
L415.951 236.143
L416.174 244.726
L416.286 235.075
L416.398 236.141
L416.621 244.727
L416.732 235.077
L416.844 236.14
L417.067 244.727
L417.179 235.079
L417.29 236.138
L417.514 244.727
L417.625 235.081
L417.737 236.137
L417.96 244.727
L418.072 235.083
L418.183 236.135
L418.406 244.727
L418.518 235.085
L418.63 236.134
L418.853 244.728
L418.964 235.087
L419.076 236.132
L419.299 244.728
L419.411 235.089
L419.522 236.131
L419.746 244.728
L419.857 235.091
L419.969 236.129
L420.192 244.728
L420.304 235.092
L420.415 236.128
L420.638 244.728
L420.75 235.094
L420.862 236.126
L421.085 244.728
L421.196 235.096
L421.308 236.125
L421.531 244.728
L421.643 235.098
L421.754 236.123
L421.978 244.728
L422.089 235.1
L422.201 236.122
L422.424 244.729
L422.536 235.102
L422.647 236.121
L422.87 244.729
L422.982 235.103
L423.094 236.119
L423.317 244.729
L423.428 235.105
L423.54 236.118
L423.763 244.729
L423.875 235.107
L423.986 236.116
L424.21 244.729
L424.321 235.109
L424.433 236.115
L424.656 244.729
L424.768 235.111
L424.879 236.114
L425.102 244.729
L425.214 235.112
L425.326 236.112
L425.549 244.729
L425.66 235.114
L425.772 236.111
L425.995 244.729
L426.107 235.116
L426.218 236.109
L426.442 244.729
L426.553 235.118
L426.665 236.108
L426.888 244.729
L427 235.119
L427.111 236.107
L427.334 244.729
L427.446 235.121
L427.558 236.105
L427.781 244.729
L427.892 235.123
L428.004 236.104
L428.227 244.729
L428.339 235.125
L428.45 236.103
L428.674 244.729
L428.785 235.126
L428.897 236.101
L429.12 244.729
L429.232 235.128
L429.343 236.1
L429.566 244.729
L429.678 235.13
L429.79 236.099
L430.013 244.729
L430.124 235.131
L430.236 236.097
L430.459 244.729
L430.571 235.133
L430.682 236.096
L430.906 244.729
L431.017 235.135
L431.129 236.095
L431.352 244.729
L431.464 235.136
L431.575 236.093
L431.798 244.729
L431.91 235.138
L432.022 236.092
L432.245 244.729
L432.356 235.14
L432.468 236.091
L432.691 244.728
L432.803 235.141
L432.914 236.09
L433.138 244.728
L433.249 235.143
L433.361 236.088
L433.584 244.728
L433.696 235.144
L433.807 236.087
L434.03 244.728
L434.142 235.146
L434.254 236.086
L434.477 244.728
L434.588 235.148
L434.7 236.085
L434.923 244.728
L435.035 235.149
L435.146 236.083
L435.37 244.728
L435.481 235.151
L435.593 236.082
L435.816 244.728
L435.928 235.153
L436.039 236.081
L436.262 244.728
L436.374 235.154
L436.486 236.08
L436.709 244.727
L436.82 235.156
L436.932 236.079
L437.155 244.727
L437.267 235.157
L437.378 236.077
L437.602 244.727
L437.713 235.159
L437.825 236.076
L438.048 244.727
L438.16 235.16
L438.271 236.075
L438.494 244.727
L438.606 235.162
L438.718 236.074
L438.941 244.727
L439.052 235.163
L439.164 236.073
L439.387 244.726
L439.499 235.165
L439.61 236.072
L439.834 244.726
L439.945 235.167
L440.057 236.07
L440.28 244.726
L440.392 235.168
L440.503 236.069
L440.726 244.726
L440.838 235.17
L440.95 236.068
L441.173 244.726
L441.284 235.171
L441.396 236.067
L441.619 244.726
L441.731 235.173
L441.842 236.066
L442.066 244.725
L442.177 235.174
L442.289 236.065
L442.512 244.725
L442.624 235.176
L442.735 236.064
L442.958 244.725
L443.07 235.177
L443.182 236.062
L443.405 244.725
L443.516 235.179
L443.628 236.061
L443.851 244.724
L443.963 235.18
L444.074 236.06
L444.298 244.724
L444.409 235.182
L444.521 236.059
L444.744 244.724
L444.856 235.183
L444.967 236.058
L445.19 244.724
L445.302 235.184
L445.414 236.057
L445.637 244.723
L445.748 235.186
L445.86 236.056
L446.083 244.723
L446.195 235.187
L446.306 236.055
L446.53 244.723
L446.641 235.189
L446.753 236.054
L446.976 244.723
L447.088 235.19
L447.199 236.053
L447.422 244.722
L447.534 235.192
L447.646 236.051
L447.869 244.722
L447.98 235.193
L448.092 236.05
L448.315 244.722
L448.427 235.195
L448.538 236.049
L448.762 244.722
L448.873 235.196
L448.985 236.048
L449.208 244.721
L449.32 235.197
L449.431 236.047
L449.654 244.721
L449.766 235.199
L449.878 236.046
L450.101 244.721
L450.212 235.2
L450.324 236.045
L450.547 244.72
L450.659 235.202
L450.77 236.044
L450.994 244.72
L451.105 235.203
L451.217 236.043
L451.44 244.72
L451.552 235.204
L451.663 236.042
L451.886 244.719
L451.998 235.206
L452.11 236.041
L452.333 244.719
L452.444 235.207
L452.556 236.04
L452.779 244.719
L452.891 235.209
L453.002 236.039
L453.226 244.718
L453.337 235.21
L453.449 236.038
L453.672 244.718
L453.784 235.211
L453.895 236.037
L454.118 244.718
L454.23 235.213
L454.342 236.036
L454.565 244.717
L454.676 235.214
L454.788 236.035
L455.011 244.717
L455.123 235.215
L455.234 236.034
L455.458 244.717
L455.569 235.217
L455.681 236.033
L455.904 244.716
L456.016 235.218
L456.127 236.032
L456.35 244.716
L456.462 235.219
L456.574 236.031
L456.797 244.716
L456.908 235.221
L457.02 236.03
L457.243 244.715
L457.355 235.222
L457.466 236.029
L457.69 244.715
L457.801 235.223
L457.913 236.028
L458.136 244.715
L458.248 235.225
L458.359 236.027
L458.582 244.714
L458.694 235.226
L458.806 236.026
L459.029 244.714
L459.14 235.227
L459.252 236.025
L459.475 244.713
L459.587 235.229
L459.698 236.024
L459.922 244.713
L460.033 235.23
L460.145 236.023
L460.368 244.713
L460.48 235.231
L460.591 236.022
L460.814 244.712
L460.926 235.233
L461.038 236.021
L461.261 244.712
L461.372 235.234
L461.484 236.02
L461.707 244.711
L461.819 235.235
L461.93 236.02
L462.154 244.711
L462.265 235.237
L462.377 236.019
L462.6 244.711
L462.712 235.238
L462.823 236.018
L463.046 244.71
L463.158 235.239
L463.27 236.017
L463.493 244.71
L463.604 235.24
L463.716 236.016
L463.939 244.709
L464.051 235.242
L464.162 236.015
L464.386 244.709
L464.497 235.243
L464.609 236.014
L464.832 244.708
L464.944 235.244
L465.055 236.013
L465.278 244.708
L465.39 235.245
L465.502 236.012
L465.725 244.708
L465.836 235.247
L465.948 236.011
L466.171 244.707
L466.283 235.248
L466.394 236.01
L466.618 244.707
L466.729 235.249
L466.841 236.009
L467.064 244.706
L467.176 235.25
L467.287 236.009
L467.51 244.706
L467.622 235.252
L467.734 236.008
L467.957 244.705
L468.068 235.253
L468.18 236.007
L468.403 244.705
L468.515 235.254
L468.626 236.006
L468.85 244.704
L468.961 235.255
L469.073 236.005
L469.296 244.704
L469.408 235.257
L469.519 236.004
L469.742 244.704
L469.854 235.258
L469.966 236.003
L470.189 244.703
L470.3 235.259
L470.412 236.002
L470.635 244.703
L470.747 235.26
L470.858 236.002
L471.082 244.702
L471.193 235.262
L471.305 236.001
L471.528 244.702
L471.64 235.263
L471.751 236
L471.974 244.701
L472.086 235.264
L472.198 235.999
L472.421 244.701
L472.532 235.265
L472.644 235.998
L472.867 244.7
L472.979 235.266
L473.09 235.997
L473.314 244.7
L473.425 235.268
L473.537 235.996
L473.76 244.699
L473.872 235.269
L473.983 235.996
L474.206 244.699
L474.318 235.27
L474.43 235.995
L474.653 244.698
L474.764 235.271
L474.876 235.994
L475.099 244.698
L475.211 235.272
L475.322 235.993
L475.546 244.697
L475.657 235.274
L475.769 235.992
L475.992 244.697
L476.104 235.275
L476.215 235.991
L476.438 244.696
L476.55 235.276
L476.662 235.99
L476.885 244.696
L476.996 235.277
L477.108 235.99
L477.331 244.695
L477.443 235.278
L477.554 235.989
L477.778 244.695
L477.889 235.28
L478.001 235.988
L478.224 244.694
L478.336 235.281
L478.447 235.987
L478.67 244.694
L478.782 235.282
L478.894 235.986
L479.117 244.693
L479.228 235.283
L479.34 235.985
L479.563 244.693
L479.675 235.284
L479.786 235.985
L480.01 244.692
L480.121 235.285
L480.233 235.984
L480.456 244.692
L480.568 235.287
L480.679 235.983
L480.902 244.691
L481.014 235.288
L481.126 235.982
L481.349 244.691
L481.46 235.289
L481.572 235.981
L481.795 244.69
L481.907 235.29
L482.018 235.981
L482.242 244.69
L482.353 235.291
L482.465 235.98
L482.688 244.689
L482.8 235.292
L482.911 235.979
L483.134 244.688
L483.246 235.293
L483.358 235.978
L483.581 244.688
L483.692 235.295
L483.804 235.977
L484.027 244.687
L484.139 235.296
L484.25 235.977
L484.474 244.687
L484.585 235.297
L484.697 235.976
L484.92 244.686
L485.032 235.298
L485.143 235.975
L485.366 244.686
L485.478 235.299
L485.59 235.974
L485.813 244.685
L485.924 235.3
L486.036 235.973
L486.259 244.685
L486.371 235.301
L486.482 235.973
L486.706 244.684
L486.817 235.303
L486.929 235.972
L487.152 244.684
L487.264 235.304
L487.375 235.971
L487.598 244.683
L487.71 235.305
L487.822 235.97
L488.045 244.682
L488.156 235.306
L488.268 235.97
L488.491 244.682
L488.603 235.307
L488.714 235.969
L488.938 244.681
L489.049 235.308
L489.161 235.968
L489.384 244.681
L489.496 235.309
L489.607 235.967
L489.83 244.68
L489.942 235.31
L490.054 235.966
L490.277 244.68
L490.388 235.311
L490.5 235.966
L490.723 244.679
L490.835 235.313
L490.946 235.965
L491.17 244.678
L491.281 235.314
L491.393 235.964
L491.616 244.678
L491.728 235.315
L491.839 235.963
L492.062 244.677
L492.174 235.316
L492.286 235.963
L492.509 244.677
L492.62 235.317
L492.732 235.962
L492.955 244.676
L493.067 235.318
L493.178 235.961
L493.402 244.676
L493.513 235.319
L493.625 235.96
L493.848 244.675
L493.96 235.32
L494.071 235.96
L494.294 244.674
L494.406 235.321
L494.518 235.959
L494.741 244.674
L494.852 235.322
L494.964 235.958
L495.187 244.673
L495.299 235.323
L495.41 235.957
L495.634 244.673
L495.745 235.325
L495.857 235.957
L496.08 244.672
L496.192 235.326
L496.303 235.956
L496.526 244.671
L496.638 235.327
L496.75 235.955
L496.973 244.671
L497.084 235.328
L497.196 235.954
L497.419 244.67
L497.531 235.329
L497.642 235.954
L497.866 244.67
L497.977 235.33
L498.089 235.953
L498.312 244.669
L498.424 235.331
L498.535 235.952
L498.758 244.668
L498.87 235.332
L498.982 235.952
L499.205 244.668
L499.316 235.333
L499.428 235.951
L499.651 244.667
L499.763 235.334
L499.874 235.95
L500.098 244.667
L500.209 235.335
L500.321 235.949
L500.544 244.666
L500.656 235.336
L500.767 235.949
L500.99 244.665
L501.102 235.337
L501.214 235.948
L501.437 244.665
L501.548 235.338
L501.66 235.947
L501.883 244.664
L501.995 235.339
L502.106 235.946
L502.33 244.664
L502.441 235.341
L502.553 235.946
L502.776 244.663
L502.888 235.342
L502.999 235.945
L503.222 244.662
L503.334 235.343
L503.446 235.944
L503.669 244.662
L503.78 235.344
L503.892 235.944
L504.115 244.661
L504.227 235.345
L504.338 235.943
L504.562 244.661
L504.673 235.346
L504.785 235.942
L505.008 244.66
L505.12 235.347
L505.231 235.941
L505.454 244.659
L505.566 235.348
L505.678 235.941
L505.901 244.659
L506.012 235.349
L506.124 235.94
L506.347 244.658
L506.459 235.35
L506.57 235.939
L506.794 244.657
L506.905 235.351
L507.017 235.939
L507.24 244.657
L507.352 235.352
L507.463 235.938
L507.686 244.656
L507.798 235.353
L507.91 235.937
L508.133 244.656
L508.244 235.354
L508.356 235.936
L508.579 244.655
L508.691 235.355
L508.802 235.936
L509.026 244.654
L509.137 235.356
L509.249 235.935
L509.472 244.654
L509.584 235.357
L509.695 235.934
L509.918 244.653
L510.03 235.358
L510.142 235.934
L510.365 244.652
L510.476 235.359
L510.588 235.933
L510.811 244.652
L510.923 235.36
L511.034 235.932
L511.258 244.651
L511.369 235.361
L511.481 235.932
L511.704 244.65
L511.816 235.362
L511.927 235.931
L512.15 244.65
L512.262 235.363
L512.374 235.93
L512.597 244.649
L512.708 235.364
L512.82 235.93
L513.043 244.649
L513.155 235.365
L513.266 235.929
L513.49 244.648
L513.601 235.366
L513.713 235.928
L513.936 244.647
L514.048 235.367
L514.159 235.927
L514.382 244.647
L514.494 235.368
L514.606 235.927
L514.829 244.646
L514.94 235.369
L515.052 235.926
L515.275 244.645
L515.387 235.37
L515.498 235.925
L515.722 244.645
L515.833 235.371
L515.945 235.925
L516.168 244.644
L516.28 235.372
L516.391 235.924
L516.614 244.643
L516.726 235.373
L516.838 235.923
L517.061 244.643
L517.172 235.374
L517.284 235.923
L517.507 244.642
L517.619 235.375
L517.73 235.922
L517.954 244.641
L518.065 235.376
L518.177 235.921
L518.4 244.641
L518.4 244.641" style="fill:none;stroke:#0000ff;stroke-linecap:square;"/>
   </g>
   <g id="matplotlib.axis_1">
    <g id="xtick_1">
     <g id="line2d_2">
      <defs>
       <path d="
M0 0
L0 -4" id="mc7db9fdffb" style="stroke:#000000;stroke-width:0.5;"/>
      </defs>
      <g>
       <use style="stroke:#000000;stroke-width:0.5;" x="72.0" xlink:href="#mc7db9fdffb" y="388.8"/>
      </g>
     </g>
     <g id="line2d_3">
      <defs>
       <path d="
M0 0
L0 4" id="m5a7d422ac3" style="stroke:#000000;stroke-width:0.5;"/>
      </defs>
      <g>
       <use style="stroke:#000000;stroke-width:0.5;" x="72.0" xlink:href="#m5a7d422ac3" y="43.2"/>
      </g>
     </g>
     <g id="text_1">
      <!-- 0 -->
      <defs>
       <path d="
M31.7812 66.4062
Q24.1719 66.4062 20.3281 58.9062
Q16.5 51.4219 16.5 36.375
Q16.5 21.3906 20.3281 13.8906
Q24.1719 6.39062 31.7812 6.39062
Q39.4531 6.39062 43.2812 13.8906
Q47.125 21.3906 47.125 36.375
Q47.125 51.4219 43.2812 58.9062
Q39.4531 66.4062 31.7812 66.4062
M31.7812 74.2188
Q44.0469 74.2188 50.5156 64.5156
Q56.9844 54.8281 56.9844 36.375
Q56.9844 17.9688 50.5156 8.26562
Q44.0469 -1.42188 31.7812 -1.42188
Q19.5312 -1.42188 13.0625 8.26562
Q6.59375 17.9688 6.59375 36.375
Q6.59375 54.8281 13.0625 64.5156
Q19.5312 74.2188 31.7812 74.2188" id="DejaVuSans-30"/>
      </defs>
      <g transform="translate(68.9765625 401.918125)scale(0.12 -0.12)">
       <use xlink:href="#DejaVuSans-30"/>
      </g>
     </g>
    </g>
    <g id="xtick_2">
     <g id="line2d_4">
      <g>
       <use style="stroke:#000000;stroke-width:0.5;" x="127.8" xlink:href="#mc7db9fdffb" y="388.8"/>
      </g>
     </g>
     <g id="line2d_5">
      <g>
       <use style="stroke:#000000;stroke-width:0.5;" x="127.8" xlink:href="#m5a7d422ac3" y="43.2"/>
      </g>
     </g>
     <g id="text_2">
      <!-- 500 -->
      <defs>
       <path d="
M10.7969 72.9062
L49.5156 72.9062
L49.5156 64.5938
L19.8281 64.5938
L19.8281 46.7344
Q21.9688 47.4688 24.1094 47.8281
Q26.2656 48.1875 28.4219 48.1875
Q40.625 48.1875 47.75 41.5
Q54.8906 34.8125 54.8906 23.3906
Q54.8906 11.625 47.5625 5.09375
Q40.2344 -1.42188 26.9062 -1.42188
Q22.3125 -1.42188 17.5469 -0.640625
Q12.7969 0.140625 7.71875 1.70312
L7.71875 11.625
Q12.1094 9.23438 16.7969 8.0625
Q21.4844 6.89062 26.7031 6.89062
Q35.1562 6.89062 40.0781 11.3281
Q45.0156 15.7656 45.0156 23.3906
Q45.0156 31 40.0781 35.4375
Q35.1562 39.8906 26.7031 39.8906
Q22.75 39.8906 18.8125 39.0156
Q14.8906 38.1406 10.7969 36.2812
z
" id="DejaVuSans-35"/>
      </defs>
      <g transform="translate(117.2090625 401.918125)scale(0.12 -0.12)">
       <use xlink:href="#DejaVuSans-35"/>
       <use x="63.623046875" xlink:href="#DejaVuSans-30"/>
       <use x="127.24609375" xlink:href="#DejaVuSans-30"/>
      </g>
     </g>
    </g>
    <g id="xtick_3">
     <g id="line2d_6">
      <g>
       <use style="stroke:#000000;stroke-width:0.5;" x="183.6" xlink:href="#mc7db9fdffb" y="388.8"/>
      </g>
     </g>
     <g id="line2d_7">
      <g>
       <use style="stroke:#000000;stroke-width:0.5;" x="183.6" xlink:href="#m5a7d422ac3" y="43.2"/>
      </g>
     </g>
     <g id="text_3">
      <!-- 1000 -->
      <defs>
       <path d="
M12.4062 8.29688
L28.5156 8.29688
L28.5156 63.9219
L10.9844 60.4062
L10.9844 69.3906
L28.4219 72.9062
L38.2812 72.9062
L38.2812 8.29688
L54.3906 8.29688
L54.3906 0
L12.4062 0
z
" id="DejaVuSans-31"/>
      </defs>
      <g transform="translate(169.3875 401.918125)scale(0.12 -0.12)">
       <use xlink:href="#DejaVuSans-31"/>
       <use x="63.623046875" xlink:href="#DejaVuSans-30"/>
       <use x="127.24609375" xlink:href="#DejaVuSans-30"/>
       <use x="190.869140625" xlink:href="#DejaVuSans-30"/>
      </g>
     </g>
    </g>
    <g id="xtick_4">
     <g id="line2d_8">
      <g>
       <use style="stroke:#000000;stroke-width:0.5;" x="239.4" xlink:href="#mc7db9fdffb" y="388.8"/>
      </g>
     </g>
     <g id="line2d_9">
      <g>
       <use style="stroke:#000000;stroke-width:0.5;" x="239.4" xlink:href="#m5a7d422ac3" y="43.2"/>
      </g>
     </g>
     <g id="text_4">
      <!-- 1500 -->
      <g transform="translate(225.1875 401.918125)scale(0.12 -0.12)">
       <use xlink:href="#DejaVuSans-31"/>
       <use x="63.623046875" xlink:href="#DejaVuSans-35"/>
       <use x="127.24609375" xlink:href="#DejaVuSans-30"/>
       <use x="190.869140625" xlink:href="#DejaVuSans-30"/>
      </g>
     </g>
    </g>
    <g id="xtick_5">
     <g id="line2d_10">
      <g>
       <use style="stroke:#000000;stroke-width:0.5;" x="295.2" xlink:href="#mc7db9fdffb" y="388.8"/>
      </g>
     </g>
     <g id="line2d_11">
      <g>
       <use style="stroke:#000000;stroke-width:0.5;" x="295.2" xlink:href="#m5a7d422ac3" y="43.2"/>
      </g>
     </g>
     <g id="text_5">
      <!-- 2000 -->
      <defs>
       <path d="
M19.1875 8.29688
L53.6094 8.29688
L53.6094 0
L7.32812 0
L7.32812 8.29688
Q12.9375 14.1094 22.625 23.8906
Q32.3281 33.6875 34.8125 36.5312
Q39.5469 41.8438 41.4219 45.5312
Q43.3125 49.2188 43.3125 52.7812
Q43.3125 58.5938 39.2344 62.25
Q35.1562 65.9219 28.6094 65.9219
Q23.9688 65.9219 18.8125 64.3125
Q13.6719 62.7031 7.8125 59.4219
L7.8125 69.3906
Q13.7656 71.7812 18.9375 73
Q24.125 74.2188 28.4219 74.2188
Q39.75 74.2188 46.4844 68.5469
Q53.2188 62.8906 53.2188 53.4219
Q53.2188 48.9219 51.5312 44.8906
Q49.8594 40.875 45.4062 35.4062
Q44.1875 33.9844 37.6406 27.2188
Q31.1094 20.4531 19.1875 8.29688" id="DejaVuSans-32"/>
      </defs>
      <g transform="translate(280.768125 401.918125)scale(0.12 -0.12)">
       <use xlink:href="#DejaVuSans-32"/>
       <use x="63.623046875" xlink:href="#DejaVuSans-30"/>
       <use x="127.24609375" xlink:href="#DejaVuSans-30"/>
       <use x="190.869140625" xlink:href="#DejaVuSans-30"/>
      </g>
     </g>
    </g>
    <g id="xtick_6">
     <g id="line2d_12">
      <g>
       <use style="stroke:#000000;stroke-width:0.5;" x="351.0" xlink:href="#mc7db9fdffb" y="388.8"/>
      </g>
     </g>
     <g id="line2d_13">
      <g>
       <use style="stroke:#000000;stroke-width:0.5;" x="351.0" xlink:href="#m5a7d422ac3" y="43.2"/>
      </g>
     </g>
     <g id="text_6">
      <!-- 2500 -->
      <g transform="translate(336.568125 401.918125)scale(0.12 -0.12)">
       <use xlink:href="#DejaVuSans-32"/>
       <use x="63.623046875" xlink:href="#DejaVuSans-35"/>
       <use x="127.24609375" xlink:href="#DejaVuSans-30"/>
       <use x="190.869140625" xlink:href="#DejaVuSans-30"/>
      </g>
     </g>
    </g>
    <g id="xtick_7">
     <g id="line2d_14">
      <g>
       <use style="stroke:#000000;stroke-width:0.5;" x="406.8" xlink:href="#mc7db9fdffb" y="388.8"/>
      </g>
     </g>
     <g id="line2d_15">
      <g>
       <use style="stroke:#000000;stroke-width:0.5;" x="406.8" xlink:href="#m5a7d422ac3" y="43.2"/>
      </g>
     </g>
     <g id="text_7">
      <!-- 3000 -->
      <defs>
       <path d="
M40.5781 39.3125
Q47.6562 37.7969 51.625 33
Q55.6094 28.2188 55.6094 21.1875
Q55.6094 10.4062 48.1875 4.48438
Q40.7656 -1.42188 27.0938 -1.42188
Q22.5156 -1.42188 17.6562 -0.515625
Q12.7969 0.390625 7.625 2.20312
L7.625 11.7188
Q11.7188 9.32812 16.5938 8.10938
Q21.4844 6.89062 26.8125 6.89062
Q36.0781 6.89062 40.9375 10.5469
Q45.7969 14.2031 45.7969 21.1875
Q45.7969 27.6406 41.2812 31.2656
Q36.7656 34.9062 28.7188 34.9062
L20.2188 34.9062
L20.2188 43.0156
L29.1094 43.0156
Q36.375 43.0156 40.2344 45.9219
Q44.0938 48.8281 44.0938 54.2969
Q44.0938 59.9062 40.1094 62.9062
Q36.1406 65.9219 28.7188 65.9219
Q24.6562 65.9219 20.0156 65.0312
Q15.375 64.1562 9.8125 62.3125
L9.8125 71.0938
Q15.4375 72.6562 20.3438 73.4375
Q25.25 74.2188 29.5938 74.2188
Q40.8281 74.2188 47.3594 69.1094
Q53.9062 64.0156 53.9062 55.3281
Q53.9062 49.2656 50.4375 45.0938
Q46.9688 40.9219 40.5781 39.3125" id="DejaVuSans-33"/>
      </defs>
      <g transform="translate(392.3859375 401.918125)scale(0.12 -0.12)">
       <use xlink:href="#DejaVuSans-33"/>
       <use x="63.623046875" xlink:href="#DejaVuSans-30"/>
       <use x="127.24609375" xlink:href="#DejaVuSans-30"/>
       <use x="190.869140625" xlink:href="#DejaVuSans-30"/>
      </g>
     </g>
    </g>
    <g id="xtick_8">
     <g id="line2d_16">
      <g>
       <use style="stroke:#000000;stroke-width:0.5;" x="462.6" xlink:href="#mc7db9fdffb" y="388.8"/>
      </g>
     </g>
     <g id="line2d_17">
      <g>
       <use style="stroke:#000000;stroke-width:0.5;" x="462.6" xlink:href="#m5a7d422ac3" y="43.2"/>
      </g>
     </g>
     <g id="text_8">
      <!-- 3500 -->
      <g transform="translate(448.1859375 401.918125)scale(0.12 -0.12)">
       <use xlink:href="#DejaVuSans-33"/>
       <use x="63.623046875" xlink:href="#DejaVuSans-35"/>
       <use x="127.24609375" xlink:href="#DejaVuSans-30"/>
       <use x="190.869140625" xlink:href="#DejaVuSans-30"/>
      </g>
     </g>
    </g>
    <g id="xtick_9">
     <g id="line2d_18">
      <g>
       <use style="stroke:#000000;stroke-width:0.5;" x="518.4" xlink:href="#mc7db9fdffb" y="388.8"/>
      </g>
     </g>
     <g id="line2d_19">
      <g>
       <use style="stroke:#000000;stroke-width:0.5;" x="518.4" xlink:href="#m5a7d422ac3" y="43.2"/>
      </g>
     </g>
     <g id="text_9">
      <!-- 4000 -->
      <defs>
       <path d="
M37.7969 64.3125
L12.8906 25.3906
L37.7969 25.3906
z

M35.2031 72.9062
L47.6094 72.9062
L47.6094 25.3906
L58.0156 25.3906
L58.0156 17.1875
L47.6094 17.1875
L47.6094 0
L37.7969 0
L37.7969 17.1875
L4.89062 17.1875
L4.89062 26.7031
z
" id="DejaVuSans-34"/>
      </defs>
      <g transform="translate(503.821875 401.918125)scale(0.12 -0.12)">
       <use xlink:href="#DejaVuSans-34"/>
       <use x="63.623046875" xlink:href="#DejaVuSans-30"/>
       <use x="127.24609375" xlink:href="#DejaVuSans-30"/>
       <use x="190.869140625" xlink:href="#DejaVuSans-30"/>
      </g>
     </g>
    </g>
    <g id="text_10">
     <!-- Runs -->
     <defs>
      <path d="
M8.5 21.5781
L8.5 54.6875
L17.4844 54.6875
L17.4844 21.9219
Q17.4844 14.1562 20.5 10.2656
Q23.5312 6.39062 29.5938 6.39062
Q36.8594 6.39062 41.0781 11.0312
Q45.3125 15.6719 45.3125 23.6875
L45.3125 54.6875
L54.2969 54.6875
L54.2969 0
L45.3125 0
L45.3125 8.40625
Q42.0469 3.42188 37.7188 1
Q33.4062 -1.42188 27.6875 -1.42188
Q18.2656 -1.42188 13.375 4.4375
Q8.5 10.2969 8.5 21.5781
M31.1094 56
z
" id="DejaVuSans-75"/>
      <path d="
M44.2812 53.0781
L44.2812 44.5781
Q40.4844 46.5312 36.375 47.5
Q32.2812 48.4844 27.875 48.4844
Q21.1875 48.4844 17.8438 46.4375
Q14.5 44.3906 14.5 40.2812
Q14.5 37.1562 16.8906 35.375
Q19.2812 33.5938 26.5156 31.9844
L29.5938 31.2969
Q39.1562 29.25 43.1875 25.5156
Q47.2188 21.7812 47.2188 15.0938
Q47.2188 7.46875 41.1875 3.01562
Q35.1562 -1.42188 24.6094 -1.42188
Q20.2188 -1.42188 15.4531 -0.5625
Q10.6875 0.296875 5.42188 2
L5.42188 11.2812
Q10.4062 8.6875 15.2344 7.39062
Q20.0625 6.10938 24.8125 6.10938
Q31.1562 6.10938 34.5625 8.28125
Q37.9844 10.4531 37.9844 14.4062
Q37.9844 18.0625 35.5156 20.0156
Q33.0625 21.9688 24.7031 23.7812
L21.5781 24.5156
Q13.2344 26.2656 9.51562 29.9062
Q5.8125 33.5469 5.8125 39.8906
Q5.8125 47.6094 11.2812 51.7969
Q16.75 56 26.8125 56
Q31.7812 56 36.1719 55.2656
Q40.5781 54.5469 44.2812 53.0781" id="DejaVuSans-73"/>
      <path d="
M54.8906 33.0156
L54.8906 0
L45.9062 0
L45.9062 32.7188
Q45.9062 40.4844 42.875 44.3281
Q39.8438 48.1875 33.7969 48.1875
Q26.5156 48.1875 22.3125 43.5469
Q18.1094 38.9219 18.1094 30.9062
L18.1094 0
L9.07812 0
L9.07812 54.6875
L18.1094 54.6875
L18.1094 46.1875
Q21.3438 51.125 25.7031 53.5625
Q30.0781 56 35.7969 56
Q45.2188 56 50.0469 50.1719
Q54.8906 44.3438 54.8906 33.0156" id="DejaVuSans-6e"/>
      <path d="
M44.3906 34.1875
Q47.5625 33.1094 50.5625 29.5938
Q53.5625 26.0781 56.5938 19.9219
L66.6094 0
L56 0
L46.6875 18.7031
Q43.0625 26.0312 39.6719 28.4219
Q36.2812 30.8125 30.4219 30.8125
L19.6719 30.8125
L19.6719 0
L9.8125 0
L9.8125 72.9062
L32.0781 72.9062
Q44.5781 72.9062 50.7344 67.6719
Q56.8906 62.4531 56.8906 51.9062
Q56.8906 45.0156 53.6875 40.4688
Q50.4844 35.9375 44.3906 34.1875
M19.6719 64.7969
L19.6719 38.9219
L32.0781 38.9219
Q39.2031 38.9219 42.8438 42.2188
Q46.4844 45.5156 46.4844 51.9062
Q46.4844 58.2969 42.8438 61.5469
Q39.2031 64.7969 32.0781 64.7969
z
" id="DejaVuSans-52"/>
     </defs>
     <g transform="translate(281.4515625 418.531875)scale(0.12 -0.12)">
      <use xlink:href="#DejaVuSans-52"/>
      <use x="64.982421875" xlink:href="#DejaVuSans-75"/>
      <use x="128.361328125" xlink:href="#DejaVuSans-6e"/>
      <use x="191.740234375" xlink:href="#DejaVuSans-73"/>
     </g>
    </g>
   </g>
   <g id="matplotlib.axis_2">
    <g id="ytick_1">
     <g id="line2d_20">
      <defs>
       <path d="
M0 0
L4 0" id="md7965d1ba0" style="stroke:#000000;stroke-width:0.5;"/>
      </defs>
      <g>
       <use style="stroke:#000000;stroke-width:0.5;" x="72.0" xlink:href="#md7965d1ba0" y="388.8"/>
      </g>
     </g>
     <g id="line2d_21">
      <defs>
       <path d="
M0 0
L-4 0" id="md9a1c1a7cd" style="stroke:#000000;stroke-width:0.5;"/>
      </defs>
      <g>
       <use style="stroke:#000000;stroke-width:0.5;" x="518.4" xlink:href="#md9a1c1a7cd" y="388.8"/>
      </g>
     </g>
     <g id="text_11">
      <!-- 0.10 -->
      <defs>
       <path d="
M10.6875 12.4062
L21 12.4062
L21 0
L10.6875 0
z
" id="DejaVuSans-2e"/>
      </defs>
      <g transform="translate(42.869375 392.11125)scale(0.12 -0.12)">
       <use xlink:href="#DejaVuSans-30"/>
       <use x="63.623046875" xlink:href="#DejaVuSans-2e"/>
       <use x="95.41015625" xlink:href="#DejaVuSans-31"/>
       <use x="159.033203125" xlink:href="#DejaVuSans-30"/>
      </g>
     </g>
    </g>
    <g id="ytick_2">
     <g id="line2d_22">
      <g>
       <use style="stroke:#000000;stroke-width:0.5;" x="72.0" xlink:href="#md7965d1ba0" y="339.428571429"/>
      </g>
     </g>
     <g id="line2d_23">
      <g>
       <use style="stroke:#000000;stroke-width:0.5;" x="518.4" xlink:href="#md9a1c1a7cd" y="339.428571429"/>
      </g>
     </g>
     <g id="text_12">
      <!-- 0.15 -->
      <g transform="translate(43.120625 342.739821429)scale(0.12 -0.12)">
       <use xlink:href="#DejaVuSans-30"/>
       <use x="63.623046875" xlink:href="#DejaVuSans-2e"/>
       <use x="95.41015625" xlink:href="#DejaVuSans-31"/>
       <use x="159.033203125" xlink:href="#DejaVuSans-35"/>
      </g>
     </g>
    </g>
    <g id="ytick_3">
     <g id="line2d_24">
      <g>
       <use style="stroke:#000000;stroke-width:0.5;" x="72.0" xlink:href="#md7965d1ba0" y="290.057142857"/>
      </g>
     </g>
     <g id="line2d_25">
      <g>
       <use style="stroke:#000000;stroke-width:0.5;" x="518.4" xlink:href="#md9a1c1a7cd" y="290.057142857"/>
      </g>
     </g>
     <g id="text_13">
      <!-- 0.20 -->
      <g transform="translate(42.869375 293.368392857)scale(0.12 -0.12)">
       <use xlink:href="#DejaVuSans-30"/>
       <use x="63.623046875" xlink:href="#DejaVuSans-2e"/>
       <use x="95.41015625" xlink:href="#DejaVuSans-32"/>
       <use x="159.033203125" xlink:href="#DejaVuSans-30"/>
      </g>
     </g>
    </g>
    <g id="ytick_4">
     <g id="line2d_26">
      <g>
       <use style="stroke:#000000;stroke-width:0.5;" x="72.0" xlink:href="#md7965d1ba0" y="240.685714286"/>
      </g>
     </g>
     <g id="line2d_27">
      <g>
       <use style="stroke:#000000;stroke-width:0.5;" x="518.4" xlink:href="#md9a1c1a7cd" y="240.685714286"/>
      </g>
     </g>
     <g id="text_14">
      <!-- 0.25 -->
      <g transform="translate(43.120625 243.996964286)scale(0.12 -0.12)">
       <use xlink:href="#DejaVuSans-30"/>
       <use x="63.623046875" xlink:href="#DejaVuSans-2e"/>
       <use x="95.41015625" xlink:href="#DejaVuSans-32"/>
       <use x="159.033203125" xlink:href="#DejaVuSans-35"/>
      </g>
     </g>
    </g>
    <g id="ytick_5">
     <g id="line2d_28">
      <g>
       <use style="stroke:#000000;stroke-width:0.5;" x="72.0" xlink:href="#md7965d1ba0" y="191.314285714"/>
      </g>
     </g>
     <g id="line2d_29">
      <g>
       <use style="stroke:#000000;stroke-width:0.5;" x="518.4" xlink:href="#md9a1c1a7cd" y="191.314285714"/>
      </g>
     </g>
     <g id="text_15">
      <!-- 0.30 -->
      <g transform="translate(42.869375 194.625535714)scale(0.12 -0.12)">
       <use xlink:href="#DejaVuSans-30"/>
       <use x="63.623046875" xlink:href="#DejaVuSans-2e"/>
       <use x="95.41015625" xlink:href="#DejaVuSans-33"/>
       <use x="159.033203125" xlink:href="#DejaVuSans-30"/>
      </g>
     </g>
    </g>
    <g id="ytick_6">
     <g id="line2d_30">
      <g>
       <use style="stroke:#000000;stroke-width:0.5;" x="72.0" xlink:href="#md7965d1ba0" y="141.942857143"/>
      </g>
     </g>
     <g id="line2d_31">
      <g>
       <use style="stroke:#000000;stroke-width:0.5;" x="518.4" xlink:href="#md9a1c1a7cd" y="141.942857143"/>
      </g>
     </g>
     <g id="text_16">
      <!-- 0.35 -->
      <g transform="translate(43.120625 145.254107143)scale(0.12 -0.12)">
       <use xlink:href="#DejaVuSans-30"/>
       <use x="63.623046875" xlink:href="#DejaVuSans-2e"/>
       <use x="95.41015625" xlink:href="#DejaVuSans-33"/>
       <use x="159.033203125" xlink:href="#DejaVuSans-35"/>
      </g>
     </g>
    </g>
    <g id="ytick_7">
     <g id="line2d_32">
      <g>
       <use style="stroke:#000000;stroke-width:0.5;" x="72.0" xlink:href="#md7965d1ba0" y="92.5714285714"/>
      </g>
     </g>
     <g id="line2d_33">
      <g>
       <use style="stroke:#000000;stroke-width:0.5;" x="518.4" xlink:href="#md9a1c1a7cd" y="92.5714285714"/>
      </g>
     </g>
     <g id="text_17">
      <!-- 0.40 -->
      <g transform="translate(42.869375 95.8826785714)scale(0.12 -0.12)">
       <use xlink:href="#DejaVuSans-30"/>
       <use x="63.623046875" xlink:href="#DejaVuSans-2e"/>
       <use x="95.41015625" xlink:href="#DejaVuSans-34"/>
       <use x="159.033203125" xlink:href="#DejaVuSans-30"/>
      </g>
     </g>
    </g>
    <g id="ytick_8">
     <g id="line2d_34">
      <g>
       <use style="stroke:#000000;stroke-width:0.5;" x="72.0" xlink:href="#md7965d1ba0" y="43.2"/>
      </g>
     </g>
     <g id="line2d_35">
      <g>
       <use style="stroke:#000000;stroke-width:0.5;" x="518.4" xlink:href="#md9a1c1a7cd" y="43.2"/>
      </g>
     </g>
     <g id="text_18">
      <!-- 0.45 -->
      <g transform="translate(43.120625 46.51125)scale(0.12 -0.12)">
       <use xlink:href="#DejaVuSans-30"/>
       <use x="63.623046875" xlink:href="#DejaVuSans-2e"/>
       <use x="95.41015625" xlink:href="#DejaVuSans-34"/>
       <use x="159.033203125" xlink:href="#DejaVuSans-35"/>
      </g>
     </g>
    </g>
    <g id="text_19">
     <!-- Cost -->
     <defs>
      <path d="
M18.3125 70.2188
L18.3125 54.6875
L36.8125 54.6875
L36.8125 47.7031
L18.3125 47.7031
L18.3125 18.0156
Q18.3125 11.3281 20.1406 9.42188
Q21.9688 7.51562 27.5938 7.51562
L36.8125 7.51562
L36.8125 0
L27.5938 0
Q17.1875 0 13.2344 3.875
Q9.28125 7.76562 9.28125 18.0156
L9.28125 47.7031
L2.6875 47.7031
L2.6875 54.6875
L9.28125 54.6875
L9.28125 70.2188
z
" id="DejaVuSans-74"/>
      <path d="
M64.4062 67.2812
L64.4062 56.8906
Q59.4219 61.5312 53.7812 63.8125
Q48.1406 66.1094 41.7969 66.1094
Q29.2969 66.1094 22.6562 58.4688
Q16.0156 50.8281 16.0156 36.375
Q16.0156 21.9688 22.6562 14.3281
Q29.2969 6.6875 41.7969 6.6875
Q48.1406 6.6875 53.7812 8.98438
Q59.4219 11.2812 64.4062 15.9219
L64.4062 5.60938
Q59.2344 2.09375 53.4375 0.328125
Q47.6562 -1.42188 41.2188 -1.42188
Q24.6562 -1.42188 15.125 8.70312
Q5.60938 18.8438 5.60938 36.375
Q5.60938 53.9531 15.125 64.0781
Q24.6562 74.2188 41.2188 74.2188
Q47.75 74.2188 53.5312 72.4844
Q59.3281 70.75 64.4062 67.2812" id="DejaVuSans-43"/>
      <path d="
M30.6094 48.3906
Q23.3906 48.3906 19.1875 42.75
Q14.9844 37.1094 14.9844 27.2969
Q14.9844 17.4844 19.1562 11.8438
Q23.3438 6.20312 30.6094 6.20312
Q37.7969 6.20312 41.9844 11.8594
Q46.1875 17.5312 46.1875 27.2969
Q46.1875 37.0156 41.9844 42.7031
Q37.7969 48.3906 30.6094 48.3906
M30.6094 56
Q42.3281 56 49.0156 48.375
Q55.7188 40.7656 55.7188 27.2969
Q55.7188 13.875 49.0156 6.21875
Q42.3281 -1.42188 30.6094 -1.42188
Q18.8438 -1.42188 12.1719 6.21875
Q5.51562 13.875 5.51562 27.2969
Q5.51562 40.7656 12.1719 48.375
Q18.8438 56 30.6094 56" id="DejaVuSans-6f"/>
     </defs>
     <g transform="translate(35.37375 228.85875)rotate(-90.0)scale(0.12 -0.12)">
      <use xlink:href="#DejaVuSans-43"/>
      <use x="69.82421875" xlink:href="#DejaVuSans-6f"/>
      <use x="131.005859375" xlink:href="#DejaVuSans-73"/>
      <use x="183.10546875" xlink:href="#DejaVuSans-74"/>
     </g>
    </g>
   </g>
   <g id="patch_3">
    <path d="
M72 388.8
L72 43.2" style="fill:none;stroke:#000000;"/>
   </g>
   <g id="patch_4">
    <path d="
M518.4 388.8
L518.4 43.2" style="fill:none;stroke:#000000;"/>
   </g>
   <g id="patch_5">
    <path d="
M72 388.8
L518.4 388.8" style="fill:none;stroke:#000000;"/>
   </g>
   <g id="patch_6">
    <path d="
M72 43.2
L518.4 43.2" style="fill:none;stroke:#000000;"/>
   </g>
   <g id="text_20">
    <!-- XOR Sigmoid -->
    <defs>
     <path d="
M52 44.1875
Q55.375 50.25 60.0625 53.125
Q64.75 56 71.0938 56
Q79.6406 56 84.2812 50.0156
Q88.9219 44.0469 88.9219 33.0156
L88.9219 0
L79.8906 0
L79.8906 32.7188
Q79.8906 40.5781 77.0938 44.375
Q74.3125 48.1875 68.6094 48.1875
Q61.625 48.1875 57.5625 43.5469
Q53.5156 38.9219 53.5156 30.9062
L53.5156 0
L44.4844 0
L44.4844 32.7188
Q44.4844 40.625 41.7031 44.4062
Q38.9219 48.1875 33.1094 48.1875
Q26.2188 48.1875 22.1562 43.5312
Q18.1094 38.875 18.1094 30.9062
L18.1094 0
L9.07812 0
L9.07812 54.6875
L18.1094 54.6875
L18.1094 46.1875
Q21.1875 51.2188 25.4844 53.6094
Q29.7812 56 35.6875 56
Q41.6562 56 45.8281 52.9688
Q50 49.9531 52 44.1875" id="DejaVuSans-6d"/>
     <path d="
M9.42188 54.6875
L18.4062 54.6875
L18.4062 0
L9.42188 0
z

M9.42188 75.9844
L18.4062 75.9844
L18.4062 64.5938
L9.42188 64.5938
z
" id="DejaVuSans-69"/>
     <path d="
M53.5156 70.5156
L53.5156 60.8906
Q47.9062 63.5781 42.9219 64.8906
Q37.9375 66.2188 33.2969 66.2188
Q25.25 66.2188 20.875 63.0938
Q16.5 59.9688 16.5 54.2031
Q16.5 49.3594 19.4062 46.8906
Q22.3125 44.4375 30.4219 42.9219
L36.375 41.7031
Q47.4062 39.5938 52.6562 34.2969
Q57.9062 29 57.9062 20.125
Q57.9062 9.51562 50.7969 4.04688
Q43.7031 -1.42188 29.9844 -1.42188
Q24.8125 -1.42188 18.9688 -0.25
Q13.1406 0.921875 6.89062 3.21875
L6.89062 13.375
Q12.8906 10.0156 18.6562 8.29688
Q24.4219 6.59375 29.9844 6.59375
Q38.4219 6.59375 43.0156 9.90625
Q47.6094 13.2344 47.6094 19.3906
Q47.6094 24.75 44.3125 27.7812
Q41.0156 30.8125 33.5 32.3281
L27.4844 33.5
Q16.4531 35.6875 11.5156 40.375
Q6.59375 45.0625 6.59375 53.4219
Q6.59375 63.0938 13.4062 68.6562
Q20.2188 74.2188 32.1719 74.2188
Q37.3125 74.2188 42.625 73.2812
Q47.9531 72.3594 53.5156 70.5156" id="DejaVuSans-53"/>
     <path d="
M45.4062 46.3906
L45.4062 75.9844
L54.3906 75.9844
L54.3906 0
L45.4062 0
L45.4062 8.20312
Q42.5781 3.32812 38.25 0.953125
Q33.9375 -1.42188 27.875 -1.42188
Q17.9688 -1.42188 11.7344 6.48438
Q5.51562 14.4062 5.51562 27.2969
Q5.51562 40.1875 11.7344 48.0938
Q17.9688 56 27.875 56
Q33.9375 56 38.25 53.625
Q42.5781 51.2656 45.4062 46.3906
M14.7969 27.2969
Q14.7969 17.3906 18.875 11.75
Q22.9531 6.10938 30.0781 6.10938
Q37.2031 6.10938 41.2969 11.75
Q45.4062 17.3906 45.4062 27.2969
Q45.4062 37.2031 41.2969 42.8438
Q37.2031 48.4844 30.0781 48.4844
Q22.9531 48.4844 18.875 42.8438
Q14.7969 37.2031 14.7969 27.2969" id="DejaVuSans-64"/>
     <path d="
M39.4062 66.2188
Q28.6562 66.2188 22.3281 58.2031
Q16.0156 50.2031 16.0156 36.375
Q16.0156 22.6094 22.3281 14.5938
Q28.6562 6.59375 39.4062 6.59375
Q50.1406 6.59375 56.4219 14.5938
Q62.7031 22.6094 62.7031 36.375
Q62.7031 50.2031 56.4219 58.2031
Q50.1406 66.2188 39.4062 66.2188
M39.4062 74.2188
Q54.7344 74.2188 63.9062 63.9375
Q73.0938 53.6562 73.0938 36.375
Q73.0938 19.1406 63.9062 8.85938
Q54.7344 -1.42188 39.4062 -1.42188
Q24.0312 -1.42188 14.8125 8.82812
Q5.60938 19.0938 5.60938 36.375
Q5.60938 53.6562 14.8125 63.9375
Q24.0312 74.2188 39.4062 74.2188" id="DejaVuSans-4f"/>
     <path d="
M6.29688 72.9062
L16.8906 72.9062
L35.0156 45.7969
L53.2188 72.9062
L63.8125 72.9062
L40.375 37.8906
L65.375 0
L54.7812 0
L34.2812 31
L13.625 0
L2.98438 0
L29 38.9219
z
" id="DejaVuSans-58"/>
     <path id="DejaVuSans-20"/>
     <path d="
M45.4062 27.9844
Q45.4062 37.75 41.375 43.1094
Q37.3594 48.4844 30.0781 48.4844
Q22.8594 48.4844 18.8281 43.1094
Q14.7969 37.75 14.7969 27.9844
Q14.7969 18.2656 18.8281 12.8906
Q22.8594 7.51562 30.0781 7.51562
Q37.3594 7.51562 41.375 12.8906
Q45.4062 18.2656 45.4062 27.9844
M54.3906 6.78125
Q54.3906 -7.17188 48.1875 -13.9844
Q42 -20.7969 29.2031 -20.7969
Q24.4688 -20.7969 20.2656 -20.0938
Q16.0625 -19.3906 12.1094 -17.9219
L12.1094 -9.1875
Q16.0625 -11.3281 19.9219 -12.3438
Q23.7812 -13.375 27.7812 -13.375
Q36.625 -13.375 41.0156 -8.76562
Q45.4062 -4.15625 45.4062 5.17188
L45.4062 9.625
Q42.625 4.78125 38.2812 2.39062
Q33.9375 0 27.875 0
Q17.8281 0 11.6719 7.65625
Q5.51562 15.3281 5.51562 27.9844
Q5.51562 40.6719 11.6719 48.3281
Q17.8281 56 27.875 56
Q33.9375 56 38.2812 53.6094
Q42.625 51.2188 45.4062 46.3906
L45.4062 54.6875
L54.3906 54.6875
z
" id="DejaVuSans-67"/>
    </defs>
    <g transform="translate(249.291 38.2)scale(0.144 -0.144)">
     <use xlink:href="#DejaVuSans-58"/>
     <use x="62.130859375" xlink:href="#DejaVuSans-4f"/>
     <use x="140.841796875" xlink:href="#DejaVuSans-52"/>
     <use x="210.32421875" xlink:href="#DejaVuSans-20"/>
     <use x="242.111328125" xlink:href="#DejaVuSans-53"/>
     <use x="305.587890625" xlink:href="#DejaVuSans-69"/>
     <use x="333.37109375" xlink:href="#DejaVuSans-67"/>
     <use x="396.84765625" xlink:href="#DejaVuSans-6d"/>
     <use x="494.259765625" xlink:href="#DejaVuSans-6f"/>
     <use x="555.44140625" xlink:href="#DejaVuSans-69"/>
     <use x="583.224609375" xlink:href="#DejaVuSans-64"/>
    </g>
   </g>
  </g>
 </g>
 <defs>
  <clipPath id="p7ff5b81e1d">
   <rect height="345.6" width="446.4" x="72.0" y="43.2"/>
  </clipPath>
 </defs>
</svg>
