<?xml version="1.0" encoding="utf-8" standalone="no"?>
<!DOCTYPE svg PUBLIC "-//W3C//DTD SVG 1.1//EN"
  "http://www.w3.org/Graphics/SVG/1.1/DTD/svg11.dtd">
<!-- Created with matplotlib (http://matplotlib.org/) -->
<svg height="432pt" version="1.1" viewBox="0 0 576 432" width="576pt" xmlns="http://www.w3.org/2000/svg" xmlns:xlink="http://www.w3.org/1999/xlink">
 <defs>
  <style type="text/css">
*{stroke-linecap:butt;stroke-linejoin:round;}
  </style>
 </defs>
 <g id="figure_1">
  <g id="patch_1">
   <path d="
M0 432
L576 432
L576 0
L0 0
z
" style="fill:#ffffff;"/>
  </g>
  <g id="axes_1">
   <g id="patch_2">
    <path d="
M72 388.8
L518.4 388.8
L518.4 43.2
L72 43.2
z
" style="fill:#ffffff;"/>
   </g>
   <g id="line2d_1">
    <path clip-path="url(#p7ff5b81e1d)" d="
M72.2232 65.1174
L72.4464 305.031
L72.6696 351.104
L72.8928 87.5856
L73.116 68.4672
L73.3392 302.939
L73.5624 348.501
L73.7856 90.5794
L74.0088 71.7424
L74.232 300.884
L74.4552 345.939
L74.6784 93.5056
L74.9016 74.9444
L75.1248 298.865
L75.348 343.416
L75.5712 96.3655
L75.7944 78.0745
L76.0176 296.882
L76.2408 340.932
L76.464 99.1603
L76.6872 81.1339
L76.9104 294.934
L77.1336 338.488
L77.3568 101.891
L77.58 84.1241
L77.8032 293.022
L78.0264 336.084
L78.2496 104.56
L78.4728 87.0462
L78.696 291.145
L78.9192 333.719
L79.1424 107.167
L79.3656 89.9017
L79.5888 289.302
L79.812 331.393
L80.0352 109.714
L80.2584 92.6917
L80.4816 287.494
L80.7048 329.106
L80.928 112.203
L81.1512 95.4177
L81.3744 285.72
L81.5976 326.857
L81.8208 114.634
L82.044 98.0808
L82.2672 283.98
L82.4904 324.647
L82.7136 117.008
L82.9368 100.682
L83.16 282.273
L83.3832 322.476
L83.6064 119.327
L83.8296 103.224
L84.0528 280.6
L84.276 320.342
L84.4992 121.593
L84.7224 105.706
L84.9456 278.959
L85.1688 318.246
L85.392 123.805
L85.6152 108.13
L85.8384 277.35
L86.0616 316.187
L86.2848 125.966
L86.508 110.498
L86.7312 275.773
L86.9544 314.164
L87.1776 128.077
L87.4008 112.81
L87.624 274.228
L87.8472 312.179
L88.0704 130.138
L88.2936 115.069
L88.5168 272.714
L88.74 310.229
L88.9632 132.151
L89.1864 117.274
L89.4096 271.231
L89.6328 308.315
L89.856 134.116
L90.0792 119.427
L90.3024 269.778
L90.5256 306.437
L90.7488 136.036
L90.972 121.53
L91.1952 268.355
L91.4184 304.593
L91.6416 137.91
L91.8648 123.583
L92.088 266.961
L92.3112 302.784
L92.5344 139.74
L92.7576 125.587
L92.9808 265.596
L93.204 301.008
L93.4272 141.527
L93.6504 127.544
L93.8736 264.26
L94.0968 299.267
L94.32 143.272
L94.5432 129.455
L94.7664 262.952
L94.9896 297.558
L95.2128 144.976
L95.436 131.32
L95.6592 261.672
L95.8824 295.882
L96.1056 146.639
L96.3288 133.141
L96.552 260.419
L96.7752 294.238
L96.9984 148.264
L97.2216 134.919
L97.4448 259.192
L97.668 292.626
L97.8912 149.85
L98.1144 136.655
L98.3376 257.992
L98.5608 291.045
L98.784 151.398
L99.0072 138.349
L99.2304 256.818
L99.4536 289.494
L99.6768 152.91
L99.9 140.003
L100.123 255.67
L100.346 287.974
L100.57 154.387
L100.793 141.617
L101.016 254.546
L101.239 286.484
L101.462 155.828
L101.686 143.193
L101.909 253.447
L102.132 285.023
L102.355 157.235
L102.578 144.731
L102.802 252.372
L103.025 283.591
L103.248 158.609
L103.471 146.233
L103.694 251.321
L103.918 282.188
L104.141 159.951
L104.364 147.698
L104.587 250.294
L104.81 280.812
L105.034 161.261
L105.257 149.129
L105.48 249.289
L105.703 279.464
L105.926 162.54
L106.15 150.525
L106.373 248.306
L106.596 278.142
L106.819 163.789
L107.042 151.888
L107.266 247.346
L107.489 276.847
L107.712 165.008
L107.935 153.219
L108.158 246.408
L108.382 275.578
L108.605 166.199
L108.828 154.517
L109.051 245.49
L109.274 274.335
L109.498 167.361
L109.721 155.784
L109.944 244.594
L110.167 273.117
L110.39 168.496
L110.614 157.021
L110.837 243.718
L111.06 271.923
L111.283 169.604
L111.506 158.229
L111.73 242.862
L111.953 270.754
L112.176 170.687
L112.399 159.407
L112.622 242.025
L112.846 269.609
L113.069 171.743
L113.292 160.557
L113.515 241.208
L113.738 268.486
L113.962 172.775
L114.185 161.68
L114.408 240.41
L114.631 267.387
L114.854 173.782
L115.078 162.775
L115.301 239.63
L115.524 266.31
L115.747 174.766
L115.97 163.845
L116.194 238.869
L116.417 265.255
L116.64 175.726
L116.863 164.889
L117.086 238.125
L117.31 264.222
L117.533 176.664
L117.756 165.907
L117.979 237.399
L118.202 263.21
L118.426 177.58
L118.649 166.901
L118.872 236.69
L119.095 262.219
L119.318 178.475
L119.542 167.872
L119.765 235.997
L119.988 261.248
L120.211 179.348
L120.434 168.819
L120.658 235.321
L120.881 260.297
L121.104 180.201
L121.327 169.743
L121.55 234.661
L121.774 259.366
L121.997 181.034
L122.22 170.645
L122.443 234.017
L122.666 258.454
L122.89 181.847
L123.113 171.526
L123.336 233.388
L123.559 257.561
L123.782 182.641
L124.006 172.385
L124.229 232.774
L124.452 256.686
L124.675 183.417
L124.898 173.224
L125.122 232.175
L125.345 255.83
L125.568 184.174
L125.791 174.042
L126.014 231.59
L126.238 254.991
L126.461 184.914
L126.684 174.841
L126.907 231.02
L127.13 254.169
L127.354 185.636
L127.577 175.621
L127.8 230.463
L128.023 253.365
L128.246 186.342
L128.47 176.382
L128.693 229.92
L128.916 252.577
L129.139 187.031
L129.362 177.124
L129.586 229.39
L129.809 251.806
L130.032 187.704
L130.255 177.849
L130.478 228.873
L130.702 251.05
L130.925 188.361
L131.148 178.557
L131.371 228.369
L131.594 250.311
L131.818 189.003
L132.041 179.247
L132.264 227.877
L132.487 249.586
L132.71 189.63
L132.934 179.921
L133.157 227.398
L133.38 248.877
L133.603 190.243
L133.826 180.579
L134.05 226.93
L134.273 248.182
L134.496 190.841
L134.719 181.221
L134.942 226.474
L135.166 247.502
L135.389 191.425
L135.612 181.847
L135.835 226.029
L136.058 246.836
L136.282 191.996
L136.505 182.458
L136.728 225.596
L136.951 246.184
L137.174 192.554
L137.398 183.055
L137.621 225.173
L137.844 245.545
L138.067 193.098
L138.29 183.638
L138.514 224.761
L138.737 244.919
L138.96 193.63
L139.183 184.206
L139.406 224.359
L139.63 244.307
L139.853 194.15
L140.076 184.761
L140.522 243.707
L140.746 194.657
L140.969 185.302
L141.415 243.12
L141.638 195.153
L141.862 185.83
L142.308 242.544
L142.531 195.637
L142.754 186.346
L143.201 241.981
L143.424 196.111
L143.647 186.849
L144.094 241.43
L144.317 196.573
L144.54 187.341
L144.986 240.889
L145.21 197.025
L145.433 187.82
L145.879 240.36
L146.102 197.466
L146.326 188.288
L146.772 239.842
L146.995 197.897
L147.218 188.744
L147.665 239.335
L147.888 198.318
L148.111 189.19
L148.558 238.838
L148.781 198.73
L149.004 189.625
L149.45 238.351
L149.674 199.132
L149.897 190.049
L150.343 237.874
L150.566 199.524
L150.79 190.463
L151.236 237.408
L151.459 199.908
L151.682 190.868
L152.129 236.95
L152.352 200.283
L152.575 191.262
L153.022 236.502
L153.245 200.65
L153.468 191.647
L153.914 236.064
L154.138 201.008
L154.361 192.023
L154.807 235.634
L155.03 201.358
L155.254 192.389
L155.7 235.213
L155.923 201.7
L156.146 192.747
L156.593 234.801
L156.816 202.034
L157.039 193.096
L157.486 234.397
L157.709 202.36
L157.932 193.437
L158.378 234.002
L158.602 202.679
L158.825 193.769
L159.271 233.614
L159.494 202.991
L159.718 194.094
L160.164 233.234
L160.387 203.296
L160.61 194.411
L161.057 232.863
L161.28 203.594
L161.503 194.72
L161.95 232.498
L162.173 203.885
L162.396 195.021
L162.842 232.141
L163.066 204.169
L163.289 195.315
L163.735 231.792
L163.958 204.447
L164.182 195.602
L164.628 231.449
L164.851 204.719
L165.074 195.883
L165.521 231.113
L165.744 204.984
L165.967 196.156
L166.414 230.784
L166.637 205.244
L166.86 196.423
L167.306 230.462
L167.53 205.498
L167.753 196.683
L168.199 230.146
L168.422 205.746
L168.646 196.937
L169.092 229.836
L169.315 205.988
L169.538 197.185
L169.985 229.533
L170.208 206.225
L170.431 197.426
L170.878 229.236
L171.101 206.457
L171.324 197.662
L171.77 228.945
L171.994 206.683
L172.217 197.893
L172.663 228.659
L172.886 206.905
L173.11 198.117
L173.556 228.379
L173.779 207.121
L174.002 198.336
L174.449 228.105
L174.672 207.333
L174.895 198.55
L175.342 227.836
L175.565 207.54
L175.788 198.759
L176.234 227.573
L176.458 207.742
L176.681 198.962
L177.127 227.314
L177.35 207.94
L177.574 199.161
L178.02 227.061
L178.243 208.133
L178.466 199.354
L178.913 226.813
L179.136 208.322
L179.359 199.543
L179.806 226.569
L180.029 208.507
L180.252 199.728
L180.698 226.331
L180.922 208.688
L181.145 199.907
L181.591 226.097
L182.038 200.083
L182.484 225.867
L182.93 200.254
L183.377 225.642
L183.823 200.421
L184.27 225.422
L184.716 200.584
L185.162 225.206
L185.609 200.742
L186.055 224.993
L186.502 200.897
L186.948 224.785
L187.394 201.048
L187.841 224.581
L188.287 201.196
L188.734 224.381
L189.18 201.339
L189.626 224.185
L190.073 201.48
L190.519 223.992
L190.966 201.616
L191.412 223.804
L191.858 201.75
L192.305 223.618
L192.751 201.88
L193.198 223.436
L193.644 202.006
L194.09 223.258
L194.537 202.13
L194.983 223.083
L195.43 202.25
L195.876 222.911
L196.322 202.368
L196.769 222.743
L197.215 202.483
L197.662 222.577
L198.108 202.594
L198.554 222.415
L199.001 202.703
L199.447 222.256
L199.894 202.81
L200.34 222.1
L200.786 202.913
L201.233 221.946
L201.679 203.014
L202.126 221.796
L202.572 203.112
L203.018 221.648
L203.465 203.208
L203.911 221.502
L204.358 203.302
L204.804 221.36
L205.25 203.393
L205.697 221.22
L206.143 203.482
L206.59 221.083
L207.036 203.568
L207.482 220.948
L207.929 203.653
L208.375 220.815
L208.822 203.735
L209.268 220.685
L209.714 203.815
L210.161 220.557
L210.607 203.893
L211.054 220.432
L211.5 203.969
L211.946 220.309
L212.393 204.043
L212.839 220.188
L213.286 204.116
L213.732 220.069
L214.178 204.186
L214.625 219.952
L215.071 204.255
L215.518 219.837
L215.964 204.321
L216.41 219.724
L216.857 204.386
L217.303 219.613
L217.75 204.45
L218.196 219.504
L218.419 213.59
L218.642 204.511
L219.089 219.397
L219.312 213.661
L219.535 204.571
L219.982 219.292
L220.205 213.731
L220.428 204.63
L220.874 219.189
L221.098 213.799
L221.321 204.687
L221.767 219.087
L221.99 213.866
L222.214 204.742
L222.66 218.987
L222.883 213.932
L223.106 204.796
L223.553 218.889
L223.776 213.996
L223.999 204.849
L224.446 218.792
L224.669 214.059
L224.892 204.9
L225.338 218.697
L225.562 214.121
L225.785 204.95
L226.231 218.604
L226.454 214.181
L226.678 204.998
L227.124 218.512
L227.347 214.24
L227.57 205.045
L228.017 218.422
L228.24 214.298
L228.463 205.091
L228.91 218.333
L229.133 214.355
L229.356 205.136
L229.802 218.245
L230.026 214.411
L230.249 205.179
L230.695 218.16
L230.918 214.466
L231.142 205.222
L231.588 218.075
L231.811 214.519
L232.034 205.263
L232.481 217.992
L232.704 214.572
L232.927 205.303
L233.374 217.91
L233.597 214.623
L233.82 205.342
L234.266 217.83
L234.49 214.674
L234.713 205.38
L235.159 217.75
L235.382 214.723
L235.606 205.416
L236.052 217.672
L236.275 214.772
L236.498 205.452
L236.945 217.596
L237.168 214.819
L237.391 205.487
L237.838 217.52
L238.061 214.866
L238.284 205.521
L238.73 217.446
L238.954 214.911
L239.177 205.553
L239.623 217.373
L239.846 214.956
L240.07 205.585
L240.516 217.301
L240.739 215
L240.962 205.616
L241.409 217.23
L241.632 215.044
L241.855 205.646
L242.302 217.16
L242.525 215.086
L242.748 205.676
L243.194 217.091
L243.418 215.127
L243.641 205.704
L244.087 217.024
L244.31 215.168
L244.534 205.732
L244.98 216.957
L245.203 215.208
L245.426 205.758
L245.873 216.892
L246.096 215.247
L246.319 205.784
L246.766 216.827
L246.989 215.286
L247.212 205.81
L247.658 216.763
L247.882 215.324
L248.105 205.834
L248.551 216.701
L248.774 215.361
L248.998 205.858
L249.444 216.639
L249.667 215.397
L249.89 205.881
L250.337 216.578
L250.56 215.433
L250.783 205.903
L251.23 216.518
L251.453 215.468
L251.676 205.925
L252.122 216.459
L252.346 215.503
L252.569 205.946
L253.015 216.401
L253.238 215.537
L253.462 205.966
L253.908 216.343
L254.131 215.57
L254.354 205.986
L254.801 216.287
L255.024 215.602
L255.247 206.005
L255.694 216.231
L255.917 215.634
L256.14 206.024
L256.586 216.176
L256.81 215.666
L257.033 206.042
L257.479 216.122
L257.702 215.697
L257.926 206.059
L258.372 216.069
L258.595 215.727
L258.818 206.076
L259.265 216.016
L259.488 215.757
L259.711 206.092
L260.158 215.964
L260.381 215.787
L260.604 206.108
L261.05 215.913
L261.274 215.815
L261.497 206.123
L261.943 215.863
L262.166 215.844
L262.39 206.138
L262.836 215.813
L263.059 215.872
L263.282 206.152
L263.729 215.764
L263.952 215.899
L264.175 206.166
L264.622 215.716
L264.845 215.926
L265.068 206.179
L265.514 215.668
L265.738 215.952
L265.961 206.192
L266.407 215.621
L266.63 215.978
L266.854 206.204
L267.3 215.574
L267.523 216.004
L267.746 206.216
L268.193 215.528
L268.416 216.029
L268.639 206.227
L269.086 215.483
L269.309 216.054
L269.532 206.239
L269.978 215.439
L270.202 216.078
L270.425 206.249
L270.871 215.395
L271.094 216.102
L271.318 206.259
L271.764 215.351
L271.987 216.126
L272.21 206.269
L272.657 215.308
L272.88 216.149
L273.103 206.279
L273.55 215.266
L273.773 216.172
L273.996 206.288
L274.442 215.224
L274.666 216.194
L274.889 206.297
L275.335 215.183
L275.558 216.216
L275.782 206.305
L276.228 215.142
L276.451 216.238
L276.674 206.313
L277.121 215.102
L277.344 216.26
L277.567 206.321
L278.014 215.062
L278.237 216.281
L278.46 206.329
L278.906 215.023
L279.13 216.301
L279.353 206.336
L279.799 214.984
L280.022 216.322
L280.246 206.342
L280.692 214.946
L280.915 216.342
L281.138 206.349
L281.585 214.908
L281.808 216.362
L282.031 206.355
L282.478 214.871
L282.701 216.381
L282.924 206.361
L283.37 214.834
L283.594 216.401
L283.817 206.367
L284.263 214.798
L284.486 216.42
L284.71 206.372
L285.156 214.762
L285.379 216.438
L285.602 206.377
L286.049 214.727
L286.272 216.457
L286.495 206.382
L286.718 211.938
L287.165 216.475
L287.388 206.387
L287.611 211.954
L288.058 216.493
L288.281 206.391
L288.504 211.971
L288.95 216.51
L289.174 206.395
L289.397 211.987
L289.843 216.528
L290.066 206.399
L290.29 212.004
L290.736 216.545
L290.959 206.403
L291.182 212.02
L291.629 216.562
L291.852 206.406
L292.075 212.037
L292.522 216.578
L292.745 206.409
L292.968 212.053
L293.414 216.595
L293.638 206.412
L293.861 212.07
L294.307 216.611
L294.53 206.415
L294.754 212.087
L295.2 216.627
L295.423 206.418
L295.646 212.104
L296.093 216.643
L296.316 206.42
L296.539 212.12
L296.986 216.659
L297.209 206.422
L297.432 212.137
L297.878 216.674
L298.102 206.424
L298.325 212.154
L298.771 216.689
L298.994 206.426
L299.218 212.171
L299.664 216.704
L299.887 206.428
L300.11 212.188
L300.557 216.719
L300.78 206.429
L301.003 212.205
L301.45 216.734
L301.673 206.431
L301.896 212.222
L302.342 216.748
L302.566 206.432
L302.789 212.239
L303.235 216.762
L303.458 206.433
L303.682 212.256
L304.128 216.776
L304.351 206.434
L304.574 212.273
L304.798 214.069
L305.021 216.79
L305.244 206.434
L305.467 212.29
L305.69 214.042
L305.914 216.804
L306.137 206.435
L306.36 212.307
L306.583 214.015
L306.806 216.818
L307.03 206.435
L307.253 212.324
L307.476 213.988
L307.699 216.831
L307.922 206.436
L308.146 212.341
L308.369 213.961
L308.592 216.844
L308.815 206.436
L309.038 212.358
L309.262 213.934
L309.485 216.857
L309.708 206.436
L309.931 212.375
L310.154 213.908
L310.378 216.87
L310.601 206.436
L310.824 212.392
L311.047 213.882
L311.27 216.883
L311.494 206.435
L311.717 212.409
L311.94 213.857
L312.163 216.896
L312.386 206.435
L312.61 212.426
L312.833 213.832
L313.056 216.908
L313.279 206.434
L313.502 212.443
L313.726 213.806
L313.949 216.921
L314.172 206.434
L314.395 212.46
L314.618 213.782
L314.842 216.933
L315.065 206.433
L315.288 212.477
L315.511 213.757
L315.734 216.945
L315.958 206.432
L316.181 212.494
L316.404 213.733
L316.627 216.957
L316.85 206.431
L317.074 212.511
L317.297 213.709
L317.52 216.969
L317.743 206.43
L317.966 212.528
L318.19 213.685
L318.413 216.981
L318.636 206.429
L318.859 212.545
L319.082 213.661
L319.306 216.992
L319.529 206.428
L319.752 212.561
L319.975 213.638
L320.198 217.004
L320.422 206.427
L320.645 212.578
L320.868 213.615
L321.091 217.015
L321.314 206.425
L321.538 212.595
L321.761 213.592
L321.984 217.026
L322.207 206.424
L322.43 212.612
L322.654 213.569
L322.877 217.037
L323.1 206.422
L323.323 212.628
L323.546 213.547
L323.77 217.048
L323.993 206.42
L324.216 212.645
L324.439 213.525
L324.662 217.059
L324.886 206.419
L325.109 212.662
L325.332 213.503
L325.555 217.07
L325.778 206.417
L326.002 212.678
L326.225 213.481
L326.448 217.081
L326.671 206.415
L326.894 212.695
L327.118 213.459
L327.341 217.091
L327.564 206.413
L327.787 212.711
L328.01 213.438
L328.234 217.102
L328.457 206.411
L328.68 212.728
L328.903 213.417
L329.126 217.112
L329.35 206.409
L329.573 212.744
L329.796 213.396
L330.019 217.123
L330.242 206.406
L330.466 212.761
L330.689 213.375
L330.912 217.133
L331.135 206.404
L331.358 212.777
L331.582 213.354
L331.805 217.143
L332.028 206.402
L332.251 212.793
L332.474 213.334
L332.698 217.153
L332.921 206.399
L333.144 212.809
L333.367 213.314
L333.59 217.163
L333.814 206.397
L334.037 212.826
L334.26 213.294
L334.483 217.173
L334.706 206.394
L334.93 212.842
L335.153 213.274
L335.376 217.183
L335.599 206.392
L335.822 212.858
L336.046 213.255
L336.269 217.192
L336.492 206.389
L336.715 212.874
L336.938 213.235
L337.162 217.202
L337.385 206.386
L337.608 212.89
L337.831 213.216
L338.054 217.212
L338.278 206.383
L338.501 212.906
L338.724 213.197
L338.947 217.221
L339.17 206.381
L339.394 212.922
L339.617 213.178
L339.84 217.23
L340.063 206.378
L340.286 212.938
L340.51 213.159
L340.733 217.24
L340.956 206.375
L341.179 212.953
L341.402 213.141
L341.626 217.249
L341.849 206.372
L342.072 212.969
L342.295 213.122
L342.518 217.258
L342.742 206.369
L342.965 212.985
L343.188 213.104
L343.411 217.267
L343.634 206.366
L343.858 213
L344.081 213.086
L344.304 217.276
L344.527 206.363
L344.75 213.016
L344.974 213.068
L345.197 217.285
L345.42 206.359
L345.643 213.031
L345.866 213.05
L346.09 217.294
L346.313 206.356
L346.536 213.047
L346.759 213.033
L346.982 217.303
L347.206 206.353
L347.429 213.062
L347.652 213.015
L347.875 217.312
L348.098 206.35
L348.322 213.078
L348.545 212.998
L348.768 217.32
L348.991 206.346
L349.214 213.093
L349.438 212.981
L349.661 217.329
L349.884 206.343
L350.107 213.108
L350.33 212.964
L350.554 217.337
L350.777 206.34
L351 213.123
L351.223 212.947
L351.446 217.346
L351.67 206.336
L351.893 213.138
L352.116 212.931
L352.339 217.354
L352.562 206.333
L352.786 213.153
L353.009 212.914
L353.232 217.363
L353.455 206.329
L353.678 213.168
L353.902 212.898
L354.125 217.371
L354.348 206.326
L354.571 213.183
L354.794 212.881
L355.018 217.379
L355.241 206.322
L355.464 213.198
L355.687 212.865
L355.91 217.388
L356.134 206.319
L356.357 213.213
L356.58 212.849
L356.803 217.396
L357.026 206.315
L357.25 213.227
L357.473 212.834
L357.696 217.404
L357.919 206.312
L358.142 213.242
L358.366 212.818
L358.589 217.412
L358.812 206.308
L359.035 213.257
L359.258 212.802
L359.482 217.42
L359.705 206.304
L359.928 213.271
L360.151 212.787
L360.374 217.428
L360.598 206.301
L360.821 213.286
L361.044 212.772
L361.267 217.436
L361.49 206.297
L361.714 213.3
L361.937 212.757
L362.16 217.444
L362.383 206.293
L362.606 213.314
L362.83 212.742
L363.053 217.451
L363.276 206.29
L363.499 213.329
L363.722 212.727
L363.946 217.459
L364.169 206.286
L364.392 213.343
L364.615 212.712
L364.838 217.467
L365.062 206.282
L365.285 213.357
L365.508 212.697
L365.731 217.475
L365.954 206.278
L366.178 213.371
L366.401 212.683
L366.624 217.482
L366.847 206.274
L367.07 213.385
L367.294 212.668
L367.517 217.49
L367.74 206.271
L367.963 213.399
L368.186 212.654
L368.41 217.497
L368.633 206.267
L368.856 213.413
L369.079 212.64
L369.302 217.505
L369.526 206.263
L369.749 213.427
L369.972 212.626
L370.195 217.512
L370.418 206.259
L370.642 213.44
L370.865 212.612
L371.088 217.52
L371.311 206.255
L371.534 213.454
L371.758 212.598
L371.981 217.527
L372.204 206.251
L372.427 213.468
L372.65 212.584
L372.874 217.534
L373.097 206.247
L373.32 213.481
L373.543 212.571
L373.766 217.542
L373.99 206.243
L374.213 213.495
L374.436 212.557
L374.659 217.549
L374.882 206.239
L375.106 213.508
L375.329 212.544
L375.552 217.556
L375.775 206.235
L375.998 213.521
L376.222 212.531
L376.445 217.563
L376.668 206.231
L376.891 213.534
L377.114 212.518
L377.338 217.57
L377.561 206.227
L377.784 213.548
L378.007 212.505
L378.23 217.578
L378.454 206.223
L378.677 213.561
L378.9 212.492
L379.123 217.585
L379.346 206.219
L379.57 213.574
L379.793 212.479
L380.016 217.592
L380.239 206.215
L380.462 213.587
L380.686 212.466
L380.909 217.599
L381.132 206.211
L381.355 213.6
L381.578 212.454
L381.802 217.606
L382.025 206.207
L382.248 213.613
L382.471 212.441
L382.694 217.613
L382.918 206.203
L383.141 213.625
L383.364 212.429
L383.587 217.62
L383.81 206.199
L384.034 213.638
L384.257 212.416
L384.48 217.626
L384.703 206.195
L384.926 213.651
L385.15 212.404
L385.373 217.633
L385.596 206.191
L385.819 213.663
L386.042 212.392
L386.266 217.64
L386.489 206.187
L386.712 213.676
L386.935 212.38
L387.158 217.647
L387.382 206.183
L387.605 213.688
L387.828 212.368
L388.051 217.654
L388.274 206.179
L388.498 213.701
L388.721 212.356
L388.944 217.66
L389.167 206.175
L389.39 213.713
L389.614 212.345
L389.837 217.667
L390.06 206.171
L390.283 213.725
L390.506 212.333
L390.73 217.674
L390.953 206.167
L391.176 213.738
L391.399 212.322
L391.622 217.68
L391.846 206.163
L392.069 213.75
L392.292 212.31
L392.515 217.687
L392.738 206.159
L392.962 213.762
L393.185 212.299
L393.408 217.693
L393.631 206.155
L393.854 213.774
L394.078 212.288
L394.301 217.7
L394.524 206.151
L394.747 213.786
L394.97 212.276
L395.194 217.707
L395.417 206.147
L395.64 213.797
L395.863 212.265
L396.086 217.713
L396.31 206.143
L396.533 213.809
L396.756 212.254
L396.979 217.72
L397.202 206.139
L397.426 213.821
L397.649 212.244
L397.872 217.726
L398.095 206.134
L398.318 213.833
L398.542 212.233
L398.765 217.732
L398.988 206.13
L399.211 213.844
L399.434 212.222
L399.658 217.739
L399.881 206.126
L400.104 213.856
L400.327 212.211
L400.55 217.745
L400.774 206.122
L400.997 213.867
L401.22 212.201
L401.443 217.752
L401.666 206.118
L401.89 213.879
L402.113 212.19
L402.336 217.758
L402.559 206.114
L402.782 213.89
L403.006 212.18
L403.229 217.764
L403.452 206.11
L403.675 213.901
L403.898 212.17
L404.122 217.77
L404.345 206.106
L404.568 213.913
L404.791 212.159
L405.014 217.777
L405.238 206.102
L405.461 213.924
L405.684 212.149
L405.907 217.783
L406.13 206.098
L406.354 213.935
L406.577 212.139
L406.8 217.789
L407.023 206.094
L407.246 213.946
L407.47 212.129
L407.693 217.795
L407.916 206.09
L408.139 213.957
L408.362 212.119
L408.586 217.801
L408.809 206.086
L409.032 213.968
L409.255 212.11
L409.478 217.808
L409.702 206.082
L409.925 213.978
L410.148 212.1
L410.371 217.814
L410.594 206.078
L410.818 213.989
L411.041 212.09
L411.264 217.82
L411.487 206.074
L411.71 214
L411.934 212.081
L412.157 217.826
L412.38 206.07
L412.603 214.011
L412.826 212.071
L413.05 217.832
L413.273 206.065
L413.496 214.021
L413.719 212.062
L413.942 217.838
L414.166 206.061
L414.389 214.032
L414.612 212.052
L414.835 217.844
L415.058 206.057
L415.282 214.042
L415.505 212.043
L415.728 217.85
L415.951 206.053
L416.174 214.052
L416.398 212.034
L416.621 217.856
L416.844 206.049
L417.067 214.063
L417.29 212.025
L417.514 217.862
L417.737 206.045
L417.96 214.073
L418.183 212.016
L418.406 217.868
L418.63 206.041
L418.853 214.083
L419.076 212.007
L419.299 217.874
L419.522 206.037
L419.746 214.093
L419.969 211.998
L420.192 217.88
L420.415 206.033
L420.638 214.104
L420.862 211.989
L421.085 217.885
L421.308 206.029
L421.531 214.114
L421.754 211.98
L421.978 217.891
L422.201 206.025
L422.424 214.124
L422.647 211.971
L422.87 217.897
L423.094 206.021
L423.317 214.133
L423.54 211.963
L423.763 217.903
L423.986 206.017
L424.21 214.143
L424.433 211.954
L424.656 217.909
L424.879 206.013
L425.102 214.153
L425.326 211.946
L425.549 217.915
L425.772 206.01
L425.995 214.163
L426.218 211.937
L426.442 217.92
L426.665 206.006
L426.888 214.172
L427.111 211.929
L427.334 217.926
L427.558 206.002
L427.781 214.182
L428.004 211.921
L428.227 217.932
L428.45 205.998
L428.674 214.192
L428.897 211.912
L429.12 217.938
L429.343 205.994
L429.566 214.201
L429.79 211.904
L430.013 217.943
L430.236 205.99
L430.459 214.211
L430.682 211.896
L430.906 217.949
L431.129 205.986
L431.352 214.22
L431.575 211.888
L431.798 217.955
L432.022 205.982
L432.245 214.229
L432.468 211.88
L432.691 217.96
L432.914 205.978
L433.138 214.238
L433.361 211.872
L433.584 217.966
L433.807 205.974
L434.03 214.248
L434.254 211.864
L434.477 217.971
L434.7 205.97
L434.923 214.257
L435.146 211.857
L435.37 217.977
L435.593 205.966
L435.816 214.266
L436.039 211.849
L436.262 217.983
L436.486 205.963
L436.709 214.275
L436.932 211.841
L437.155 217.988
L437.378 205.959
L437.602 214.284
L437.825 211.834
L438.048 217.994
L438.271 205.955
L438.494 214.293
L438.718 211.826
L438.941 217.999
L439.164 205.951
L439.387 214.302
L439.61 211.819
L439.834 218.005
L440.057 205.947
L440.28 214.311
L440.503 211.811
L440.726 218.01
L440.95 205.943
L441.173 214.319
L441.396 211.804
L441.619 218.016
L441.842 205.939
L442.066 214.328
L442.289 211.797
L442.512 218.021
L442.735 205.936
L442.958 214.337
L443.182 211.789
L443.405 218.027
L443.628 205.932
L443.851 214.345
L444.074 211.782
L444.298 218.032
L444.521 205.928
L444.744 214.354
L444.967 211.775
L445.19 218.038
L445.414 205.924
L445.637 214.362
L445.86 211.768
L446.083 218.043
L446.306 205.92
L446.53 214.371
L446.753 211.761
L446.976 218.048
L447.199 205.917
L447.422 214.379
L447.646 211.754
L447.869 218.054
L448.092 205.913
L448.315 214.387
L448.538 211.747
L448.762 218.059
L448.985 205.909
L449.208 214.396
L449.431 211.74
L449.654 218.065
L449.878 205.905
L450.101 214.404
L450.324 211.734
L450.547 218.07
L450.77 205.902
L450.994 214.412
L451.217 211.727
L451.44 218.075
L451.663 205.898
L451.886 214.42
L452.11 211.72
L452.333 218.081
L452.556 205.894
L452.779 214.428
L453.002 211.714
L453.226 218.086
L453.449 205.89
L453.672 214.436
L453.895 211.707
L454.118 218.091
L454.342 205.887
L454.565 214.444
L454.788 211.701
L455.011 218.096
L455.234 205.883
L455.458 214.452
L455.681 211.694
L455.904 218.102
L456.127 205.879
L456.35 214.46
L456.574 211.688
L456.797 218.107
L457.02 205.876
L457.243 214.468
L457.466 211.681
L457.69 218.112
L457.913 205.872
L458.136 214.475
L458.359 211.675
L458.582 218.117
L458.806 205.868
L459.029 214.483
L459.252 211.669
L459.475 218.123
L459.698 205.865
L459.922 214.491
L460.145 211.663
L460.368 218.128
L460.591 205.861
L460.814 214.498
L461.038 211.657
L461.261 218.133
L461.484 205.857
L461.707 214.506
L461.93 211.651
L462.154 218.138
L462.377 205.854
L462.6 214.513
L462.823 211.645
L463.046 218.143
L463.27 205.85
L463.493 214.521
L463.716 211.639
L463.939 218.148
L464.162 205.846
L464.386 214.528
L464.609 211.633
L464.832 218.154
L465.055 205.843
L465.278 214.535
L465.502 211.627
L465.725 218.159
L465.948 205.839
L466.171 214.543
L466.394 211.621
L466.618 218.164
L466.841 205.836
L467.064 214.55
L467.287 211.615
L467.51 218.169
L467.734 205.832
L467.957 214.557
L468.18 211.609
L468.403 218.174
L468.626 205.828
L468.85 214.564
L469.073 211.604
L469.296 218.179
L469.519 205.825
L469.742 214.571
L469.966 211.598
L470.189 218.184
L470.412 205.821
L470.635 214.578
L470.858 211.593
L471.082 218.189
L471.305 205.818
L471.528 214.585
L471.751 211.587
L471.974 218.194
L472.198 205.814
L472.421 214.592
L472.644 211.582
L472.867 218.199
L473.09 205.811
L473.314 214.599
L473.537 211.576
L473.76 218.204
L473.983 205.807
L474.206 214.606
L474.43 211.571
L474.653 218.209
L474.876 205.804
L475.099 214.613
L475.322 211.565
L475.546 218.214
L475.769 205.8
L475.992 214.62
L476.215 211.56
L476.438 218.219
L476.662 205.797
L476.885 214.626
L477.108 211.555
L477.331 218.224
L477.554 205.793
L477.778 214.633
L478.001 211.55
L478.224 218.229
L478.447 205.79
L478.67 214.64
L478.894 211.544
L479.117 218.234
L479.34 205.786
L479.563 214.646
L479.786 211.539
L480.01 218.239
L480.233 205.783
L480.456 214.653
L480.679 211.534
L480.902 218.244
L481.126 205.779
L481.349 214.659
L481.572 211.529
L481.795 218.249
L482.018 205.776
L482.242 214.666
L482.465 211.524
L482.688 218.254
L482.911 205.773
L483.134 214.672
L483.358 211.519
L483.581 218.259
L483.804 205.769
L484.027 214.679
L484.25 211.514
L484.474 218.263
L484.697 205.766
L484.92 214.685
L485.143 211.51
L485.366 218.268
L485.59 205.762
L485.813 214.691
L486.036 211.505
L486.259 218.273
L486.482 205.759
L486.706 214.697
L486.929 211.5
L487.152 218.278
L487.375 205.756
L487.598 214.704
L487.822 211.495
L488.045 218.283
L488.268 205.752
L488.491 214.71
L488.714 211.491
L488.938 218.288
L489.161 205.749
L489.384 214.716
L489.607 211.486
L489.83 218.293
L490.054 205.745
L490.277 214.722
L490.5 211.481
L490.723 218.297
L490.946 205.742
L491.17 214.728
L491.393 211.477
L491.616 218.302
L491.839 205.739
L492.062 214.734
L492.286 211.472
L492.509 218.307
L492.732 205.735
L492.955 214.74
L493.178 211.468
L493.402 218.312
L493.625 205.732
L493.848 214.746
L494.071 211.463
L494.294 218.316
L494.518 205.729
L494.741 214.752
L494.964 211.459
L495.187 218.321
L495.41 205.726
L495.634 214.757
L495.857 211.455
L496.08 218.326
L496.303 205.722
L496.526 214.763
L496.75 211.45
L496.973 218.331
L497.196 205.719
L497.419 214.769
L497.642 211.446
L497.866 218.335
L498.089 205.716
L498.312 214.774
L498.535 211.442
L498.758 218.34
L498.982 205.712
L499.205 214.78
L499.428 211.438
L499.651 218.345
L499.874 205.709
L500.098 214.786
L500.321 211.434
L500.544 218.349
L500.767 205.706
L500.99 214.791
L501.214 211.429
L501.437 218.354
L501.66 205.703
L501.883 214.797
L502.106 211.425
L502.33 218.359
L502.553 205.7
L502.776 214.802
L502.999 211.421
L503.222 218.363
L503.446 205.696
L503.669 214.808
L503.892 211.417
L504.115 218.368
L504.338 205.693
L504.562 214.813
L504.785 211.413
L505.008 218.373
L505.231 205.69
L505.454 214.818
L505.678 211.409
L505.901 218.377
L506.124 205.687
L506.347 214.824
L506.57 211.406
L506.794 218.382
L507.017 205.684
L507.24 214.829
L507.463 211.402
L507.686 218.387
L507.91 205.68
L508.133 214.834
L508.356 211.398
L508.579 218.391
L508.802 205.677
L509.026 214.84
L509.249 211.394
L509.472 218.396
L509.695 205.674
L509.918 214.845
L510.142 211.39
L510.365 218.4
L510.588 205.671
L510.811 214.85
L511.034 211.387
L511.258 218.405
L511.481 205.668
L511.704 214.855
L511.927 211.383
L512.15 218.41
L512.374 205.665
L512.597 214.86
L512.82 211.379
L513.043 218.414
L513.266 205.662
L513.49 214.865
L513.713 211.376
L513.936 218.419
L514.159 205.658
L514.382 214.87
L514.606 211.372
L514.829 218.423
L515.052 205.655
L515.275 214.875
L515.498 211.369
L515.722 218.428
L515.945 205.652
L516.168 214.88
L516.391 211.365
L516.614 218.432
L516.838 205.649
L517.061 214.885
L517.284 211.362
L517.507 218.437
L517.73 205.646
L517.954 214.89
L518.177 211.358
L518.4 218.441
L518.4 218.441" style="fill:none;stroke:#0000ff;stroke-linecap:square;"/>
   </g>
   <g id="matplotlib.axis_1">
    <g id="xtick_1">
     <g id="line2d_2">
      <defs>
       <path d="
M0 0
L0 -4" id="mc7db9fdffb" style="stroke:#000000;stroke-width:0.5;"/>
      </defs>
      <g>
       <use style="stroke:#000000;stroke-width:0.5;" x="72.0" xlink:href="#mc7db9fdffb" y="388.8"/>
      </g>
     </g>
     <g id="line2d_3">
      <defs>
       <path d="
M0 0
L0 4" id="m5a7d422ac3" style="stroke:#000000;stroke-width:0.5;"/>
      </defs>
      <g>
       <use style="stroke:#000000;stroke-width:0.5;" x="72.0" xlink:href="#m5a7d422ac3" y="43.2"/>
      </g>
     </g>
     <g id="text_1">
      <!-- 0 -->
      <defs>
       <path d="
M31.7812 66.4062
Q24.1719 66.4062 20.3281 58.9062
Q16.5 51.4219 16.5 36.375
Q16.5 21.3906 20.3281 13.8906
Q24.1719 6.39062 31.7812 6.39062
Q39.4531 6.39062 43.2812 13.8906
Q47.125 21.3906 47.125 36.375
Q47.125 51.4219 43.2812 58.9062
Q39.4531 66.4062 31.7812 66.4062
M31.7812 74.2188
Q44.0469 74.2188 50.5156 64.5156
Q56.9844 54.8281 56.9844 36.375
Q56.9844 17.9688 50.5156 8.26562
Q44.0469 -1.42188 31.7812 -1.42188
Q19.5312 -1.42188 13.0625 8.26562
Q6.59375 17.9688 6.59375 36.375
Q6.59375 54.8281 13.0625 64.5156
Q19.5312 74.2188 31.7812 74.2188" id="DejaVuSans-30"/>
      </defs>
      <g transform="translate(68.9765625 401.918125)scale(0.12 -0.12)">
       <use xlink:href="#DejaVuSans-30"/>
      </g>
     </g>
    </g>
    <g id="xtick_2">
     <g id="line2d_4">
      <g>
       <use style="stroke:#000000;stroke-width:0.5;" x="183.6" xlink:href="#mc7db9fdffb" y="388.8"/>
      </g>
     </g>
     <g id="line2d_5">
      <g>
       <use style="stroke:#000000;stroke-width:0.5;" x="183.6" xlink:href="#m5a7d422ac3" y="43.2"/>
      </g>
     </g>
     <g id="text_2">
      <!-- 500 -->
      <defs>
       <path d="
M10.7969 72.9062
L49.5156 72.9062
L49.5156 64.5938
L19.8281 64.5938
L19.8281 46.7344
Q21.9688 47.4688 24.1094 47.8281
Q26.2656 48.1875 28.4219 48.1875
Q40.625 48.1875 47.75 41.5
Q54.8906 34.8125 54.8906 23.3906
Q54.8906 11.625 47.5625 5.09375
Q40.2344 -1.42188 26.9062 -1.42188
Q22.3125 -1.42188 17.5469 -0.640625
Q12.7969 0.140625 7.71875 1.70312
L7.71875 11.625
Q12.1094 9.23438 16.7969 8.0625
Q21.4844 6.89062 26.7031 6.89062
Q35.1562 6.89062 40.0781 11.3281
Q45.0156 15.7656 45.0156 23.3906
Q45.0156 31 40.0781 35.4375
Q35.1562 39.8906 26.7031 39.8906
Q22.75 39.8906 18.8125 39.0156
Q14.8906 38.1406 10.7969 36.2812
z
" id="DejaVuSans-35"/>
      </defs>
      <g transform="translate(173.0090625 401.918125)scale(0.12 -0.12)">
       <use xlink:href="#DejaVuSans-35"/>
       <use x="63.623046875" xlink:href="#DejaVuSans-30"/>
       <use x="127.24609375" xlink:href="#DejaVuSans-30"/>
      </g>
     </g>
    </g>
    <g id="xtick_3">
     <g id="line2d_6">
      <g>
       <use style="stroke:#000000;stroke-width:0.5;" x="295.2" xlink:href="#mc7db9fdffb" y="388.8"/>
      </g>
     </g>
     <g id="line2d_7">
      <g>
       <use style="stroke:#000000;stroke-width:0.5;" x="295.2" xlink:href="#m5a7d422ac3" y="43.2"/>
      </g>
     </g>
     <g id="text_3">
      <!-- 1000 -->
      <defs>
       <path d="
M12.4062 8.29688
L28.5156 8.29688
L28.5156 63.9219
L10.9844 60.4062
L10.9844 69.3906
L28.4219 72.9062
L38.2812 72.9062
L38.2812 8.29688
L54.3906 8.29688
L54.3906 0
L12.4062 0
z
" id="DejaVuSans-31"/>
      </defs>
      <g transform="translate(280.9875 401.918125)scale(0.12 -0.12)">
       <use xlink:href="#DejaVuSans-31"/>
       <use x="63.623046875" xlink:href="#DejaVuSans-30"/>
       <use x="127.24609375" xlink:href="#DejaVuSans-30"/>
       <use x="190.869140625" xlink:href="#DejaVuSans-30"/>
      </g>
     </g>
    </g>
    <g id="xtick_4">
     <g id="line2d_8">
      <g>
       <use style="stroke:#000000;stroke-width:0.5;" x="406.8" xlink:href="#mc7db9fdffb" y="388.8"/>
      </g>
     </g>
     <g id="line2d_9">
      <g>
       <use style="stroke:#000000;stroke-width:0.5;" x="406.8" xlink:href="#m5a7d422ac3" y="43.2"/>
      </g>
     </g>
     <g id="text_4">
      <!-- 1500 -->
      <g transform="translate(392.5875 401.918125)scale(0.12 -0.12)">
       <use xlink:href="#DejaVuSans-31"/>
       <use x="63.623046875" xlink:href="#DejaVuSans-35"/>
       <use x="127.24609375" xlink:href="#DejaVuSans-30"/>
       <use x="190.869140625" xlink:href="#DejaVuSans-30"/>
      </g>
     </g>
    </g>
    <g id="xtick_5">
     <g id="line2d_10">
      <g>
       <use style="stroke:#000000;stroke-width:0.5;" x="518.4" xlink:href="#mc7db9fdffb" y="388.8"/>
      </g>
     </g>
     <g id="line2d_11">
      <g>
       <use style="stroke:#000000;stroke-width:0.5;" x="518.4" xlink:href="#m5a7d422ac3" y="43.2"/>
      </g>
     </g>
     <g id="text_5">
      <!-- 2000 -->
      <defs>
       <path d="
M19.1875 8.29688
L53.6094 8.29688
L53.6094 0
L7.32812 0
L7.32812 8.29688
Q12.9375 14.1094 22.625 23.8906
Q32.3281 33.6875 34.8125 36.5312
Q39.5469 41.8438 41.4219 45.5312
Q43.3125 49.2188 43.3125 52.7812
Q43.3125 58.5938 39.2344 62.25
Q35.1562 65.9219 28.6094 65.9219
Q23.9688 65.9219 18.8125 64.3125
Q13.6719 62.7031 7.8125 59.4219
L7.8125 69.3906
Q13.7656 71.7812 18.9375 73
Q24.125 74.2188 28.4219 74.2188
Q39.75 74.2188 46.4844 68.5469
Q53.2188 62.8906 53.2188 53.4219
Q53.2188 48.9219 51.5312 44.8906
Q49.8594 40.875 45.4062 35.4062
Q44.1875 33.9844 37.6406 27.2188
Q31.1094 20.4531 19.1875 8.29688" id="DejaVuSans-32"/>
      </defs>
      <g transform="translate(503.968125 401.918125)scale(0.12 -0.12)">
       <use xlink:href="#DejaVuSans-32"/>
       <use x="63.623046875" xlink:href="#DejaVuSans-30"/>
       <use x="127.24609375" xlink:href="#DejaVuSans-30"/>
       <use x="190.869140625" xlink:href="#DejaVuSans-30"/>
      </g>
     </g>
    </g>
    <g id="text_6">
     <!-- Runs -->
     <defs>
      <path d="
M8.5 21.5781
L8.5 54.6875
L17.4844 54.6875
L17.4844 21.9219
Q17.4844 14.1562 20.5 10.2656
Q23.5312 6.39062 29.5938 6.39062
Q36.8594 6.39062 41.0781 11.0312
Q45.3125 15.6719 45.3125 23.6875
L45.3125 54.6875
L54.2969 54.6875
L54.2969 0
L45.3125 0
L45.3125 8.40625
Q42.0469 3.42188 37.7188 1
Q33.4062 -1.42188 27.6875 -1.42188
Q18.2656 -1.42188 13.375 4.4375
Q8.5 10.2969 8.5 21.5781
M31.1094 56
z
" id="DejaVuSans-75"/>
      <path d="
M44.2812 53.0781
L44.2812 44.5781
Q40.4844 46.5312 36.375 47.5
Q32.2812 48.4844 27.875 48.4844
Q21.1875 48.4844 17.8438 46.4375
Q14.5 44.3906 14.5 40.2812
Q14.5 37.1562 16.8906 35.375
Q19.2812 33.5938 26.5156 31.9844
L29.5938 31.2969
Q39.1562 29.25 43.1875 25.5156
Q47.2188 21.7812 47.2188 15.0938
Q47.2188 7.46875 41.1875 3.01562
Q35.1562 -1.42188 24.6094 -1.42188
Q20.2188 -1.42188 15.4531 -0.5625
Q10.6875 0.296875 5.42188 2
L5.42188 11.2812
Q10.4062 8.6875 15.2344 7.39062
Q20.0625 6.10938 24.8125 6.10938
Q31.1562 6.10938 34.5625 8.28125
Q37.9844 10.4531 37.9844 14.4062
Q37.9844 18.0625 35.5156 20.0156
Q33.0625 21.9688 24.7031 23.7812
L21.5781 24.5156
Q13.2344 26.2656 9.51562 29.9062
Q5.8125 33.5469 5.8125 39.8906
Q5.8125 47.6094 11.2812 51.7969
Q16.75 56 26.8125 56
Q31.7812 56 36.1719 55.2656
Q40.5781 54.5469 44.2812 53.0781" id="DejaVuSans-73"/>
      <path d="
M44.3906 34.1875
Q47.5625 33.1094 50.5625 29.5938
Q53.5625 26.0781 56.5938 19.9219
L66.6094 0
L56 0
L46.6875 18.7031
Q43.0625 26.0312 39.6719 28.4219
Q36.2812 30.8125 30.4219 30.8125
L19.6719 30.8125
L19.6719 0
L9.8125 0
L9.8125 72.9062
L32.0781 72.9062
Q44.5781 72.9062 50.7344 67.6719
Q56.8906 62.4531 56.8906 51.9062
Q56.8906 45.0156 53.6875 40.4688
Q50.4844 35.9375 44.3906 34.1875
M19.6719 64.7969
L19.6719 38.9219
L32.0781 38.9219
Q39.2031 38.9219 42.8438 42.2188
Q46.4844 45.5156 46.4844 51.9062
Q46.4844 58.2969 42.8438 61.5469
Q39.2031 64.7969 32.0781 64.7969
z
" id="DejaVuSans-52"/>
      <path d="
M54.8906 33.0156
L54.8906 0
L45.9062 0
L45.9062 32.7188
Q45.9062 40.4844 42.875 44.3281
Q39.8438 48.1875 33.7969 48.1875
Q26.5156 48.1875 22.3125 43.5469
Q18.1094 38.9219 18.1094 30.9062
L18.1094 0
L9.07812 0
L9.07812 54.6875
L18.1094 54.6875
L18.1094 46.1875
Q21.3438 51.125 25.7031 53.5625
Q30.0781 56 35.7969 56
Q45.2188 56 50.0469 50.1719
Q54.8906 44.3438 54.8906 33.0156" id="DejaVuSans-6e"/>
     </defs>
     <g transform="translate(281.4515625 418.531875)scale(0.12 -0.12)">
      <use xlink:href="#DejaVuSans-52"/>
      <use x="64.982421875" xlink:href="#DejaVuSans-75"/>
      <use x="128.361328125" xlink:href="#DejaVuSans-6e"/>
      <use x="191.740234375" xlink:href="#DejaVuSans-73"/>
     </g>
    </g>
   </g>
   <g id="matplotlib.axis_2">
    <g id="ytick_1">
     <g id="line2d_12">
      <defs>
       <path d="
M0 0
L4 0" id="md7965d1ba0" style="stroke:#000000;stroke-width:0.5;"/>
      </defs>
      <g>
       <use style="stroke:#000000;stroke-width:0.5;" x="72.0" xlink:href="#md7965d1ba0" y="388.8"/>
      </g>
     </g>
     <g id="line2d_13">
      <defs>
       <path d="
M0 0
L-4 0" id="md9a1c1a7cd" style="stroke:#000000;stroke-width:0.5;"/>
      </defs>
      <g>
       <use style="stroke:#000000;stroke-width:0.5;" x="518.4" xlink:href="#md9a1c1a7cd" y="388.8"/>
      </g>
     </g>
     <g id="text_7">
      <!-- 0.6 -->
      <defs>
       <path d="
M33.0156 40.375
Q26.375 40.375 22.4844 35.8281
Q18.6094 31.2969 18.6094 23.3906
Q18.6094 15.5312 22.4844 10.9531
Q26.375 6.39062 33.0156 6.39062
Q39.6562 6.39062 43.5312 10.9531
Q47.4062 15.5312 47.4062 23.3906
Q47.4062 31.2969 43.5312 35.8281
Q39.6562 40.375 33.0156 40.375
M52.5938 71.2969
L52.5938 62.3125
Q48.875 64.0625 45.0938 64.9844
Q41.3125 65.9219 37.5938 65.9219
Q27.8281 65.9219 22.6719 59.3281
Q17.5312 52.7344 16.7969 39.4062
Q19.6719 43.6562 24.0156 45.9219
Q28.375 48.1875 33.5938 48.1875
Q44.5781 48.1875 50.9531 41.5156
Q57.3281 34.8594 57.3281 23.3906
Q57.3281 12.1562 50.6875 5.35938
Q44.0469 -1.42188 33.0156 -1.42188
Q20.3594 -1.42188 13.6719 8.26562
Q6.98438 17.9688 6.98438 36.375
Q6.98438 53.6562 15.1875 63.9375
Q23.3906 74.2188 37.2031 74.2188
Q40.9219 74.2188 44.7031 73.4844
Q48.4844 72.75 52.5938 71.2969" id="DejaVuSans-36"/>
       <path d="
M10.6875 12.4062
L21 12.4062
L21 0
L10.6875 0
z
" id="DejaVuSans-2e"/>
      </defs>
      <g transform="translate(50.463125 392.11125)scale(0.12 -0.12)">
       <use xlink:href="#DejaVuSans-30"/>
       <use x="63.623046875" xlink:href="#DejaVuSans-2e"/>
       <use x="95.41015625" xlink:href="#DejaVuSans-36"/>
      </g>
     </g>
    </g>
    <g id="ytick_2">
     <g id="line2d_14">
      <g>
       <use style="stroke:#000000;stroke-width:0.5;" x="72.0" xlink:href="#md7965d1ba0" y="345.6"/>
      </g>
     </g>
     <g id="line2d_15">
      <g>
       <use style="stroke:#000000;stroke-width:0.5;" x="518.4" xlink:href="#md9a1c1a7cd" y="345.6"/>
      </g>
     </g>
     <g id="text_8">
      <!-- 0.7 -->
      <defs>
       <path d="
M8.20312 72.9062
L55.0781 72.9062
L55.0781 68.7031
L28.6094 0
L18.3125 0
L43.2188 64.5938
L8.20312 64.5938
z
" id="DejaVuSans-37"/>
      </defs>
      <g transform="translate(50.733125 348.91125)scale(0.12 -0.12)">
       <use xlink:href="#DejaVuSans-30"/>
       <use x="63.623046875" xlink:href="#DejaVuSans-2e"/>
       <use x="95.41015625" xlink:href="#DejaVuSans-37"/>
      </g>
     </g>
    </g>
    <g id="ytick_3">
     <g id="line2d_16">
      <g>
       <use style="stroke:#000000;stroke-width:0.5;" x="72.0" xlink:href="#md7965d1ba0" y="302.4"/>
      </g>
     </g>
     <g id="line2d_17">
      <g>
       <use style="stroke:#000000;stroke-width:0.5;" x="518.4" xlink:href="#md9a1c1a7cd" y="302.4"/>
      </g>
     </g>
     <g id="text_9">
      <!-- 0.8 -->
      <defs>
       <path d="
M31.7812 34.625
Q24.75 34.625 20.7188 30.8594
Q16.7031 27.0938 16.7031 20.5156
Q16.7031 13.9219 20.7188 10.1562
Q24.75 6.39062 31.7812 6.39062
Q38.8125 6.39062 42.8594 10.1719
Q46.9219 13.9688 46.9219 20.5156
Q46.9219 27.0938 42.8906 30.8594
Q38.875 34.625 31.7812 34.625
M21.9219 38.8125
Q15.5781 40.375 12.0312 44.7188
Q8.5 49.0781 8.5 55.3281
Q8.5 64.0625 14.7188 69.1406
Q20.9531 74.2188 31.7812 74.2188
Q42.6719 74.2188 48.875 69.1406
Q55.0781 64.0625 55.0781 55.3281
Q55.0781 49.0781 51.5312 44.7188
Q48 40.375 41.7031 38.8125
Q48.8281 37.1562 52.7969 32.3125
Q56.7812 27.4844 56.7812 20.5156
Q56.7812 9.90625 50.3125 4.23438
Q43.8438 -1.42188 31.7812 -1.42188
Q19.7344 -1.42188 13.25 4.23438
Q6.78125 9.90625 6.78125 20.5156
Q6.78125 27.4844 10.7812 32.3125
Q14.7969 37.1562 21.9219 38.8125
M18.3125 54.3906
Q18.3125 48.7344 21.8438 45.5625
Q25.3906 42.3906 31.7812 42.3906
Q38.1406 42.3906 41.7188 45.5625
Q45.3125 48.7344 45.3125 54.3906
Q45.3125 60.0625 41.7188 63.2344
Q38.1406 66.4062 31.7812 66.4062
Q25.3906 66.4062 21.8438 63.2344
Q18.3125 60.0625 18.3125 54.3906" id="DejaVuSans-38"/>
      </defs>
      <g transform="translate(50.52875 305.71125)scale(0.12 -0.12)">
       <use xlink:href="#DejaVuSans-30"/>
       <use x="63.623046875" xlink:href="#DejaVuSans-2e"/>
       <use x="95.41015625" xlink:href="#DejaVuSans-38"/>
      </g>
     </g>
    </g>
    <g id="ytick_4">
     <g id="line2d_18">
      <g>
       <use style="stroke:#000000;stroke-width:0.5;" x="72.0" xlink:href="#md7965d1ba0" y="259.2"/>
      </g>
     </g>
     <g id="line2d_19">
      <g>
       <use style="stroke:#000000;stroke-width:0.5;" x="518.4" xlink:href="#md9a1c1a7cd" y="259.2"/>
      </g>
     </g>
     <g id="text_10">
      <!-- 0.9 -->
      <defs>
       <path d="
M10.9844 1.51562
L10.9844 10.5
Q14.7031 8.73438 18.5 7.8125
Q22.3125 6.89062 25.9844 6.89062
Q35.75 6.89062 40.8906 13.4531
Q46.0469 20.0156 46.7812 33.4062
Q43.9531 29.2031 39.5938 26.9531
Q35.25 24.7031 29.9844 24.7031
Q19.0469 24.7031 12.6719 31.3125
Q6.29688 37.9375 6.29688 49.4219
Q6.29688 60.6406 12.9375 67.4219
Q19.5781 74.2188 30.6094 74.2188
Q43.2656 74.2188 49.9219 64.5156
Q56.5938 54.8281 56.5938 36.375
Q56.5938 19.1406 48.4062 8.85938
Q40.2344 -1.42188 26.4219 -1.42188
Q22.7031 -1.42188 18.8906 -0.6875
Q15.0938 0.046875 10.9844 1.51562
M30.6094 32.4219
Q37.25 32.4219 41.125 36.9531
Q45.0156 41.5 45.0156 49.4219
Q45.0156 57.2812 41.125 61.8438
Q37.25 66.4062 30.6094 66.4062
Q23.9688 66.4062 20.0938 61.8438
Q16.2188 57.2812 16.2188 49.4219
Q16.2188 41.5 20.0938 36.9531
Q23.9688 32.4219 30.6094 32.4219" id="DejaVuSans-39"/>
      </defs>
      <g transform="translate(50.55125 262.51125)scale(0.12 -0.12)">
       <use xlink:href="#DejaVuSans-30"/>
       <use x="63.623046875" xlink:href="#DejaVuSans-2e"/>
       <use x="95.41015625" xlink:href="#DejaVuSans-39"/>
      </g>
     </g>
    </g>
    <g id="ytick_5">
     <g id="line2d_20">
      <g>
       <use style="stroke:#000000;stroke-width:0.5;" x="72.0" xlink:href="#md7965d1ba0" y="216.0"/>
      </g>
     </g>
     <g id="line2d_21">
      <g>
       <use style="stroke:#000000;stroke-width:0.5;" x="518.4" xlink:href="#md9a1c1a7cd" y="216.0"/>
      </g>
     </g>
     <g id="text_11">
      <!-- 1.0 -->
      <g transform="translate(51.03125 219.31125)scale(0.12 -0.12)">
       <use xlink:href="#DejaVuSans-31"/>
       <use x="63.623046875" xlink:href="#DejaVuSans-2e"/>
       <use x="95.41015625" xlink:href="#DejaVuSans-30"/>
      </g>
     </g>
    </g>
    <g id="ytick_6">
     <g id="line2d_22">
      <g>
       <use style="stroke:#000000;stroke-width:0.5;" x="72.0" xlink:href="#md7965d1ba0" y="172.8"/>
      </g>
     </g>
     <g id="line2d_23">
      <g>
       <use style="stroke:#000000;stroke-width:0.5;" x="518.4" xlink:href="#md9a1c1a7cd" y="172.8"/>
      </g>
     </g>
     <g id="text_12">
      <!-- 1.1 -->
      <g transform="translate(51.3425 176.11125)scale(0.12 -0.12)">
       <use xlink:href="#DejaVuSans-31"/>
       <use x="63.623046875" xlink:href="#DejaVuSans-2e"/>
       <use x="95.41015625" xlink:href="#DejaVuSans-31"/>
      </g>
     </g>
    </g>
    <g id="ytick_7">
     <g id="line2d_24">
      <g>
       <use style="stroke:#000000;stroke-width:0.5;" x="72.0" xlink:href="#md7965d1ba0" y="129.6"/>
      </g>
     </g>
     <g id="line2d_25">
      <g>
       <use style="stroke:#000000;stroke-width:0.5;" x="518.4" xlink:href="#md9a1c1a7cd" y="129.6"/>
      </g>
     </g>
     <g id="text_13">
      <!-- 1.2 -->
      <g transform="translate(51.43625 132.91125)scale(0.12 -0.12)">
       <use xlink:href="#DejaVuSans-31"/>
       <use x="63.623046875" xlink:href="#DejaVuSans-2e"/>
       <use x="95.41015625" xlink:href="#DejaVuSans-32"/>
      </g>
     </g>
    </g>
    <g id="ytick_8">
     <g id="line2d_26">
      <g>
       <use style="stroke:#000000;stroke-width:0.5;" x="72.0" xlink:href="#md7965d1ba0" y="86.4"/>
      </g>
     </g>
     <g id="line2d_27">
      <g>
       <use style="stroke:#000000;stroke-width:0.5;" x="518.4" xlink:href="#md9a1c1a7cd" y="86.4"/>
      </g>
     </g>
     <g id="text_14">
      <!-- 1.3 -->
      <defs>
       <path d="
M40.5781 39.3125
Q47.6562 37.7969 51.625 33
Q55.6094 28.2188 55.6094 21.1875
Q55.6094 10.4062 48.1875 4.48438
Q40.7656 -1.42188 27.0938 -1.42188
Q22.5156 -1.42188 17.6562 -0.515625
Q12.7969 0.390625 7.625 2.20312
L7.625 11.7188
Q11.7188 9.32812 16.5938 8.10938
Q21.4844 6.89062 26.8125 6.89062
Q36.0781 6.89062 40.9375 10.5469
Q45.7969 14.2031 45.7969 21.1875
Q45.7969 27.6406 41.2812 31.2656
Q36.7656 34.9062 28.7188 34.9062
L20.2188 34.9062
L20.2188 43.0156
L29.1094 43.0156
Q36.375 43.0156 40.2344 45.9219
Q44.0938 48.8281 44.0938 54.2969
Q44.0938 59.9062 40.1094 62.9062
Q36.1406 65.9219 28.7188 65.9219
Q24.6562 65.9219 20.0156 65.0312
Q15.375 64.1562 9.8125 62.3125
L9.8125 71.0938
Q15.4375 72.6562 20.3438 73.4375
Q25.25 74.2188 29.5938 74.2188
Q40.8281 74.2188 47.3594 69.1094
Q53.9062 64.0156 53.9062 55.3281
Q53.9062 49.2656 50.4375 45.0938
Q46.9688 40.9219 40.5781 39.3125" id="DejaVuSans-33"/>
      </defs>
      <g transform="translate(51.19625 89.71125)scale(0.12 -0.12)">
       <use xlink:href="#DejaVuSans-31"/>
       <use x="63.623046875" xlink:href="#DejaVuSans-2e"/>
       <use x="95.41015625" xlink:href="#DejaVuSans-33"/>
      </g>
     </g>
    </g>
    <g id="ytick_9">
     <g id="line2d_28">
      <g>
       <use style="stroke:#000000;stroke-width:0.5;" x="72.0" xlink:href="#md7965d1ba0" y="43.2"/>
      </g>
     </g>
     <g id="line2d_29">
      <g>
       <use style="stroke:#000000;stroke-width:0.5;" x="518.4" xlink:href="#md9a1c1a7cd" y="43.2"/>
      </g>
     </g>
     <g id="text_15">
      <!-- 1.4 -->
      <defs>
       <path d="
M37.7969 64.3125
L12.8906 25.3906
L37.7969 25.3906
z

M35.2031 72.9062
L47.6094 72.9062
L47.6094 25.3906
L58.0156 25.3906
L58.0156 17.1875
L47.6094 17.1875
L47.6094 0
L37.7969 0
L37.7969 17.1875
L4.89062 17.1875
L4.89062 26.7031
z
" id="DejaVuSans-34"/>
      </defs>
      <g transform="translate(50.9075 46.51125)scale(0.12 -0.12)">
       <use xlink:href="#DejaVuSans-31"/>
       <use x="63.623046875" xlink:href="#DejaVuSans-2e"/>
       <use x="95.41015625" xlink:href="#DejaVuSans-34"/>
      </g>
     </g>
    </g>
    <g id="text_16">
     <!-- Cost -->
     <defs>
      <path d="
M64.4062 67.2812
L64.4062 56.8906
Q59.4219 61.5312 53.7812 63.8125
Q48.1406 66.1094 41.7969 66.1094
Q29.2969 66.1094 22.6562 58.4688
Q16.0156 50.8281 16.0156 36.375
Q16.0156 21.9688 22.6562 14.3281
Q29.2969 6.6875 41.7969 6.6875
Q48.1406 6.6875 53.7812 8.98438
Q59.4219 11.2812 64.4062 15.9219
L64.4062 5.60938
Q59.2344 2.09375 53.4375 0.328125
Q47.6562 -1.42188 41.2188 -1.42188
Q24.6562 -1.42188 15.125 8.70312
Q5.60938 18.8438 5.60938 36.375
Q5.60938 53.9531 15.125 64.0781
Q24.6562 74.2188 41.2188 74.2188
Q47.75 74.2188 53.5312 72.4844
Q59.3281 70.75 64.4062 67.2812" id="DejaVuSans-43"/>
      <path d="
M18.3125 70.2188
L18.3125 54.6875
L36.8125 54.6875
L36.8125 47.7031
L18.3125 47.7031
L18.3125 18.0156
Q18.3125 11.3281 20.1406 9.42188
Q21.9688 7.51562 27.5938 7.51562
L36.8125 7.51562
L36.8125 0
L27.5938 0
Q17.1875 0 13.2344 3.875
Q9.28125 7.76562 9.28125 18.0156
L9.28125 47.7031
L2.6875 47.7031
L2.6875 54.6875
L9.28125 54.6875
L9.28125 70.2188
z
" id="DejaVuSans-74"/>
      <path d="
M30.6094 48.3906
Q23.3906 48.3906 19.1875 42.75
Q14.9844 37.1094 14.9844 27.2969
Q14.9844 17.4844 19.1562 11.8438
Q23.3438 6.20312 30.6094 6.20312
Q37.7969 6.20312 41.9844 11.8594
Q46.1875 17.5312 46.1875 27.2969
Q46.1875 37.0156 41.9844 42.7031
Q37.7969 48.3906 30.6094 48.3906
M30.6094 56
Q42.3281 56 49.0156 48.375
Q55.7188 40.7656 55.7188 27.2969
Q55.7188 13.875 49.0156 6.21875
Q42.3281 -1.42188 30.6094 -1.42188
Q18.8438 -1.42188 12.1719 6.21875
Q5.51562 13.875 5.51562 27.2969
Q5.51562 40.7656 12.1719 48.375
Q18.8438 56 30.6094 56" id="DejaVuSans-6f"/>
     </defs>
     <g transform="translate(42.9675 228.85875)rotate(-90.0)scale(0.12 -0.12)">
      <use xlink:href="#DejaVuSans-43"/>
      <use x="69.82421875" xlink:href="#DejaVuSans-6f"/>
      <use x="131.005859375" xlink:href="#DejaVuSans-73"/>
      <use x="183.10546875" xlink:href="#DejaVuSans-74"/>
     </g>
    </g>
   </g>
   <g id="patch_3">
    <path d="
M518.4 388.8
L518.4 43.2" style="fill:none;stroke:#000000;"/>
   </g>
   <g id="patch_4">
    <path d="
M72 388.8
L518.4 388.8" style="fill:none;stroke:#000000;"/>
   </g>
   <g id="patch_5">
    <path d="
M72 43.2
L518.4 43.2" style="fill:none;stroke:#000000;"/>
   </g>
   <g id="patch_6">
    <path d="
M72 388.8
L72 43.2" style="fill:none;stroke:#000000;"/>
   </g>
   <g id="text_17">
    <!-- XOR Bipolar -->
    <defs>
     <path d="
M9.42188 54.6875
L18.4062 54.6875
L18.4062 0
L9.42188 0
z

M9.42188 75.9844
L18.4062 75.9844
L18.4062 64.5938
L9.42188 64.5938
z
" id="DejaVuSans-69"/>
     <path d="
M41.1094 46.2969
Q39.5938 47.1719 37.8125 47.5781
Q36.0312 48 33.8906 48
Q26.2656 48 22.1875 43.0469
Q18.1094 38.0938 18.1094 28.8125
L18.1094 0
L9.07812 0
L9.07812 54.6875
L18.1094 54.6875
L18.1094 46.1875
Q20.9531 51.1719 25.4844 53.5781
Q30.0312 56 36.5312 56
Q37.4531 56 38.5781 55.875
Q39.7031 55.7656 41.0625 55.5156
z
" id="DejaVuSans-72"/>
     <path d="
M39.4062 66.2188
Q28.6562 66.2188 22.3281 58.2031
Q16.0156 50.2031 16.0156 36.375
Q16.0156 22.6094 22.3281 14.5938
Q28.6562 6.59375 39.4062 6.59375
Q50.1406 6.59375 56.4219 14.5938
Q62.7031 22.6094 62.7031 36.375
Q62.7031 50.2031 56.4219 58.2031
Q50.1406 66.2188 39.4062 66.2188
M39.4062 74.2188
Q54.7344 74.2188 63.9062 63.9375
Q73.0938 53.6562 73.0938 36.375
Q73.0938 19.1406 63.9062 8.85938
Q54.7344 -1.42188 39.4062 -1.42188
Q24.0312 -1.42188 14.8125 8.82812
Q5.60938 19.0938 5.60938 36.375
Q5.60938 53.6562 14.8125 63.9375
Q24.0312 74.2188 39.4062 74.2188" id="DejaVuSans-4f"/>
     <path d="
M18.1094 8.20312
L18.1094 -20.7969
L9.07812 -20.7969
L9.07812 54.6875
L18.1094 54.6875
L18.1094 46.3906
Q20.9531 51.2656 25.2656 53.625
Q29.5938 56 35.5938 56
Q45.5625 56 51.7812 48.0938
Q58.0156 40.1875 58.0156 27.2969
Q58.0156 14.4062 51.7812 6.48438
Q45.5625 -1.42188 35.5938 -1.42188
Q29.5938 -1.42188 25.2656 0.953125
Q20.9531 3.32812 18.1094 8.20312
M48.6875 27.2969
Q48.6875 37.2031 44.6094 42.8438
Q40.5312 48.4844 33.4062 48.4844
Q26.2656 48.4844 22.1875 42.8438
Q18.1094 37.2031 18.1094 27.2969
Q18.1094 17.3906 22.1875 11.75
Q26.2656 6.10938 33.4062 6.10938
Q40.5312 6.10938 44.6094 11.75
Q48.6875 17.3906 48.6875 27.2969" id="DejaVuSans-70"/>
     <path d="
M19.6719 34.8125
L19.6719 8.10938
L35.5 8.10938
Q43.4531 8.10938 47.2812 11.4062
Q51.125 14.7031 51.125 21.4844
Q51.125 28.3281 47.2812 31.5625
Q43.4531 34.8125 35.5 34.8125
z

M19.6719 64.7969
L19.6719 42.8281
L34.2812 42.8281
Q41.5 42.8281 45.0312 45.5312
Q48.5781 48.25 48.5781 53.8125
Q48.5781 59.3281 45.0312 62.0625
Q41.5 64.7969 34.2812 64.7969
z

M9.8125 72.9062
L35.0156 72.9062
Q46.2969 72.9062 52.3906 68.2188
Q58.5 63.5312 58.5 54.8906
Q58.5 48.1875 55.375 44.2344
Q52.25 40.2812 46.1875 39.3125
Q53.4688 37.75 57.5 32.7812
Q61.5312 27.8281 61.5312 20.4062
Q61.5312 10.6406 54.8906 5.3125
Q48.25 0 35.9844 0
L9.8125 0
z
" id="DejaVuSans-42"/>
     <path d="
M6.29688 72.9062
L16.8906 72.9062
L35.0156 45.7969
L53.2188 72.9062
L63.8125 72.9062
L40.375 37.8906
L65.375 0
L54.7812 0
L34.2812 31
L13.625 0
L2.98438 0
L29 38.9219
z
" id="DejaVuSans-58"/>
     <path d="
M9.42188 75.9844
L18.4062 75.9844
L18.4062 0
L9.42188 0
z
" id="DejaVuSans-6c"/>
     <path d="
M34.2812 27.4844
Q23.3906 27.4844 19.1875 25
Q14.9844 22.5156 14.9844 16.5
Q14.9844 11.7188 18.1406 8.90625
Q21.2969 6.10938 26.7031 6.10938
Q34.1875 6.10938 38.7031 11.4062
Q43.2188 16.7031 43.2188 25.4844
L43.2188 27.4844
z

M52.2031 31.2031
L52.2031 0
L43.2188 0
L43.2188 8.29688
Q40.1406 3.32812 35.5469 0.953125
Q30.9531 -1.42188 24.3125 -1.42188
Q15.9219 -1.42188 10.9531 3.29688
Q6 8.01562 6 15.9219
Q6 25.1406 12.1719 29.8281
Q18.3594 34.5156 30.6094 34.5156
L43.2188 34.5156
L43.2188 35.4062
Q43.2188 41.6094 39.1406 45
Q35.0625 48.3906 27.6875 48.3906
Q23 48.3906 18.5469 47.2656
Q14.1094 46.1406 10.0156 43.8906
L10.0156 52.2031
Q14.9375 54.1094 19.5781 55.0469
Q24.2188 56 28.6094 56
Q40.4844 56 46.3438 49.8438
Q52.2031 43.7031 52.2031 31.2031" id="DejaVuSans-61"/>
     <path id="DejaVuSans-20"/>
    </defs>
    <g transform="translate(252.47925 38.2)scale(0.144 -0.144)">
     <use xlink:href="#DejaVuSans-58"/>
     <use x="62.130859375" xlink:href="#DejaVuSans-4f"/>
     <use x="140.841796875" xlink:href="#DejaVuSans-52"/>
     <use x="210.32421875" xlink:href="#DejaVuSans-20"/>
     <use x="242.111328125" xlink:href="#DejaVuSans-42"/>
     <use x="310.71484375" xlink:href="#DejaVuSans-69"/>
     <use x="338.498046875" xlink:href="#DejaVuSans-70"/>
     <use x="401.974609375" xlink:href="#DejaVuSans-6f"/>
     <use x="463.15625" xlink:href="#DejaVuSans-6c"/>
     <use x="490.939453125" xlink:href="#DejaVuSans-61"/>
     <use x="552.21875" xlink:href="#DejaVuSans-72"/>
    </g>
   </g>
  </g>
 </g>
 <defs>
  <clipPath id="p7ff5b81e1d">
   <rect height="345.6" width="446.4" x="72.0" y="43.2"/>
  </clipPath>
 </defs>
</svg>
