<?xml version="1.0" encoding="utf-8" standalone="no"?>
<!DOCTYPE svg PUBLIC "-//W3C//DTD SVG 1.1//EN"
  "http://www.w3.org/Graphics/SVG/1.1/DTD/svg11.dtd">
<!-- Created with matplotlib (http://matplotlib.org/) -->
<svg height="432pt" version="1.1" viewBox="0 0 576 432" width="576pt" xmlns="http://www.w3.org/2000/svg" xmlns:xlink="http://www.w3.org/1999/xlink">
 <defs>
  <style type="text/css">
*{stroke-linecap:butt;stroke-linejoin:round;}
  </style>
 </defs>
 <g id="figure_1">
  <g id="patch_1">
   <path d="
M0 432
L576 432
L576 0
L0 0
z
" style="fill:#ffffff;"/>
  </g>
  <g id="axes_1">
   <g id="patch_2">
    <path d="
M72 388.8
L518.4 388.8
L518.4 43.2
L72 43.2
z
" style="fill:#ffffff;"/>
   </g>
   <g id="line2d_1">
    <path clip-path="url(#p7ff5b81e1d)" d="
M72.2232 47.3506
L72.4464 366.181
L72.6696 376.267
L72.8928 49.5401
L73.116 63.3264
L73.3392 357.173
L73.5624 367.93
L73.7856 65.4291
L74.0088 78.3068
L74.232 348.304
L74.4552 359.708
L74.6784 80.3031
L74.9016 92.2572
L75.1248 339.661
L75.348 351.681
L75.5712 94.1326
L75.7944 105.172
L76.0176 331.316
L76.2408 343.917
L76.464 106.917
L76.6872 117.068
L76.9104 323.323
L77.1336 336.467
L77.3568 118.68
L77.58 127.981
L77.8032 315.722
L78.0264 329.37
L78.2496 129.46
L78.4728 137.958
L78.696 308.539
L78.9192 322.651
L79.1424 139.31
L79.3656 147.055
L79.5888 301.788
L79.812 316.326
L80.0352 148.286
L80.2584 155.331
L80.4816 295.471
L80.7048 310.398
L80.928 156.451
L81.1512 162.849
L81.3744 289.584
L81.5976 304.867
L81.8208 163.867
L82.044 169.669
L82.2672 284.116
L82.4904 299.723
L82.7136 170.595
L82.9368 175.849
L83.16 279.052
L83.3832 294.954
L83.6064 176.696
L83.8296 181.447
L84.0528 274.374
L84.276 290.544
L84.4992 182.224
L84.7224 186.514
L84.9456 270.062
L85.1688 286.476
L85.392 187.232
L85.6152 191.099
L85.8384 266.094
L86.0616 282.729
L86.2848 191.769
L86.508 195.248
L86.7312 262.447
L86.9544 279.285
L87.1776 195.878
L87.4008 199.002
L87.624 259.1
L87.8472 276.124
L88.0704 199.6
L88.2936 202.399
L88.5168 256.032
L88.74 273.226
L88.9632 202.973
L89.1864 205.472
L89.4096 253.222
L89.6328 270.572
L89.856 206.029
L90.0792 208.252
L90.3024 250.651
L90.5256 268.143
L90.7488 208.8
L90.972 210.769
L91.1952 248.298
L91.4184 265.924
L91.6416 211.313
L91.8648 213.046
L92.3112 263.896
L92.5344 213.592
L92.7576 215.108
L93.204 262.045
L93.4272 215.66
L93.6504 216.974
L94.0968 260.356
L94.32 217.538
L94.5432 218.664
L94.9896 258.816
L95.2128 219.242
L95.436 220.194
L95.8824 257.412
L96.1056 220.791
L96.3288 221.579
L96.7752 256.134
L96.9984 222.199
L97.2216 222.833
L97.668 254.969
L97.8912 223.478
L98.1144 223.969
L98.3376 235.502
L98.5608 253.91
L98.784 224.642
L99.0072 224.997
L99.2304 234.463
L99.4536 252.946
L99.6768 225.701
L99.9 225.928
L100.123 233.516
L100.346 252.069
L100.57 226.665
L100.793 226.771
L101.016 232.651
L101.239 251.272
L101.462 227.542
L101.686 227.534
L101.909 231.862
L102.132 250.547
L102.355 228.342
L102.578 228.224
L102.802 231.142
L103.025 249.889
L103.248 229.071
L103.471 228.849
L103.694 230.484
L103.918 249.291
L104.141 229.735
L104.364 229.414
L104.587 229.884
L104.81 248.749
L105.034 230.341
L105.48 229.336
L105.703 248.257
L105.926 230.894
L106.15 230.387
L106.373 228.835
L106.596 247.811
L106.819 231.399
L107.042 230.804
L107.266 228.378
L107.489 247.407
L107.712 231.86
L107.935 231.181
L108.158 227.96
L108.382 247.04
L108.605 232.282
L108.828 231.521
L109.051 227.578
L109.274 246.709
L109.498 232.668
L109.721 231.827
L109.944 227.229
L110.167 246.409
L110.39 233.021
L110.614 232.103
L110.837 226.909
L111.06 246.138
L111.283 233.344
L111.506 232.352
L111.73 226.617
L111.953 245.893
L112.176 233.64
L112.399 232.575
L112.622 226.349
L112.846 245.672
L113.069 233.912
L113.292 232.776
L113.515 226.103
L113.738 245.473
L113.962 234.161
L114.185 232.956
L114.408 225.878
L114.631 245.294
L114.854 234.39
L115.078 233.117
L115.301 225.672
L115.524 245.133
L115.747 234.601
L115.97 233.261
L116.194 225.483
L116.417 244.988
L116.64 234.794
L116.863 233.39
L117.086 225.308
L117.31 244.858
L117.533 234.973
L117.756 233.505
L117.979 225.148
L118.202 244.742
L118.426 235.137
L118.649 233.606
L118.872 225.001
L119.095 244.638
L119.318 235.289
L119.542 233.696
L119.765 224.865
L119.988 244.546
L120.211 235.43
L120.434 233.776
L120.658 224.74
L120.881 244.464
L121.104 235.56
L121.327 233.846
L121.55 224.625
L121.774 244.391
L121.997 235.68
L122.22 233.907
L122.443 224.518
L122.666 244.327
L122.89 235.792
L123.113 233.96
L123.336 224.419
L123.559 244.271
L123.782 235.895
L124.006 234.006
L124.229 224.328
L124.452 244.222
L124.675 235.992
L124.898 234.045
L125.122 224.242
L125.345 244.179
L125.568 236.082
L125.791 234.079
L126.014 224.163
L126.238 244.142
L126.461 236.166
L126.684 234.107
L126.907 224.09
L127.13 244.111
L127.354 236.244
L127.577 234.13
L127.8 224.021
L128.023 244.084
L128.246 236.318
L128.47 234.148
L128.693 223.957
L128.916 244.062
L129.139 236.387
L129.362 234.163
L129.586 223.897
L129.809 244.044
L130.032 236.452
L130.255 234.173
L130.478 223.84
L130.702 244.029
L130.925 236.513
L131.148 234.181
L131.371 223.787
L131.594 244.018
L131.818 236.571
L132.041 234.185
L132.264 223.737
L132.487 244.01
L132.71 236.626
L132.934 234.187
L133.157 223.69
L133.38 244.005
L133.603 236.678
L133.826 234.186
L134.05 223.645
L134.273 244.003
L134.496 236.727
L134.719 234.183
L134.942 223.602
L135.166 244.002
L135.389 236.774
L135.612 234.178
L135.835 223.562
L136.058 244.004
L136.282 236.819
L136.505 234.17
L136.728 223.524
L136.951 244.008
L137.174 236.861
L137.398 234.162
L137.621 223.487
L137.844 244.013
L138.067 236.902
L138.29 234.151
L138.514 223.451
L138.737 244.021
L138.96 236.942
L139.183 234.14
L139.406 223.418
L139.63 244.029
L139.853 236.979
L140.076 234.127
L140.299 223.385
L140.522 244.039
L140.746 237.016
L140.969 234.112
L141.192 223.354
L141.415 244.051
L141.638 237.051
L141.862 234.097
L142.085 223.323
L142.308 244.063
L142.531 237.085
L142.754 234.081
L142.978 223.294
L143.201 244.076
L143.424 237.118
L143.647 234.064
L143.87 223.265
L144.094 244.091
L144.317 237.15
L144.54 234.047
L144.763 223.237
L144.986 244.106
L145.21 237.181
L145.433 234.028
L145.656 223.21
L145.879 244.122
L146.102 237.211
L146.326 234.009
L146.549 223.184
L146.772 244.138
L146.995 237.24
L147.218 233.99
L147.442 223.158
L147.665 244.156
L147.888 237.269
L148.111 233.97
L148.334 223.132
L148.558 244.174
L148.781 237.297
L149.004 233.949
L149.227 223.107
L149.45 244.192
L149.674 237.325
L149.897 233.928
L150.12 223.083
L150.343 244.211
L151.013 223.058
L151.236 244.231
L151.906 223.035
L152.129 244.251
L152.798 223.011
L153.022 244.271
L153.691 222.988
L153.914 244.292
L154.584 222.964
L154.807 244.313
L155.477 222.942
L155.7 244.335
L156.37 222.919
L156.593 244.356
L157.262 222.896
L157.486 244.378
L158.155 222.874
L158.378 244.401
L159.048 222.851
L159.271 244.423
L159.941 222.829
L160.164 244.446
L160.834 222.807
L161.057 244.469
L161.726 222.785
L161.95 244.492
L162.619 222.763
L162.842 244.515
L163.512 222.741
L163.735 244.539
L164.405 222.719
L164.628 244.562
L165.298 222.697
L165.521 244.586
L166.19 222.675
L166.414 244.61
L167.083 222.653
L167.306 244.634
L167.976 222.631
L168.199 244.658
L168.869 222.609
L169.092 244.682
L169.762 222.587
L169.985 244.707
L170.654 222.565
L170.878 244.731
L171.547 222.543
L171.77 244.756
L172.44 222.522
L172.663 244.781
L173.333 222.499
L173.556 244.805
L174.226 222.477
L174.449 244.83
L175.118 222.455
L175.342 244.855
L176.011 222.433
L176.234 244.88
L176.904 222.411
L177.127 244.906
L177.797 222.389
L178.02 244.931
L178.69 222.367
L178.913 244.956
L179.582 222.344
L179.806 244.982
L180.475 222.322
L180.698 245.007
L181.368 222.3
L181.591 245.033
L182.261 222.277
L182.484 245.058
L183.154 222.255
L183.377 245.084
L184.046 222.232
L184.27 245.11
L184.939 222.209
L185.162 245.136
L185.832 222.187
L186.055 245.162
L186.725 222.164
L186.948 245.188
L187.618 222.141
L187.841 245.214
L188.51 222.118
L188.734 245.24
L189.403 222.095
L189.626 245.266
L190.296 222.072
L190.519 245.293
L191.189 222.049
L191.412 245.319
L192.082 222.026
L192.305 245.345
L192.974 222.003
L193.198 245.372
L193.867 221.98
L194.09 245.398
L194.76 221.956
L194.983 245.425
L195.653 221.933
L195.876 245.452
L196.546 221.909
L196.769 245.478
L197.438 221.886
L197.662 245.505
L198.331 221.862
L198.554 245.532
L199.224 221.839
L199.447 245.559
L200.117 221.815
L200.34 245.586
L201.01 221.791
L201.233 245.613
L201.902 221.767
L202.126 245.64
L202.795 221.743
L203.018 245.667
L203.688 221.719
L203.911 245.695
L204.581 221.695
L204.804 245.722
L205.474 221.671
L205.697 245.749
L206.366 221.647
L206.59 245.777
L207.259 221.622
L207.482 245.804
L208.152 221.598
L208.375 245.832
L209.045 221.574
L209.268 245.859
L209.938 221.549
L210.161 245.887
L210.83 221.524
L211.054 245.915
L211.723 221.5
L211.946 245.942
L212.616 221.475
L212.839 245.97
L213.509 221.45
L213.732 245.998
L214.402 221.425
L214.625 246.026
L215.294 221.401
L215.518 246.054
L216.187 221.375
L216.41 246.082
L217.08 221.35
L217.303 246.111
L217.973 221.325
L218.196 246.139
L218.866 221.3
L219.089 246.167
L219.758 221.275
L219.982 246.195
L220.651 221.249
L220.874 246.224
L221.544 221.224
L221.767 246.252
L222.437 221.198
L222.66 246.281
L223.33 221.173
L223.553 246.309
L224.222 221.147
L224.446 246.338
L225.115 221.121
L225.338 246.367
L226.008 221.096
L226.231 246.395
L226.901 221.07
L227.124 246.424
L227.794 221.044
L228.017 246.453
L228.686 221.018
L228.91 246.482
L229.579 220.992
L229.802 246.511
L230.472 220.966
L230.695 246.54
L231.365 220.939
L231.588 246.569
L232.258 220.913
L232.481 246.599
L233.15 220.887
L233.374 246.628
L234.043 220.86
L234.266 246.657
L234.936 220.834
L235.159 246.687
L235.829 220.807
L236.052 246.716
L236.722 220.781
L236.945 246.745
L237.614 220.754
L237.838 246.775
L238.507 220.727
L238.73 246.805
L239.4 220.7
L239.623 246.834
L240.293 220.673
L240.516 246.864
L241.186 220.646
L241.409 246.894
L242.078 220.619
L242.302 246.924
L242.971 220.592
L243.194 246.954
L243.864 220.565
L244.087 246.984
L244.757 220.538
L244.98 247.014
L245.65 220.51
L245.873 247.044
L246.542 220.483
L246.766 247.074
L247.435 220.455
L247.658 247.104
L248.328 220.428
L248.551 247.135
L249.221 220.4
L249.444 247.165
L250.114 220.372
L250.337 247.195
L251.006 220.344
L251.23 247.226
L251.899 220.317
L252.122 247.256
L252.792 220.289
L253.015 247.287
L253.685 220.261
L253.908 247.318
L254.578 220.233
L254.801 247.348
L255.47 220.204
L255.694 247.379
L256.363 220.176
L256.586 247.41
L257.256 220.148
L257.479 247.441
L258.149 220.12
L258.372 247.472
L259.042 220.091
L259.265 247.503
L259.934 220.063
L260.158 247.534
L260.827 220.034
L261.05 247.565
L261.72 220.005
L261.943 247.596
L262.613 219.977
L262.836 247.628
L263.506 219.948
L263.729 247.659
L264.398 219.919
L264.622 247.69
L265.291 219.89
L265.514 247.722
L266.184 219.861
L266.407 247.753
L267.077 219.832
L267.3 247.785
L267.97 219.803
L268.193 247.817
L268.862 219.774
L269.086 247.848
L269.755 219.744
L269.978 247.88
L270.648 219.715
L270.871 247.912
L271.541 219.686
L271.764 247.944
L272.434 219.656
L272.657 247.976
L273.326 219.627
L273.55 248.008
L274.219 219.597
L274.442 248.04
L275.112 219.567
L275.335 248.072
L276.005 219.537
L276.228 248.104
L276.898 219.508
L277.121 248.136
L277.79 219.478
L278.014 248.169
L278.683 219.448
L278.906 248.201
L279.576 219.418
L279.799 248.233
L280.469 219.387
L280.692 248.266
L281.362 219.357
L281.585 248.298
L282.254 219.327
L282.478 248.331
L283.147 219.297
L283.37 248.364
L284.04 219.266
L284.263 248.396
L284.933 219.236
L285.156 248.429
L285.826 219.205
L286.049 248.462
L286.718 219.175
L286.942 248.495
L287.611 219.144
L287.834 248.528
L288.504 219.113
L288.727 248.561
L289.397 219.082
L289.62 248.594
L290.29 219.051
L290.513 248.627
L291.182 219.02
L291.406 248.661
L292.075 218.989
L292.298 248.694
L292.968 218.958
L293.191 248.727
L293.861 218.927
L294.084 248.761
L294.754 218.896
L294.977 248.794
L295.646 218.864
L295.87 248.828
L296.539 218.833
L296.762 248.861
L297.432 218.801
L297.655 248.895
L298.325 218.77
L298.548 248.928
L299.218 218.738
L299.441 248.962
L300.11 218.707
L300.334 248.996
L301.003 218.675
L301.226 249.03
L301.896 218.643
L302.119 249.064
L302.789 218.611
L303.012 249.098
L303.682 218.579
L303.905 249.132
L304.574 218.547
L304.798 249.166
L305.467 218.515
L305.69 249.2
L306.36 218.483
L306.583 249.235
L307.253 218.451
L307.476 249.269
L308.146 218.418
L308.369 249.303
L309.038 218.386
L309.262 249.338
L309.931 218.354
L310.154 249.372
L310.824 218.321
L311.047 249.407
L311.717 218.288
L311.94 249.441
L312.61 218.256
L312.833 249.476
L313.502 218.223
L313.726 249.511
L314.395 218.19
L314.618 249.546
L315.288 218.157
L315.511 249.58
L316.181 218.125
L316.404 249.615
L317.074 218.092
L317.297 249.65
L317.966 218.058
L318.19 249.685
L318.859 218.025
L319.082 249.72
L319.752 217.992
L319.975 249.756
L320.645 217.959
L320.868 249.791
L321.538 217.926
L321.761 249.826
L322.43 217.892
L322.654 249.861
L323.323 217.859
L323.546 249.897
L324.216 217.825
L324.439 249.932
L325.109 217.791
L325.332 249.968
L326.002 217.758
L326.225 250.003
L326.894 217.724
L327.118 250.039
L327.787 217.69
L328.01 250.075
L328.68 217.656
L328.903 250.111
L329.573 217.622
L329.796 250.146
L330.466 217.588
L330.689 250.182
L331.358 217.554
L331.582 250.218
L332.251 217.52
L332.474 250.254
L333.144 217.486
L333.367 250.29
L334.037 217.451
L334.26 250.326
L334.93 217.417
L335.153 250.363
L335.822 217.383
L336.046 250.399
L336.715 217.348
L336.938 250.435
L337.608 217.314
L337.831 250.471
L338.501 217.279
L338.724 250.508
L339.394 217.244
L339.617 250.544
L340.286 217.209
L340.51 250.581
L341.179 217.175
L341.402 250.618
L342.072 217.14
L342.295 250.654
L342.965 217.105
L343.188 250.691
L343.858 217.07
L344.081 250.728
L344.75 217.034
L344.974 250.765
L345.643 216.999
L345.866 250.801
L346.536 216.964
L346.759 250.838
L347.429 216.929
L347.652 250.875
L348.322 216.893
L348.545 250.913
L349.214 216.858
L349.438 250.95
L350.107 216.822
L350.33 250.987
L351 216.787
L351.223 251.024
L351.893 216.751
L352.116 251.062
L352.786 216.715
L353.009 251.099
L353.678 216.68
L353.902 251.136
L354.571 216.644
L354.794 251.174
L355.464 216.608
L355.687 251.211
L356.357 216.572
L356.58 251.249
L357.25 216.536
L357.473 251.287
L358.142 216.499
L358.366 251.325
L359.035 216.463
L359.258 251.362
L359.928 216.427
L360.151 251.4
L360.821 216.391
L361.044 251.438
L361.714 216.354
L361.937 251.476
L362.606 216.318
L362.83 251.514
L363.499 216.281
L363.722 251.552
L364.392 216.245
L364.615 251.59
L365.285 216.208
L365.508 251.629
L366.178 216.171
L366.401 251.667
L367.07 216.134
L367.294 251.705
L367.963 216.097
L368.186 251.744
L368.856 216.06
L369.079 251.782
L369.749 216.023
L369.972 251.821
L370.642 215.986
L370.865 251.859
L371.534 215.949
L371.758 251.898
L372.427 215.912
L372.65 251.937
L373.32 215.875
L373.543 251.976
L374.213 215.837
L374.436 252.014
L375.106 215.8
L375.329 252.053
L375.998 215.762
L376.222 252.092
L376.891 215.725
L377.114 252.131
L377.784 215.687
L378.007 252.17
L378.677 215.65
L378.9 252.21
L379.57 215.612
L379.793 252.249
L380.462 215.574
L380.686 252.288
L381.355 215.536
L381.578 252.327
L382.248 215.498
L382.471 252.367
L383.141 215.46
L383.364 252.406
L384.034 215.422
L384.257 252.446
L384.926 215.384
L385.15 252.485
L385.819 215.346
L386.042 252.525
L386.712 215.307
L386.935 252.565
L387.605 215.269
L387.828 252.604
L388.498 215.23
L388.721 252.644
L389.39 215.192
L389.614 252.684
L390.283 215.153
L390.506 252.724
L391.176 215.115
L391.399 252.764
L392.069 215.076
L392.292 252.804
L392.962 215.037
L393.185 252.844
L393.854 214.998
L394.078 252.884
L394.747 214.959
L394.97 252.925
L395.64 214.92
L395.863 252.965
L396.533 214.881
L396.756 253.005
L397.426 214.842
L397.649 253.046
L398.318 214.803
L398.542 253.086
L399.211 214.764
L399.434 253.127
L400.104 214.725
L400.327 253.168
L400.997 214.685
L401.22 253.208
L401.89 214.646
L402.113 253.249
L402.782 214.606
L403.006 253.29
L403.675 214.567
L403.898 253.331
L404.568 214.527
L404.791 253.372
L405.461 214.487
L405.684 253.413
L406.354 214.447
L406.577 253.454
L407.246 214.408
L407.47 253.495
L408.139 214.368
L408.362 253.536
L409.032 214.328
L409.255 253.577
L409.925 214.288
L410.148 253.619
L410.818 214.247
L411.041 253.66
L411.71 214.207
L411.934 253.701
L412.603 214.167
L412.826 253.743
L413.496 214.127
L413.719 253.784
L414.389 214.086
L414.612 253.826
L415.282 214.046
L415.505 253.868
L416.174 214.005
L416.398 253.91
L417.067 213.965
L417.29 253.951
L417.96 213.924
L418.183 253.993
L418.853 213.883
L419.076 254.035
L419.746 213.842
L419.969 254.077
L420.638 213.801
L420.862 254.119
L421.531 213.76
L421.754 254.162
L422.424 213.719
L422.647 254.204
L423.317 213.678
L423.54 254.246
L424.21 213.637
L424.433 254.288
L425.102 213.596
L425.326 254.331
L425.995 213.555
L426.218 254.373
L426.888 213.513
L427.111 254.416
L427.781 213.472
L428.004 254.458
L428.674 213.43
L428.897 254.501
L429.566 213.389
L429.79 254.544
L430.459 213.347
L430.682 254.587
L431.352 213.305
L431.575 254.63
L432.245 213.264
L432.468 254.673
L433.138 213.222
L433.361 254.716
L434.03 213.18
L434.254 254.759
L434.923 213.138
L435.146 254.802
L435.816 213.096
L436.039 254.845
L436.709 213.053
L436.932 254.888
L437.602 213.011
L437.825 254.932
L438.494 212.969
L438.718 254.975
L439.387 212.927
L439.61 255.018
L440.28 212.884
L440.503 255.062
L441.173 212.842
L441.396 255.106
L442.066 212.799
L442.289 255.149
L442.958 212.756
L443.182 255.193
L443.851 212.714
L444.074 255.237
L444.744 212.671
L444.967 255.281
L445.637 212.628
L445.86 255.325
L446.53 212.585
L446.753 255.369
L447.422 212.542
L447.646 255.413
L448.315 212.499
L448.538 255.457
L449.208 212.456
L449.431 255.501
L450.101 212.413
L450.324 255.546
L450.994 212.369
L451.217 255.59
L451.886 212.326
L452.11 255.634
L452.779 212.282
L453.002 255.679
L453.672 212.239
L453.895 255.724
L454.565 212.195
L454.788 255.768
L455.458 212.152
L455.681 255.813
L456.35 212.108
L456.574 255.858
L457.243 212.064
L457.466 255.903
L458.136 212.02
L458.359 255.948
L459.029 211.976
L459.252 255.993
L459.922 211.932
L460.145 256.038
L460.814 211.888
L461.038 256.083
L461.707 211.844
L461.93 256.128
L462.6 211.8
L462.823 256.174
L463.493 211.755
L463.716 256.219
L464.386 211.711
L464.609 256.264
L465.278 211.666
L465.502 256.31
L466.171 211.622
L466.394 256.356
L467.064 211.577
L467.287 256.401
L467.957 211.532
L468.18 256.447
L468.85 211.488
L469.073 256.493
L469.742 211.443
L469.966 256.539
L470.635 211.398
L470.858 256.585
L471.528 211.353
L471.751 256.631
L472.421 211.308
L472.644 256.677
L473.314 211.262
L473.537 256.723
L474.206 211.217
L474.43 256.77
L475.099 211.172
L475.322 256.816
L475.992 211.126
L476.215 256.863
L476.885 211.081
L477.108 256.909
L477.778 211.035
L478.001 256.956
L478.67 210.99
L478.894 257.002
L479.563 210.944
L479.786 257.049
L480.456 210.898
L480.679 257.096
L481.349 210.852
L481.572 257.143
L482.242 210.806
L482.465 257.19
L483.134 210.76
L483.358 257.237
L484.027 210.714
L484.25 257.284
L484.92 210.668
L485.143 257.332
L485.813 210.621
L486.036 257.379
L486.706 210.575
L486.929 257.426
L487.598 210.528
L487.822 257.474
L488.491 210.482
L488.714 257.521
L489.384 210.435
L489.607 257.569
L490.277 210.388
L490.5 257.617
L491.17 210.342
L491.393 257.665
L492.062 210.295
L492.286 257.713
L492.955 210.248
L493.178 257.761
L493.848 210.201
L494.071 257.809
L494.741 210.153
L494.964 257.857
L495.634 210.106
L495.857 257.905
L496.526 210.059
L496.75 257.954
L497.419 210.011
L497.642 258.002
L498.312 209.964
L498.535 258.051
L499.205 209.916
L499.428 258.099
L500.098 209.869
L500.321 258.148
L500.99 209.821
L501.214 258.197
L501.883 209.773
L502.106 258.246
L502.776 209.725
L502.999 258.295
L503.669 209.677
L503.892 258.344
L504.562 209.629
L504.785 258.393
L505.454 209.581
L505.678 258.442
L506.347 209.532
L506.57 258.492
L507.24 209.484
L507.463 258.541
L508.133 209.435
L508.356 258.591
L509.026 209.387
L509.249 258.64
L509.918 209.338
L510.142 258.69
L510.811 209.289
L511.034 258.74
L511.704 209.241
L511.927 258.79
L512.597 209.192
L512.82 258.84
L513.49 209.143
L513.713 258.89
L514.382 209.093
L514.606 258.94
L515.275 209.044
L515.498 258.991
L516.168 208.995
L516.391 259.041
L517.061 208.945
L517.284 259.091
L517.954 208.896
L518.177 259.142
L518.4 242.18
L518.4 242.18" style="fill:none;stroke:#0000ff;stroke-linecap:square;"/>
   </g>
   <g id="matplotlib.axis_1">
    <g id="xtick_1">
     <g id="line2d_2">
      <defs>
       <path d="
M0 0
L0 -4" id="mc7db9fdffb" style="stroke:#000000;stroke-width:0.5;"/>
      </defs>
      <g>
       <use style="stroke:#000000;stroke-width:0.5;" x="72.0" xlink:href="#mc7db9fdffb" y="388.8"/>
      </g>
     </g>
     <g id="line2d_3">
      <defs>
       <path d="
M0 0
L0 4" id="m5a7d422ac3" style="stroke:#000000;stroke-width:0.5;"/>
      </defs>
      <g>
       <use style="stroke:#000000;stroke-width:0.5;" x="72.0" xlink:href="#m5a7d422ac3" y="43.2"/>
      </g>
     </g>
     <g id="text_1">
      <!-- 0 -->
      <defs>
       <path d="
M31.7812 66.4062
Q24.1719 66.4062 20.3281 58.9062
Q16.5 51.4219 16.5 36.375
Q16.5 21.3906 20.3281 13.8906
Q24.1719 6.39062 31.7812 6.39062
Q39.4531 6.39062 43.2812 13.8906
Q47.125 21.3906 47.125 36.375
Q47.125 51.4219 43.2812 58.9062
Q39.4531 66.4062 31.7812 66.4062
M31.7812 74.2188
Q44.0469 74.2188 50.5156 64.5156
Q56.9844 54.8281 56.9844 36.375
Q56.9844 17.9688 50.5156 8.26562
Q44.0469 -1.42188 31.7812 -1.42188
Q19.5312 -1.42188 13.0625 8.26562
Q6.59375 17.9688 6.59375 36.375
Q6.59375 54.8281 13.0625 64.5156
Q19.5312 74.2188 31.7812 74.2188" id="DejaVuSans-30"/>
      </defs>
      <g transform="translate(68.9765625 401.918125)scale(0.12 -0.12)">
       <use xlink:href="#DejaVuSans-30"/>
      </g>
     </g>
    </g>
    <g id="xtick_2">
     <g id="line2d_4">
      <g>
       <use style="stroke:#000000;stroke-width:0.5;" x="183.6" xlink:href="#mc7db9fdffb" y="388.8"/>
      </g>
     </g>
     <g id="line2d_5">
      <g>
       <use style="stroke:#000000;stroke-width:0.5;" x="183.6" xlink:href="#m5a7d422ac3" y="43.2"/>
      </g>
     </g>
     <g id="text_2">
      <!-- 500 -->
      <defs>
       <path d="
M10.7969 72.9062
L49.5156 72.9062
L49.5156 64.5938
L19.8281 64.5938
L19.8281 46.7344
Q21.9688 47.4688 24.1094 47.8281
Q26.2656 48.1875 28.4219 48.1875
Q40.625 48.1875 47.75 41.5
Q54.8906 34.8125 54.8906 23.3906
Q54.8906 11.625 47.5625 5.09375
Q40.2344 -1.42188 26.9062 -1.42188
Q22.3125 -1.42188 17.5469 -0.640625
Q12.7969 0.140625 7.71875 1.70312
L7.71875 11.625
Q12.1094 9.23438 16.7969 8.0625
Q21.4844 6.89062 26.7031 6.89062
Q35.1562 6.89062 40.0781 11.3281
Q45.0156 15.7656 45.0156 23.3906
Q45.0156 31 40.0781 35.4375
Q35.1562 39.8906 26.7031 39.8906
Q22.75 39.8906 18.8125 39.0156
Q14.8906 38.1406 10.7969 36.2812
z
" id="DejaVuSans-35"/>
      </defs>
      <g transform="translate(173.0090625 401.918125)scale(0.12 -0.12)">
       <use xlink:href="#DejaVuSans-35"/>
       <use x="63.623046875" xlink:href="#DejaVuSans-30"/>
       <use x="127.24609375" xlink:href="#DejaVuSans-30"/>
      </g>
     </g>
    </g>
    <g id="xtick_3">
     <g id="line2d_6">
      <g>
       <use style="stroke:#000000;stroke-width:0.5;" x="295.2" xlink:href="#mc7db9fdffb" y="388.8"/>
      </g>
     </g>
     <g id="line2d_7">
      <g>
       <use style="stroke:#000000;stroke-width:0.5;" x="295.2" xlink:href="#m5a7d422ac3" y="43.2"/>
      </g>
     </g>
     <g id="text_3">
      <!-- 1000 -->
      <defs>
       <path d="
M12.4062 8.29688
L28.5156 8.29688
L28.5156 63.9219
L10.9844 60.4062
L10.9844 69.3906
L28.4219 72.9062
L38.2812 72.9062
L38.2812 8.29688
L54.3906 8.29688
L54.3906 0
L12.4062 0
z
" id="DejaVuSans-31"/>
      </defs>
      <g transform="translate(280.9875 401.918125)scale(0.12 -0.12)">
       <use xlink:href="#DejaVuSans-31"/>
       <use x="63.623046875" xlink:href="#DejaVuSans-30"/>
       <use x="127.24609375" xlink:href="#DejaVuSans-30"/>
       <use x="190.869140625" xlink:href="#DejaVuSans-30"/>
      </g>
     </g>
    </g>
    <g id="xtick_4">
     <g id="line2d_8">
      <g>
       <use style="stroke:#000000;stroke-width:0.5;" x="406.8" xlink:href="#mc7db9fdffb" y="388.8"/>
      </g>
     </g>
     <g id="line2d_9">
      <g>
       <use style="stroke:#000000;stroke-width:0.5;" x="406.8" xlink:href="#m5a7d422ac3" y="43.2"/>
      </g>
     </g>
     <g id="text_4">
      <!-- 1500 -->
      <g transform="translate(392.5875 401.918125)scale(0.12 -0.12)">
       <use xlink:href="#DejaVuSans-31"/>
       <use x="63.623046875" xlink:href="#DejaVuSans-35"/>
       <use x="127.24609375" xlink:href="#DejaVuSans-30"/>
       <use x="190.869140625" xlink:href="#DejaVuSans-30"/>
      </g>
     </g>
    </g>
    <g id="xtick_5">
     <g id="line2d_10">
      <g>
       <use style="stroke:#000000;stroke-width:0.5;" x="518.4" xlink:href="#mc7db9fdffb" y="388.8"/>
      </g>
     </g>
     <g id="line2d_11">
      <g>
       <use style="stroke:#000000;stroke-width:0.5;" x="518.4" xlink:href="#m5a7d422ac3" y="43.2"/>
      </g>
     </g>
     <g id="text_5">
      <!-- 2000 -->
      <defs>
       <path d="
M19.1875 8.29688
L53.6094 8.29688
L53.6094 0
L7.32812 0
L7.32812 8.29688
Q12.9375 14.1094 22.625 23.8906
Q32.3281 33.6875 34.8125 36.5312
Q39.5469 41.8438 41.4219 45.5312
Q43.3125 49.2188 43.3125 52.7812
Q43.3125 58.5938 39.2344 62.25
Q35.1562 65.9219 28.6094 65.9219
Q23.9688 65.9219 18.8125 64.3125
Q13.6719 62.7031 7.8125 59.4219
L7.8125 69.3906
Q13.7656 71.7812 18.9375 73
Q24.125 74.2188 28.4219 74.2188
Q39.75 74.2188 46.4844 68.5469
Q53.2188 62.8906 53.2188 53.4219
Q53.2188 48.9219 51.5312 44.8906
Q49.8594 40.875 45.4062 35.4062
Q44.1875 33.9844 37.6406 27.2188
Q31.1094 20.4531 19.1875 8.29688" id="DejaVuSans-32"/>
      </defs>
      <g transform="translate(503.968125 401.918125)scale(0.12 -0.12)">
       <use xlink:href="#DejaVuSans-32"/>
       <use x="63.623046875" xlink:href="#DejaVuSans-30"/>
       <use x="127.24609375" xlink:href="#DejaVuSans-30"/>
       <use x="190.869140625" xlink:href="#DejaVuSans-30"/>
      </g>
     </g>
    </g>
    <g id="text_6">
     <!-- Runs -->
     <defs>
      <path d="
M8.5 21.5781
L8.5 54.6875
L17.4844 54.6875
L17.4844 21.9219
Q17.4844 14.1562 20.5 10.2656
Q23.5312 6.39062 29.5938 6.39062
Q36.8594 6.39062 41.0781 11.0312
Q45.3125 15.6719 45.3125 23.6875
L45.3125 54.6875
L54.2969 54.6875
L54.2969 0
L45.3125 0
L45.3125 8.40625
Q42.0469 3.42188 37.7188 1
Q33.4062 -1.42188 27.6875 -1.42188
Q18.2656 -1.42188 13.375 4.4375
Q8.5 10.2969 8.5 21.5781
M31.1094 56
z
" id="DejaVuSans-75"/>
      <path d="
M44.3906 34.1875
Q47.5625 33.1094 50.5625 29.5938
Q53.5625 26.0781 56.5938 19.9219
L66.6094 0
L56 0
L46.6875 18.7031
Q43.0625 26.0312 39.6719 28.4219
Q36.2812 30.8125 30.4219 30.8125
L19.6719 30.8125
L19.6719 0
L9.8125 0
L9.8125 72.9062
L32.0781 72.9062
Q44.5781 72.9062 50.7344 67.6719
Q56.8906 62.4531 56.8906 51.9062
Q56.8906 45.0156 53.6875 40.4688
Q50.4844 35.9375 44.3906 34.1875
M19.6719 64.7969
L19.6719 38.9219
L32.0781 38.9219
Q39.2031 38.9219 42.8438 42.2188
Q46.4844 45.5156 46.4844 51.9062
Q46.4844 58.2969 42.8438 61.5469
Q39.2031 64.7969 32.0781 64.7969
z
" id="DejaVuSans-52"/>
      <path d="
M54.8906 33.0156
L54.8906 0
L45.9062 0
L45.9062 32.7188
Q45.9062 40.4844 42.875 44.3281
Q39.8438 48.1875 33.7969 48.1875
Q26.5156 48.1875 22.3125 43.5469
Q18.1094 38.9219 18.1094 30.9062
L18.1094 0
L9.07812 0
L9.07812 54.6875
L18.1094 54.6875
L18.1094 46.1875
Q21.3438 51.125 25.7031 53.5625
Q30.0781 56 35.7969 56
Q45.2188 56 50.0469 50.1719
Q54.8906 44.3438 54.8906 33.0156" id="DejaVuSans-6e"/>
      <path d="
M44.2812 53.0781
L44.2812 44.5781
Q40.4844 46.5312 36.375 47.5
Q32.2812 48.4844 27.875 48.4844
Q21.1875 48.4844 17.8438 46.4375
Q14.5 44.3906 14.5 40.2812
Q14.5 37.1562 16.8906 35.375
Q19.2812 33.5938 26.5156 31.9844
L29.5938 31.2969
Q39.1562 29.25 43.1875 25.5156
Q47.2188 21.7812 47.2188 15.0938
Q47.2188 7.46875 41.1875 3.01562
Q35.1562 -1.42188 24.6094 -1.42188
Q20.2188 -1.42188 15.4531 -0.5625
Q10.6875 0.296875 5.42188 2
L5.42188 11.2812
Q10.4062 8.6875 15.2344 7.39062
Q20.0625 6.10938 24.8125 6.10938
Q31.1562 6.10938 34.5625 8.28125
Q37.9844 10.4531 37.9844 14.4062
Q37.9844 18.0625 35.5156 20.0156
Q33.0625 21.9688 24.7031 23.7812
L21.5781 24.5156
Q13.2344 26.2656 9.51562 29.9062
Q5.8125 33.5469 5.8125 39.8906
Q5.8125 47.6094 11.2812 51.7969
Q16.75 56 26.8125 56
Q31.7812 56 36.1719 55.2656
Q40.5781 54.5469 44.2812 53.0781" id="DejaVuSans-73"/>
     </defs>
     <g transform="translate(281.4515625 418.531875)scale(0.12 -0.12)">
      <use xlink:href="#DejaVuSans-52"/>
      <use x="64.982421875" xlink:href="#DejaVuSans-75"/>
      <use x="128.361328125" xlink:href="#DejaVuSans-6e"/>
      <use x="191.740234375" xlink:href="#DejaVuSans-73"/>
     </g>
    </g>
   </g>
   <g id="matplotlib.axis_2">
    <g id="ytick_1">
     <g id="line2d_12">
      <defs>
       <path d="
M0 0
L4 0" id="md7965d1ba0" style="stroke:#000000;stroke-width:0.5;"/>
      </defs>
      <g>
       <use style="stroke:#000000;stroke-width:0.5;" x="72.0" xlink:href="#md7965d1ba0" y="388.8"/>
      </g>
     </g>
     <g id="line2d_13">
      <defs>
       <path d="
M0 0
L-4 0" id="md9a1c1a7cd" style="stroke:#000000;stroke-width:0.5;"/>
      </defs>
      <g>
       <use style="stroke:#000000;stroke-width:0.5;" x="518.4" xlink:href="#md9a1c1a7cd" y="388.8"/>
      </g>
     </g>
     <g id="text_7">
      <!-- 0.10 -->
      <defs>
       <path d="
M10.6875 12.4062
L21 12.4062
L21 0
L10.6875 0
z
" id="DejaVuSans-2e"/>
      </defs>
      <g transform="translate(42.869375 392.11125)scale(0.12 -0.12)">
       <use xlink:href="#DejaVuSans-30"/>
       <use x="63.623046875" xlink:href="#DejaVuSans-2e"/>
       <use x="95.41015625" xlink:href="#DejaVuSans-31"/>
       <use x="159.033203125" xlink:href="#DejaVuSans-30"/>
      </g>
     </g>
    </g>
    <g id="ytick_2">
     <g id="line2d_14">
      <g>
       <use style="stroke:#000000;stroke-width:0.5;" x="72.0" xlink:href="#md7965d1ba0" y="339.428571429"/>
      </g>
     </g>
     <g id="line2d_15">
      <g>
       <use style="stroke:#000000;stroke-width:0.5;" x="518.4" xlink:href="#md9a1c1a7cd" y="339.428571429"/>
      </g>
     </g>
     <g id="text_8">
      <!-- 0.15 -->
      <g transform="translate(43.120625 342.739821429)scale(0.12 -0.12)">
       <use xlink:href="#DejaVuSans-30"/>
       <use x="63.623046875" xlink:href="#DejaVuSans-2e"/>
       <use x="95.41015625" xlink:href="#DejaVuSans-31"/>
       <use x="159.033203125" xlink:href="#DejaVuSans-35"/>
      </g>
     </g>
    </g>
    <g id="ytick_3">
     <g id="line2d_16">
      <g>
       <use style="stroke:#000000;stroke-width:0.5;" x="72.0" xlink:href="#md7965d1ba0" y="290.057142857"/>
      </g>
     </g>
     <g id="line2d_17">
      <g>
       <use style="stroke:#000000;stroke-width:0.5;" x="518.4" xlink:href="#md9a1c1a7cd" y="290.057142857"/>
      </g>
     </g>
     <g id="text_9">
      <!-- 0.20 -->
      <g transform="translate(42.869375 293.368392857)scale(0.12 -0.12)">
       <use xlink:href="#DejaVuSans-30"/>
       <use x="63.623046875" xlink:href="#DejaVuSans-2e"/>
       <use x="95.41015625" xlink:href="#DejaVuSans-32"/>
       <use x="159.033203125" xlink:href="#DejaVuSans-30"/>
      </g>
     </g>
    </g>
    <g id="ytick_4">
     <g id="line2d_18">
      <g>
       <use style="stroke:#000000;stroke-width:0.5;" x="72.0" xlink:href="#md7965d1ba0" y="240.685714286"/>
      </g>
     </g>
     <g id="line2d_19">
      <g>
       <use style="stroke:#000000;stroke-width:0.5;" x="518.4" xlink:href="#md9a1c1a7cd" y="240.685714286"/>
      </g>
     </g>
     <g id="text_10">
      <!-- 0.25 -->
      <g transform="translate(43.120625 243.996964286)scale(0.12 -0.12)">
       <use xlink:href="#DejaVuSans-30"/>
       <use x="63.623046875" xlink:href="#DejaVuSans-2e"/>
       <use x="95.41015625" xlink:href="#DejaVuSans-32"/>
       <use x="159.033203125" xlink:href="#DejaVuSans-35"/>
      </g>
     </g>
    </g>
    <g id="ytick_5">
     <g id="line2d_20">
      <g>
       <use style="stroke:#000000;stroke-width:0.5;" x="72.0" xlink:href="#md7965d1ba0" y="191.314285714"/>
      </g>
     </g>
     <g id="line2d_21">
      <g>
       <use style="stroke:#000000;stroke-width:0.5;" x="518.4" xlink:href="#md9a1c1a7cd" y="191.314285714"/>
      </g>
     </g>
     <g id="text_11">
      <!-- 0.30 -->
      <defs>
       <path d="
M40.5781 39.3125
Q47.6562 37.7969 51.625 33
Q55.6094 28.2188 55.6094 21.1875
Q55.6094 10.4062 48.1875 4.48438
Q40.7656 -1.42188 27.0938 -1.42188
Q22.5156 -1.42188 17.6562 -0.515625
Q12.7969 0.390625 7.625 2.20312
L7.625 11.7188
Q11.7188 9.32812 16.5938 8.10938
Q21.4844 6.89062 26.8125 6.89062
Q36.0781 6.89062 40.9375 10.5469
Q45.7969 14.2031 45.7969 21.1875
Q45.7969 27.6406 41.2812 31.2656
Q36.7656 34.9062 28.7188 34.9062
L20.2188 34.9062
L20.2188 43.0156
L29.1094 43.0156
Q36.375 43.0156 40.2344 45.9219
Q44.0938 48.8281 44.0938 54.2969
Q44.0938 59.9062 40.1094 62.9062
Q36.1406 65.9219 28.7188 65.9219
Q24.6562 65.9219 20.0156 65.0312
Q15.375 64.1562 9.8125 62.3125
L9.8125 71.0938
Q15.4375 72.6562 20.3438 73.4375
Q25.25 74.2188 29.5938 74.2188
Q40.8281 74.2188 47.3594 69.1094
Q53.9062 64.0156 53.9062 55.3281
Q53.9062 49.2656 50.4375 45.0938
Q46.9688 40.9219 40.5781 39.3125" id="DejaVuSans-33"/>
      </defs>
      <g transform="translate(42.869375 194.625535714)scale(0.12 -0.12)">
       <use xlink:href="#DejaVuSans-30"/>
       <use x="63.623046875" xlink:href="#DejaVuSans-2e"/>
       <use x="95.41015625" xlink:href="#DejaVuSans-33"/>
       <use x="159.033203125" xlink:href="#DejaVuSans-30"/>
      </g>
     </g>
    </g>
    <g id="ytick_6">
     <g id="line2d_22">
      <g>
       <use style="stroke:#000000;stroke-width:0.5;" x="72.0" xlink:href="#md7965d1ba0" y="141.942857143"/>
      </g>
     </g>
     <g id="line2d_23">
      <g>
       <use style="stroke:#000000;stroke-width:0.5;" x="518.4" xlink:href="#md9a1c1a7cd" y="141.942857143"/>
      </g>
     </g>
     <g id="text_12">
      <!-- 0.35 -->
      <g transform="translate(43.120625 145.254107143)scale(0.12 -0.12)">
       <use xlink:href="#DejaVuSans-30"/>
       <use x="63.623046875" xlink:href="#DejaVuSans-2e"/>
       <use x="95.41015625" xlink:href="#DejaVuSans-33"/>
       <use x="159.033203125" xlink:href="#DejaVuSans-35"/>
      </g>
     </g>
    </g>
    <g id="ytick_7">
     <g id="line2d_24">
      <g>
       <use style="stroke:#000000;stroke-width:0.5;" x="72.0" xlink:href="#md7965d1ba0" y="92.5714285714"/>
      </g>
     </g>
     <g id="line2d_25">
      <g>
       <use style="stroke:#000000;stroke-width:0.5;" x="518.4" xlink:href="#md9a1c1a7cd" y="92.5714285714"/>
      </g>
     </g>
     <g id="text_13">
      <!-- 0.40 -->
      <defs>
       <path d="
M37.7969 64.3125
L12.8906 25.3906
L37.7969 25.3906
z

M35.2031 72.9062
L47.6094 72.9062
L47.6094 25.3906
L58.0156 25.3906
L58.0156 17.1875
L47.6094 17.1875
L47.6094 0
L37.7969 0
L37.7969 17.1875
L4.89062 17.1875
L4.89062 26.7031
z
" id="DejaVuSans-34"/>
      </defs>
      <g transform="translate(42.869375 95.8826785714)scale(0.12 -0.12)">
       <use xlink:href="#DejaVuSans-30"/>
       <use x="63.623046875" xlink:href="#DejaVuSans-2e"/>
       <use x="95.41015625" xlink:href="#DejaVuSans-34"/>
       <use x="159.033203125" xlink:href="#DejaVuSans-30"/>
      </g>
     </g>
    </g>
    <g id="ytick_8">
     <g id="line2d_26">
      <g>
       <use style="stroke:#000000;stroke-width:0.5;" x="72.0" xlink:href="#md7965d1ba0" y="43.2"/>
      </g>
     </g>
     <g id="line2d_27">
      <g>
       <use style="stroke:#000000;stroke-width:0.5;" x="518.4" xlink:href="#md9a1c1a7cd" y="43.2"/>
      </g>
     </g>
     <g id="text_14">
      <!-- 0.45 -->
      <g transform="translate(43.120625 46.51125)scale(0.12 -0.12)">
       <use xlink:href="#DejaVuSans-30"/>
       <use x="63.623046875" xlink:href="#DejaVuSans-2e"/>
       <use x="95.41015625" xlink:href="#DejaVuSans-34"/>
       <use x="159.033203125" xlink:href="#DejaVuSans-35"/>
      </g>
     </g>
    </g>
    <g id="text_15">
     <!-- Cost -->
     <defs>
      <path d="
M18.3125 70.2188
L18.3125 54.6875
L36.8125 54.6875
L36.8125 47.7031
L18.3125 47.7031
L18.3125 18.0156
Q18.3125 11.3281 20.1406 9.42188
Q21.9688 7.51562 27.5938 7.51562
L36.8125 7.51562
L36.8125 0
L27.5938 0
Q17.1875 0 13.2344 3.875
Q9.28125 7.76562 9.28125 18.0156
L9.28125 47.7031
L2.6875 47.7031
L2.6875 54.6875
L9.28125 54.6875
L9.28125 70.2188
z
" id="DejaVuSans-74"/>
      <path d="
M64.4062 67.2812
L64.4062 56.8906
Q59.4219 61.5312 53.7812 63.8125
Q48.1406 66.1094 41.7969 66.1094
Q29.2969 66.1094 22.6562 58.4688
Q16.0156 50.8281 16.0156 36.375
Q16.0156 21.9688 22.6562 14.3281
Q29.2969 6.6875 41.7969 6.6875
Q48.1406 6.6875 53.7812 8.98438
Q59.4219 11.2812 64.4062 15.9219
L64.4062 5.60938
Q59.2344 2.09375 53.4375 0.328125
Q47.6562 -1.42188 41.2188 -1.42188
Q24.6562 -1.42188 15.125 8.70312
Q5.60938 18.8438 5.60938 36.375
Q5.60938 53.9531 15.125 64.0781
Q24.6562 74.2188 41.2188 74.2188
Q47.75 74.2188 53.5312 72.4844
Q59.3281 70.75 64.4062 67.2812" id="DejaVuSans-43"/>
      <path d="
M30.6094 48.3906
Q23.3906 48.3906 19.1875 42.75
Q14.9844 37.1094 14.9844 27.2969
Q14.9844 17.4844 19.1562 11.8438
Q23.3438 6.20312 30.6094 6.20312
Q37.7969 6.20312 41.9844 11.8594
Q46.1875 17.5312 46.1875 27.2969
Q46.1875 37.0156 41.9844 42.7031
Q37.7969 48.3906 30.6094 48.3906
M30.6094 56
Q42.3281 56 49.0156 48.375
Q55.7188 40.7656 55.7188 27.2969
Q55.7188 13.875 49.0156 6.21875
Q42.3281 -1.42188 30.6094 -1.42188
Q18.8438 -1.42188 12.1719 6.21875
Q5.51562 13.875 5.51562 27.2969
Q5.51562 40.7656 12.1719 48.375
Q18.8438 56 30.6094 56" id="DejaVuSans-6f"/>
     </defs>
     <g transform="translate(35.37375 228.85875)rotate(-90.0)scale(0.12 -0.12)">
      <use xlink:href="#DejaVuSans-43"/>
      <use x="69.82421875" xlink:href="#DejaVuSans-6f"/>
      <use x="131.005859375" xlink:href="#DejaVuSans-73"/>
      <use x="183.10546875" xlink:href="#DejaVuSans-74"/>
     </g>
    </g>
   </g>
   <g id="patch_3">
    <path d="
M72 388.8
L518.4 388.8" style="fill:none;stroke:#000000;"/>
   </g>
   <g id="patch_4">
    <path d="
M518.4 388.8
L518.4 43.2" style="fill:none;stroke:#000000;"/>
   </g>
   <g id="patch_5">
    <path d="
M72 388.8
L72 43.2" style="fill:none;stroke:#000000;"/>
   </g>
   <g id="patch_6">
    <path d="
M72 43.2
L518.4 43.2" style="fill:none;stroke:#000000;"/>
   </g>
   <g id="text_16">
    <!-- XOR Sigmoid -->
    <defs>
     <path d="
M45.4062 46.3906
L45.4062 75.9844
L54.3906 75.9844
L54.3906 0
L45.4062 0
L45.4062 8.20312
Q42.5781 3.32812 38.25 0.953125
Q33.9375 -1.42188 27.875 -1.42188
Q17.9688 -1.42188 11.7344 6.48438
Q5.51562 14.4062 5.51562 27.2969
Q5.51562 40.1875 11.7344 48.0938
Q17.9688 56 27.875 56
Q33.9375 56 38.25 53.625
Q42.5781 51.2656 45.4062 46.3906
M14.7969 27.2969
Q14.7969 17.3906 18.875 11.75
Q22.9531 6.10938 30.0781 6.10938
Q37.2031 6.10938 41.2969 11.75
Q45.4062 17.3906 45.4062 27.2969
Q45.4062 37.2031 41.2969 42.8438
Q37.2031 48.4844 30.0781 48.4844
Q22.9531 48.4844 18.875 42.8438
Q14.7969 37.2031 14.7969 27.2969" id="DejaVuSans-64"/>
     <path d="
M52 44.1875
Q55.375 50.25 60.0625 53.125
Q64.75 56 71.0938 56
Q79.6406 56 84.2812 50.0156
Q88.9219 44.0469 88.9219 33.0156
L88.9219 0
L79.8906 0
L79.8906 32.7188
Q79.8906 40.5781 77.0938 44.375
Q74.3125 48.1875 68.6094 48.1875
Q61.625 48.1875 57.5625 43.5469
Q53.5156 38.9219 53.5156 30.9062
L53.5156 0
L44.4844 0
L44.4844 32.7188
Q44.4844 40.625 41.7031 44.4062
Q38.9219 48.1875 33.1094 48.1875
Q26.2188 48.1875 22.1562 43.5312
Q18.1094 38.875 18.1094 30.9062
L18.1094 0
L9.07812 0
L9.07812 54.6875
L18.1094 54.6875
L18.1094 46.1875
Q21.1875 51.2188 25.4844 53.6094
Q29.7812 56 35.6875 56
Q41.6562 56 45.8281 52.9688
Q50 49.9531 52 44.1875" id="DejaVuSans-6d"/>
     <path id="DejaVuSans-20"/>
     <path d="
M6.29688 72.9062
L16.8906 72.9062
L35.0156 45.7969
L53.2188 72.9062
L63.8125 72.9062
L40.375 37.8906
L65.375 0
L54.7812 0
L34.2812 31
L13.625 0
L2.98438 0
L29 38.9219
z
" id="DejaVuSans-58"/>
     <path d="
M45.4062 27.9844
Q45.4062 37.75 41.375 43.1094
Q37.3594 48.4844 30.0781 48.4844
Q22.8594 48.4844 18.8281 43.1094
Q14.7969 37.75 14.7969 27.9844
Q14.7969 18.2656 18.8281 12.8906
Q22.8594 7.51562 30.0781 7.51562
Q37.3594 7.51562 41.375 12.8906
Q45.4062 18.2656 45.4062 27.9844
M54.3906 6.78125
Q54.3906 -7.17188 48.1875 -13.9844
Q42 -20.7969 29.2031 -20.7969
Q24.4688 -20.7969 20.2656 -20.0938
Q16.0625 -19.3906 12.1094 -17.9219
L12.1094 -9.1875
Q16.0625 -11.3281 19.9219 -12.3438
Q23.7812 -13.375 27.7812 -13.375
Q36.625 -13.375 41.0156 -8.76562
Q45.4062 -4.15625 45.4062 5.17188
L45.4062 9.625
Q42.625 4.78125 38.2812 2.39062
Q33.9375 0 27.875 0
Q17.8281 0 11.6719 7.65625
Q5.51562 15.3281 5.51562 27.9844
Q5.51562 40.6719 11.6719 48.3281
Q17.8281 56 27.875 56
Q33.9375 56 38.2812 53.6094
Q42.625 51.2188 45.4062 46.3906
L45.4062 54.6875
L54.3906 54.6875
z
" id="DejaVuSans-67"/>
     <path d="
M39.4062 66.2188
Q28.6562 66.2188 22.3281 58.2031
Q16.0156 50.2031 16.0156 36.375
Q16.0156 22.6094 22.3281 14.5938
Q28.6562 6.59375 39.4062 6.59375
Q50.1406 6.59375 56.4219 14.5938
Q62.7031 22.6094 62.7031 36.375
Q62.7031 50.2031 56.4219 58.2031
Q50.1406 66.2188 39.4062 66.2188
M39.4062 74.2188
Q54.7344 74.2188 63.9062 63.9375
Q73.0938 53.6562 73.0938 36.375
Q73.0938 19.1406 63.9062 8.85938
Q54.7344 -1.42188 39.4062 -1.42188
Q24.0312 -1.42188 14.8125 8.82812
Q5.60938 19.0938 5.60938 36.375
Q5.60938 53.6562 14.8125 63.9375
Q24.0312 74.2188 39.4062 74.2188" id="DejaVuSans-4f"/>
     <path d="
M9.42188 54.6875
L18.4062 54.6875
L18.4062 0
L9.42188 0
z

M9.42188 75.9844
L18.4062 75.9844
L18.4062 64.5938
L9.42188 64.5938
z
" id="DejaVuSans-69"/>
     <path d="
M53.5156 70.5156
L53.5156 60.8906
Q47.9062 63.5781 42.9219 64.8906
Q37.9375 66.2188 33.2969 66.2188
Q25.25 66.2188 20.875 63.0938
Q16.5 59.9688 16.5 54.2031
Q16.5 49.3594 19.4062 46.8906
Q22.3125 44.4375 30.4219 42.9219
L36.375 41.7031
Q47.4062 39.5938 52.6562 34.2969
Q57.9062 29 57.9062 20.125
Q57.9062 9.51562 50.7969 4.04688
Q43.7031 -1.42188 29.9844 -1.42188
Q24.8125 -1.42188 18.9688 -0.25
Q13.1406 0.921875 6.89062 3.21875
L6.89062 13.375
Q12.8906 10.0156 18.6562 8.29688
Q24.4219 6.59375 29.9844 6.59375
Q38.4219 6.59375 43.0156 9.90625
Q47.6094 13.2344 47.6094 19.3906
Q47.6094 24.75 44.3125 27.7812
Q41.0156 30.8125 33.5 32.3281
L27.4844 33.5
Q16.4531 35.6875 11.5156 40.375
Q6.59375 45.0625 6.59375 53.4219
Q6.59375 63.0938 13.4062 68.6562
Q20.2188 74.2188 32.1719 74.2188
Q37.3125 74.2188 42.625 73.2812
Q47.9531 72.3594 53.5156 70.5156" id="DejaVuSans-53"/>
    </defs>
    <g transform="translate(249.291 38.2)scale(0.144 -0.144)">
     <use xlink:href="#DejaVuSans-58"/>
     <use x="62.130859375" xlink:href="#DejaVuSans-4f"/>
     <use x="140.841796875" xlink:href="#DejaVuSans-52"/>
     <use x="210.32421875" xlink:href="#DejaVuSans-20"/>
     <use x="242.111328125" xlink:href="#DejaVuSans-53"/>
     <use x="305.587890625" xlink:href="#DejaVuSans-69"/>
     <use x="333.37109375" xlink:href="#DejaVuSans-67"/>
     <use x="396.84765625" xlink:href="#DejaVuSans-6d"/>
     <use x="494.259765625" xlink:href="#DejaVuSans-6f"/>
     <use x="555.44140625" xlink:href="#DejaVuSans-69"/>
     <use x="583.224609375" xlink:href="#DejaVuSans-64"/>
    </g>
   </g>
  </g>
 </g>
 <defs>
  <clipPath id="p7ff5b81e1d">
   <rect height="345.6" width="446.4" x="72.0" y="43.2"/>
  </clipPath>
 </defs>
</svg>
